<?xml version="1.0" standalone="no"?>
<!DOCTYPE svg PUBLIC "-//W3C//DTD SVG 1.1//EN" "http://www.w3.org/Graphics/SVG/1.1/DTD/svg11.dtd" >
<svg xmlns="http://www.w3.org/2000/svg" xmlns:xlink="http://www.w3.org/1999/xlink" version="1.1">
<metadata>
Created by FontForge 20170731 at Tue Mar 19 18:39:57 2019
 By Aleksey,,,
Copyright 2017 The Playfair Display Project Authors (https://github.com/clauseggers/Playfair-Display), with Reserved Font Name "Playfair Display".
</metadata>
<defs>
<font id="PlayfairDisplay-MediumItalic" horiz-adv-x="0" >
  <font-face 
    font-family="Playfair Display Medium"
    font-weight="500"
    font-style="italic"
    font-stretch="normal"
    units-per-em="1000"
    panose-1="0 0 0 0 0 0 0 0 0 0"
    ascent="800"
    descent="-200"
    x-height="522"
    cap-height="708"
    bbox="-371 -241 1123.06 1161"
    underline-thickness="20"
    underline-position="-130"
    slope="-14"
    unicode-range="U+000D-FB02"
  />
<missing-glyph horiz-adv-x="562" 
d="M60 772h442v-772h-442v772zM96 30h370v712h-370v-712z" />
    <glyph glyph-name="IJ" unicode="IJ" horiz-adv-x="814" 
d="M797 366l-2 -10l-2 -10h-343l2 10l2 10h343zM306 506q38 0 72.5 10t64.5 28l8 -15q-34 -21 -74 -32t-81 -11q-42 0 -86 10.5t-74.5 37.5t-30.5 75q0 56 42.5 93t111.5 37q62 0 109.5 -15.5t90.5 -37t90 -37t107 -15.5q50 0 92.5 11.5t90.5 31.5q20 32 39.5 49t34.5 4
q13 -10 0.5 -27t-65.5 -37q-67 -57 -102.5 -137t-62.5 -196l-61 -268q-15 -67 -46.5 -124.5t-81.5 -93t-121 -35.5q-49 0 -82 14.5t-35 47.5q0 25 16.5 44.5t47.5 19.5q22 0 38 -12.5t17 -33.5q2 -20 -11 -35t-32 -24q7 -2 15 -3.5t17 -1.5q38 0 62.5 23.5t40 64.5
t27.5 93.5t26 110.5l39 168q17 76 43 129.5t60 94t76 75.5t89 73q-30 -12 -57.5 -24.5t-54.5 -22.5t-55 -16t-58 -6q-52 0 -95 8t-83 19t-83 19t-95 8q-40 0 -64.5 -15t-24.5 -46q0 -29 23 -46.5t57.5 -24.5t68.5 -7zM254 502h115l-117 -396q-14 -50 -4.5 -67.5t63.5 -18.5
l-4 -20q-25 2 -62.5 2.5t-76.5 0.5q-42 0 -77.5 -0.5t-59.5 -2.5l5 20q33 2 51 8t29 24t21 54z" />
    <glyph glyph-name="ij" unicode="ij" horiz-adv-x="629" 
d="M262 91q22 50 31.5 109t20 118.5t32.5 110.5q25 58 66 79t85 21q45 0 64.5 -20t20.5 -51.5t-9 -68.5l-77 -274q-20 -73 -46 -130t-59.5 -95t-74.5 -57q-23 -12 -46.5 -16.5t-40.5 -4.5q-32 0 -47.5 12t-15.5 34q0 24 19 44.5t46 20.5q20 0 30.5 -11t10.5 -28
q0 -14 -9 -30t-22 -27q38 5 60.5 28.5t38.5 79.5l139 495q9 29 0.5 43.5t-30.5 14.5q-27 0 -49.5 -17t-42.5 -68q-17 -45 -26 -101.5t-20 -116t-35 -112.5q-25 -53 -64 -70t-78 -17q-66 0 -87 41t1 105l104 298q11 32 7 45t-20 13q-22 0 -39 -22.5t-35 -71.5l-16 -42h-19
l26 74q23 62 58.5 82.5t70.5 20.5q43 0 59 -20.5t14.5 -52.5t-14.5 -67l-106 -304q-9 -26 1 -43t38 -17q22 0 45 13.5t40 52.5zM198 682q0 31 23.5 56.5t59.5 25.5q27 0 43 -15t16 -39q0 -31 -24.5 -56.5t-60.5 -25.5q-26 0 -41.5 15t-15.5 39zM526 682q0 31 24 56.5
t60 25.5q27 0 43 -15t16 -39q0 -31 -24.5 -56.5t-60.5 -25.5q-26 0 -42 15t-16 39z" />
    <glyph glyph-name="fi" unicode="fi" horiz-adv-x="587" 
d="M63 495l6 20h424l-10 -20h-420zM590 731q-20 19 -42.5 27.5t-60.5 8.5q-35 0 -62.5 -9.5t-47.5 -22.5q-41 -26 -63 -76.5t-44 -128.5l-197 -704q-30 -1 -57 -4t-52 -10l194 688q20 77 47 129.5t69 85.5q46 36 102.5 51.5t115.5 15.5q32 0 63.5 -8.5t47.5 -31.5zM473 692
q4 32 28 51.5t55 19.5q29 0 45 -18.5t12 -44.5q-4 -31 -28 -51.5t-55 -20.5q-29 0 -45.5 18.5t-11.5 45.5zM417 85q-9 -29 -5.5 -43.5t20.5 -14.5q18 0 35 19.5t38 74.5l15 41h19l-26 -73q-14 -39 -35 -61.5t-45 -32t-48 -9.5q-43 0 -60 20t-14.5 53.5t15.5 72.5l115 383
q31 1 58.5 4t50.5 10z" />
    <glyph glyph-name="fl" unicode="fl" horiz-adv-x="596" 
d="M427 85q-8 -28 -4.5 -43t20.5 -15t34 20t37 74l14 41h19l-25 -73q-13 -39 -33 -61.5t-43 -32t-48 -9.5q-43 0 -60 21t-15.5 54.5t12.5 70.5l161 535q10 34 -1 52.5t-60 18.5l5 16q60 1 106.5 11.5t89.5 29.5zM64 495l6 20h303l-6 -20h-303zM427 738q-21 0 -40.5 -8
t-31.5 -16q-32 -18 -49.5 -61.5t-35.5 -109.5l-197 -717q-30 -1 -56.5 -4t-51.5 -10l189 688q19 70 42 117.5t58 76.5q35 30 80.5 45t92.5 15h59l-1 -16h-58z" />
    <glyph glyph-name="f_f" unicode="ff" horiz-adv-x="627" 
d="M62 495l6 20h309l-6 -20h-309zM80 -174q-30 -1 -57 -4t-51 -10l183 681q16 59 42.5 108.5t58.5 76.5q40 34 84.5 49t93.5 15q52 0 83.5 -19.5t47.5 -41.5l-12 -17q-15 26 -42.5 41.5t-66.5 15.5q-51 0 -84.5 -25t-54.5 -70t-37 -104zM362 495l6 20h307l-6 -20h-307z
M698 766q-18 0 -31.5 -7t-24.5 -17q-24 -22 -40 -77.5t-34 -123.5l-192 -715q-30 -1 -57 -4t-51 -10l187 701q22 81 47 134.5t61 85.5q24 23 58.5 36t71.5 13q51 0 79 -22.5t28 -56.5q0 -27 -21 -51t-54 -24q-23 0 -36 10.5t-12 29.5q0 28 17.5 48.5t45.5 29.5
q-1 7 -12.5 13.5t-29.5 6.5z" />
    <glyph glyph-name="f_f_i" unicode="ffi" horiz-adv-x="881" 
d="M63 495l6 20h309l-6 -20h-309zM77 -174q-30 -1 -57 -4t-52 -10l188 681q16 59 42 108.5t59 76.5q39 34 83.5 49t91.5 15q55 0 88 -20t50 -43l-12 -17q-16 26 -45 42.5t-68 16.5q-24 0 -45 -6t-37 -17q-34 -23 -55 -64.5t-40 -111.5zM357 495l6 20h424l-9 -20h-421z
M884 731q-19 19 -42 27.5t-61 8.5q-35 0 -62.5 -9.5t-47.5 -22.5q-40 -26 -62.5 -76.5t-44.5 -128.5l-197 -704q-30 -1 -57 -4t-51 -10l193 688q20 77 47 129.5t69 85.5q47 36 103 51.5t116 15.5q31 0 62.5 -8.5t47.5 -31.5zM767 692q4 32 28 51.5t55 19.5q29 0 45.5 -18.5
t12.5 -44.5q-4 -31 -28.5 -51.5t-55.5 -20.5q-29 0 -45.5 18.5t-11.5 45.5zM711 85q-9 -29 -5.5 -43.5t20.5 -14.5q18 0 35 19.5t38 74.5l15 41h19l-25 -73q-14 -39 -35.5 -61.5t-45.5 -32t-47 -9.5q-43 0 -60 20t-15 53.5t16 72.5l115 383q30 1 58 4t51 10z" />
    <glyph glyph-name="f_f_l" unicode="ffl" horiz-adv-x="894" 
d="M63 495l6 20h309l-6 -20h-309zM77 -174q-30 -1 -57 -4t-52 -10l188 681q16 59 42 108.5t59 76.5q39 34 83.5 49t91.5 15q55 0 88 -20t50 -43l-12 -17q-16 26 -45 42.5t-68 16.5q-25 0 -46 -6t-38 -18q-33 -23 -53.5 -64.5t-39.5 -110.5zM725 85q-8 -28 -4 -43t21 -15
t34 20t36 74l14 41h19l-25 -73q-13 -39 -32.5 -61.5t-42.5 -32t-49 -9.5q-43 0 -60 21t-15 54.5t12 70.5l161 535q10 34 -1 52.5t-60 18.5l5 16q61 1 107 11.5t89 29.5zM362 495l6 20h303l-6 -20h-303zM725 738q-20 0 -40 -8t-32 -16q-32 -18 -49.5 -61.5t-34.5 -109.5
l-197 -717q-30 -1 -57 -4t-52 -10l190 688q18 70 41 117.5t58 76.5q35 30 80.5 45t92.5 15h59l-1 -16h-58z" />
    <glyph glyph-name="T_h.liga" unicode="Th" horiz-adv-x="1159" 
d="M731 147q38 108 72 181.5t68.5 117.5t70.5 63.5t77 19.5q44 0 62.5 -20.5t18.5 -55t-13 -75.5l-98 -293q-7 -20 -6.5 -39t22.5 -19q17 0 34.5 19t37.5 75l14 41h19l-25 -73q-22 -63 -57 -83t-68 -20q-61 0 -72 40t11 106l93 281q6 18 9 36t-2.5 30t-25.5 12
q-38 0 -85.5 -59t-94 -165.5t-84.5 -249.5zM815 776q31 2 58.5 6.5t51.5 12.5l-221 -795h-10.5h-26h-31h-26.5h-11zM412 690l11 -1t28 -3t33.5 -4.5t27.5 -3.5l11 -1l-149 -561q-15 -57 -1 -75.5t76 -20.5l-4 -20q-28 2 -71 2.5t-90 0.5q-46 0 -88 -0.5t-68 -2.5l4 20
q42 2 65.5 10.5t37 29t24.5 56.5zM826 692q-36 -22 -76.5 -30t-94.5 -8q-62 0 -125 9.5t-124 19t-118 9.5q-32 0 -64 -3t-49 -14q14 -9 23.5 -27.5t9.5 -38.5q0 -24 -15.5 -45t-44.5 -21q-26 0 -39.5 17t-13.5 42q0 22 12 45.5t45 39.5q23 11 49.5 16t49.5 6t35 1
q69 0 130.5 -9t121.5 -18t124 -9q53 0 88 7.5t71 28.5z" />
    <glyph glyph-name="f_b.liga" unicode="fb" horiz-adv-x="841" 
d="M64 495l6 20h303l-6 -20h-303zM437 738q-49 0 -88.5 -30.5t-63.5 -114.5l-212 -767q-30 -1 -56.5 -4t-51.5 -10l195 709q22 73 57.5 125.5t90 80t132.5 27.5zM657 490q-24 0 -53.5 -33t-59.5 -89t-56.5 -127t-44.5 -147l17 106q60 178 115.5 253.5t119.5 75.5
q52 0 81.5 -36.5t29.5 -108.5q0 -46 -13 -99.5t-38 -106t-61 -96.5t-83 -70t-104 -26q-30 0 -53 16t-32 45l7 19q13 -30 29.5 -42.5t38.5 -12.5q33 0 63 26t55.5 69.5t44.5 96.5t29.5 106.5t10.5 99.5q0 42 -11.5 61.5t-31.5 19.5zM433 51q-27 -13 -55 -30.5t-56 -36.5
l-15 7q7 14 12 28.5t8 29.5l167 618q8 34 -3 52.5t-57 18.5l6 16q59 1 104.5 11.5t86.5 29.5z" />
    <glyph glyph-name="f_f_b.liga" unicode="ffb" horiz-adv-x="1141" 
d="M63 495l6 20h309l-6 -20h-309zM77 -174q-30 -1 -57 -4t-52 -10l188 681q16 59 42 108.5t59 76.5q37 34 82.5 49t92.5 15q48 0 85 -18t57 -40l-12 -15q-18 23 -48 37.5t-69 14.5q-52 0 -85 -25t-54 -69.5t-38 -104.5zM364 495l6 20h303l-6 -20h-303zM738 738
q-49 0 -88.5 -30.5t-64.5 -114.5l-211 -767q-30 -1 -57 -4t-51 -10l195 709q21 73 57 125.5t90.5 80t132.5 27.5zM958 490q-24 0 -53.5 -33t-59.5 -89t-57 -127t-45 -147l18 106q60 178 115.5 253.5t119.5 75.5q51 0 80.5 -36.5t29.5 -108.5q0 -46 -12.5 -99.5t-37.5 -106
t-61.5 -96.5t-83 -70t-104.5 -26q-29 0 -52.5 16t-32.5 45l8 19q13 -30 29.5 -42.5t38.5 -12.5q32 0 62 26t55.5 69.5t45 96.5t29.5 106.5t10 99.5q0 42 -11 61.5t-31 19.5zM734 51q-27 -13 -55.5 -30.5t-55.5 -36.5l-15 7q7 14 11.5 28.5t8.5 29.5l166 618q8 34 -2.5 52.5
t-56.5 18.5l5 16q59 1 105 11.5t86 29.5z" />
    <glyph glyph-name="f_f_h.liga" unicode="ffh" horiz-adv-x="1163" 
d="M63 495l6 20h309l-6 -20h-309zM77 -174q-30 -1 -57 -4t-52 -10l188 681q16 59 42 108.5t59 76.5q38 35 83 49.5t92 14.5q55 0 88 -20t50 -43l-12 -17q-16 26 -45 42.5t-68 16.5q-52 0 -85 -24.5t-53.5 -69t-38.5 -105.5zM360 495l6 20h302l-6 -20h-302zM736 147
q38 108 72 181.5t68 117.5t70.5 63.5t76.5 19.5q46 0 64.5 -22t17.5 -56.5t-13 -72.5l-98 -293q-8 -26 -6 -42t21 -16q17 0 35 19t38 75l14 41h19l-25 -73q-22 -63 -57 -83t-68 -20q-62 0 -72.5 40t10.5 106l94 281q5 16 8.5 34t-1.5 31t-26 13q-29 0 -63.5 -36.5
t-70.5 -101t-69.5 -150.5t-61.5 -186zM709 0h-105l188 667q10 34 -2 52.5t-58 18.5l4 16q59 1 107.5 11.5t88.5 29.5zM733 738q-49 0 -89 -30.5t-63 -114.5l-212 -767q-30 -1 -57 -4t-51 -10l195 709q30 111 96.5 172t183.5 61z" />
    <glyph glyph-name="f_f_j.liga" unicode="ffj" horiz-adv-x="875" 
d="M63 495l6 20h309l-6 -20h-309zM77 -174q-30 -1 -57 -4t-52 -10l188 681q16 59 42.5 108.5t58.5 76.5q37 35 82.5 49.5t92.5 14.5q55 0 88 -20t50 -43l-12 -17q-16 26 -45 42.5t-68 16.5q-52 0 -85 -24.5t-53.5 -69t-38.5 -105.5zM753 115q-21 -73 -46.5 -130t-59 -95
t-74.5 -57q-23 -12 -47 -16.5t-40 -4.5q-32 0 -47.5 12t-15.5 34q0 24 19 44.5t46 20.5q19 0 30 -11t11 -28q0 -14 -9 -30t-22 -27q38 5 60.5 28.5t38.5 79.5l163 580q30 1 58 4t51 10zM359 495l6 20h424l-9 -20h-421zM872 740q-12 11 -34.5 18.5t-52.5 7.5
q-64 0 -105.5 -29.5t-67 -82.5t-45.5 -124l-148 -530h-104l139 500q21 77 50.5 129t69.5 86q45 36 102 51t115 15q35 0 59.5 -8t35.5 -18zM771 692q4 32 28.5 51.5t54.5 19.5t46 -18.5t12 -44.5q-4 -31 -28.5 -51.5t-55.5 -20.5q-29 0 -45.5 18.5t-11.5 45.5z" />
    <glyph glyph-name="f_f_k.liga" unicode="ffk" horiz-adv-x="1144" 
d="M63 495l6 20h309l-6 -20h-309zM77 -174q-30 -1 -57 -4t-52 -10l188 681q16 59 42 108.5t59 76.5q38 35 83 49.5t92 14.5q55 0 88 -20t50 -43l-12 -17q-16 26 -45 42.5t-68 16.5q-52 0 -85 -24.5t-53.5 -69t-38.5 -105.5zM360 495l6 20h302l-6 -20h-302zM733 738
q-49 0 -89 -30.5t-63 -114.5l-212 -767q-30 -1 -57 -4t-51 -10l195 709q30 111 96.5 172t183.5 61zM709 0h-10.5h-26h-31h-26.5h-11l188 667q10 34 -1.5 52.5t-57.5 18.5l3 16q40 1 74 5.5t64 13.5t58 22zM971 68q-4 -22 0 -31.5t19 -9.5q18 0 34.5 20t35.5 74l13 41h19
l-24 -73q-13 -40 -33 -62.5t-44.5 -31.5t-49.5 -9q-38 0 -58.5 25t-8.5 77l18 83q12 56 -10.5 82.5t-99.5 32.5v4q40 3 80.5 0t72.5 -17t48 -41.5t7 -71.5zM1046 508q-13 0 -22 -4t-17 -10q-19 -15 -31.5 -40.5t-24.5 -54.5t-30.5 -55t-48.5 -42t-78 -15l-10 -1l2 11
q47 3 75.5 20t45.5 42t28 53t23.5 53t33.5 41q17 14 32.5 18.5t28.5 4.5q39 0 55 -21t15 -49q-1 -24 -17.5 -47.5t-49.5 -23.5q-25 0 -36.5 14.5t-10.5 33.5t13.5 38t29.5 32q-1 1 -2.5 1.5t-3.5 0.5z" />
    <glyph glyph-name="f_h.liga" unicode="fh" horiz-adv-x="868" 
d="M64 495l6 20h303l-6 -20h-303zM440 147q38 108 72 181.5t68 117.5t70.5 63.5t77.5 19.5q45 0 63.5 -22t17.5 -56.5t-13 -72.5l-98 -293q-8 -26 -6 -42t22 -16q17 0 34.5 19t37.5 75l14 41h19l-25 -73q-22 -63 -57 -83t-68 -20q-62 0 -72.5 40t11.5 106l93 281
q5 16 8.5 34t-1.5 31t-26 13q-29 0 -63.5 -36.5t-70.5 -101t-69.5 -150.5t-60.5 -186zM413 0h-105l188 667q10 34 -1.5 52.5t-57.5 18.5l3 16q59 1 107.5 11.5t88.5 29.5zM437 738q-49 0 -89 -30.5t-63 -114.5l-212 -767q-30 -1 -56.5 -4t-51.5 -10l195 709q30 111 96.5 172
t183.5 61z" />
    <glyph glyph-name="f_idieresis.liga" unicode="f&#xef;" horiz-adv-x="579" 
d="M64 495l6 20h423l-9 -20h-420zM462 717q-10 16 -29 25t-39 9q-23 0 -41.5 -10t-31.5 -25q-15 -16 -23 -38.5t-13 -49.5t-10 -56.5t-13 -58.5l-189 -687q-30 -1 -56.5 -4t-51.5 -10l189 688q17 65 38.5 120.5t62.5 92.5q27 26 61 39t75 13q34 0 56 -10t35 -25zM410 85
q-9 -28 -5.5 -43t19.5 -15q19 0 36.5 21t36.5 73l14 41h19l-25 -73q-14 -42 -35.5 -64t-45 -30.5t-45.5 -8.5q-53 0 -62 41t10 105l115 383q31 1 58.5 4t50.5 10zM366 677q0 29 22 50.5t51 21.5q25 0 40 -16t15 -40q0 -30 -22 -51t-51 -21q-26 0 -40.5 16t-14.5 40zM583 677
q0 29 22 50.5t51 21.5q25 0 40 -16t15 -40q0 -30 -22 -51t-51 -21q-26 0 -40.5 16t-14.5 40z" />
    <glyph glyph-name="f_igrave.liga" unicode="f&#xec;" horiz-adv-x="579" 
d="M64 495l6 20h423l-9 -20h-420zM473 653q-27 33 -47 48.5t-51 15.5t-49.5 -24t-30.5 -65t-27 -93l-195 -709q-30 -1 -56.5 -4t-51.5 -10l189 688q22 76 47.5 129t63 81t91.5 28q40 0 66 -17.5t54 -51.5zM410 85q-9 -30 -5.5 -44t19.5 -14q19 0 36.5 21t36.5 73l14 41h19
l-25 -73q-14 -42 -35.5 -64t-45 -30.5t-45.5 -8.5q-54 0 -62.5 42t10.5 104l115 383q31 1 58.5 4t50.5 10zM515 599q-36 49 -64 80.5l-48 54t-34 44.5q-13 23 -9 40.5t18 25.5q16 8 34.5 1.5t31.5 -28.5t22.5 -50t23 -67t37.5 -95z" />
    <glyph glyph-name="f_j.liga" unicode="fj" horiz-adv-x="579" 
d="M456 115q-20 -73 -46 -130t-59 -95t-75 -57q-22 -12 -46 -16.5t-41 -4.5q-31 0 -47 12t-16 34q0 24 19.5 44.5t45.5 20.5q20 0 31 -11t11 -28q0 -14 -9 -30t-23 -27q38 5 60.5 28.5t38.5 79.5l163 580q31 1 58.5 4t50.5 10zM63 495l6 20h424l-10 -20h-420zM576 740
q-12 11 -35 18.5t-52 7.5q-64 0 -105.5 -29.5t-67.5 -82.5t-46 -124l-147 -530h-104l139 500q20 77 49.5 129t70.5 86q44 36 101.5 51t114.5 15q36 0 60 -8t36 -18zM475 692q4 32 28 51.5t55 19.5q29 0 45 -18.5t12 -44.5q-4 -31 -28 -51.5t-55 -20.5q-29 0 -45.5 18.5
t-11.5 45.5z" />
    <glyph glyph-name="f_k.liga" unicode="fk" horiz-adv-x="848" 
d="M64 495l6 20h303l-6 -20h-303zM437 738q-49 0 -89 -30.5t-63 -114.5l-212 -767q-30 -1 -56.5 -4t-51.5 -10l195 709q30 111 96.5 172t183.5 61zM413 0h-10.5h-26h-31h-26.5h-11l188 667q10 34 -1.5 52.5t-57.5 18.5l3 16q41 1 75 5.5t64 13.5t57 22zM676 68
q-5 -22 -1 -31.5t19 -9.5q18 0 34.5 20t35.5 74l14 41h19l-25 -73q-13 -40 -33 -62.5t-44.5 -31.5t-49.5 -9q-38 0 -58 25t-9 77l18 83q12 56 -10.5 82.5t-99.5 32.5v4q40 3 80.5 0t72.5 -17t48 -41.5t7 -71.5zM750 508q-13 0 -22 -4t-17 -10q-19 -15 -31 -40.5t-24.5 -54.5
t-31 -55t-48.5 -42t-78 -15l-10 -1l2 11q47 3 75.5 20t45.5 42t28.5 53t23.5 53t33 41q17 14 32.5 18.5t28.5 4.5q39 0 55.5 -21t14.5 -49q-1 -24 -17.5 -47.5t-49.5 -23.5q-25 0 -36.5 14.5t-10.5 33.5t13.5 38t29.5 32q-1 1 -2.5 1.5t-3.5 0.5z" />
    <glyph glyph-name=".notdef" horiz-adv-x="562" 
d="M60 772h442v-772h-442v772zM96 30h370v712h-370v-712z" />
    <glyph glyph-name=".null" 
 />
    <glyph glyph-name="nonmarkingreturn" horiz-adv-x="333" 
 />
    <glyph glyph-name="CR" unicode="&#xd;" 
 />
    <glyph glyph-name="space" unicode=" " horiz-adv-x="254" 
 />
    <glyph glyph-name="exclam" unicode="!" horiz-adv-x="280" 
d="M102 199q26 97 40.5 190.5t25 175t22.5 139.5q2 15 6.5 29t12.5 25t19 17.5t26 6.5q33 0 45 -19.5t6 -48.5q-9 -42 -31 -98.5t-49.5 -124t-55.5 -142t-49 -153.5zM13 40q0 33 24.5 58t56.5 25q26 0 41.5 -15.5t15.5 -39.5q0 -32 -25 -57t-58 -25q-25 0 -40 15t-15 39z
" />
    <glyph glyph-name="quotedbl" unicode="&#x22;" horiz-adv-x="328" 
d="M247 692q0 -24 -13.5 -49.5t-33.5 -57.5t-40 -77h-14q4 47 4 76t0.5 49.5t4.5 41.5q4 27 19.5 41t34.5 14q20 0 29 -10.5t9 -27.5zM374 692q0 -24 -13.5 -49.5t-33.5 -57.5t-40 -77h-14q4 47 4 76t0.5 49.5t4.5 41.5q4 27 19.5 41t34.5 14q20 0 29 -10.5t9 -27.5z" />
    <glyph glyph-name="numbersign" unicode="#" horiz-adv-x="634" 
d="M631 454l-8 -20h-501l8 20h501zM545 267l-10 -20h-500l9 20h501zM325 101h-24l232 501h24zM138 101h-24l232 501h24z" />
    <glyph glyph-name="dollar" unicode="$" horiz-adv-x="571" 
d="M391 840l-270 -972h-22l270 972h22zM491 840l-270 -972h-22l270 972h22zM365 702q-57 0 -95.5 -29t-38.5 -91q0 -43 26.5 -80.5t65 -73t78 -72.5t65.5 -78t26 -91q0 -55 -24.5 -93t-63.5 -62t-85.5 -35t-90.5 -11q-69 0 -106.5 18.5t-63.5 37.5q-23 17 -39.5 45t-16.5 64
q0 34 17.5 60.5t47.5 26.5t44 -21.5t14 -50.5q0 -35 -13.5 -63.5t-27.5 -49.5q23 -21 59 -33.5t83 -12.5q69 0 107 29.5t38 89.5q0 47 -24 84.5t-59.5 70.5t-71 68.5t-60 77t-24.5 94.5q0 52 20 90t53.5 62.5t74 36.5t81.5 12q68 0 105.5 -18.5t63.5 -37.5q21 -14 39 -43
t18 -66q0 -34 -17.5 -60.5t-48.5 -26.5q-29 0 -43.5 21.5t-14.5 50.5q0 35 14.5 63.5t27.5 49.5q-23 21 -59 34t-81 13z" />
    <glyph glyph-name="percent" unicode="%" horiz-adv-x="776" 
d="M317 744q-31 0 -54.5 -25t-39.5 -62.5t-24 -75.5t-8 -66q0 -66 46 -66q31 0 54.5 24.5t39.5 62t24 76.5t8 67q0 65 -46 65zM112 540q0 52 27.5 102.5t76 84.5t109.5 34q56 0 86.5 -28t30.5 -80q0 -51 -27.5 -102t-75 -85t-109.5 -34q-55 0 -86.5 28t-31.5 80zM580 298
q-31 0 -54.5 -24.5t-39.5 -62t-24 -76t-8 -66.5q0 -66 46 -66q30 0 54 25t40 62.5t24 76t8 66.5q0 65 -46 65zM375 94q0 52 27.5 102.5t76 84.5t109.5 34q55 0 86 -28t31 -80q0 -51 -27.5 -102t-75 -85t-109.5 -34q-55 0 -86.5 28t-31.5 80zM829 824l15 -13l-833 -866
l-15 13z" />
    <glyph glyph-name="ampersand" unicode="&#x26;" horiz-adv-x="832" 
d="M548 213q-12 -23 -40.5 -45.5t-80.5 -22.5q-27 0 -52.5 9.5t-42.5 32t-17 61.5q0 62 45 101.5t124 67.5q28 10 74.5 25.5t97 34t89.5 35.5q29 13 53.5 28t40 35t15.5 47q0 37 -28.5 61t-70.5 24q-24 0 -31 -8q28 -14 28 -45q0 -27 -22.5 -44.5t-51.5 -17.5
q-23 0 -38.5 13t-15.5 36q0 24 16 41t38 26q18 8 38 11t38 3q56 0 92.5 -28t36.5 -92q0 -60 -35.5 -101.5t-109.5 -74.5q-36 -16 -88.5 -35l-105 -38t-92.5 -34q-22 -8 -45.5 -20t-39.5 -30t-16 -44q0 -31 24.5 -47t55.5 -16t52 11.5t34 25.5t17 23zM432 562q26 0 43 14
t17 39q0 31 -25.5 48.5t-63.5 17.5q-39 0 -71 -19t-50 -52t-18 -76q0 -17 4 -35.5t14 -36.5q18 3 36 4.5t27 1.5q36 0 36 -21q0 -11 -10 -16t-21 -5q-19 0 -38.5 8.5t-30.5 13.5q-63 -20 -103 -75.5t-40 -124.5q0 -61 31 -101.5t86 -61.5t126 -21q75 0 136.5 22t98.5 64
t37 100q0 37 -18 75t-62 62l14 8q42 -28 64.5 -67.5t22.5 -89.5q0 -48 -22.5 -93.5t-66 -81t-107 -56.5t-147.5 -21q-89 0 -155.5 25.5t-103.5 73t-37 115.5q0 61 30 113t82.5 89t120.5 54q-38 18 -57 47.5t-19 61.5q0 45 30.5 75.5t75.5 46t91 15.5q58 0 91 -23.5t33 -61.5
q0 -37 -27 -55t-55 -18z" />
    <glyph glyph-name="quotesingle" unicode="'" horiz-adv-x="201" 
d="M247 692q0 -24 -13.5 -49.5t-33.5 -57.5t-40 -77h-14q4 47 4 76t0.5 49.5t4.5 41.5q4 27 19.5 41t34.5 14q20 0 29 -10.5t9 -27.5z" />
    <glyph glyph-name="parenleft" unicode="(" horiz-adv-x="373" 
d="M218 -182q-54 57 -95 117t-63.5 130t-22.5 158q0 84 33.5 165.5t94 157.5t141.5 142t176 118l10 -13q-107 -74 -188 -161t-125.5 -192.5t-44.5 -234.5q0 -107 25 -200t77 -174z" />
    <glyph glyph-name="parenright" unicode=")" horiz-adv-x="373" 
d="M164 806q54 -57 95 -117t63.5 -130t22.5 -158q0 -84 -33.5 -165.5t-94 -157.5t-141.5 -142t-176 -118l-10 13q107 74 188 161t125.5 192.5t44.5 234.5q0 107 -25 200t-77 174z" />
    <glyph glyph-name="asterisk" unicode="*" horiz-adv-x="491" 
d="M305 518q27 56 46.5 92.5t24.5 64.5q7 30 -2.5 42t-25.5 12q-14 0 -30 -12t-23 -42q-5 -28 -1 -66t8 -91h3zM304 519q-32 41 -51 69.5t-42 42.5q-22 15 -40 10t-27 -17q-11 -13 -11 -30.5t23 -32.5q20 -14 57.5 -22t87.5 -23zM303 519q-59 -15 -98 -23t-68 -22
q-28 -15 -36.5 -32t-3.5 -29q5 -13 20.5 -18.5t46.5 9.5q26 14 59 44t80 68v3zM303 518q-29 -56 -48.5 -92t-24.5 -65q-7 -31 2.5 -42.5t24.5 -11.5t31.5 12t23.5 42q4 28 0.5 66t-6.5 91h-3zM462 412q11 13 11 30.5t-23 32.5q-20 14 -58 22t-87 23l-4 -3q33 -41 52.5 -69.5
t41.5 -42.5q22 -15 39.5 -10t27.5 17zM509 623q-4 13 -20 18.5t-47 -9.5q-26 -14 -59 -43.5t-80 -68.5l-1 -3q60 16 99 23.5t68 21.5q29 15 37 32t3 29z" />
    <glyph glyph-name="plus" unicode="+" horiz-adv-x="582" 
d="M61 370h233l67 236h36l-67 -236h232l-9 -30h-232l-67 -235h-36l67 235h-233z" />
    <glyph glyph-name="comma" unicode="," horiz-adv-x="264" 
d="M142 59q0 -55 -39.5 -108t-108.5 -86l-5 15q46 27 75 61t32 71q-13 -11 -27 -18.5t-29 -7.5q-46 0 -46 41q0 24 14 45.5t35.5 36t46.5 14.5q26 0 39 -18.5t13 -45.5z" />
    <glyph glyph-name="hyphen" unicode="-" horiz-adv-x="505" 
d="M70 291h361l-17 -67h-361z" />
    <glyph glyph-name="period" unicode="." horiz-adv-x="256" 
d="M-1 40q0 33 25 58t57 25q26 0 41 -15.5t15 -39.5q0 -32 -25 -57t-57 -25q-26 0 -41 15t-15 39z" />
    <glyph glyph-name="slash" unicode="/" horiz-adv-x="466" 
d="M-41 -14l548 736h33l-548 -736h-33z" />
    <glyph glyph-name="zero" unicode="0" horiz-adv-x="584" 
d="M364 530q83 0 127 -47.5t44 -131.5q0 -67 -26 -132.5t-72 -117.5t-105.5 -83.5t-127.5 -31.5q-81 0 -128 46.5t-47 133.5q0 68 26.5 132t73.5 117t107.5 84t127.5 31zM346 512q-41 0 -78.5 -30.5t-67 -81.5t-45.5 -115t-16 -132q0 -83 24 -116t59 -33q44 0 81 32t64 85
t42.5 117.5t15.5 129.5q0 80 -22 112t-57 32z" />
    <glyph glyph-name="one" unicode="1" horiz-adv-x="352" 
d="M326 527l-155 -527h-105l127 429q-28 -14 -61.5 -27t-83.5 -27l3 21q100 28 156.5 63t98.5 68h20z" />
    <glyph glyph-name="two" unicode="2" horiz-adv-x="514" 
d="M309 529q65 0 104 -26.5t39 -74.5q0 -40 -26 -78.5t-66.5 -74.5t-87 -67.5t-87.5 -59t-67 -47.5q27 0 62.5 -7t73 -14t66.5 -7q36 0 55.5 12t19.5 36q0 35 -42 54l13 13q27 -13 41 -32.5t14 -48.5q0 -28 -13.5 -54t-43.5 -42.5t-78 -16.5t-90.5 14t-97.5 16
q-38 2 -63.5 -4.5t-56.5 -19.5l5 21q28 22 73 54t94.5 70.5t94 83t72.5 92.5t28 98q0 40 -20 63t-57 23t-77 -23t-67 -59.5t-27 -76.5q0 -24 13.5 -36t44.5 -12q28 0 48.5 10.5t43.5 30.5l12 -14q-28 -26 -57 -37t-54 -11t-50 13t-25 55q0 44 31.5 86.5t84.5 70t120 27.5z
" />
    <glyph glyph-name="three" unicode="3" horiz-adv-x="496" 
d="M305 531q66 0 105.5 -26t39.5 -73q0 -34 -20.5 -63.5t-52.5 -53t-70 -40t-72 -25.5q48 -1 86 -14t61 -38.5t23 -64.5q0 -54 -31.5 -98.5t-84.5 -78.5t-117.5 -57.5t-130 -36t-123.5 -13.5l5 18q59 4 124 23t121 53.5t91 84t35 115.5q0 40 -20 64.5t-57 26.5
q-16 -7 -30.5 -12t-27.5 -5q-8 0 -14 3t-3 12q3 14 22 17t45 1q56 23 97.5 66.5t41.5 98.5q0 42 -23 66t-63 24q-34 0 -70.5 -18.5t-61.5 -47.5t-25 -61q0 -24 13.5 -36t44.5 -12q34 0 62 15l11 -15q-21 -11 -41.5 -16t-38.5 -5q-25 0 -50 13t-25 55q0 37 30 72t81 58.5
t113 23.5z" />
    <glyph glyph-name="four" unicode="4" horiz-adv-x="522" 
d="M403 530l1 -25l-434 -456l24 39h450l-14 -50h-483l6 21zM429 530l-179 -671h-105l145 543l113 128h26z" />
    <glyph glyph-name="five" unicode="5" horiz-adv-x="463" 
d="M429 538l12 -7q-24 -55 -59 -87.5t-82 -32.5q-20 0 -41 10t-41 19t-37 6l-105 -219q30 16 65 25t80 9q83 0 121 -32.5t38 -83.5q0 -58 -31 -104t-81.5 -81t-111.5 -58.5t-123.5 -35.5t-115.5 -14l5 18q55 0 115.5 18t112.5 52.5t84.5 85.5t32.5 117q0 40 -23.5 64
t-78.5 24q-17 0 -43 -4.5t-63 -22.5l-10 5l146 309q27 2 47.5 -4.5t43.5 -13.5t57 -7q26 0 48 10t38 35z" />
    <glyph glyph-name="six" unicode="6" horiz-adv-x="540" 
d="M531 722l6 -20q-69 -17 -139 -67t-127.5 -125.5t-93 -171.5t-35.5 -206q0 -74 17.5 -100t48.5 -26q39 0 70.5 30t54 77t34 98.5t11.5 94.5q0 52 -16.5 74.5t-43.5 22.5t-56.5 -25t-52.5 -91l-16 6q17 56 44.5 87.5t59 44.5t62.5 13q58 0 94.5 -38.5t36.5 -111.5
q0 -59 -23.5 -113t-65.5 -96.5t-96.5 -67.5t-115.5 -25q-79 0 -117.5 45t-38.5 136q0 90 33.5 169.5t88.5 146t121.5 116.5t133 81.5t121.5 41.5z" />
    <glyph glyph-name="seven" unicode="7" horiz-adv-x="492" 
d="M193 521q43 0 78.5 -11.5t70.5 -23t77 -14.5q31 -1 57 7t46 36h27q-47 -58 -97 -115.5t-98 -119t-86.5 -133t-61.5 -159.5q-5 -19 -8 -33t-4.5 -24.5t-4.5 -21.5q-6 -23 -24.5 -40t-46.5 -17q-21 0 -30.5 9t-10.5 25t3 34q11 55 46.5 117t86 124t104.5 121.5t103 111.5
t81 91l8 3l8 3q-34 -27 -66 -44.5t-63.5 -26t-63.5 -8.5q-37 0 -64 7.5t-50.5 15t-53.5 7.5q-34 0 -57.5 -16t-23.5 -49q0 -40 33 -67t100 -43l-6 -15q-69 14 -112 47t-43 95q0 30 15 59t47.5 48.5t83.5 19.5z" />
    <glyph glyph-name="eight" unicode="8" horiz-adv-x="554" 
d="M403 722q64 0 107 -25.5t43 -80.5q0 -39 -21 -72t-54 -61.5t-70.5 -51t-72.5 -39.5l-4 12q32 22 60 56t45.5 75.5t17.5 84.5q0 84 -71 84q-34 0 -63.5 -19t-47.5 -51t-18 -73q0 -44 22 -78.5t54.5 -64.5t64.5 -61.5t54 -69.5t22 -89q0 -48 -22 -87t-61 -67t-90 -43
t-109 -15q-52 0 -93.5 13.5t-65.5 42t-24 74.5q0 45 23 84t61 71.5t83.5 57.5t89.5 43l4 -12q-67 -38 -111 -107.5t-44 -147.5q0 -45 19.5 -73t70.5 -28q43 0 80.5 20.5t61 58.5t23.5 89q0 49 -21.5 85.5t-53 67.5t-62.5 61t-52.5 65.5t-21.5 83.5q0 57 36 99t92.5 65
t118.5 23z" />
    <glyph glyph-name="nine" unicode="9" horiz-adv-x="527" 
d="M327 529q79 0 117.5 -45t38.5 -136q0 -87 -33 -164t-87 -141t-118.5 -112.5t-130 -78.5t-119.5 -40l-6 20q67 16 135 64.5t124.5 122t91 166.5t34.5 198q0 74 -17.5 100t-48.5 26q-39 0 -70.5 -30t-54 -77t-34 -98.5t-11.5 -94.5q0 -52 16 -74.5t43 -22.5t57 25t52 91
l17 -6q-18 -55 -45 -87t-58.5 -45t-62.5 -13q-58 0 -94.5 38.5t-36.5 111.5q0 59 23.5 113t65.5 96.5t96.5 67.5t115.5 25z" />
    <glyph glyph-name="colon" unicode=":" horiz-adv-x="289" 
d="M115 446q0 33 25 58t57 25q26 0 41 -15.5t15 -39.5q0 -32 -25 -57t-57 -25q-26 0 -41 15t-15 39zM15 40q0 33 25 58t57 25q26 0 41 -15.5t15 -39.5q0 -32 -25 -57t-57 -25q-26 0 -41 15t-15 39z" />
    <glyph glyph-name="semicolon" unicode=";" horiz-adv-x="297" 
d="M118 446q0 33 25 58t57 25q26 0 41 -15.5t15 -39.5q0 -32 -25 -57t-57 -25q-26 0 -41 15t-15 39zM159 59q0 -55 -39.5 -108t-108.5 -86l-5 15q46 27 75 61t32 71q-13 -11 -27 -18.5t-29 -7.5q-46 0 -46 41q0 24 14 45.5t35.5 36t46.5 14.5q26 0 39 -18.5t13 -45.5z" />
    <glyph glyph-name="less" unicode="&#x3c;" horiz-adv-x="599" 
d="M602 582l10 -29l-487 -202l331 -174l-16 -32l-390 210z" />
    <glyph glyph-name="equal" unicode="=" horiz-adv-x="659" 
d="M68 270l9 30h501l-9 -30h-501zM108 410l9 30h501l-9 -30h-501z" />
    <glyph glyph-name="greater" unicode="&#x3e;" horiz-adv-x="600" 
d="M61 155l-10 29l460 192l-370 198l16 29l429 -231z" />
    <glyph glyph-name="question" unicode="?" horiz-adv-x="454" 
d="M307 763q-25 0 -56.5 -9.5t-41.5 -32.5q15 -2 28.5 -16t11.5 -35q-1 -23 -18.5 -38.5t-42.5 -15.5q-23 0 -36.5 13.5t-13.5 37.5q0 27 17 49t46 36.5t63.5 22t67.5 7.5q47 0 83.5 -13.5t58 -40t21.5 -66.5q0 -45 -37.5 -94t-132.5 -121q-55 -42 -90.5 -69t-53 -50.5
t-17.5 -54.5q0 -27 16.5 -47t53.5 -20q26 0 52.5 10t37.5 28q-12 2 -23 14.5t-10 29.5q0 19 14.5 34t38.5 15q17 0 29.5 -10t12.5 -32q0 -27 -16.5 -46.5t-43 -33t-57 -20.5t-58.5 -7q-55 0 -91 25.5t-36 76.5q0 42 24.5 76t65 65.5t88.5 68.5q69 54 101.5 89.5t32.5 82.5
q0 40 -21.5 65.5t-67.5 25.5zM108 40q0 33 25 58t57 25q26 0 41 -15.5t15 -39.5q0 -32 -25 -57t-57 -25q-25 0 -40.5 15t-15.5 39z" />
    <glyph glyph-name="at" unicode="@" horiz-adv-x="853" 
d="M574 53q24 0 62.5 21.5t77.5 63.5t66 104.5t27 143.5q0 92 -39.5 148t-106 82t-147.5 26q-96 0 -180.5 -40.5t-148.5 -109t-100 -157t-36 -186.5q0 -77 23.5 -132t66 -89.5t98.5 -50.5t121 -16q57 0 112 13.5t105 42.5l7 -13q-39 -27 -97 -44t-128 -17q-69 0 -128.5 17.5
t-104.5 54t-70 94.5t-25 138q0 98 35.5 189.5t101.5 164.5t154 116t193 43q89 0 160 -28.5t112.5 -89t41.5 -156.5q0 -84 -29 -151t-74.5 -113.5t-96 -71t-94.5 -24.5q-40 0 -56.5 16t-17.5 40t4.5 47.5t9.5 36.5l84 298q26 0 53 3t49 11l-106 -365q-9 -33 -4 -46.5
t25 -13.5zM508 247q-25 -77 -52 -125.5t-60 -72t-76 -23.5q-55 0 -81 33.5t-26 87.5q0 56 22.5 114t60 107t84.5 79.5t95 30.5q38 0 54.5 -22.5t12.5 -72.5l-9 -5q1 23 -4 39.5t-16 25t-28 8.5q-33 0 -64 -26.5t-55.5 -70.5t-39 -96.5t-14.5 -105.5q0 -46 12.5 -68t36.5 -22
q37 0 70.5 51t69.5 150z" />
    <glyph glyph-name="A" unicode="A" horiz-adv-x="637" 
d="M73 156q-35 -49 -40 -78.5t15 -43t61 -14.5l-5 -20q-33 2 -63 2.5t-57 0.5q-24 0 -40.5 -0.5t-32.5 -2.5l5 20q22 6 46.5 26.5t57.5 66.5l427 600h13.5h13.5l40 -629q3 -36 18.5 -49.5t30.5 -14.5l-4 -20q-22 2 -56 2.5t-65 0.5q-39 0 -74 -0.5t-56 -2.5l4 20
q48 2 68 17.5t18 66.5l-26 483l16 13zM158 288h292l-8 -20h-302z" />
    <glyph glyph-name="B" unicode="B" horiz-adv-x="648" 
d="M422 707q102 0 150 -35.5t48 -93.5q0 -52 -31 -93.5t-82.5 -69.5t-112.5 -42q99 -11 141.5 -55.5t42.5 -104.5q0 -54 -25.5 -93.5t-69 -66t-98.5 -40t-115 -13.5q-36 0 -76.5 1.5t-96.5 1.5q-36 0 -73 -0.5t-60 -2.5l4 20q34 2 53 8t30 24t20 54l132 496q7 30 8 48.5
t-13.5 28t-53.5 9.5l5 20q15 -1 36.5 -1.5t46 -1t47.5 -0.5q39 0 73 1t70 1zM233 359l4 17h76q59 0 101.5 28.5t65 75t22.5 98.5q0 54 -22.5 82t-75.5 28q-39 0 -55.5 -13.5t-27.5 -57.5l-135 -511q-7 -27 -8 -46t11 -28t44 -9q79 0 128 25.5t72 72t23 108.5q0 60 -31 95
t-103 35h-89z" />
    <glyph glyph-name="C" unicode="C" horiz-adv-x="678" 
d="M723 708q-15 -39 -31 -94.5t-33 -135.5h-22q8 52 6.5 88t-15.5 62q-19 37 -53 55.5t-74 18.5q-51 0 -99 -29.5t-89 -80t-72.5 -114.5t-49 -134.5t-17.5 -138.5q0 -100 38 -148.5t103 -48.5q40 0 86.5 19t81.5 55q27 27 46.5 63.5t43.5 94.5h22q-25 -91 -38.5 -146.5
t-20.5 -93.5h-22q3 21 3 34q0 22 -8 25t-25 -8q-41 -27 -83.5 -46t-107.5 -19q-119 0 -182 61t-63 178q0 69 21.5 139.5t62 134.5t96 114t124 79.5t146.5 29.5q64 0 95 -20t54 -45q14 -14 26.5 -3t28.5 54h21z" />
    <glyph glyph-name="D" unicode="D" horiz-adv-x="740" 
d="M721 481q0 -72 -21 -142t-62.5 -131t-100 -107.5t-133 -73.5t-163.5 -27q-23 0 -64.5 1.5t-79.5 1.5q-23 0 -47.5 -0.5t-46 -1t-36.5 -1.5l3 20q32 2 50.5 8t29.5 24t20 54l131 496q13 48 5.5 66.5t-63.5 19.5l3 20q16 -1 38.5 -2t48.5 -1h49q22 1 50 1.5t55 1t46 0.5
q143 0 215.5 -57.5t72.5 -169.5zM233 18q91 0 160 41t116 111t70.5 157.5t23.5 180.5q0 90 -46 136t-150 46q-29 0 -45 -7t-26 -25t-20 -54l-131 -500q-12 -45 -7 -65.5t55 -20.5z" />
    <glyph glyph-name="E" unicode="E" horiz-adv-x="615" 
d="M208 346l6 20h181l-5 -20h-182zM311 366q42 0 66.5 21.5t39.5 51.5t25 55h23q-18 -53 -25 -82.5t-14 -55.5q-5 -17 -9 -35t-9.5 -42t-12.5 -61h-23q4 30 4 59.5t-14.5 49t-57.5 19.5zM577 528q8 59 4 93.5t-27.5 49t-74.5 14.5h-59q-33 0 -51.5 -5.5t-29.5 -23t-21 -54.5
l-133 -496q-15 -55 -3.5 -69t62.5 -14h61q60 0 97 17t63.5 55.5t51.5 104.5h23q-5 -13 -11 -32t-11 -40q-5 -19 -13 -54.5t-13 -73.5q-51 2 -115 2.5t-114 0.5h-82.5t-109.5 -0.5t-109 -2.5l5 20q34 2 53 8t29.5 24t20.5 54l133 496q15 55 3.5 69.5t-61.5 16.5l5 20
q51 -1 109 -2t109.5 -1h82.5q45 0 100.5 0.5t100.5 2.5q-13 -35 -23 -66.5t-15 -51.5q-5 -18 -8.5 -34.5t-5.5 -27.5h-23z" />
    <glyph glyph-name="F" unicode="F" horiz-adv-x="573" 
d="M209 338l5 20h202l-4 -20h-203zM569 498q11 70 7 110.5t-30 58.5t-85 18h-43q-33 0 -51 -5.5t-28.5 -23t-20.5 -54.5l-133 -496q-10 -36 -7 -54t23.5 -24t61.5 -8l-4 -20q-28 2 -71 2.5t-87 0.5q-42 0 -79 -0.5t-60 -2.5l5 20q34 2 53 8t29.5 24t20.5 54l133 496
q15 55 3.5 69.5t-61.5 16.5l5 20q51 -1 109 -2t109.5 -1h82.5q45 0 100.5 0.5t100.5 2.5q-13 -37 -24 -70.5t-17 -55.5q-7 -25 -11.5 -46t-7.5 -38h-23zM317 358q41 0 65.5 21t39.5 51t26 56h22q-17 -53 -24.5 -82.5t-14.5 -55.5q-6 -26 -13.5 -57t-18.5 -87h-23
q4 35 4 65.5t-14.5 49.5t-55.5 19z" />
    <glyph glyph-name="G" unicode="G" horiz-adv-x="716" 
d="M324 6q31 0 58 9t44 19q20 12 29 28t15 38l23 88q11 41 8.5 61t-22 27t-61.5 8l5 20q28 -1 71 -2t79 -1q37 0 67 1t50 2l-5 -20q-22 -1 -34.5 -7t-21 -24t-18.5 -55l-53 -198h-20q3 20 0 38.5t-17 18.5q-11 0 -22.5 -5.5t-31.5 -16.5q-38 -23 -77 -36t-84 -13
q-126 0 -193 60t-67 169q0 68 21 139t60.5 137t95 118t125 82.5t150.5 30.5q65 0 100.5 -19t63.5 -46q15 -15 28 -5t29 56h22q-15 -39 -31 -94.5t-33 -135.5h-22q2 20 3.5 38.5t1.5 36.5q0 21 -3 39t-11 34q-21 37 -61.5 57.5t-92.5 20.5q-65 0 -117.5 -35.5t-92.5 -94
t-67 -128t-40.5 -139t-13.5 -125.5q0 -90 40 -133t123 -43z" />
    <glyph glyph-name="H" unicode="H" horiz-adv-x="773" 
d="M220 346l7 20h353l-8 -20h-352zM618 602q15 55 3 69.5t-62 16.5l5 20q25 -1 62 -2t74 -1q43 0 80 1t61 2l-5 -20q-34 -1 -53 -7.5t-29.5 -24t-20.5 -54.5l-132 -496q-14 -55 -3 -69.5t62 -16.5l-4 -20q-23 2 -60 2.5t-80 0.5q-37 0 -74.5 -0.5t-62.5 -2.5l4 20q34 2 53 8
t30 24t20 54zM185 106q-14 -55 -3 -69.5t62 -16.5l-4 -20q-24 2 -61.5 2.5t-75.5 0.5q-42 0 -78.5 -0.5t-60.5 -2.5l5 20q33 2 51.5 8t29.5 24t20 54l132 496q14 55 2.5 69.5t-61.5 16.5l5 20q22 -1 59.5 -2t79.5 -1q38 0 75 1t63 2l-5 -20q-34 -1 -53 -7.5t-29.5 -24
t-20.5 -54.5z" />
    <glyph glyph-name="I" unicode="I" horiz-adv-x="357" 
d="M185 106q-14 -55 -3 -69.5t62 -16.5l-4 -20q-25 2 -62.5 2.5t-76.5 0.5q-42 0 -77.5 -0.5t-59.5 -2.5l5 20q33 2 51.5 8t29.5 24t20 54l132 496q14 55 2.5 69.5t-61.5 16.5l5 20q22 -1 58.5 -2t78.5 -1q39 0 76.5 1t63.5 2l-5 -20q-34 -1 -53 -7.5t-29.5 -24t-20.5 -54.5
z" />
    <glyph glyph-name="J" unicode="J" horiz-adv-x="652" 
d="M588 366l-3 -20h-343l3 20h343zM447 591q-46 0 -83 13.5t-72.5 27t-80.5 13.5q-32 0 -48 -16.5t-15 -46.5q1 -31 22.5 -49.5t64.5 -24.5l-1.5 -10l-1.5 -10q-51 7 -90.5 35.5t-41.5 89.5q-1 54 31.5 90t93.5 36q43 0 76 -15.5t62.5 -37t62 -37t75.5 -15.5q48 0 88 11.5
t87 31.5q21 32 41 49t35 4q12 -10 -1 -27t-66 -37q-81 -57 -132 -150t-81 -209l-62 -242q-17 -68 -50 -125.5t-84 -92.5t-122 -35q-49 0 -81.5 14.5t-33.5 47.5q-1 25 17 44.5t48 19.5q23 0 38 -12.5t16 -33.5q0 -20 -12.5 -35t-32.5 -24q7 -2 15 -3.5t17 -1.5q38 0 62.5 24
t41.5 65t31.5 93.5t28.5 109.5l38 142q27 100 73 170t108.5 124t134.5 104q-28 -12 -55 -24.5t-53.5 -22.5t-53 -16t-54.5 -6z" />
    <glyph glyph-name="K" unicode="K" horiz-adv-x="697" 
d="M185 106q-14 -55 -3 -69.5t62 -16.5l-4 -20q-24 2 -61.5 2.5t-75.5 0.5q-42 0 -78.5 -0.5t-60.5 -2.5l5 20q33 2 51.5 8t29.5 24t20 54l132 496q14 55 2.5 69.5t-61.5 16.5l5 20q22 -1 59.5 -2t79.5 -1q38 0 75 1t63 2l-5 -20q-34 -1 -53 -7.5t-29.5 -24t-20.5 -54.5z
M528 47q24 0 40 18t28 54l17 51h20l-26 -77q-19 -55 -50.5 -81t-75.5 -26q-52 0 -75.5 31.5t-18.5 87.5l11 122q4 47 0 73t-13.5 40t-26.5 25l2 10q51 -7 85 -20t50 -47t11 -104l-6 -111q-1 -20 4 -33t24 -13zM372 360q-54 -15 -73.5 -10.5t-19.5 19.5q1 15 20 19.5
t73 -10.5v-18zM610 685q-22 -22 -36.5 -60.5t-29 -83t-36 -84.5t-57 -65t-92.5 -24l2 10q53 5 84.5 31.5t50.5 66t32.5 82.5t28 80t38.5 59q17 15 33.5 20t30.5 5q38 0 55 -20t16 -50q-1 -23 -17.5 -49t-51.5 -26q-24 0 -36.5 15t-11.5 36q0 19 13 39.5t33 33.5
q-2 0 -3.5 0.5t-4.5 0.5q-15 -1 -23.5 -5t-17.5 -12z" />
    <glyph glyph-name="L" unicode="L" horiz-adv-x="592" 
d="M544 210q-6 -16 -12 -37t-13 -45q-5 -19 -13 -54.5t-14 -73.5q-51 2 -114.5 2.5t-113.5 0.5h-83t-110 -0.5t-109 -2.5l5 20q34 2 53 8t29.5 24t20.5 54l133 496q15 55 3.5 69.5t-61.5 16.5l5 20q22 -1 59.5 -2t80.5 -1q38 0 74.5 1t62.5 2l-5 -20q-34 -1 -53 -7.5
t-30 -24t-21 -54.5l-133 -496q-15 -55 -3.5 -69t62.5 -14h62q57 0 95 18t66.5 59t53.5 110h23z" />
    <glyph glyph-name="M" unicode="M" horiz-adv-x="884" 
d="M757 705h58q39 0 75 1t62 2l-5 -20q-34 -1 -53 -7.5t-29.5 -24t-20.5 -54.5l-132 -496q-14 -55 -2.5 -69.5t61.5 -16.5l-4 -20q-26 2 -61.5 2.5t-74.5 0.5q-42 0 -79.5 -0.5t-60.5 -2.5l4 20q35 2 53.5 8t29.5 24t20 54l145 539l-415 -650h-22l-72 643l-137 -518
q-8 -34 -7.5 -56t19 -32t58.5 -12l-5 -20q-17 2 -47.5 2.5t-56.5 0.5t-52 -0.5t-43 -2.5l5 20q52 2 72.5 25t33.5 75l129 482q14 55 2.5 69.5t-61.5 16.5l5 20q19 -1 46.5 -2t58.5 -1q24 0 48 1t41 2l56 -566z" />
    <glyph glyph-name="N" unicode="N" horiz-adv-x="788" 
d="M508 -5l-240 624l-2.5 -2.5t-5.5 -6t-5.5 -6l-2.5 -2.5q8 37 5.5 54.5t-20 24t-56.5 7.5l5 20q16 -1 39.5 -2t49.5 -1q47 0 81 3l198 -537l-2.5 -18t-6 -43.5t-7 -52t-6 -44.5l-2.5 -18h-22zM813 734q-27 -1 -47 -15t-35 -37q-46 -68 -94 -239t-107 -448l-14 28
q18 84 40.5 182.5t47.5 193.5t52.5 172t56.5 119q19 27 45 45.5t63 18.5q38 0 54.5 -18.5t16.5 -43.5q0 -30 -18.5 -54.5t-50.5 -24.5q-26 0 -37.5 14.5t-11.5 31.5q0 23 14 42.5t33 30.5q-2 1 -3.5 1.5t-4.5 0.5zM4 -54q27 1 48 15t36 38q29 46 58.5 144t60 237t61.5 305
l17 -21q-20 -102 -42 -208t-45.5 -201t-47 -165.5t-46.5 -100.5q-18 -24 -42.5 -43.5t-64.5 -19.5q-39 0 -55.5 18.5t-16.5 44.5q0 30 19 54t51 24q27 0 37.5 -14.5t10.5 -31.5q0 -23 -13.5 -42.5t-32.5 -30.5q1 -1 3 -1.5t4 -0.5z" />
    <glyph glyph-name="O" unicode="O" horiz-adv-x="745" 
d="M470 704q-56 0 -108.5 -42t-94 -113t-65.5 -158.5t-24 -177.5q0 -98 36 -153.5t92 -55.5t108.5 42t94 113t65.5 158.5t24 177.5q0 98 -36 153.5t-92 55.5zM50 226q0 66 19.5 136t56.5 134t90 115t119 81t144 30q116 0 182 -62.5t66 -178.5q0 -66 -20 -135.5t-57 -133.5
t-90 -115t-119.5 -81t-143.5 -30q-116 0 -181.5 62.5t-65.5 177.5z" />
    <glyph glyph-name="P" unicode="P" horiz-adv-x="607" 
d="M212 284l5 20h45q71 0 120.5 22t79 60t43 86.5t13.5 101.5q0 57 -27 85.5t-90 28.5q-40 0 -55 -17.5t-29 -68.5l-132 -496q-8 -30 -8.5 -48.5t14 -27.5t53.5 -10l-4 -20q-25 2 -60.5 2.5t-73.5 0.5q-43 0 -81 -0.5t-61 -2.5l4 20q34 2 53 8t30 24t20 54l132 496
q8 32 8 50t-15 27t-52 9l5 20q22 -1 60 -2t75 -1q36 0 72.5 1t73.5 1q107 0 159 -40.5t52 -110.5q0 -78 -49 -139.5t-136.5 -97t-203.5 -35.5h-40z" />
    <glyph glyph-name="Q" unicode="Q" horiz-adv-x="798" 
d="M303 243q-59 0 -102 22t-66 61.5t-23 92.5q0 66 32.5 121.5t88.5 96t125.5 63t142.5 22.5q83 0 144.5 -25t94.5 -71t33 -110q0 -71 -37 -142.5t-99 -138.5t-139 -124.5t-157 -100.5t-153 -67.5t-127 -24.5q-48 0 -76 20t-28 56q0 43 37 70t91 27q50 0 92 -21t81.5 -51
t81.5 -60.5t92 -51.5t114 -21q49 0 83.5 16t55.5 53q-19 -12 -42 -12q-26 0 -42 16t-16 41q0 27 19.5 47.5t49.5 20.5q27 0 44 -17t17 -49q0 -35 -22.5 -69t-60 -61t-84.5 -43.5t-97 -16.5q-62 0 -110.5 24.5t-87.5 60.5t-73 71.5t-66.5 60t-68.5 24.5q-26 0 -47 -15.5
t-21 -44.5t25.5 -43.5t68.5 -14.5q26 0 56.5 7t62.5 18.5t63 25.5q74 33 144.5 88t127 125t89.5 148.5t33 158.5q0 90 -42 144t-122 54q-56 0 -101.5 -26t-78 -69.5t-50 -96.5t-17.5 -107q0 -70 29.5 -103.5t80.5 -33.5q45 0 80 22.5t56 57t23 68.5q1 10 0.5 22t-3.5 20
q-10 -25 -33 -37.5t-46 -12.5q-25 0 -40 16t-15 40q0 31 22 51.5t56 20.5q38 0 60 -28t22 -74q0 -52 -28.5 -95.5t-79 -69.5t-117.5 -26z" />
    <glyph glyph-name="R" unicode="R" horiz-adv-x="680" 
d="M241 354q46 -2 73 -4.5t44.5 -4t33.5 -4.5q45 -6 77 -19.5t47.5 -40t10.5 -74.5l-10 -102q-3 -31 3 -55t28 -23q19 1 33 21.5t27 58.5l5 14h23l-4 -13q-17 -61 -47.5 -91.5t-82.5 -30.5q-56 0 -80.5 30.5t-20.5 72.5l11 112q4 49 -6.5 79t-48.5 43.5t-118 13.5zM229 337
l5 20h41q86 0 140 28t79.5 77.5t25.5 113.5q0 57 -27.5 84.5t-88.5 27.5q-39 0 -55.5 -16t-29.5 -63l-134 -503q-8 -31 -9 -49.5t14.5 -27t53.5 -9.5l-4 -20q-25 2 -60.5 2.5t-74.5 0.5q-42 0 -80 -0.5t-61 -2.5l4 20q34 2 53 8t30 24t20 54l132 496q9 32 8.5 50t-15.5 27
t-52 9l5 20q15 -1 37 -1.5t47.5 -1t47.5 -0.5q40 0 76 1t72 1q108 0 160 -37t52 -103q0 -68 -47 -119t-131 -80.5t-194 -29.5z" />
    <glyph glyph-name="S" unicode="S" horiz-adv-x="565" 
d="M591 715q-10 -26 -27 -75.5t-32 -128.5h-20q6 29 6 57q0 56 -34 94.5t-109 38.5q-56 0 -94.5 -29t-38.5 -92q0 -44 24.5 -82t61.5 -73.5t74 -72.5t62 -78t25 -91q0 -52 -24.5 -89.5t-63 -61t-84 -35t-89.5 -11.5q-42 0 -70.5 7t-47.5 18t-34 21q-11 8 -20.5 11.5
t-15.5 3.5q-13 0 -21.5 -13t-19.5 -41h-20q14 32 30 84t38 156h20q-5 -20 -7.5 -40t-1.5 -40q3 -69 42.5 -107.5t120.5 -38.5q66 0 103.5 29t37.5 89q0 50 -23 89t-56 72.5t-67 68.5t-56.5 76t-22.5 94q0 49 20 86t53 61.5t73.5 37t81.5 12.5q48 0 80.5 -11.5t59.5 -31.5
q11 -8 19.5 -12.5t13.5 -4.5q14 0 33 53h20z" />
    <glyph glyph-name="T" unicode="T" horiz-adv-x="666" 
d="M772 831q28 0 42 -16.5t14 -39.5q0 -26 -15 -46t-39 -33q-27 -16 -67.5 -24t-93.5 -8q-54 0 -110 7t-110.5 14t-104.5 7q-32 0 -64 -3t-49 -14q14 -9 23 -27.5t9 -38.5q0 -24 -15 -45t-44 -21q-26 0 -39.5 17t-13.5 42q0 22 11.5 45.5t45.5 39.5q23 11 49.5 16t49.5 6
t35 1q60 0 115 -6.5t109 -13t110 -6.5q44 0 74 5t54 17l-2 -7q-11 10 -22 28t-11 40q0 25 15.5 44.5t43.5 19.5zM416 690l11 -1t27.5 -3t33.5 -4t28 -3l11 -1l-149 -562q-16 -57 -1.5 -75.5t76.5 -20.5l-4 -20q-28 2 -71.5 2.5t-89.5 0.5t-88.5 -0.5t-67.5 -2.5l4 20
q42 2 65.5 10.5t37 29t24.5 56.5z" />
    <glyph glyph-name="U" unicode="U" horiz-adv-x="686" 
d="M635 576q12 43 9.5 66t-20 33.5t-54.5 12.5l5 20q18 -1 48 -2t55 -1q26 0 51 1t41 2l-5 -20q-33 -2 -53 -12t-32 -32.5t-22 -63.5l-75 -289q-36 -138 -98 -212q-36 -42 -89.5 -67.5t-115.5 -25.5q-57 0 -99.5 15.5t-67.5 46.5q-33 41 -32.5 97t23.5 143l83 314
q14 55 2.5 69.5t-61.5 16.5l6 20q22 -1 60.5 -2t80.5 -1q38 0 73.5 1t61.5 2l-6 -20q-34 -1 -53 -7.5t-29.5 -24t-20.5 -54.5l-88 -331q-19 -73 -22 -129.5t21.5 -88.5t86.5 -32q75 0 125 33.5t82 92.5t51 133z" />
    <glyph glyph-name="V" unicode="V" horiz-adv-x="642" 
d="M593 552q50 76 36.5 105t-75.5 31l5 20q18 -1 38.5 -1.5t42.5 -1t39 -0.5q25 0 42.5 1t33.5 2l-5 -20q-16 -4 -33 -13.5t-35.5 -28.5t-38.5 -51l-390 -600h-13.5h-13.5l-79 629q-4 36 -21 49.5t-31 14.5l5 20q22 -1 55 -2t65 -1q42 0 74.5 1t56.5 2l-5 -20
q-48 -2 -67.5 -15.5t-12.5 -68.5l56 -481l-13 -7z" />
    <glyph glyph-name="W" unicode="W" horiz-adv-x="929" 
d="M538 480l-291 -485h-28l-79 629q-4 38 -21 50.5t-33 13.5l4 20q22 -1 51.5 -2t61.5 -1q35 0 65.5 1t49.5 2l-4 -20q-33 -2 -46.5 -18t-8.5 -66l55 -474l-16 -13l232 388zM875 552q28 55 30 83.5t-18 40t-61 12.5l5 20q17 -1 38 -1.5t42.5 -1t38.5 -0.5q25 0 42.5 1
t33.5 2l-5 -20q-16 -4 -33 -12.5t-34 -27.5t-35 -53l-305 -600h-28l-95 629q-5 38 -18 50.5t-26 13.5l4 20q20 -1 47 -2t56 -1q42 0 78.5 1t58.5 2l-4 -20q-51 -2 -67.5 -17t-9.5 -67l68 -456l-15 -11z" />
    <glyph glyph-name="X" unicode="X" horiz-adv-x="713" 
d="M457 145q4 -41 20 -70t51 -29q28 0 45.5 17.5t30.5 55.5l17 51h20l-26 -77q-19 -56 -50.5 -81.5t-76.5 -25.5q-51 0 -79.5 23t-41.5 58.5t-18 74.5l-50 422q-5 42 -20.5 70.5t-51.5 28.5q-27 0 -44.5 -17.5t-31.5 -56.5l-17 -51h-20l26 77q20 57 52 82t78 25
q50 0 78 -22.5t41.5 -58t17.5 -75.5zM691 702q-35 0 -65 -22q-48 -36 -116 -138t-129 -264l15 76q25 65 60.5 130.5t75.5 119t75 83.5q46 35 92 35q39 0 54.5 -21t14.5 -49q-2 -27 -19.5 -51t-49.5 -24q-25 0 -36.5 15.5t-10.5 35.5q1 21 14 41t32 31q-1 1 -3 1.5t-4 0.5z
M42 6q19 1 34.5 6.5t29.5 15.5q34 23 78 71t91 122.5t88 174.5l-15 -76q-25 -59 -63 -117.5t-79.5 -106.5t-79.5 -75q-46 -35 -93 -35q-38 0 -54 21t-14 49q1 27 18.5 51t50.5 24q26 0 37 -15.5t9 -35.5q0 -21 -13 -40.5t-33 -31.5q2 -1 4 -1.5t4 -0.5z" />
    <glyph glyph-name="Y" unicode="Y" horiz-adv-x="691" 
d="M361 106q-13 -55 -0.5 -69.5t63.5 -16.5l-5 -20q-16 1 -39 1.5t-49 1t-52 0.5q-42 0 -79.5 -0.5t-61.5 -2.5l5 20q34 2 53 8t30 24t20 54l69 274l45 -63l45 19l34 80zM697 702q-16 -1 -30 -7t-27 -16q-31 -22 -73 -73.5t-86.5 -134t-85.5 -201.5l-85 -5q-4 46 -10.5 99.5
t-16 105.5t-23 95.5t-31.5 69.5t-42 26q-17 0 -28.5 -11.5t-18.5 -35.5l-26 -76h-11h-11l31 90q16 49 41.5 71.5t70.5 22.5q59 0 93 -43.5t52 -124.5t30 -192q37 96 83 170.5t96 125.5q23 24 54 44t64 20q38 0 54 -21t15 -48q-1 -25 -19 -48.5t-51 -23.5q-26 0 -37.5 15
t-10.5 34q1 22 14 40.5t32 29.5q-1 1 -3 1.5t-4 0.5z" />
    <glyph glyph-name="Z" unicode="Z" horiz-adv-x="654" 
d="M160 346l7 20h353l-8 -20h-352zM448 207l2 10l2 10q28 -4 54 -17t43 -36.5t17 -62.5q0 -54 -34.5 -89.5t-94.5 -35.5q-39 0 -68 15t-55 35.5t-54 35.5t-66 15t-67.5 -11t-66.5 -28q-22 -32 -48 -49t-40 -4q-12 11 2 33t67 42l580 570q-44 -30 -91 -48t-92 -18
q-44 0 -77 13t-64 26t-71 13q-30 0 -45 -15t-15 -42t18.5 -44t53.5 -24l-2 -10l-2 -10q-27 5 -53.5 17.5t-43.5 36.5t-17 62q0 54 34.5 89.5t94.5 35.5q39 0 68 -15t55 -35.5t54 -35.5t66 -15t68 11t66 28q23 32 48 49t40 4q12 -10 -2 -32.5t-67 -42.5l-580 -570
q44 30 91 48t92 18t78 -13t64 -26t70 -13q30 0 45 15t15 42t-18 44t-54 24z" />
    <glyph glyph-name="bracketleft" unicode="[" horiz-adv-x="321" 
d="M-23 -181l237 953h190l-4 -19h-81l-229 -915h81l-4 -19h-190z" />
    <glyph glyph-name="backslash" unicode="\" horiz-adv-x="492" 
d="M163 722l228 -736h-33l-226 736h31z" />
    <glyph glyph-name="bracketright" unicode="]" horiz-adv-x="321" 
d="M344 772l-237 -953h-190l4 19h81l229 915h-81l4 19h190z" />
    <glyph glyph-name="asciicircum" unicode="^" horiz-adv-x="533" 
d="M281 426q-37 -30 -90.5 -59t-107.5 -49l-4 14q75 33 139.5 86t102.5 110h18q9 -57 44.5 -110t94.5 -86l-11 -14q-55 19 -105 48t-81 60z" />
    <glyph glyph-name="underscore" unicode="_" horiz-adv-x="729" 
d="M-35 -97h584l-18 -59h-583z" />
    <glyph glyph-name="grave" unicode="`" horiz-adv-x="321" 
d="M345 599q-36 49 -63.5 80.5t-47.5 54t-34 44.5q-13 23 -9.5 40.5t17.5 25.5q17 8 35.5 1.5t31.5 -28.5t22 -50t22.5 -67t38.5 -95z" />
    <glyph glyph-name="a" unicode="a" horiz-adv-x="535" 
d="M146 25q22 0 49 26t55 71.5t52 105.5t40 128l-18 -109q-51 -144 -105.5 -202.5t-112.5 -58.5q-50 0 -75 33.5t-25 88.5q0 50 16.5 107t46 113t67.5 101t82 72.5t88 27.5q34 0 52.5 -31.5t8.5 -91.5l-11 -6q7 47 -5.5 75.5t-40.5 28.5q-30 0 -64 -38t-64.5 -98.5t-49 -132
t-18.5 -138.5q0 -40 8.5 -56t23.5 -16zM385 515q30 1 58 4t52 10l-127 -443q-3 -11 -5.5 -24.5t1 -23.5t18.5 -10q18 0 36 19.5t36 74.5l14 41h19l-25 -73q-22 -61 -55.5 -82.5t-64.5 -21.5q-44 0 -62 28q-13 22 -8.5 53.5t13.5 65.5z" />
    <glyph glyph-name="b" unicode="b" horiz-adv-x="518" 
d="M335 490q-24 0 -53.5 -33t-60 -89t-57 -127t-44.5 -147l17 106q60 178 115.5 253.5t120.5 75.5q51 0 80.5 -36.5t29.5 -108.5q0 -46 -12.5 -99.5t-37.5 -106t-61.5 -96.5t-83.5 -70t-104 -26q-29 0 -52.5 16t-32.5 45l8 19q13 -30 29 -42.5t38 -12.5q33 0 63 26
t55.5 69.5t44.5 96.5t29.5 106.5t10.5 99.5q0 42 -11 61.5t-31 19.5zM111 51q-27 -13 -55.5 -30.5t-55.5 -36.5l-15 7q7 14 11.5 28.5t7.5 29.5l177 618q9 34 -2.5 50t-60.5 16l6 21q60 1 106.5 11.5t87.5 29.5z" />
    <glyph glyph-name="c" unicode="c" horiz-adv-x="442" 
d="M335 509q-38 0 -75 -31t-67 -85t-48 -122t-18 -142q0 -51 20 -74t52 -23q34 0 70.5 21t73.5 75l20 -8q-20 -33 -51 -64t-70.5 -50.5t-85.5 -19.5q-63 0 -102 37t-39 112q0 60 22 128t62.5 128.5t99 99t131.5 38.5q47 0 79.5 -24t32.5 -65q0 -21 -10 -42t-28 -34.5
t-42 -13.5q-22 0 -34 13t-12 32q0 33 24.5 56.5t55.5 30.5q-9 12 -23.5 19.5t-37.5 7.5z" />
    <glyph glyph-name="d" unicode="d" horiz-adv-x="554" 
d="M387 85q-7 -23 -4.5 -40.5t21.5 -17.5q18 0 34.5 20t34.5 74l14 41h19l-24 -73q-19 -61 -54 -82t-67 -21q-61 0 -68 53q-4 17 -1.5 40.5t11.5 52.5l142 535q9 34 -3 50t-61 16l6 21q61 1 107.5 11.5t88.5 29.5zM158 24q22 0 51 27t59 75t56.5 112.5t43.5 137.5l-15 -108
q-37 -101 -73.5 -163t-75.5 -90.5t-86 -28.5q-48 0 -78.5 33t-30.5 102q0 47 15.5 102t44 109t69 98.5t90.5 71.5t108 27q26 0 44.5 -16.5t20.5 -48.5l-8 -20q-4 33 -18 47.5t-34 14.5q-43 0 -83 -38t-71.5 -99t-50 -130.5t-18.5 -133.5q0 -41 10 -61t30 -20z" />
    <glyph glyph-name="e" unicode="e" horiz-adv-x="442" 
d="M100 224q51 18 93.5 37t69.5 41q37 31 58.5 73.5t21.5 93.5q0 26 -4 33.5t-12 7.5q-29 0 -65 -33.5t-67.5 -89.5t-52 -123t-20.5 -134q0 -52 19.5 -74t51.5 -22q33 0 73 20.5t79 73.5l16 -8q-20 -33 -52 -64t-72.5 -50.5t-87.5 -19.5q-63 0 -101.5 35.5t-38.5 105.5
q0 46 16.5 100.5t47 107.5t72.5 97.5t94 70.5t110 26q36 0 60 -17.5t24 -52.5q0 -40 -22.5 -74.5t-60.5 -62.5t-82.5 -50t-89 -38t-79.5 -26z" />
    <glyph glyph-name="f" unicode="f" horiz-adv-x="328" 
d="M63 495l6 20h307l-6 -20h-307zM399 766q-18 0 -31.5 -7t-24.5 -17q-24 -22 -40 -77.5t-34 -123.5l-192 -715q-30 -1 -57 -4t-52 -10l188 701q21 81 46.5 134.5t60.5 85.5q25 23 59.5 36t71.5 13q51 0 79 -22.5t28 -56.5q0 -27 -21 -51t-54 -24q-23 0 -36 10.5t-12 29.5
q0 28 17.5 48.5t45.5 29.5q-1 7 -12.5 13.5t-29.5 6.5z" />
    <glyph glyph-name="g" unicode="g" horiz-adv-x="457" 
d="M218 225l32 1q-55 -29 -94 -49.5t-39 -39.5q0 -10 13.5 -17.5t41.5 -15.5l77 -22q31 -8 56.5 -19.5t41 -29t15.5 -45.5q0 -29 -19 -60.5t-56 -59t-92 -45t-127 -17.5q-52 0 -89.5 9.5t-57 26.5t-19.5 40q0 17 11.5 34t32 31.5t49 27t62.5 19.5l6 -15q-36 -19 -50 -41.5
t-14 -45.5q0 -36 26 -52.5t65 -16.5q43 0 87 17t73.5 44.5t29.5 58.5q0 16 -11 22t-33 11l-150 40q-24 6 -40 21.5t-16 40.5q0 22 17.5 44t58.5 46.5t112 56.5zM267 511q-35 0 -57.5 -26t-35 -63.5t-17.5 -73.5t-5 -57q0 -32 12.5 -45.5t33.5 -13.5q33 0 54.5 22t34 55.5
t17.5 68.5t5 62q0 32 -8 51.5t-34 19.5zM275 529q61 0 100 -26.5t39 -86.5q0 -48 -28.5 -94.5t-79.5 -77t-121 -30.5q-58 0 -97 26.5t-39 83.5q0 29 12.5 64.5t39.5 67t70 52.5t104 21zM349 477l-19 7q15 35 48.5 61t71.5 26q28 0 44 -15.5t16 -45.5q0 -28 -14 -42t-31 -14
q-16 0 -30.5 11t-17.5 35t13 60l11 -3q-41 -16 -59 -33.5t-33 -46.5z" />
    <glyph glyph-name="h" unicode="h" horiz-adv-x="547" 
d="M93 0h-105l198 667q10 34 -2.5 50t-61.5 16l6 21q61 1 109 11.5t89 29.5zM120 147q39 108 73.5 182t68 118t69 63t75.5 19q47 0 65.5 -22t17.5 -57t-14 -72l-97 -293q-8 -26 -6 -42t21 -16q17 0 34.5 19t37.5 75l15 41h19l-25 -73q-22 -63 -57.5 -83t-67.5 -20
q-43 0 -61 19t-16 52.5t15 74.5l93 281q6 16 9.5 34t-1.5 31t-26 13q-29 0 -63.5 -36.5t-70.5 -101t-69.5 -150.5t-61.5 -186z" />
    <glyph glyph-name="i" unicode="i" horiz-adv-x="309" 
d="M185 692q4 32 28 52t55 20q29 0 45.5 -18.5t12.5 -45.5q-4 -31 -28.5 -51.5t-55.5 -20.5q-29 0 -45 18.5t-12 45.5zM152 430q19 58 -13 58q-22 0 -39 -22.5t-35 -71.5l-16 -42h-19l26 74q23 62 58.5 82.5t70.5 20.5q45 0 60.5 -22t12.5 -54.5t-14 -63.5l-106 -304
q-10 -28 -6 -43t21 -15q18 0 35 19.5t38 74.5l16 41h19l-26 -73q-21 -59 -56 -81t-71 -22q-43 0 -60.5 19.5t-15.5 53t16 73.5z" />
    <glyph glyph-name="j" unicode="j" horiz-adv-x="284" 
d="M-137 -188l4 16q58 2 99.5 48.5t62.5 130.5l119 423q9 32 6 45t-20 13q-18 0 -35.5 -21t-36.5 -73l-15 -42h-19l25 74q20 60 55 81.5t74 21.5q44 0 59 -20.5t12.5 -53t-11.5 -66.5l-79 -281q-20 -78 -51 -138t-81 -99q-31 -26 -74 -42.5t-94 -16.5zM182 686
q0 31 23.5 56.5t59.5 25.5q28 0 43.5 -15t15.5 -39q0 -31 -24.5 -56.5t-60.5 -25.5q-26 0 -41.5 15t-15.5 39z" />
    <glyph glyph-name="k" unicode="k" horiz-adv-x="527" 
d="M93 0h-105l198 667q10 34 -2.5 50t-61.5 16l6 21q61 1 109 11.5t89 29.5zM355 68q-4 -22 0 -31.5t19 -9.5q17 0 34 20t35 74l14 41h19l-24 -73q-13 -40 -33.5 -62.5t-44.5 -31.5t-49 -9q-38 0 -58.5 25t-8.5 77l17 83q13 56 -9.5 82.5t-100.5 32.5v4q40 3 81 0t73 -17
t48 -41.5t7 -71.5zM429 508q-12 0 -21 -4t-17 -10q-19 -15 -31.5 -40.5t-25 -54.5t-30.5 -55t-48 -42t-79 -15l-10 -1l2 11q48 3 76.5 20t45 42t28 53t24 53t33.5 41q17 14 32 18.5t28 4.5q40 0 56 -21t15 -49q-1 -24 -18 -47.5t-49 -23.5q-25 0 -36.5 14.5t-10.5 33.5
q0 19 13 38t30 32l-3 1.5t-4 0.5z" />
    <glyph glyph-name="l" unicode="l" horiz-adv-x="285" 
d="M115 85q-7 -28 -3.5 -43t20.5 -15t34 20t36 74l15 41h19l-25 -73q-13 -39 -33 -61.5t-43 -32t-48 -9.5q-43 0 -60 21t-15.5 54.5t12.5 70.5l161 535q10 34 -2 50t-61 16l7 21q60 1 106.5 11.5t89.5 29.5z" />
    <glyph glyph-name="m" unicode="m" horiz-adv-x="825" 
d="M133 0h-105l120 430q4 10 5.5 23.5t-1.5 24t-17 10.5q-21 0 -38 -21.5t-35 -72.5l-15 -42h-19l25 74q22 62 57 82.5t69 20.5q42 0 55 -22.5t10 -55t-12 -62.5zM402 413q9 29 9.5 52.5t-24.5 23.5q-26 0 -57 -32t-63 -90t-62.5 -135t-55.5 -167l24 130q45 124 85 197.5
t82 105t92 31.5q44 0 58.5 -23t11.5 -58t-13 -70l-103 -378h-108zM658 413q9 29 9 52.5t-19 23.5q-35 0 -77 -55t-86 -155t-87 -236l16 104q38 107 71 180.5t65.5 118t67 64t75.5 19.5q42 0 58.5 -23t15 -57t-13.5 -71l-98 -293q-10 -30 -6 -44t21 -14t35 19t38 75l14 41h19
l-25 -73q-22 -63 -57 -83t-68 -20q-27 0 -43 8t-25 22q-13 19 -9.5 48.5t15.5 67.5z" />
    <glyph glyph-name="n" unicode="n" horiz-adv-x="588" 
d="M134 0h-105l120 430q4 13 6.5 26.5t-1.5 22.5t-19 9q-20 0 -36.5 -20t-35.5 -74l-15 -42h-19l25 74q22 61 54.5 82t68.5 21q42 0 56 -22t11 -54t-11 -64zM175 195q36 96 69.5 160.5t65.5 102.5t65.5 54.5t70.5 16.5q48 0 66.5 -22t17 -56.5t-13.5 -72.5l-97 -293
q-10 -27 -7 -42.5t22 -15.5q17 0 34.5 19t37.5 75l15 41h19l-25 -73q-22 -63 -57.5 -83t-68.5 -20q-49 0 -68 30q-12 19 -9 48.5t16 67.5l93 281q5 15 8 33t-1 31.5t-25 13.5q-28 0 -61.5 -34.5t-68.5 -94.5t-67.5 -139t-58.5 -168z" />
    <glyph glyph-name="o" unicode="o" horiz-adv-x="502" 
d="M313 509q-29 0 -57 -26t-52.5 -70.5t-43.5 -99.5t-29.5 -114t-10.5 -112q0 -42 12.5 -61.5t36.5 -19.5q29 0 57 26t53 70t43.5 98.5t29 113.5t10.5 114q0 44 -12 62.5t-37 18.5zM18 146q0 55 19.5 121.5t57 126t94 97.5t130.5 38q67 0 106 -39.5t39 -120.5
q0 -55 -19.5 -121.5t-57 -126t-94 -97.5t-130.5 -38q-67 0 -106 40t-39 120z" />
    <glyph glyph-name="p" unicode="p" horiz-adv-x="562" 
d="M378 490q-24 0 -53.5 -33t-59.5 -89t-57 -127t-45 -147l18 106q60 178 115.5 253.5t119.5 75.5q51 0 80.5 -36.5t29.5 -108.5q0 -46 -12.5 -99.5t-37 -106t-60.5 -96.5t-82 -70t-103 -26q-30 0 -54.5 16t-34.5 45l8 19q13 -30 29.5 -42.5t38.5 -12.5q32 0 62 25.5
t55.5 68.5t45 95t29.5 105t10 99t-11 66t-31 20zM221 664q30 2 58 6t53 13l-219 -767q-13 -45 10 -60.5t70 -15.5l-6 -21q-21 1 -60 2.5t-82 1.5q-34 0 -69 -1.5t-52 -2.5l6 21q36 0 52 13.5t26 48.5zM18 355q38 38 71.5 76t65 90t63.5 132l3 -16q-33 -103 -82 -169.5
t-110 -125.5z" />
    <glyph glyph-name="q" unicode="q" horiz-adv-x="522" 
d="M344 -88q-11 -40 7 -55.5t54 -16.5l-6 -21q-21 1 -59.5 2.5t-81.5 1.5q-34 0 -69.5 -1.5t-53.5 -2.5l6 21q46 0 67.5 14.5t31.5 50.5l148 559q27 13 55 30.5t55 36.5l16 -7q-7 -13 -12 -28t-9 -31zM163 27q22 0 48 23.5t52 64t48.5 92.5t36.5 108l-19 -106
q-50 -123 -99 -173t-105 -50q-51 0 -80.5 36.5t-29.5 108.5q0 46 13 99.5t38.5 106t62 96.5t83 70t102.5 26q29 0 52.5 -16t32.5 -45l-8 -19q-12 31 -28 43t-39 12q-33 0 -63 -26.5t-55.5 -70.5t-44.5 -97t-29.5 -106t-10.5 -98q0 -41 11 -60t31 -19z" />
    <glyph glyph-name="r" unicode="r" horiz-adv-x="441" 
d="M133 0h-105l120 430q9 32 6 45t-19 13q-20 0 -37 -21t-36 -73l-15 -42h-19l25 74q22 62 57 82.5t70 20.5q41 0 53.5 -22.5t9.5 -54.5t-11 -63zM389 505q-22 0 -46 -18.5t-49 -55.5t-50.5 -93t-51 -130.5t-50.5 -168.5l24 130q32 102 60 171t55.5 110.5t57 60t63.5 18.5
q32 0 49.5 -18.5t17.5 -46.5q0 -34 -23 -58.5t-56 -24.5q-21 0 -34 11.5t-13 32.5q0 28 17 48t41 28q-2 2 -5 3t-7 1z" />
    <glyph glyph-name="s" unicode="s" horiz-adv-x="394" 
d="M64 15q8 -4 17.5 -6.5t26.5 -2.5q41 0 68 25.5t27 72.5q0 31 -12.5 63t-40.5 72q-23 34 -43.5 67.5t-20.5 78.5q0 64 46 104t118 40q31 0 61.5 -7.5t50.5 -27.5t20 -58q0 -17 -12 -38t-39 -21q-19 0 -32 14t-13 36q0 21 8 39.5t21 33.5q-17 10 -45 10q-37 0 -60.5 -24
t-23.5 -67q0 -34 16 -59.5t44 -68.5q26 -41 42.5 -76t16.5 -73q0 -45 -23.5 -80.5t-63.5 -55.5t-91 -20q-36 0 -69.5 10.5t-54.5 33t-21 61.5q0 18 10.5 36t34.5 18q25 0 36.5 -20.5t11.5 -47.5q0 -20 -4 -35t-7 -27z" />
    <glyph glyph-name="t" unicode="t" horiz-adv-x="342" 
d="M384 515l-3 -20h-323l5 20h321zM135 85q-8 -31 4 -44.5t32 -13.5q22 0 44 19.5t42 75.5l14 40h19l-21 -61q-21 -64 -57 -89.5t-84 -25.5q-64 0 -83.5 41.5t-0.5 104.5l153 534q30 1 57.5 4t50.5 10z" />
    <glyph glyph-name="u" unicode="u" horiz-adv-x="577" 
d="M396 348q-37 -104 -70 -173.5t-65.5 -111t-66.5 -59.5t-70 -18q-65 0 -80 42.5t7 108.5l97 293q10 30 6.5 44t-21.5 14q-17 0 -34.5 -19t-37.5 -75l-15 -41h-19l25 73q22 63 57.5 83t68.5 20q44 0 61 -20t15.5 -53.5t-15.5 -72.5l-93 -281q-26 -78 18 -78q28 0 61.5 35
t68 97.5t66.5 146t57 179.5zM410 85q-7 -26 -6.5 -42t19.5 -16q21 0 38.5 21.5t34.5 72.5l15 42h19l-25 -74q-22 -62 -57 -82.5t-69 -20.5q-19 0 -34.5 7.5t-23.5 21.5q-9 18 -7 44t12 67l99 389q31 1 58.5 4t50.5 10z" />
    <glyph glyph-name="v" unicode="v" horiz-adv-x="530" 
d="M472 362q-32 16 -58 46t-24 72q2 26 17.5 38t33.5 12q36 0 50 -37t9 -96q-6 -58 -22 -116.5t-42.5 -111.5t-64 -94.5t-85 -65t-105.5 -23.5q-49 0 -76 18.5t-38 47t-9 58.5q3 58 35 122t85.5 130t123.5 128q-19 -5 -38 -16.5t-36 -23.5t-33 -20.5t-31 -8.5
q-19 0 -32 11.5t-29 11.5t-25.5 -12.5t-20.5 -44.5l-10 -34h-19l22 73q17 61 42.5 82t51.5 21q19 0 32 -9.5t27 -18.5t35 -9q22 0 42.5 6.5t38.5 21.5l10 19l21 -10q-52 -66 -89 -135t-59 -136.5t-26 -134.5q-4 -53 8 -76.5t35 -23.5q44 0 81.5 23t67.5 60.5t52 83t35 90.5
t17 82z" />
    <glyph glyph-name="w" unicode="w" horiz-adv-x="683" 
d="M297 64q-32 -34 -72 -56t-88 -22q-69 0 -98.5 35.5t-29.5 81.5q0 48 28 98.5t73.5 100.5t102 97.5t113.5 89.5l12 1q-20 -5 -40 -16t-37.5 -23t-34 -21t-32.5 -9q-19 0 -32 11.5t-30 11.5q-15 0 -25 -12.5t-20 -44.5l-11 -34h-19l22 73q20 60 44 81t50 21q19 0 33 -9
t29 -18t37 -9t41 6.5t38 21.5l13 19l21 -10q-67 -61 -126 -130.5t-96 -143.5t-37 -150q0 -46 14 -65t39 -19q58 0 113 61zM423 26q44 0 77.5 25t55.5 65t34 87t15 92t-4 79q-22 6 -47 19t-42.5 33.5t-17.5 51.5q0 25 14.5 38t32.5 13q19 0 32.5 -11.5t23 -31.5t16 -44
t9.5 -50q8 -45 4.5 -100t-19.5 -108.5t-45 -98.5t-72.5 -72t-103.5 -27q-32 0 -60 12t-45.5 42t-17.5 83q0 45 15 87t38.5 75.5t49.5 53.5t48 20q15 0 23 -11t10.5 -27t2.5 -31q0 -56 -29 -112.5t-90 -104.5l-5 18q46 38 73.5 91.5t27.5 107.5q0 20 -4 33.5t-15 13.5
q-15 0 -33 -25t-31 -64t-13 -82q0 -35 9 -67t29.5 -52.5t53.5 -20.5z" />
    <glyph glyph-name="x" unicode="x" horiz-adv-x="539" 
d="M337 80q4 -26 12.5 -36t21.5 -10q14 0 29.5 17t35.5 73l13 37h19l-25 -73q-14 -41 -34 -63t-42 -30.5t-45 -8.5q-35 0 -60.5 20.5t-31.5 73.5l-40 355q-4 26 -13 35.5t-22 9.5q-14 0 -29.5 -16.5t-34.5 -72.5l-13 -37h-19l25 73q15 41 34 63t42 30.5t46 8.5q39 0 62 -20
t29 -77zM409 465q-43 -43 -70.5 -101.5t-42.5 -103.5l-10 0.5l-10 0.5q8 24 21 58.5t34.5 73.5t52.5 75q29 34 53.5 47.5t49.5 13.5q24 0 39 -12.5t15 -34.5q0 -23 -16.5 -39.5t-43.5 -16.5q-24 0 -43 11t-29 28zM95 50q44 43 77 100t50 105l9 -1.5l9 -1.5
q-10 -28 -25 -61.5t-37.5 -70t-55.5 -72.5q-29 -32 -54.5 -47t-49.5 -15q-26 0 -40 12.5t-14 33.5q0 24 17.5 40.5t42.5 16.5q26 0 43 -12t28 -27z" />
    <glyph glyph-name="y" unicode="y" horiz-adv-x="481" 
d="M291 47l-80 -89l-78 470q-5 30 -11 41.5t-19 11.5q-10 0 -23 -16.5t-32 -69.5l-14 -41h-19l25 73q21 61 52 81.5t65 20.5q35 0 54.5 -20.5t27.5 -76.5zM65 -140q45 23 94 62.5t101 106.5q58 73 104 162t66 177q-29 16 -56 43.5t-26 63.5q2 26 17 40t40 14
q29 0 42.5 -21.5t13.5 -62.5q0 -50 -16.5 -107.5t-45 -117.5t-63.5 -115.5t-72 -101.5q-21 -26 -52.5 -57.5t-71 -61.5t-87.5 -50q-27 -12 -47.5 -17t-33.5 -5q-24 0 -40.5 12t-16.5 34q0 23 17.5 37t41.5 14q26 0 48.5 -14.5t42.5 -34.5z" />
    <glyph glyph-name="z" unicode="z" horiz-adv-x="451" 
d="M28 45q30 17 53.5 31t44.5 22.5t41 8.5q24 0 43.5 -8l39 -16t42.5 -8q24 0 36.5 12t12.5 33q0 26 -20 43.5t-52 23.5l6 15q49 -11 74.5 -36t25.5 -64q0 -43 -27.5 -76.5t-91.5 -33.5q-28 0 -49 7t-40 16.5t-40.5 16.5t-51.5 7q-27 0 -48.5 -8t-42.5 -31h-27l462 472
q-23 -12 -42.5 -24.5t-37.5 -21.5t-34 -14.5t-32 -5.5q-23 0 -42.5 8l-39 16t-43.5 8q-22 0 -35.5 -11t-13.5 -34q0 -25 20 -42t52 -25l-6 -15q-47 11 -73.5 35.5t-26.5 63.5q0 28 13 53.5t40.5 42t71.5 16.5q28 0 48.5 -7t39.5 -16t40.5 -16t51.5 -7q27 0 48 8t42 31h28z
" />
    <glyph glyph-name="braceleft" unicode="{" horiz-adv-x="324" 
d="M177 -188q-66 0 -99.5 17t-44 47.5t-5.5 73t18 93.5q16 67 24.5 111.5t8.5 72.5q-1 31 -12.5 44t-34.5 15h-5l3 18h5q31 2 53 24t41 73.5t43 145.5q23 93 54 144t77 71t114 20l-5 -19q-24 0 -41.5 -6.5t-31 -28t-27.5 -64.5t-32 -117q-22 -90 -56 -140.5t-76 -75.5
t-91 -36q49 -14 75 -39t33.5 -58.5t3 -73t-14.5 -81.5q-15 -61 -22.5 -100t-6.5 -62q0 -31 14.5 -40t42.5 -10z" />
    <glyph glyph-name="bar" unicode="|" horiz-adv-x="335" 
d="M205 858v-1053h-56v1053h56z" />
    <glyph glyph-name="braceright" unicode="}" horiz-adv-x="324" 
d="M148 782q66 0 99.5 -17t44 -47.5t5.5 -73t-18 -93.5q-16 -67 -24.5 -111.5t-8.5 -72.5q1 -31 12.5 -44t34.5 -15h5l-3 -18h-5q-31 -2 -53 -24t-41 -73.5t-43 -145.5q-23 -93 -54 -144t-77 -71t-114 -20l5 19q24 0 41.5 6.5t31 28t27.5 64.5t32 117q22 90 56 140.5
t76 75.5t91 36q-49 14 -75 39t-33.5 58.5t-3 73t14.5 81.5q15 61 22.5 100t6.5 62q0 31 -14.5 40t-42.5 10z" />
    <glyph glyph-name="asciitilde" unicode="~" horiz-adv-x="648" 
d="M414 229q-38 0 -67 12t-54.5 27t-53 27t-62.5 12q-28 0 -54.5 -13t-46.5 -45l-14 5q24 57 71 90t106 33q38 0 67 -12t54.5 -27t52.5 -27t62 -12q29 0 55.5 13t46.5 45l14 -5q-24 -56 -71 -89.5t-106 -33.5z" />
    <glyph glyph-name="uni00A0" unicode="&#xa0;" horiz-adv-x="254" 
 />
    <glyph glyph-name="exclamdown" unicode="&#xa1;" horiz-adv-x="265" 
d="M148 316q-21 -84 -32.5 -166.5t-19 -154.5t-18.5 -125q-3 -28 -19.5 -43t-42.5 -15q-32 0 -45 18t-6 46q8 35 27.5 83t44.5 105.5t50 122t43 132.5zM108 446q0 34 25 58.5t57 24.5q26 0 41 -15.5t15 -39.5q0 -32 -25 -57t-57 -25q-26 0 -41 15t-15 39z" />
    <glyph glyph-name="cent" unicode="&#xa2;" horiz-adv-x="448" 
d="M363 708l-239 -889h-22l239 889h22zM333 509q-38 0 -75 -31t-67 -85t-48 -122t-18 -142q0 -51 20 -74t52 -23q35 0 71 21t73 75l20 -8q-19 -33 -50.5 -64t-71 -50.5t-85.5 -19.5q-63 0 -102 37t-39 112q0 60 22 128t63 128.5t99 99t131 38.5q48 0 80.5 -24t32.5 -65
q0 -21 -10 -42t-28.5 -34.5t-42.5 -13.5q-22 0 -34 13t-12 32q0 33 24.5 56.5t55.5 30.5q-9 12 -23.5 19.5t-37.5 7.5z" />
    <glyph glyph-name="sterling" unicode="&#xa3;" horiz-adv-x="640" 
d="M411 317l-6 -20h-347l6 20h347zM438 417l-6 -20h-347l6 20h347zM505 721q-57 0 -91.5 -32t-54.5 -84t-37 -112l-41 -156q-10 -37 -24.5 -66t-33 -53t-40 -46.5t-44.5 -46t-46 -51.5q33 22 69.5 35.5t75.5 13.5t69.5 -11t60.5 -21.5t65 -10.5q29 0 52 17t23 46
q0 26 -17 42.5t-50 22.5l6 17q29 -4 54 -17t40.5 -34.5t15.5 -52.5q0 -34 -19.5 -65t-52.5 -50.5t-75 -19.5q-37 0 -65.5 13.5t-54 32t-54 32t-66.5 13.5q-20 0 -41.5 -4t-44.5 -15q-23 -35 -49 -53.5t-47 -18.5q-13 0 -13 10q0 15 25 37.5t74 35.5q17 34 34.5 75.5
t36.5 113.5l48 181q22 82 62 149.5t101.5 107.5t150.5 40q54 0 81 -23t27 -53q0 -31 -20 -53t-51 -22q-20 0 -33.5 11t-13.5 32q0 26 16.5 45.5t41.5 26.5q0 9 -15.5 15t-34.5 6z" />
    <glyph glyph-name="currency" unicode="&#xa4;" horiz-adv-x="599" 
d="M164 300q0 -40 19 -72.5t50.5 -51t68.5 -18.5q38 0 69 18.5t49.5 51t18.5 72.5t-18.5 72.5t-49.5 51.5t-69 19t-69.5 -19t-50 -51.5t-18.5 -72.5zM92 138l48 48q-17 24 -27.5 53t-10.5 61q0 63 39 115l-49 48l47 47l48 -48q24 18 53 27.5t62 9.5q32 0 60.5 -10t53.5 -28
l49 50l47 -47l-49 -50q18 -24 27.5 -53t9.5 -61t-9.5 -61.5t-27.5 -52.5l48 -48l-47 -48l-49 49q-24 -17 -52.5 -27t-60.5 -10q-66 0 -114 36l-48 -48z" />
    <glyph glyph-name="yen" unicode="&#xa5;" horiz-adv-x="727" 
d="M537 217l-5 -20h-392l5 20h392zM559 297l-5 -20h-392l5 20h392zM372 106q-13 -55 -0.5 -69.5t63.5 -16.5l-5 -20q-16 1 -39 1.5t-49 1t-52 0.5q-42 0 -79.5 -0.5t-61.5 -2.5l5 20q34 2 53 8t30 24t20 54l69 274l45 -63l45 19l34 80zM708 702q-16 -1 -29.5 -7t-27.5 -16
q-31 -22 -73 -73.5t-86.5 -134t-85.5 -201.5l-85 -5q-4 46 -10.5 99.5t-15.5 105.5t-22.5 95.5t-31.5 69.5t-42 26q-18 0 -29 -11.5t-19 -35.5l-26 -76h-11h-11l31 90q17 49 42 71.5t70 22.5q60 0 93.5 -43.5t51.5 -124.5t30 -192q37 96 83.5 170.5t95.5 125.5
q23 24 54.5 44t64.5 20q37 0 53 -21t15 -48q-1 -25 -19 -48.5t-51 -23.5q-26 0 -37.5 15t-10.5 34q1 22 14 40.5t32 29.5q-1 1 -3 1.5t-4 0.5z" />
    <glyph glyph-name="brokenbar" unicode="&#xa6;" horiz-adv-x="339" 
d="M151 -195v521h56v-521h-56zM207 858v-474h-56v474h56z" />
    <glyph glyph-name="section" unicode="&#xa7;" horiz-adv-x="531" 
d="M481 731q-3 13 -18 20t-32.5 9.5t-31.5 2.5q-34 0 -65.5 -12.5t-53 -41t-21.5 -76.5q0 -32 17.5 -58.5t45 -50.5t57.5 -49q50 -42 80.5 -77.5t30.5 -82.5q0 -50 -26.5 -90t-68.5 -69.5t-89 -50.5l-7 13q25 13 48.5 30.5t40 42t17.5 55.5q2 28 -12 51.5t-38.5 47.5
t-59.5 51q-58 48 -96.5 89.5t-38.5 96.5q0 45 20 81t54 63t76.5 41.5t87.5 14.5q21 0 46.5 -4.5t48.5 -15t37.5 -28t14.5 -42.5q0 -30 -22 -54.5t-55 -24.5q-23 0 -36 13t-13 33q0 26 19 45t43 27zM132 -169q34 0 66 13t52.5 42t20.5 77q0 32 -17 58t-44.5 49.5t-57.5 48.5
q-50 43 -80.5 78t-30.5 82q0 50 26.5 89.5t68.5 69.5t88 51l7 -13q-23 -13 -48 -31.5t-41.5 -43.5t-16.5 -57q0 -38 31 -72t79 -74q60 -48 98 -89.5t38 -96.5q0 -45 -20 -81t-54 -63t-76.5 -41.5t-87.5 -14.5q-22 0 -47 4.5t-47.5 15t-37 28.5t-14.5 44q0 30 22 53.5
t54 23.5q23 0 36 -11.5t13 -32.5q0 -27 -18.5 -46.5t-43.5 -27.5q6 -18 33.5 -25t48.5 -7z" />
    <glyph glyph-name="dieresis" unicode="&#xa8;" horiz-adv-x="445" 
d="M156 677q0 29 22 50.5t52 21.5q24 0 39.5 -16t15.5 -40q0 -30 -22.5 -51t-51.5 -21q-26 0 -40.5 16t-14.5 40zM373 677q0 29 22.5 50.5t51.5 21.5q25 0 40 -16t15 -40q0 -30 -22.5 -51t-51.5 -21q-25 0 -40 16t-15 40z" />
    <glyph glyph-name="copyright" unicode="&#xa9;" horiz-adv-x="920" 
d="M86 384q0 83 31 155t85.5 126.5t127 85.5t154.5 31q83 0 155 -31t126.5 -85.5t85.5 -126.5t31 -155q0 -82 -31 -154.5t-85.5 -127t-126.5 -85.5t-155 -31q-82 0 -154.5 31t-127 85.5t-85.5 127t-31 154.5zM126 384q0 -76 28 -142t77 -116.5t114 -79t139 -28.5t139 28.5
t114 79t77 116.5t28 142t-28 142t-77 116.5t-114 79t-139 28.5t-139 -28.5t-114 -79t-77 -116.5t-28 -142zM518 163q25 0 50 9t49 31t42 62l19 -7q-10 -34 -34 -68t-62 -55.5t-92 -21.5q-63 0 -114.5 30.5t-81.5 90t-30 145.5q0 85 30.5 147t84.5 96t124 34q42 0 80.5 -13
t63 -38.5t24.5 -62.5q0 -29 -17.5 -46.5t-44.5 -17.5q-26 0 -44 16.5t-18 44.5q0 25 14 40.5t36 20.5q-10 16 -33.5 26.5t-50.5 10.5q-33 0 -63.5 -21.5t-50.5 -74.5t-20 -149q0 -86 20 -136t51.5 -71.5t67.5 -21.5z" />
    <glyph glyph-name="ordfeminine" unicode="&#xaa;" horiz-adv-x="480" 
d="M392 437q-6 -21 -4 -31t16 -10q15 0 26.5 12t23.5 45l9 25h19l-17 -45q-15 -41 -39.5 -57t-59.5 -16q-23 0 -37 9.5t-16 32t9 61.5l72 250q51 0 90 9zM215 392q23 0 54 34t59 88t42 113l-14 -79q-27 -71 -55.5 -112t-58 -58.5t-60.5 -17.5q-40 0 -62 23t-22 61
q0 45 22.5 93.5t59.5 90.5t81 68t86 26q16 0 30 -11t9 -44l-7 -16q1 26 -6.5 36.5t-18.5 10.5q-23 0 -51 -21.5t-54 -58.5t-42 -83t-16 -94q0 -49 24 -49z" />
    <glyph glyph-name="guillemotleft" unicode="&#xab;" horiz-adv-x="540" 
d="M335 529q-15 -33 -40 -72.5t-54.5 -80.5t-60.5 -74.5t-58 -54.5q27 -24 53 -71t45.5 -98.5t26.5 -91.5h-18q-42 76 -92 141.5t-115 116.5l1 6q84 56 155.5 126.5t138.5 152.5h18zM508 521q-13 -31 -37 -70t-53 -78t-58.5 -72.5t-56.5 -53.5q26 -24 51 -69t44 -95.5
t26 -88.5h-18q-40 74 -88.5 137.5t-112.5 112.5l1 6q82 55 151 123t133 148h18z" />
    <glyph glyph-name="logicalnot" unicode="&#xac;" horiz-adv-x="656" 
d="M91 340l9 30h501l-59 -205h-36l50 175h-465z" />
    <glyph glyph-name="uni00AD" unicode="&#xad;" horiz-adv-x="505" 
 />
    <glyph glyph-name="registered" unicode="&#xae;" horiz-adv-x="694" 
d="M403 782q77 0 140.5 -37.5t101 -101t37.5 -140.5t-37.5 -140.5t-101 -101t-140.5 -37.5t-140.5 37.5t-101 101t-37.5 140.5t37.5 140.5t101 101t140.5 37.5zM335 521q34 0 48.5 -1t22 -2.5t18.5 -3.5q49 -4 67 -18.5t23 -40.5l13 -60q3 -12 5.5 -21t11.5 -9q8 0 12 8
l9 -8q-7 -11 -18 -15.5t-29 -4.5q-28 0 -41.5 10t-17.5 31l-17 74q-3 20 -11.5 30t-29 13t-64.5 3zM403 750q-66 0 -120 -33.5t-85.5 -89.5t-31.5 -124q0 -67 31.5 -123.5t85.5 -90t120 -33.5t120 33.5t85.5 90t31.5 123.5q0 68 -31.5 124t-85.5 89.5t-120 33.5zM413 676
q59 0 88.5 -20.5t29.5 -58.5q0 -19 -11.5 -38.5t-41.5 -33t-88 -16.5l-60 -3v8v8h53q48 0 63 18.5t15 47.5q0 37 -14.5 55t-49.5 18q-21 0 -27.5 -6.5t-6.5 -24.5v-226q0 -23 4.5 -29t18.5 -8v-15q-11 0 -25.5 0.5t-29.5 0.5q-17 0 -32 -0.5t-25 -0.5v15q14 2 18.5 8t4.5 29
v219q0 24 -4.5 30.5t-18.5 7.5v15q10 -1 24.5 -1h28.5q28 0 52 0.5t34 0.5z" />
    <glyph glyph-name="macron" unicode="&#xaf;" horiz-adv-x="420" 
d="M483 712l-6 -25h-320l6 25h320z" />
    <glyph glyph-name="degree" unicode="&#xb0;" horiz-adv-x="334" 
d="M261 820q49 0 85.5 -32t36.5 -88t-36.5 -88.5t-85.5 -32.5q-48 0 -84.5 32.5t-36.5 88.5t36.5 88t84.5 32zM261 597q34 0 65.5 25.5t31.5 76.5t-31.5 77t-65.5 26t-65 -26t-31 -77t31 -76.5t65 -25.5z" />
    <glyph glyph-name="plusminus" unicode="&#xb1;" horiz-adv-x="629" 
d="M-14 0l9 30h501l-9 -30h-501zM82 370h233l67 236h36l-67 -236h232l-9 -30h-232l-67 -235h-36l67 235h-233z" />
    <glyph glyph-name="uni00B2" unicode="&#xb2;" horiz-adv-x="346" 
d="M297 754q36 0 59 -13t23 -44t-21.5 -58.5t-54.5 -53t-66.5 -47t-57.5 -40.5q25 0 62.5 -9t62.5 -9q20 0 32.5 9t12.5 24q0 11 -4 19l17 7q6 -8 9 -17.5t3 -20.5q0 -28 -23 -48t-68 -20q-31 0 -58.5 8t-67.5 10q-25 2 -41 -2t-37 -12l4 18q22 15 59 38.5t75.5 53t64.5 63
t26 66.5q0 23 -13.5 33t-38.5 10q-26 0 -52.5 -11.5t-52.5 -39.5l-14 11q24 29 65 52t95 23z" />
    <glyph glyph-name="uni00B3" unicode="&#xb3;" horiz-adv-x="330" 
d="M301 754q37 0 60.5 -13t23.5 -41t-24 -51.5t-58.5 -39.5t-64.5 -23q47 -1 82 -17.5t35 -56.5q0 -37 -30 -66.5t-78.5 -50.5t-103 -33.5t-102.5 -15.5v18q57 5 112.5 24t92.5 52.5t37 79.5q0 27 -13.5 39t-37.5 13q-11 -6 -19 -8t-13 -2q-6 0 -12 3t-6 10q0 10 12.5 14
t31.5 3q39 15 64 38.5t25 53.5q0 19 -12 28t-33 9q-26 0 -54 -11.5t-60 -42.5l-14 12q22 25 64 50t95 25z" />
    <glyph glyph-name="acute" unicode="&#xb4;" horiz-adv-x="283" 
d="M138 608q39 50 64 86t43.5 63t37.5 47q18 20 38 23t35 -9q12 -13 9 -31t-24 -39q-19 -19 -46 -38t-63 -44.5t-84 -66.5z" />
    <glyph glyph-name="paragraph" unicode="&#xb6;" horiz-adv-x="663" 
d="M416 335q-20 -80 -30 -145.5t-13 -103.5t0 -38l8.5 32.5t23 86.5t32 118.5t34.5 129.5t31.5 119t24 87.5t9.5 34.5q-3 0 -21 -39.5t-42.5 -105t-47.5 -143.5q-76 0 -140 -3.5t-102.5 -7.5t-39.5 -6q0 -2 36 -6t98.5 -7t138.5 -3zM355 -13q-115 0 -185 30.5t-101.5 85
t-31.5 126.5q0 99 36 186t100.5 153t150 103.5t184.5 37.5q44 0 83.5 -1.5t76.5 -1.5q18 0 36.5 0.5t35.5 1.5l-5 -19q-49 -2 -67.5 -18.5t-27.5 -49.5l-140 -534q-21 -79 -55.5 -141.5t-85.5 -98t-122 -35.5q-49 0 -81.5 14.5t-33.5 47.5q0 25 19.5 45.5t48.5 20.5
q21 0 34 -10.5t13 -28.5q0 -20 -11.5 -37t-29.5 -31q7 -2 15 -3.5t17 -1.5q52 0 79 44t48 115z" />
    <glyph glyph-name="periodcentered" unicode="&#xb7;" horiz-adv-x="268" 
d="M55 241q0 33 25 58t57 25q26 0 41 -15.5t15 -39.5q0 -32 -25 -57t-57 -25q-26 0 -41 15t-15 39z" />
    <glyph glyph-name="cedilla" unicode="&#xb8;" horiz-adv-x="306" 
d="M108 0l-38 -71q10 3 22.5 5.5t23.5 2.5q21 0 34.5 -10.5t13.5 -30.5q0 -29 -21.5 -48t-53 -27.5t-61.5 -8.5q-29 0 -51 7t-32 14l6 15q8 -2 22 -7t39 -5q11 0 28.5 4t31.5 15t14 30q0 24 -28 24q-5 0 -14 -1.5t-17 -5.5l53 98h28z" />
    <glyph glyph-name="uni00B9" unicode="&#xb9;" horiz-adv-x="258" 
d="M323 753l-101 -316h-71l79 245q-24 -13 -51.5 -25t-68.5 -23l5 19q75 22 115.5 48.5t73.5 51.5h19z" />
    <glyph glyph-name="ordmasculine" unicode="&#xba;" horiz-adv-x="438" 
d="M327 704q-26 0 -49.5 -24.5t-42 -64.5t-29 -86.5t-10.5 -91.5q0 -58 44 -58q27 0 50.5 24.5t41.5 64t28.5 86.5t10.5 92q0 58 -44 58zM106 471q0 36 14.5 79t43 82t71 64.5t97.5 25.5q60 0 94.5 -27.5t34.5 -83.5q0 -36 -14 -79t-43 -82t-71 -64t-98 -25
q-58 0 -93.5 27.5t-35.5 82.5z" />
    <glyph glyph-name="guillemotright" unicode="&#xbb;" horiz-adv-x="539" 
d="M292 529q42 -75 92 -141.5t115 -117.5l-1 -5q-83 -56 -155 -126t-139 -153h-18q15 33 40 72.5t54.5 80t60.5 74.5t58 55q-27 24 -53 70.5t-45 98.5t-27 92h18zM115 521q40 -73 89 -137.5t112 -113.5l-1 -5q-81 -55 -150 -122.5t-134 -148.5h-18q14 32 38 70.5t53 78
t58.5 72.5t54.5 53q-25 24 -50 69t-43.5 95.5t-26.5 88.5h18z" />
    <glyph glyph-name="onequarter" unicode="&#xbc;" horiz-adv-x="627" 
d="M719 824l15 -13l-833 -866l-15 13zM323 753l-101 -316h-71l79 245q-24 -13 -51.5 -25t-68.5 -23l5 19q75 22 115.5 48.5t73.5 51.5h19zM462 317l5 -21l-275 -241l3 16h269l-13 -47h-306l5 18zM481 317l-117 -402h-60l96 332l62 70h19z" />
    <glyph glyph-name="onehalf" unicode="&#xbd;" horiz-adv-x="611" 
d="M719 824l15 -13l-833 -866l-15 13zM323 753l-101 -316h-71l79 245q-24 -13 -51.5 -25t-68.5 -23l5 19q75 22 115.5 48.5t73.5 51.5h19zM464 317q36 0 59 -13t23 -44t-21.5 -58.5t-54.5 -53t-66.5 -47t-57.5 -40.5q25 0 62.5 -9t62.5 -9q20 0 32.5 9t12.5 24q0 11 -4 19
l17 7q6 -8 9 -17.5t3 -20.5q0 -28 -23 -48t-68 -20q-31 0 -58.5 8t-67.5 10q-25 2 -41 -2t-37 -12l4 18q22 15 59 38.5t75.5 53t64.5 63t26 66.5q0 23 -13.5 33t-38.5 10q-26 0 -52.5 -11.5t-52.5 -39.5l-14 11q24 29 65 52t95 23z" />
    <glyph glyph-name="threequarters" unicode="&#xbe;" horiz-adv-x="721" 
d="M819 824l15 -13l-833 -866l-15 13zM301 754q37 0 60.5 -13t23.5 -41t-24 -51.5t-58.5 -39.5t-64.5 -23q47 -1 82 -17.5t35 -56.5q0 -37 -30 -66.5t-78.5 -50.5t-103 -33.5t-102.5 -15.5v18q57 5 112.5 24t92.5 52.5t37 79.5q0 27 -13.5 39t-37.5 13q-11 -6 -19 -8t-13 -2
q-6 0 -12 3t-6 10q0 10 12.5 14t31.5 3q39 15 64 38.5t25 53.5q0 19 -12 28t-33 9q-26 0 -54 -11.5t-60 -42.5l-14 12q22 25 64 50t95 25zM562 317l5 -21l-275 -241l3 16h269l-13 -47h-306l5 18zM581 317l-117 -402h-60l96 332l62 70h19z" />
    <glyph glyph-name="questiondown" unicode="&#xbf;" horiz-adv-x="460" 
d="M144 -169q20 0 43 4t42.5 13t25.5 24q-14 2 -25.5 16.5t-10.5 33.5q1 23 18.5 37.5t41.5 14.5q23 0 36 -13t13 -36q0 -27 -18.5 -48t-49 -35.5t-68 -22t-75.5 -7.5q-71 0 -115.5 26.5t-44.5 76.5q0 30 16.5 55t52 53t93.5 66q45 32 75 53.5t45 42t15 47.5q0 26 -17.5 46
t-49.5 20q-27 0 -55 -10t-41 -27q12 -1 23.5 -12.5t10.5 -28.5q0 -18 -14.5 -32.5t-38.5 -14.5q-16 0 -28.5 9t-12.5 31q0 26 17.5 45t45 32t59.5 19.5t62 6.5q57 0 94 -25t37 -73q0 -37 -22 -66t-58.5 -56.5t-80.5 -59.5q-66 -43 -96.5 -71.5t-30.5 -65.5q0 -30 22.5 -49
t63.5 -19zM203 446q0 34 25 58.5t57 24.5q26 0 41 -15.5t15 -39.5q0 -32 -25 -57t-57 -25q-26 0 -41 15t-15 39z" />
    <glyph glyph-name="Agrave" unicode="&#xc0;" horiz-adv-x="637" 
d="M73 156q-35 -49 -40 -78.5t15 -43t61 -14.5l-5 -20q-33 2 -63 2.5t-57 0.5q-24 0 -40.5 -0.5t-32.5 -2.5l5 20q22 6 46.5 26.5t57.5 66.5l427 600h13.5h13.5l40 -629q3 -36 18.5 -49.5t30.5 -14.5l-4 -20q-22 2 -56 2.5t-65 0.5q-39 0 -74 -0.5t-56 -2.5l4 20
q48 2 68 17.5t18 66.5l-26 483l16 13zM158 288h292l-8 -20h-302zM497 770q-44 30 -75.5 48t-54 30.5t-39.5 27.5q-13 11 -20.5 29t4.5 35q13 18 34.5 14.5t36.5 -17.5q17 -14 31.5 -35.5t36 -51.5t55.5 -70z" />
    <glyph glyph-name="Aacute" unicode="&#xc1;" horiz-adv-x="637" 
d="M73 156q-35 -49 -40 -78.5t15 -43t61 -14.5l-5 -20q-33 2 -63 2.5t-57 0.5q-24 0 -40.5 -0.5t-32.5 -2.5l5 20q22 6 46.5 26.5t57.5 66.5l427 600h13.5h13.5l40 -629q3 -36 18.5 -49.5t30.5 -14.5l-4 -20q-22 2 -56 2.5t-65 0.5q-39 0 -74 -0.5t-56 -2.5l4 20
q48 2 68 17.5t18 66.5l-26 483l16 13zM158 288h292l-8 -20h-302zM446 783q52 37 85.5 65t59 48.5t49.5 35.5q17 10 41 11.5t33 -20.5q9 -18 -4 -35t-31 -27q-35 -20 -87.5 -35t-138.5 -54z" />
    <glyph glyph-name="Acircumflex" unicode="&#xc2;" horiz-adv-x="637" 
d="M73 156q-35 -49 -40 -78.5t15 -43t61 -14.5l-5 -20q-33 2 -63 2.5t-57 0.5q-24 0 -40.5 -0.5t-32.5 -2.5l5 20q22 6 46.5 26.5t57.5 66.5l427 600h13.5h13.5l40 -629q3 -36 18.5 -49.5t30.5 -14.5l-4 -20q-22 2 -56 2.5t-65 0.5q-39 0 -74 -0.5t-56 -2.5l4 20
q48 2 68 17.5t18 66.5l-26 483l16 13zM158 288h292l-8 -20h-302zM471 837q-41 -16 -97.5 -35t-112.5 -30l-5 14q76 24 141.5 61t105.5 77h18q24 -46 55 -81t84 -57l-4 -14q-70 12 -109 29t-76 36z" />
    <glyph glyph-name="Atilde" unicode="&#xc3;" horiz-adv-x="637" 
d="M73 156q-35 -49 -40 -78.5t15 -43t61 -14.5l-5 -20q-33 2 -63 2.5t-57 0.5q-24 0 -40.5 -0.5t-32.5 -2.5l5 20q22 6 46.5 26.5t57.5 66.5l427 600h13.5h13.5l40 -629q3 -36 18.5 -49.5t30.5 -14.5l-4 -20q-22 2 -56 2.5t-65 0.5q-39 0 -74 -0.5t-56 -2.5l4 20
q48 2 68 17.5t18 66.5l-26 483l16 13zM158 288h292l-8 -20h-302zM426 906q35 0 57.5 -11t40 -25.5t36 -25.5t44.5 -11q19 0 37 13.5t36 44.5l18 -5q-25 -62 -64.5 -88.5t-77.5 -26.5q-35 0 -58 11t-40 25.5t-35.5 25.5t-45.5 11q-19 0 -37 -13t-35 -45l-18 5
q24 62 63.5 88.5t78.5 26.5z" />
    <glyph glyph-name="Adieresis" unicode="&#xc4;" horiz-adv-x="637" 
d="M73 156q-35 -49 -40 -78.5t15 -43t61 -14.5l-5 -20q-33 2 -63 2.5t-57 0.5q-24 0 -40.5 -0.5t-32.5 -2.5l5 20q22 6 46.5 26.5t57.5 66.5l427 600h13.5h13.5l40 -629q3 -36 18.5 -49.5t30.5 -14.5l-4 -20q-22 2 -56 2.5t-65 0.5q-39 0 -74 -0.5t-56 -2.5l4 20
q48 2 68 17.5t18 66.5l-26 483l16 13zM158 288h292l-8 -20h-302zM309 826q0 29 22 50.5t51 21.5q25 0 40 -16t15 -40q0 -30 -22 -51t-51 -21q-26 0 -40.5 16t-14.5 40zM530 826q0 29 22 50.5t52 21.5q24 0 39.5 -16t15.5 -40q0 -30 -22.5 -51t-51.5 -21q-26 0 -40.5 16
t-14.5 40z" />
    <glyph glyph-name="Aring" unicode="&#xc5;" horiz-adv-x="637" 
d="M73 156q-35 -49 -40 -78.5t15 -43t61 -14.5l-5 -20q-33 2 -63 2.5t-57 0.5q-24 0 -40.5 -0.5t-32.5 -2.5l5 20q22 6 46.5 26.5t57.5 66.5l427 600h13.5h13.5l40 -629q3 -36 18.5 -49.5t30.5 -14.5l-4 -20q-22 2 -56 2.5t-65 0.5q-39 0 -74 -0.5t-56 -2.5l4 20
q48 2 68 17.5t18 66.5l-26 483l16 13zM158 288h292l-8 -20h-302zM490 929q38 0 64 -22t26 -60q0 -28 -16 -52t-42.5 -38.5t-57.5 -14.5q-36 0 -61.5 22t-25.5 60q0 45 33.5 75t79.5 30zM468 763q34 0 60 24t26 61q0 30 -21.5 45t-45.5 15q-33 0 -58 -25t-25 -58
q0 -31 20.5 -46.5t43.5 -15.5z" />
    <glyph glyph-name="AE" unicode="&#xc6;" horiz-adv-x="900" 
d="M631 773l-593 -679q-29 -33 -28 -51t61 -23v-20q-13 2 -37 2.5t-49 0.5q-18 0 -36.5 -0.5t-30.5 -2.5v20q31 2 86 64l601 689h26zM246 346l19 20h444l-4 -20h-459zM638 366q45 0 66 34.5t37 77.5h22q-13 -39 -19.5 -64.5t-14.5 -57.5q-6 -22 -11.5 -47t-14.5 -75h-22
q0 23 4 48t-4.5 43.5t-46.5 20.5zM471 106q-14 -55 -3 -69t60 -14h93q48 0 79.5 17t54.5 55.5t45 104.5h22q-5 -13 -10.5 -32t-10.5 -40q-5 -19 -13 -54.5t-13 -73.5q-51 2 -113.5 2.5t-112.5 0.5h-82.5t-109 -0.5t-108.5 -2.5l4 20q34 2 53 8t30 24t20 54l132 496
q14 55 2.5 69.5t-61.5 16.5l5 20q51 -1 108 -2t108.5 -1h82.5q46 0 103 0.5t104 2.5q-13 -35 -23 -68t-15 -50q-5 -18 -8 -34.5l-5 -27.5h-22q16 89 -2.5 123t-78.5 34h-83q-33 0 -51.5 -5.5t-28.5 -23t-20 -54.5z" />
    <glyph glyph-name="Ccedilla" unicode="&#xc7;" horiz-adv-x="678" 
d="M723 708q-15 -39 -31 -94.5t-33 -135.5h-22q8 52 6.5 88t-15.5 62q-19 37 -53 55.5t-74 18.5q-51 0 -99 -29.5t-89 -80t-72.5 -114.5t-49 -134.5t-17.5 -138.5q0 -100 38 -148.5t103 -48.5q40 0 86.5 19t81.5 55q27 27 46.5 63.5t43.5 94.5h22q-25 -91 -38.5 -146.5
t-20.5 -93.5h-22q3 21 3 34q0 22 -8 25t-25 -8q-41 -27 -83.5 -46t-107.5 -19q-119 0 -182 61t-63 178q0 69 21.5 139.5t62 134.5t96 114t124 79.5t146.5 29.5q64 0 95 -20t54 -45q14 -14 26.5 -3t28.5 54h21zM312 5l-35 -74q27 8 54 8q26 0 41.5 -11t15.5 -32
q0 -29 -25 -48t-62 -27.5t-71 -8.5q-36 0 -63 7t-40 14l6 15q9 -2 29 -7t52 -5q15 0 38.5 4t41.5 15t18 30q0 24 -36 24q-7 0 -18 -1.5t-21 -5.5l48 103h27z" />
    <glyph glyph-name="Egrave" unicode="&#xc8;" horiz-adv-x="615" 
d="M208 346l6 20h181l-5 -20h-182zM311 366q42 0 66.5 21.5t39.5 51.5t25 55h23q-18 -53 -25 -82.5t-14 -55.5q-5 -17 -9 -35t-9.5 -42t-12.5 -61h-23q4 30 4 59.5t-14.5 49t-57.5 19.5zM577 528q8 59 4 93.5t-27.5 49t-74.5 14.5h-59q-33 0 -51.5 -5.5t-29.5 -23t-21 -54.5
l-133 -496q-15 -55 -3.5 -69t62.5 -14h61q60 0 97 17t63.5 55.5t51.5 104.5h23q-5 -13 -11 -32t-11 -40q-5 -19 -13 -54.5t-13 -73.5q-51 2 -115 2.5t-114 0.5h-82.5t-109.5 -0.5t-109 -2.5l5 20q34 2 53 8t29.5 24t20.5 54l133 496q15 55 3.5 69.5t-61.5 16.5l5 20
q51 -1 109 -2t109.5 -1h82.5q45 0 100.5 0.5t100.5 2.5q-13 -35 -23 -66.5t-15 -51.5q-5 -18 -8.5 -34.5t-5.5 -27.5h-23zM460 770q-44 30 -75.5 48t-54 30.5t-39.5 27.5q-13 11 -20.5 29t4.5 35q13 18 34.5 14.5t36.5 -17.5q17 -14 31.5 -35.5t36 -51.5t55.5 -70z" />
    <glyph glyph-name="Eacute" unicode="&#xc9;" horiz-adv-x="615" 
d="M208 346l6 20h181l-5 -20h-182zM311 366q42 0 66.5 21.5t39.5 51.5t25 55h23q-18 -53 -25 -82.5t-14 -55.5q-5 -17 -9 -35t-9.5 -42t-12.5 -61h-23q4 30 4 59.5t-14.5 49t-57.5 19.5zM577 528q8 59 4 93.5t-27.5 49t-74.5 14.5h-59q-33 0 -51.5 -5.5t-29.5 -23t-21 -54.5
l-133 -496q-15 -55 -3.5 -69t62.5 -14h61q60 0 97 17t63.5 55.5t51.5 104.5h23q-5 -13 -11 -32t-11 -40q-5 -19 -13 -54.5t-13 -73.5q-51 2 -115 2.5t-114 0.5h-82.5t-109.5 -0.5t-109 -2.5l5 20q34 2 53 8t29.5 24t20.5 54l133 496q15 55 3.5 69.5t-61.5 16.5l5 20
q51 -1 109 -2t109.5 -1h82.5q45 0 100.5 0.5t100.5 2.5q-13 -35 -23 -66.5t-15 -51.5q-5 -18 -8.5 -34.5t-5.5 -27.5h-23zM410 783q52 37 85.5 65t59 48.5t49.5 35.5q17 10 41 11.5t33 -20.5q9 -18 -4 -35t-31 -27q-35 -20 -87.5 -35t-138.5 -54z" />
    <glyph glyph-name="Ecircumflex" unicode="&#xca;" horiz-adv-x="615" 
d="M208 346l6 20h181l-5 -20h-182zM311 366q42 0 66.5 21.5t39.5 51.5t25 55h23q-18 -53 -25 -82.5t-14 -55.5q-5 -17 -9 -35t-9.5 -42t-12.5 -61h-23q4 30 4 59.5t-14.5 49t-57.5 19.5zM577 528q8 59 4 93.5t-27.5 49t-74.5 14.5h-59q-33 0 -51.5 -5.5t-29.5 -23t-21 -54.5
l-133 -496q-15 -55 -3.5 -69t62.5 -14h61q60 0 97 17t63.5 55.5t51.5 104.5h23q-5 -13 -11 -32t-11 -40q-5 -19 -13 -54.5t-13 -73.5q-51 2 -115 2.5t-114 0.5h-82.5t-109.5 -0.5t-109 -2.5l5 20q34 2 53 8t29.5 24t20.5 54l133 496q15 55 3.5 69.5t-61.5 16.5l5 20
q51 -1 109 -2t109.5 -1h82.5q45 0 100.5 0.5t100.5 2.5q-13 -35 -23 -66.5t-15 -51.5q-5 -18 -8.5 -34.5t-5.5 -27.5h-23zM434 837q-41 -16 -97.5 -35t-112.5 -30l-5 14q76 24 141.5 61t105.5 77h18q24 -46 55 -81t84 -57l-4 -14q-70 12 -109 29t-76 36z" />
    <glyph glyph-name="Edieresis" unicode="&#xcb;" horiz-adv-x="615" 
d="M208 346l6 20h181l-5 -20h-182zM311 366q42 0 66.5 21.5t39.5 51.5t25 55h23q-18 -53 -25 -82.5t-14 -55.5q-5 -17 -9 -35t-9.5 -42t-12.5 -61h-23q4 30 4 59.5t-14.5 49t-57.5 19.5zM577 528q8 59 4 93.5t-27.5 49t-74.5 14.5h-59q-33 0 -51.5 -5.5t-29.5 -23t-21 -54.5
l-133 -496q-15 -55 -3.5 -69t62.5 -14h61q60 0 97 17t63.5 55.5t51.5 104.5h23q-5 -13 -11 -32t-11 -40q-5 -19 -13 -54.5t-13 -73.5q-51 2 -115 2.5t-114 0.5h-82.5t-109.5 -0.5t-109 -2.5l5 20q34 2 53 8t29.5 24t20.5 54l133 496q15 55 3.5 69.5t-61.5 16.5l5 20
q51 -1 109 -2t109.5 -1h82.5q45 0 100.5 0.5t100.5 2.5q-13 -35 -23 -66.5t-15 -51.5q-5 -18 -8.5 -34.5t-5.5 -27.5h-23zM272 826q0 29 22 50.5t51 21.5q25 0 40 -16t15 -40q0 -30 -22 -51t-51 -21q-26 0 -40.5 16t-14.5 40zM493 826q0 29 22 50.5t52 21.5q24 0 39.5 -16
t15.5 -40q0 -30 -22.5 -51t-51.5 -21q-26 0 -40.5 16t-14.5 40z" />
    <glyph glyph-name="Igrave" unicode="&#xcc;" horiz-adv-x="357" 
d="M185 106q-14 -55 -3 -69.5t62 -16.5l-4 -20q-25 2 -62.5 2.5t-76.5 0.5q-42 0 -77.5 -0.5t-59.5 -2.5l5 20q33 2 51.5 8t29.5 24t20 54l132 496q14 55 2.5 69.5t-61.5 16.5l5 20q22 -1 58.5 -2t78.5 -1q39 0 76.5 1t63.5 2l-5 -20q-34 -1 -53 -7.5t-29.5 -24t-20.5 -54.5
zM331 770q-44 30 -75.5 48t-54 30.5t-39.5 27.5q-13 11 -20.5 29t4.5 35q13 18 34.5 14.5t36.5 -17.5q17 -14 31.5 -35.5t36 -51.5t55.5 -70z" />
    <glyph glyph-name="Iacute" unicode="&#xcd;" horiz-adv-x="357" 
d="M185 106q-14 -55 -3 -69.5t62 -16.5l-4 -20q-25 2 -62.5 2.5t-76.5 0.5q-42 0 -77.5 -0.5t-59.5 -2.5l5 20q33 2 51.5 8t29.5 24t20 54l132 496q14 55 2.5 69.5t-61.5 16.5l5 20q22 -1 58.5 -2t78.5 -1q39 0 76.5 1t63.5 2l-5 -20q-34 -1 -53 -7.5t-29.5 -24t-20.5 -54.5
zM280 783q52 37 85.5 65t59 48.5t49.5 35.5q17 10 41 11.5t33 -20.5q9 -18 -4 -35t-31 -27q-35 -20 -87.5 -35t-138.5 -54z" />
    <glyph glyph-name="Icircumflex" unicode="&#xce;" horiz-adv-x="357" 
d="M185 106q-14 -55 -3 -69.5t62 -16.5l-4 -20q-25 2 -62.5 2.5t-76.5 0.5q-42 0 -77.5 -0.5t-59.5 -2.5l5 20q33 2 51.5 8t29.5 24t20 54l132 496q14 55 2.5 69.5t-61.5 16.5l5 20q22 -1 58.5 -2t78.5 -1q39 0 76.5 1t63.5 2l-5 -20q-34 -1 -53 -7.5t-29.5 -24t-20.5 -54.5
zM305 837q-41 -16 -97.5 -35t-112.5 -30l-5 14q76 24 141.5 61t105.5 77h18q24 -46 55 -81t84 -57l-4 -14q-70 12 -109 29t-76 36z" />
    <glyph glyph-name="Idieresis" unicode="&#xcf;" horiz-adv-x="357" 
d="M185 106q-14 -55 -3 -69.5t62 -16.5l-4 -20q-25 2 -62.5 2.5t-76.5 0.5q-42 0 -77.5 -0.5t-59.5 -2.5l5 20q33 2 51.5 8t29.5 24t20 54l132 496q14 55 2.5 69.5t-61.5 16.5l5 20q22 -1 58.5 -2t78.5 -1q39 0 76.5 1t63.5 2l-5 -20q-34 -1 -53 -7.5t-29.5 -24t-20.5 -54.5
zM143 826q0 29 22 50.5t51 21.5q25 0 40 -16t15 -40q0 -30 -22 -51t-51 -21q-26 0 -40.5 16t-14.5 40zM364 826q0 29 22 50.5t52 21.5q24 0 39.5 -16t15.5 -40q0 -30 -22.5 -51t-51.5 -21q-26 0 -40.5 16t-14.5 40z" />
    <glyph glyph-name="Eth" unicode="&#xd0;" horiz-adv-x="740" 
d="M721 481q0 -72 -21 -142t-62.5 -131t-100 -107.5t-133 -73.5t-163.5 -27q-23 0 -64.5 1.5t-79.5 1.5q-23 0 -47.5 -0.5t-46 -1t-36.5 -1.5l3 20q32 2 50.5 8t29.5 24t20 54l131 496q13 48 5.5 66.5t-63.5 19.5l3 20q16 -1 38.5 -2t48.5 -1h49q22 1 50 1.5t55 1t46 0.5
q143 0 215.5 -57.5t72.5 -169.5zM233 18q91 0 160 41t116 111t70.5 157.5t23.5 180.5q0 90 -46 136t-150 46q-29 0 -45 -7t-26 -25t-20 -54l-131 -500q-12 -45 -7 -65.5t55 -20.5zM442 366l-6 -25h-416l6 25h416z" />
    <glyph glyph-name="Ntilde" unicode="&#xd1;" horiz-adv-x="788" 
d="M508 -5l-240 624l-2.5 -2.5t-5.5 -6t-5.5 -6l-2.5 -2.5q8 37 5.5 54.5t-20 24t-56.5 7.5l5 20q16 -1 39.5 -2t49.5 -1q47 0 81 3l198 -537l-2.5 -18t-6 -43.5t-7 -52t-6 -44.5l-2.5 -18h-22zM813 734q-27 -1 -47 -15t-35 -37q-46 -68 -94 -239t-107 -448l-14 28
q18 84 40.5 182.5t47.5 193.5t52.5 172t56.5 119q19 27 45 45.5t63 18.5q38 0 54.5 -18.5t16.5 -43.5q0 -30 -18.5 -54.5t-50.5 -24.5q-26 0 -37.5 14.5t-11.5 31.5q0 23 14 42.5t33 30.5q-2 1 -3.5 1.5t-4.5 0.5zM4 -54q27 1 48 15t36 38q29 46 58.5 144t60 237t61.5 305
l17 -21q-20 -102 -42 -208t-45.5 -201t-47 -165.5t-46.5 -100.5q-18 -24 -42.5 -43.5t-64.5 -19.5q-39 0 -55.5 18.5t-16.5 44.5q0 30 19 54t51 24q27 0 37.5 -14.5t10.5 -31.5q0 -23 -13.5 -42.5t-32.5 -30.5q1 -1 3 -1.5t4 -0.5zM481 906q35 0 57.5 -11t40 -25.5t36 -25.5
t44.5 -11q19 0 37 13.5t36 44.5l18 -5q-25 -62 -64.5 -88.5t-77.5 -26.5q-35 0 -58 11t-40 25.5t-35.5 25.5t-45.5 11q-19 0 -37 -13t-35 -45l-18 5q24 62 63.5 88.5t78.5 26.5z" />
    <glyph glyph-name="Ograve" unicode="&#xd2;" horiz-adv-x="745" 
d="M470 704q-56 0 -108.5 -42t-94 -113t-65.5 -158.5t-24 -177.5q0 -98 36 -153.5t92 -55.5t108.5 42t94 113t65.5 158.5t24 177.5q0 98 -36 153.5t-92 55.5zM50 226q0 66 19.5 136t56.5 134t90 115t119 81t144 30q116 0 182 -62.5t66 -178.5q0 -66 -20 -135.5t-57 -133.5
t-90 -115t-119.5 -81t-143.5 -30q-116 0 -181.5 62.5t-65.5 177.5zM510 770q-44 30 -75.5 48t-54 30.5t-39.5 27.5q-13 11 -20.5 29t4.5 35q13 18 34.5 14.5t36.5 -17.5q17 -14 31.5 -35.5t36 -51.5t55.5 -70z" />
    <glyph glyph-name="Oacute" unicode="&#xd3;" horiz-adv-x="745" 
d="M470 704q-56 0 -108.5 -42t-94 -113t-65.5 -158.5t-24 -177.5q0 -98 36 -153.5t92 -55.5t108.5 42t94 113t65.5 158.5t24 177.5q0 98 -36 153.5t-92 55.5zM50 226q0 66 19.5 136t56.5 134t90 115t119 81t144 30q116 0 182 -62.5t66 -178.5q0 -66 -20 -135.5t-57 -133.5
t-90 -115t-119.5 -81t-143.5 -30q-116 0 -181.5 62.5t-65.5 177.5zM460 783q52 37 85.5 65t59 48.5t49.5 35.5q17 10 41 11.5t33 -20.5q9 -18 -4 -35t-31 -27q-35 -20 -87.5 -35t-138.5 -54z" />
    <glyph glyph-name="Ocircumflex" unicode="&#xd4;" horiz-adv-x="745" 
d="M470 704q-56 0 -108.5 -42t-94 -113t-65.5 -158.5t-24 -177.5q0 -98 36 -153.5t92 -55.5t108.5 42t94 113t65.5 158.5t24 177.5q0 98 -36 153.5t-92 55.5zM50 226q0 66 19.5 136t56.5 134t90 115t119 81t144 30q116 0 182 -62.5t66 -178.5q0 -66 -20 -135.5t-57 -133.5
t-90 -115t-119.5 -81t-143.5 -30q-116 0 -181.5 62.5t-65.5 177.5zM484 837q-41 -16 -97.5 -35t-112.5 -30l-5 14q76 24 141.5 61t105.5 77h18q24 -46 55 -81t84 -57l-4 -14q-70 12 -109 29t-76 36z" />
    <glyph glyph-name="Otilde" unicode="&#xd5;" horiz-adv-x="745" 
d="M470 704q-56 0 -108.5 -42t-94 -113t-65.5 -158.5t-24 -177.5q0 -98 36 -153.5t92 -55.5t108.5 42t94 113t65.5 158.5t24 177.5q0 98 -36 153.5t-92 55.5zM50 226q0 66 19.5 136t56.5 134t90 115t119 81t144 30q116 0 182 -62.5t66 -178.5q0 -66 -20 -135.5t-57 -133.5
t-90 -115t-119.5 -81t-143.5 -30q-116 0 -181.5 62.5t-65.5 177.5zM439 906q35 0 57.5 -11t40 -25.5t36 -25.5t44.5 -11q19 0 37 13.5t36 44.5l18 -5q-25 -62 -64.5 -88.5t-77.5 -26.5q-35 0 -58 11t-40 25.5t-35.5 25.5t-45.5 11q-19 0 -37 -13t-35 -45l-18 5
q24 62 63.5 88.5t78.5 26.5z" />
    <glyph glyph-name="Odieresis" unicode="&#xd6;" horiz-adv-x="745" 
d="M470 704q-56 0 -108.5 -42t-94 -113t-65.5 -158.5t-24 -177.5q0 -98 36 -153.5t92 -55.5t108.5 42t94 113t65.5 158.5t24 177.5q0 98 -36 153.5t-92 55.5zM50 226q0 66 19.5 136t56.5 134t90 115t119 81t144 30q116 0 182 -62.5t66 -178.5q0 -66 -20 -135.5t-57 -133.5
t-90 -115t-119.5 -81t-143.5 -30q-116 0 -181.5 62.5t-65.5 177.5zM322 826q0 29 22 50.5t51 21.5q25 0 40 -16t15 -40q0 -30 -22 -51t-51 -21q-26 0 -40.5 16t-14.5 40zM543 826q0 29 22 50.5t52 21.5q24 0 39.5 -16t15.5 -40q0 -30 -22.5 -51t-51.5 -21q-26 0 -40.5 16
t-14.5 40z" />
    <glyph glyph-name="multiply" unicode="&#xd7;" horiz-adv-x="507" 
d="M24 182l223 173l-125 175l26 18l123 -175l227 177l16 -22l-227 -176l125 -173l-25 -18l-124 173l-224 -174z" />
    <glyph glyph-name="Oslash" unicode="&#xd8;" horiz-adv-x="745" 
d="M470 704q-56 0 -108.5 -42t-94 -113t-65.5 -158.5t-24 -177.5q0 -98 36 -153.5t92 -55.5t108.5 42t94 113t65.5 158.5t24 177.5q0 98 -36 153.5t-92 55.5zM50 226q0 66 19.5 136t56.5 134t90 115t119 81t144 30q116 0 182 -62.5t66 -178.5q0 -66 -20 -135.5t-57 -133.5
t-90 -115t-119.5 -81t-143.5 -30q-116 0 -181.5 62.5t-65.5 177.5zM643 632l135 141l15 -13l-140 -148zM144 76l-141 -149l-17 14l145 153zM146 95l488 537l10 -20l-485 -535z" />
    <glyph glyph-name="Ugrave" unicode="&#xd9;" horiz-adv-x="686" 
d="M635 576q12 43 9.5 66t-20 33.5t-54.5 12.5l5 20q18 -1 48 -2t55 -1q26 0 51 1t41 2l-5 -20q-33 -2 -53 -12t-32 -32.5t-22 -63.5l-75 -289q-36 -138 -98 -212q-36 -42 -89.5 -67.5t-115.5 -25.5q-57 0 -99.5 15.5t-67.5 46.5q-33 41 -32.5 97t23.5 143l83 314
q14 55 2.5 69.5t-61.5 16.5l6 20q22 -1 60.5 -2t80.5 -1q38 0 73.5 1t61.5 2l-6 -20q-34 -1 -53 -7.5t-29.5 -24t-20.5 -54.5l-88 -331q-19 -73 -22 -129.5t21.5 -88.5t86.5 -32q75 0 125 33.5t82 92.5t51 133zM516 770q-44 30 -75.5 48t-54 30.5t-39.5 27.5
q-13 11 -20.5 29t4.5 35q13 18 34.5 14.5t36.5 -17.5q17 -14 31.5 -35.5t36 -51.5t55.5 -70z" />
    <glyph glyph-name="Uacute" unicode="&#xda;" horiz-adv-x="686" 
d="M635 576q12 43 9.5 66t-20 33.5t-54.5 12.5l5 20q18 -1 48 -2t55 -1q26 0 51 1t41 2l-5 -20q-33 -2 -53 -12t-32 -32.5t-22 -63.5l-75 -289q-36 -138 -98 -212q-36 -42 -89.5 -67.5t-115.5 -25.5q-57 0 -99.5 15.5t-67.5 46.5q-33 41 -32.5 97t23.5 143l83 314
q14 55 2.5 69.5t-61.5 16.5l6 20q22 -1 60.5 -2t80.5 -1q38 0 73.5 1t61.5 2l-6 -20q-34 -1 -53 -7.5t-29.5 -24t-20.5 -54.5l-88 -331q-19 -73 -22 -129.5t21.5 -88.5t86.5 -32q75 0 125 33.5t82 92.5t51 133zM465 783q52 37 85.5 65t59 48.5t49.5 35.5q17 10 41 11.5
t33 -20.5q9 -18 -4 -35t-31 -27q-35 -20 -87.5 -35t-138.5 -54z" />
    <glyph glyph-name="Ucircumflex" unicode="&#xdb;" horiz-adv-x="686" 
d="M635 576q12 43 9.5 66t-20 33.5t-54.5 12.5l5 20q18 -1 48 -2t55 -1q26 0 51 1t41 2l-5 -20q-33 -2 -53 -12t-32 -32.5t-22 -63.5l-75 -289q-36 -138 -98 -212q-36 -42 -89.5 -67.5t-115.5 -25.5q-57 0 -99.5 15.5t-67.5 46.5q-33 41 -32.5 97t23.5 143l83 314
q14 55 2.5 69.5t-61.5 16.5l6 20q22 -1 60.5 -2t80.5 -1q38 0 73.5 1t61.5 2l-6 -20q-34 -1 -53 -7.5t-29.5 -24t-20.5 -54.5l-88 -331q-19 -73 -22 -129.5t21.5 -88.5t86.5 -32q75 0 125 33.5t82 92.5t51 133zM490 837q-41 -16 -97.5 -35t-112.5 -30l-5 14q76 24 141.5 61
t105.5 77h18q24 -46 55 -81t84 -57l-4 -14q-70 12 -109 29t-76 36z" />
    <glyph glyph-name="Udieresis" unicode="&#xdc;" horiz-adv-x="686" 
d="M635 576q12 43 9.5 66t-20 33.5t-54.5 12.5l5 20q18 -1 48 -2t55 -1q26 0 51 1t41 2l-5 -20q-33 -2 -53 -12t-32 -32.5t-22 -63.5l-75 -289q-36 -138 -98 -212q-36 -42 -89.5 -67.5t-115.5 -25.5q-57 0 -99.5 15.5t-67.5 46.5q-33 41 -32.5 97t23.5 143l83 314
q14 55 2.5 69.5t-61.5 16.5l6 20q22 -1 60.5 -2t80.5 -1q38 0 73.5 1t61.5 2l-6 -20q-34 -1 -53 -7.5t-29.5 -24t-20.5 -54.5l-88 -331q-19 -73 -22 -129.5t21.5 -88.5t86.5 -32q75 0 125 33.5t82 92.5t51 133zM328 826q0 29 22 50.5t51 21.5q25 0 40 -16t15 -40
q0 -30 -22 -51t-51 -21q-26 0 -40.5 16t-14.5 40zM549 826q0 29 22 50.5t52 21.5q24 0 39.5 -16t15.5 -40q0 -30 -22.5 -51t-51.5 -21q-26 0 -40.5 16t-14.5 40z" />
    <glyph glyph-name="Yacute" unicode="&#xdd;" horiz-adv-x="691" 
d="M361 106q-13 -55 -0.5 -69.5t63.5 -16.5l-5 -20q-16 1 -39 1.5t-49 1t-52 0.5q-42 0 -79.5 -0.5t-61.5 -2.5l5 20q34 2 53 8t30 24t20 54l69 274l45 -63l45 19l34 80zM697 702q-16 -1 -30 -7t-27 -16q-31 -22 -73 -73.5t-86.5 -134t-85.5 -201.5l-85 -5q-4 46 -10.5 99.5
t-16 105.5t-23 95.5t-31.5 69.5t-42 26q-17 0 -28.5 -11.5t-18.5 -35.5l-26 -76h-11h-11l31 90q16 49 41.5 71.5t70.5 22.5q59 0 93 -43.5t52 -124.5t30 -192q37 96 83 170.5t96 125.5q23 24 54 44t64 20q38 0 54 -21t15 -48q-1 -25 -19 -48.5t-51 -23.5q-26 0 -37.5 15
t-10.5 34q1 22 14 40.5t32 29.5q-1 1 -3 1.5t-4 0.5zM460 783q52 37 85.5 65t59 48.5t49.5 35.5q17 10 41 11.5t33 -20.5q9 -18 -4 -35t-31 -27q-35 -20 -87.5 -35t-138.5 -54z" />
    <glyph glyph-name="Thorn" unicode="&#xde;" horiz-adv-x="624" 
d="M259 569q36 0 72.5 1t73.5 1q108 0 159.5 -41.5t51.5 -109.5q0 -78 -49 -139.5t-136.5 -97t-203.5 -35.5h-40l2.5 10l2.5 10h45q94 0 150.5 36.5t81 98t24.5 133.5q0 57 -28.5 86.5t-92.5 29.5q-28 0 -44.5 -1t-30.5 -2t-37 -3zM185 106q-14 -55 -3 -69.5t62 -16.5
l-4 -20q-25 2 -62.5 2.5t-76.5 0.5q-42 0 -77.5 -0.5t-59.5 -2.5l5 20q33 2 51.5 8t29.5 24t20 54l132 496q14 55 2.5 69.5t-61.5 16.5l5 20q22 -1 58.5 -2t78.5 -1q39 0 76.5 1t63.5 2l-5 -20q-34 -1 -53 -7.5t-29.5 -24t-20.5 -54.5z" />
    <glyph glyph-name="germandbls" unicode="&#xdf;" horiz-adv-x="567" 
d="M377 767q-41 0 -67.5 -39.5t-50.5 -129.5l-203 -772q-30 -1 -57 -4t-51 -10l182 697q24 89 55.5 150t81 92t126.5 31q84 0 118.5 -31t34.5 -69q0 -37 -23 -68t-57 -59.5t-68 -59.5q-22 -19 -30.5 -36.5t-8.5 -38.5q0 -26 11.5 -47.5t29 -41.5t33.5 -41q30 -34 49 -68.5
t19 -75.5q0 -50 -26.5 -85.5t-69.5 -55t-94 -19.5q-34 0 -64 10.5t-48.5 31t-18.5 51.5q0 25 13 41t32 16t29.5 -12.5t14.5 -29.5t4 -32q0 -14 -3.5 -26.5t-8.5 -22.5q7 -3 15.5 -5t21.5 -2q40 0 67.5 27.5t27.5 74.5q0 29 -11 61.5t-36 67.5q-17 26 -37.5 58.5t-20.5 72.5
q0 32 14.5 53.5t37.5 40.5t46 44q31 32 47 72.5t16 85.5q0 54 -20.5 78.5t-51.5 24.5z" />
    <glyph glyph-name="agrave" unicode="&#xe0;" horiz-adv-x="535" 
d="M146 25q22 0 49 26t55 71.5t52 105.5t40 128l-18 -109q-51 -144 -105.5 -202.5t-112.5 -58.5q-50 0 -75 33.5t-25 88.5q0 50 16.5 107t46 113t67.5 101t82 72.5t88 27.5q34 0 52.5 -31.5t8.5 -91.5l-11 -6q7 47 -5.5 75.5t-40.5 28.5q-30 0 -64 -38t-64.5 -98.5t-49 -132
t-18.5 -138.5q0 -40 8.5 -56t23.5 -16zM385 515q30 1 58 4t52 10l-127 -443q-3 -11 -5.5 -24.5t1 -23.5t18.5 -10q18 0 36 19.5t36 74.5l14 41h19l-25 -73q-22 -61 -55.5 -82.5t-64.5 -21.5q-44 0 -62 28q-13 22 -8.5 53.5t13.5 65.5zM360 599q-36 49 -63.5 80.5t-47.5 54
t-34 44.5q-13 23 -9.5 40.5t17.5 25.5q17 8 35.5 1.5t31.5 -28.5t22 -50t22.5 -67t38.5 -95z" />
    <glyph glyph-name="aacute" unicode="&#xe1;" horiz-adv-x="535" 
d="M146 25q22 0 49 26t55 71.5t52 105.5t40 128l-18 -109q-51 -144 -105.5 -202.5t-112.5 -58.5q-50 0 -75 33.5t-25 88.5q0 50 16.5 107t46 113t67.5 101t82 72.5t88 27.5q34 0 52.5 -31.5t8.5 -91.5l-11 -6q7 47 -5.5 75.5t-40.5 28.5q-30 0 -64 -38t-64.5 -98.5t-49 -132
t-18.5 -138.5q0 -40 8.5 -56t23.5 -16zM385 515q30 1 58 4t52 10l-127 -443q-3 -11 -5.5 -24.5t1 -23.5t18.5 -10q18 0 36 19.5t36 74.5l14 41h19l-25 -73q-22 -61 -55.5 -82.5t-64.5 -21.5q-44 0 -62 28q-13 22 -8.5 53.5t13.5 65.5zM301 608q39 50 64 86t43.5 63t37.5 47
q18 20 38 23t35 -9q12 -13 9 -31t-24 -39q-19 -19 -46 -38t-63 -44.5t-84 -66.5z" />
    <glyph glyph-name="acircumflex" unicode="&#xe2;" horiz-adv-x="535" 
d="M146 25q22 0 49 26t55 71.5t52 105.5t40 128l-18 -109q-51 -144 -105.5 -202.5t-112.5 -58.5q-50 0 -75 33.5t-25 88.5q0 50 16.5 107t46 113t67.5 101t82 72.5t88 27.5q34 0 52.5 -31.5t8.5 -91.5l-11 -6q7 47 -5.5 75.5t-40.5 28.5q-30 0 -64 -38t-64.5 -98.5t-49 -132
t-18.5 -138.5q0 -40 8.5 -56t23.5 -16zM385 515q30 1 58 4t52 10l-127 -443q-3 -11 -5.5 -24.5t1 -23.5t18.5 -10q18 0 36 19.5t36 74.5l14 41h19l-25 -73q-22 -61 -55.5 -82.5t-64.5 -21.5q-44 0 -62 28q-13 22 -8.5 53.5t13.5 65.5zM350 708q-34 -25 -81 -50.5t-96 -43.5
l-5 14q70 30 128.5 79t94.5 101h18q12 -63 38.5 -106t80.5 -74l-4 -14q-63 16 -102 40t-72 54z" />
    <glyph glyph-name="atilde" unicode="&#xe3;" horiz-adv-x="535" 
d="M146 25q22 0 49 26t55 71.5t52 105.5t40 128l-18 -109q-51 -144 -105.5 -202.5t-112.5 -58.5q-50 0 -75 33.5t-25 88.5q0 50 16.5 107t46 113t67.5 101t82 72.5t88 27.5q34 0 52.5 -31.5t8.5 -91.5l-11 -6q7 47 -5.5 75.5t-40.5 28.5q-30 0 -64 -38t-64.5 -98.5t-49 -132
t-18.5 -138.5q0 -40 8.5 -56t23.5 -16zM385 515q30 1 58 4t52 10l-127 -443q-3 -11 -5.5 -24.5t1 -23.5t18.5 -10q18 0 36 19.5t36 74.5l14 41h19l-25 -73q-22 -61 -55.5 -82.5t-64.5 -21.5q-44 0 -62 28q-13 22 -8.5 53.5t13.5 65.5zM321 774q30 0 49.5 -11t34.5 -25.5
t30.5 -25.5t38.5 -11q18 0 35.5 13.5t34.5 44.5l18 -5q-24 -61 -62 -88t-76 -27q-30 0 -49.5 11t-34.5 25.5t-30.5 25.5t-37.5 11q-19 0 -36.5 -13t-34.5 -45l-18 5q25 62 63 88.5t75 26.5z" />
    <glyph glyph-name="adieresis" unicode="&#xe4;" horiz-adv-x="535" 
d="M146 25q22 0 49 26t55 71.5t52 105.5t40 128l-18 -109q-51 -144 -105.5 -202.5t-112.5 -58.5q-50 0 -75 33.5t-25 88.5q0 50 16.5 107t46 113t67.5 101t82 72.5t88 27.5q34 0 52.5 -31.5t8.5 -91.5l-11 -6q7 47 -5.5 75.5t-40.5 28.5q-30 0 -64 -38t-64.5 -98.5t-49 -132
t-18.5 -138.5q0 -40 8.5 -56t23.5 -16zM385 515q30 1 58 4t52 10l-127 -443q-3 -11 -5.5 -24.5t1 -23.5t18.5 -10q18 0 36 19.5t36 74.5l14 41h19l-25 -73q-22 -61 -55.5 -82.5t-64.5 -21.5q-44 0 -62 28q-13 22 -8.5 53.5t13.5 65.5zM207 677q0 29 22 50.5t52 21.5
q24 0 39.5 -16t15.5 -40q0 -30 -22.5 -51t-51.5 -21q-26 0 -40.5 16t-14.5 40zM424 677q0 29 22.5 50.5t51.5 21.5q25 0 40 -16t15 -40q0 -30 -22.5 -51t-51.5 -21q-25 0 -40 16t-15 40z" />
    <glyph glyph-name="aring" unicode="&#xe5;" horiz-adv-x="535" 
d="M146 25q22 0 49 26t55 71.5t52 105.5t40 128l-18 -109q-51 -144 -105.5 -202.5t-112.5 -58.5q-50 0 -75 33.5t-25 88.5q0 50 16.5 107t46 113t67.5 101t82 72.5t88 27.5q34 0 52.5 -31.5t8.5 -91.5l-11 -6q7 47 -5.5 75.5t-40.5 28.5q-30 0 -64 -38t-64.5 -98.5t-49 -132
t-18.5 -138.5q0 -40 8.5 -56t23.5 -16zM385 515q30 1 58 4t52 10l-127 -443q-3 -11 -5.5 -24.5t1 -23.5t18.5 -10q18 0 36 19.5t36 74.5l14 41h19l-25 -73q-22 -61 -55.5 -82.5t-64.5 -21.5q-44 0 -62 28q-13 22 -8.5 53.5t13.5 65.5zM398 793q38 0 64 -22t26 -60
q0 -28 -16 -52t-42.5 -38.5t-57.5 -14.5q-37 0 -62 22t-25 60q0 45 33 75t80 30zM376 627q33 0 59.5 24t26.5 61q0 30 -22 45t-46 15q-33 0 -58 -25t-25 -58q0 -31 20.5 -46.5t44.5 -15.5z" />
    <glyph glyph-name="ae" unicode="&#xe6;" horiz-adv-x="684" 
d="M341 224q50 18 93 36t69 39q38 31 59.5 74.5t21.5 95.5q0 41 -32 41q-27 0 -60 -33.5t-62 -89.5t-48 -123t-19 -134q0 -52 19.5 -74t51.5 -22q33 0 71.5 20.5t76.5 73.5l20 -8q-20 -33 -52 -64t-72.5 -50.5t-87.5 -19.5q-63 0 -101.5 35.5t-38.5 105.5q0 46 15.5 100.5
t45 107.5t69.5 97.5t89.5 70.5t104.5 26q43 0 71.5 -19.5t28.5 -58.5t-22.5 -72t-60.5 -60.5t-82.5 -49t-89 -36.5t-79.5 -25zM153 25q28 0 64 28.5t65 101.5l8 -14q-31 -75 -78.5 -115t-106.5 -40q-54 0 -79.5 31.5t-25.5 82.5q0 52 21.5 110.5t58.5 113t84.5 98t100 69.5
t103.5 26q22 0 45 -11.5t33 -46.5l-12 -9q-10 30 -28 37t-27 7q-40 0 -86.5 -33.5t-88.5 -90.5t-69 -129t-27 -150q0 -30 11.5 -48t33.5 -18z" />
    <glyph glyph-name="ccedilla" unicode="&#xe7;" horiz-adv-x="442" 
d="M335 509q-38 0 -75 -31t-67 -85t-48 -122t-18 -142q0 -51 20 -74t52 -23q34 0 70.5 21t73.5 75l20 -8q-20 -33 -51 -64t-70.5 -50.5t-85.5 -19.5q-63 0 -102 37t-39 112q0 60 22 128t62.5 128.5t99 99t131.5 38.5q47 0 79.5 -24t32.5 -65q0 -21 -10 -42t-28 -34.5
t-42 -13.5q-22 0 -34 13t-12 32q0 33 24.5 56.5t55.5 30.5q-9 12 -23.5 19.5t-37.5 7.5zM165 0l-38 -71q10 3 22.5 5.5t23.5 2.5q21 0 34.5 -10.5t13.5 -30.5q0 -29 -21.5 -48t-53 -27.5t-61.5 -8.5q-29 0 -51 7t-32 14l6 15q8 -2 22 -7t39 -5q11 0 28.5 4t31.5 15t14 30
q0 24 -28 24q-5 0 -14 -1.5t-17 -5.5l53 98h28z" />
    <glyph glyph-name="egrave" unicode="&#xe8;" horiz-adv-x="442" 
d="M100 224q51 18 93.5 37t69.5 41q37 31 58.5 73.5t21.5 93.5q0 26 -4 33.5t-12 7.5q-29 0 -65 -33.5t-67.5 -89.5t-52 -123t-20.5 -134q0 -52 19.5 -74t51.5 -22q33 0 73 20.5t79 73.5l16 -8q-20 -33 -52 -64t-72.5 -50.5t-87.5 -19.5q-63 0 -101.5 35.5t-38.5 105.5
q0 46 16.5 100.5t47 107.5t72.5 97.5t94 70.5t110 26q36 0 60 -17.5t24 -52.5q0 -40 -22.5 -74.5t-60.5 -62.5t-82.5 -50t-89 -38t-79.5 -26zM335 599q-36 49 -63.5 80.5t-47.5 54t-34 44.5q-13 23 -9.5 40.5t17.5 25.5q17 8 35.5 1.5t31.5 -28.5t22 -50t22.5 -67t38.5 -95z
" />
    <glyph glyph-name="eacute" unicode="&#xe9;" horiz-adv-x="442" 
d="M100 224q51 18 93.5 37t69.5 41q37 31 58.5 73.5t21.5 93.5q0 26 -4 33.5t-12 7.5q-29 0 -65 -33.5t-67.5 -89.5t-52 -123t-20.5 -134q0 -52 19.5 -74t51.5 -22q33 0 73 20.5t79 73.5l16 -8q-20 -33 -52 -64t-72.5 -50.5t-87.5 -19.5q-63 0 -101.5 35.5t-38.5 105.5
q0 46 16.5 100.5t47 107.5t72.5 97.5t94 70.5t110 26q36 0 60 -17.5t24 -52.5q0 -40 -22.5 -74.5t-60.5 -62.5t-82.5 -50t-89 -38t-79.5 -26zM277 608q39 50 64 86t43.5 63t37.5 47q18 20 38 23t35 -9q12 -13 9 -31t-24 -39q-19 -19 -46 -38t-63 -44.5t-84 -66.5z" />
    <glyph glyph-name="ecircumflex" unicode="&#xea;" horiz-adv-x="442" 
d="M100 224q51 18 93.5 37t69.5 41q37 31 58.5 73.5t21.5 93.5q0 26 -4 33.5t-12 7.5q-29 0 -65 -33.5t-67.5 -89.5t-52 -123t-20.5 -134q0 -52 19.5 -74t51.5 -22q33 0 73 20.5t79 73.5l16 -8q-20 -33 -52 -64t-72.5 -50.5t-87.5 -19.5q-63 0 -101.5 35.5t-38.5 105.5
q0 46 16.5 100.5t47 107.5t72.5 97.5t94 70.5t110 26q36 0 60 -17.5t24 -52.5q0 -40 -22.5 -74.5t-60.5 -62.5t-82.5 -50t-89 -38t-79.5 -26zM326 708q-34 -25 -81 -50.5t-96 -43.5l-5 14q70 30 128.5 79t94.5 101h18q12 -63 38.5 -106t80.5 -74l-4 -14q-63 16 -102 40
t-72 54z" />
    <glyph glyph-name="edieresis" unicode="&#xeb;" horiz-adv-x="442" 
d="M100 224q51 18 93.5 37t69.5 41q37 31 58.5 73.5t21.5 93.5q0 26 -4 33.5t-12 7.5q-29 0 -65 -33.5t-67.5 -89.5t-52 -123t-20.5 -134q0 -52 19.5 -74t51.5 -22q33 0 73 20.5t79 73.5l16 -8q-20 -33 -52 -64t-72.5 -50.5t-87.5 -19.5q-63 0 -101.5 35.5t-38.5 105.5
q0 46 16.5 100.5t47 107.5t72.5 97.5t94 70.5t110 26q36 0 60 -17.5t24 -52.5q0 -40 -22.5 -74.5t-60.5 -62.5t-82.5 -50t-89 -38t-79.5 -26zM183 677q0 29 22 50.5t52 21.5q24 0 39.5 -16t15.5 -40q0 -30 -22.5 -51t-51.5 -21q-26 0 -40.5 16t-14.5 40zM400 677
q0 29 22.5 50.5t51.5 21.5q25 0 40 -16t15 -40q0 -30 -22.5 -51t-51.5 -21q-25 0 -40 16t-15 40z" />
    <glyph glyph-name="igrave" unicode="&#xec;" horiz-adv-x="309" 
d="M152 430q19 58 -13 58q-22 0 -39 -22.5t-36 -71.5l-15 -42h-19l26 74q22 62 58 82.5t71 20.5q45 0 60.5 -22t12.5 -54.5t-14 -63.5l-106 -304q-10 -28 -6 -43t21 -15q18 0 35 19.5t38 74.5l15 41h19l-25 -73q-22 -59 -56.5 -81t-70.5 -22q-44 0 -61.5 19.5t-15.5 53
t17 73.5zM223 599q-36 49 -63.5 80.5t-47.5 54t-34 44.5q-13 23 -9.5 40.5t17.5 25.5q17 8 35.5 1.5t31.5 -28.5t22 -50t22.5 -67t38.5 -95z" />
    <glyph glyph-name="iacute" unicode="&#xed;" horiz-adv-x="309" 
d="M152 430q19 58 -13 58q-22 0 -39 -22.5t-36 -71.5l-15 -42h-19l26 74q22 62 58 82.5t71 20.5q45 0 60.5 -22t12.5 -54.5t-14 -63.5l-106 -304q-10 -28 -6 -43t21 -15q18 0 35 19.5t38 74.5l15 41h19l-25 -73q-22 -59 -56.5 -81t-70.5 -22q-44 0 -61.5 19.5t-15.5 53
t17 73.5zM164 608q39 50 64 86t43.5 63t37.5 47q18 20 38 23t35 -9q12 -13 9 -31t-24 -39q-19 -19 -46 -38t-63 -44.5t-84 -66.5z" />
    <glyph glyph-name="icircumflex" unicode="&#xee;" horiz-adv-x="309" 
d="M152 430q19 58 -13 58q-22 0 -39 -22.5t-36 -71.5l-15 -42h-19l26 74q22 62 58 82.5t71 20.5q45 0 60.5 -22t12.5 -54.5t-14 -63.5l-106 -304q-10 -28 -6 -43t21 -15q18 0 35 19.5t38 74.5l15 41h19l-25 -73q-22 -59 -56.5 -81t-70.5 -22q-44 0 -61.5 19.5t-15.5 53
t17 73.5zM214 708q-34 -25 -81 -50.5t-96 -43.5l-5 14q70 30 128.5 79t94.5 101h18q12 -63 38.5 -106t80.5 -74l-4 -14q-63 16 -102 40t-72 54z" />
    <glyph glyph-name="idieresis" unicode="&#xef;" horiz-adv-x="309" 
d="M152 430q19 58 -13 58q-22 0 -39 -22.5t-36 -71.5l-15 -42h-19l26 74q22 62 58 82.5t71 20.5q45 0 60.5 -22t12.5 -54.5t-14 -63.5l-106 -304q-10 -28 -6 -43t21 -15q18 0 35 19.5t38 74.5l15 41h19l-25 -73q-22 -59 -56.5 -81t-70.5 -22q-44 0 -61.5 19.5t-15.5 53
t17 73.5zM71 677q0 29 22 50.5t52 21.5q24 0 39.5 -16t15.5 -40q0 -30 -22.5 -51t-51.5 -21q-26 0 -40.5 16t-14.5 40zM288 677q0 29 22.5 50.5t51.5 21.5q25 0 40 -16t15 -40q0 -30 -22.5 -51t-51.5 -21q-25 0 -40 16t-15 40z" />
    <glyph glyph-name="eth" unicode="&#xf0;" horiz-adv-x="501" 
d="M324 684l172 76l6 -18l-164 -72zM338 669l-219 -97l-6 18l211 93zM358 421q0 97 -25 162.5t-67.5 109t-95.5 72.5l12 17q83 -30 147 -82.5t99.5 -129t35.5 -177.5q0 -66 -19.5 -137t-57.5 -132.5t-94.5 -99.5t-129.5 -38q-42 0 -75 17t-51.5 52.5t-18.5 90.5t19 121
t55.5 125.5t89.5 97.5t121 38q31 0 47 -10.5t28 -23.5l-7 -12q-10 13 -26 19.5t-39 6.5q-30 0 -57.5 -26t-50.5 -70.5t-39.5 -99.5t-25.5 -113t-9 -111q0 -44 12.5 -63t36.5 -19q39 0 72 39t58.5 101.5t40 135t14.5 139.5z" />
    <glyph glyph-name="ntilde" unicode="&#xf1;" horiz-adv-x="588" 
d="M134 0h-105l120 430q4 13 6.5 26.5t-1.5 22.5t-19 9q-20 0 -36.5 -20t-35.5 -74l-15 -42h-19l25 74q22 61 54.5 82t68.5 21q42 0 56 -22t11 -54t-11 -64zM175 195q36 96 69.5 160.5t65.5 102.5t65.5 54.5t70.5 16.5q48 0 66.5 -22t17 -56.5t-13.5 -72.5l-97 -293
q-10 -27 -7 -42.5t22 -15.5q17 0 34.5 19t37.5 75l15 41h19l-25 -73q-22 -63 -57.5 -83t-68.5 -20q-49 0 -68 30q-12 19 -9 48.5t16 67.5l93 281q5 15 8 33t-1 31.5t-25 13.5q-28 0 -61.5 -34.5t-68.5 -94.5t-67.5 -139t-58.5 -168zM328 774q30 0 49.5 -11t34.5 -25.5
t30.5 -25.5t38.5 -11q18 0 35.5 13.5t34.5 44.5l18 -5q-24 -61 -62 -88t-76 -27q-30 0 -49.5 11t-34.5 25.5t-30.5 25.5t-37.5 11q-19 0 -36.5 -13t-34.5 -45l-18 5q25 62 63 88.5t75 26.5z" />
    <glyph glyph-name="ograve" unicode="&#xf2;" horiz-adv-x="502" 
d="M313 509q-29 0 -57 -26t-52.5 -70.5t-43.5 -99.5t-29.5 -114t-10.5 -112q0 -42 12.5 -61.5t36.5 -19.5q29 0 57 26t53 70t43.5 98.5t29 113.5t10.5 114q0 44 -12 62.5t-37 18.5zM18 146q0 55 19.5 121.5t57 126t94 97.5t130.5 38q67 0 106 -39.5t39 -120.5
q0 -55 -19.5 -121.5t-57 -126t-94 -97.5t-130.5 -38q-67 0 -106 40t-39 120zM353 599q-36 49 -63.5 80.5t-47.5 54t-34 44.5q-13 23 -9.5 40.5t17.5 25.5q17 8 35.5 1.5t31.5 -28.5t22 -50t22.5 -67t38.5 -95z" />
    <glyph glyph-name="oacute" unicode="&#xf3;" horiz-adv-x="502" 
d="M313 509q-29 0 -57 -26t-52.5 -70.5t-43.5 -99.5t-29.5 -114t-10.5 -112q0 -42 12.5 -61.5t36.5 -19.5q29 0 57 26t53 70t43.5 98.5t29 113.5t10.5 114q0 44 -12 62.5t-37 18.5zM18 146q0 55 19.5 121.5t57 126t94 97.5t130.5 38q67 0 106 -39.5t39 -120.5
q0 -55 -19.5 -121.5t-57 -126t-94 -97.5t-130.5 -38q-67 0 -106 40t-39 120zM294 608q39 50 64 86t43.5 63t37.5 47q18 20 38 23t35 -9q12 -13 9 -31t-24 -39q-19 -19 -46 -38t-63 -44.5t-84 -66.5z" />
    <glyph glyph-name="ocircumflex" unicode="&#xf4;" horiz-adv-x="502" 
d="M313 509q-29 0 -57 -26t-52.5 -70.5t-43.5 -99.5t-29.5 -114t-10.5 -112q0 -42 12.5 -61.5t36.5 -19.5q29 0 57 26t53 70t43.5 98.5t29 113.5t10.5 114q0 44 -12 62.5t-37 18.5zM18 146q0 55 19.5 121.5t57 126t94 97.5t130.5 38q67 0 106 -39.5t39 -120.5
q0 -55 -19.5 -121.5t-57 -126t-94 -97.5t-130.5 -38q-67 0 -106 40t-39 120zM344 708q-34 -25 -81 -50.5t-96 -43.5l-5 14q70 30 128.5 79t94.5 101h18q12 -63 38.5 -106t80.5 -74l-4 -14q-63 16 -102 40t-72 54z" />
    <glyph glyph-name="otilde" unicode="&#xf5;" horiz-adv-x="502" 
d="M313 509q-29 0 -57 -26t-52.5 -70.5t-43.5 -99.5t-29.5 -114t-10.5 -112q0 -42 12.5 -61.5t36.5 -19.5q29 0 57 26t53 70t43.5 98.5t29 113.5t10.5 114q0 44 -12 62.5t-37 18.5zM18 146q0 55 19.5 121.5t57 126t94 97.5t130.5 38q67 0 106 -39.5t39 -120.5
q0 -55 -19.5 -121.5t-57 -126t-94 -97.5t-130.5 -38q-67 0 -106 40t-39 120zM315 774q30 0 49.5 -11t34.5 -25.5t30.5 -25.5t38.5 -11q18 0 35.5 13.5t34.5 44.5l18 -5q-24 -61 -62 -88t-76 -27q-30 0 -49.5 11t-34.5 25.5t-30.5 25.5t-37.5 11q-19 0 -36.5 -13t-34.5 -45
l-18 5q25 62 63 88.5t75 26.5z" />
    <glyph glyph-name="odieresis" unicode="&#xf6;" horiz-adv-x="502" 
d="M313 509q-29 0 -57 -26t-52.5 -70.5t-43.5 -99.5t-29.5 -114t-10.5 -112q0 -42 12.5 -61.5t36.5 -19.5q29 0 57 26t53 70t43.5 98.5t29 113.5t10.5 114q0 44 -12 62.5t-37 18.5zM18 146q0 55 19.5 121.5t57 126t94 97.5t130.5 38q67 0 106 -39.5t39 -120.5
q0 -55 -19.5 -121.5t-57 -126t-94 -97.5t-130.5 -38q-67 0 -106 40t-39 120zM201 677q0 29 22 50.5t52 21.5q24 0 39.5 -16t15.5 -40q0 -30 -22.5 -51t-51.5 -21q-26 0 -40.5 16t-14.5 40zM418 677q0 29 22.5 50.5t51.5 21.5q25 0 40 -16t15 -40q0 -30 -22.5 -51t-51.5 -21
q-25 0 -40 16t-15 40z" />
    <glyph glyph-name="divide" unicode="&#xf7;" horiz-adv-x="650" 
d="M335 499q7 23 28 39t43 16q23 0 35 -16t5 -39t-28 -39t-44 -16q-22 0 -34 16t-5 39zM252 211q7 23 28 39t43 16q23 0 35 -16t5 -39t-28 -39.5t-44 -16.5q-22 0 -34 16.5t-5 39.5zM84 340l9 30h501l-9 -30h-501z" />
    <glyph glyph-name="oslash" unicode="&#xf8;" horiz-adv-x="502" 
d="M313 509q-29 0 -57 -26t-52.5 -70.5t-43.5 -99.5t-29.5 -114t-10.5 -112q0 -42 12.5 -61.5t36.5 -19.5q29 0 57 26t53 70t43.5 98.5t29 113.5t10.5 114q0 44 -12 62.5t-37 18.5zM18 146q0 55 19.5 121.5t57 126t94 97.5t130.5 38q67 0 106 -39.5t39 -120.5
q0 -55 -19.5 -121.5t-57 -126t-94 -97.5t-130.5 -38q-67 0 -106 40t-39 120zM386 464l100 126l13 -11l-103 -132zM387 448l-280 -393l-11 18l281 392zM97 55l-105 -131l-14 12l108 137z" />
    <glyph glyph-name="ugrave" unicode="&#xf9;" horiz-adv-x="577" 
d="M396 348q-37 -104 -70 -173.5t-65.5 -111t-66.5 -59.5t-70 -18q-65 0 -80 42.5t7 108.5l97 293q10 30 6.5 44t-21.5 14q-17 0 -34.5 -19t-37.5 -75l-15 -41h-19l25 73q22 63 57.5 83t68.5 20q44 0 61 -20t15.5 -53.5t-15.5 -72.5l-93 -281q-26 -78 18 -78q28 0 61.5 35
t68 97.5t66.5 146t57 179.5zM410 85q-7 -26 -6.5 -42t19.5 -16q21 0 38.5 21.5t34.5 72.5l15 42h19l-25 -74q-22 -62 -57 -82.5t-69 -20.5q-19 0 -34.5 7.5t-23.5 21.5q-9 18 -7 44t12 67l99 389q31 1 58.5 4t50.5 10zM343 599q-36 49 -63.5 80.5t-47.5 54t-34 44.5
q-13 23 -9.5 40.5t17.5 25.5q17 8 35.5 1.5t31.5 -28.5t22 -50t22.5 -67t38.5 -95z" />
    <glyph glyph-name="uacute" unicode="&#xfa;" horiz-adv-x="577" 
d="M396 348q-37 -104 -70 -173.5t-65.5 -111t-66.5 -59.5t-70 -18q-65 0 -80 42.5t7 108.5l97 293q10 30 6.5 44t-21.5 14q-17 0 -34.5 -19t-37.5 -75l-15 -41h-19l25 73q22 63 57.5 83t68.5 20q44 0 61 -20t15.5 -53.5t-15.5 -72.5l-93 -281q-26 -78 18 -78q28 0 61.5 35
t68 97.5t66.5 146t57 179.5zM410 85q-7 -26 -6.5 -42t19.5 -16q21 0 38.5 21.5t34.5 72.5l15 42h19l-25 -74q-22 -62 -57 -82.5t-69 -20.5q-19 0 -34.5 7.5t-23.5 21.5q-9 18 -7 44t12 67l99 389q31 1 58.5 4t50.5 10zM285 608q39 50 64 86t43.5 63t37.5 47q18 20 38 23
t35 -9q12 -13 9 -31t-24 -39q-19 -19 -46 -38t-63 -44.5t-84 -66.5z" />
    <glyph glyph-name="ucircumflex" unicode="&#xfb;" horiz-adv-x="577" 
d="M396 348q-37 -104 -70 -173.5t-65.5 -111t-66.5 -59.5t-70 -18q-65 0 -80 42.5t7 108.5l97 293q10 30 6.5 44t-21.5 14q-17 0 -34.5 -19t-37.5 -75l-15 -41h-19l25 73q22 63 57.5 83t68.5 20q44 0 61 -20t15.5 -53.5t-15.5 -72.5l-93 -281q-26 -78 18 -78q28 0 61.5 35
t68 97.5t66.5 146t57 179.5zM410 85q-7 -26 -6.5 -42t19.5 -16q21 0 38.5 21.5t34.5 72.5l15 42h19l-25 -74q-22 -62 -57 -82.5t-69 -20.5q-19 0 -34.5 7.5t-23.5 21.5q-9 18 -7 44t12 67l99 389q31 1 58.5 4t50.5 10zM334 708q-34 -25 -81 -50.5t-96 -43.5l-5 14
q70 30 128.5 79t94.5 101h18q12 -63 38.5 -106t80.5 -74l-4 -14q-63 16 -102 40t-72 54z" />
    <glyph glyph-name="udieresis" unicode="&#xfc;" horiz-adv-x="577" 
d="M396 348q-37 -104 -70 -173.5t-65.5 -111t-66.5 -59.5t-70 -18q-65 0 -80 42.5t7 108.5l97 293q10 30 6.5 44t-21.5 14q-17 0 -34.5 -19t-37.5 -75l-15 -41h-19l25 73q22 63 57.5 83t68.5 20q44 0 61 -20t15.5 -53.5t-15.5 -72.5l-93 -281q-26 -78 18 -78q28 0 61.5 35
t68 97.5t66.5 146t57 179.5zM410 85q-7 -26 -6.5 -42t19.5 -16q21 0 38.5 21.5t34.5 72.5l15 42h19l-25 -74q-22 -62 -57 -82.5t-69 -20.5q-19 0 -34.5 7.5t-23.5 21.5q-9 18 -7 44t12 67l99 389q31 1 58.5 4t50.5 10zM191 677q0 29 22 50.5t52 21.5q24 0 39.5 -16t15.5 -40
q0 -30 -22.5 -51t-51.5 -21q-26 0 -40.5 16t-14.5 40zM408 677q0 29 22.5 50.5t51.5 21.5q25 0 40 -16t15 -40q0 -30 -22.5 -51t-51.5 -21q-25 0 -40 16t-15 40z" />
    <glyph glyph-name="yacute" unicode="&#xfd;" horiz-adv-x="481" 
d="M291 47l-80 -89l-78 470q-5 30 -11 41.5t-19 11.5q-10 0 -23 -16.5t-32 -69.5l-14 -41h-19l25 73q21 61 52 81.5t65 20.5q35 0 54.5 -20.5t27.5 -76.5zM65 -140q45 23 94 62.5t101 106.5q58 73 104 162t66 177q-29 16 -56 43.5t-26 63.5q2 26 17 40t40 14
q29 0 42.5 -21.5t13.5 -62.5q0 -50 -16.5 -107.5t-45 -117.5t-63.5 -115.5t-72 -101.5q-21 -26 -52.5 -57.5t-71 -61.5t-87.5 -50q-27 -12 -47.5 -17t-33.5 -5q-24 0 -40.5 12t-16.5 34q0 23 17.5 37t41.5 14q26 0 48.5 -14.5t42.5 -34.5zM251 608q39 50 64 86t43.5 63
t37.5 47q18 20 38 23t35 -9q12 -13 9 -31t-24 -39q-19 -19 -46 -38t-63 -44.5t-84 -66.5z" />
    <glyph glyph-name="thorn" unicode="&#xfe;" horiz-adv-x="562" 
d="M378 490q-21 0 -47 -23.5t-52.5 -64.5t-49 -93t-36.5 -109l22 106q50 123 98 173t103 50q52 0 81.5 -36.5t29.5 -108.5q0 -46 -13 -99.5t-37.5 -106t-60 -96.5t-82 -70t-102.5 -26q-31 0 -55.5 16t-34.5 45l8 19q13 -30 29.5 -42.5t38.5 -12.5q32 0 62.5 25.5t55.5 68.5
t44.5 95t30 105t10.5 99t-11.5 66t-31.5 20zM254 776q30 2 58 6.5t52 12.5l-251 -879q-13 -45 10 -60.5t70 -15.5l-6 -21q-21 1 -60 2.5t-82 1.5q-34 0 -69 -1.5t-52 -2.5l6 21q36 0 52 13.5t26 48.5zM18 355q39 38 72 76t65 90t64 132l3 -16q-33 -103 -82.5 -169.5
t-110.5 -125.5z" />
    <glyph glyph-name="ydieresis" unicode="&#xff;" horiz-adv-x="481" 
d="M291 47l-80 -89l-78 470q-5 30 -11 41.5t-19 11.5q-10 0 -23 -16.5t-32 -69.5l-14 -41h-19l25 73q21 61 52 81.5t65 20.5q35 0 54.5 -20.5t27.5 -76.5zM65 -140q45 23 94 62.5t101 106.5q58 73 104 162t66 177q-29 16 -56 43.5t-26 63.5q2 26 17 40t40 14
q29 0 42.5 -21.5t13.5 -62.5q0 -50 -16.5 -107.5t-45 -117.5t-63.5 -115.5t-72 -101.5q-21 -26 -52.5 -57.5t-71 -61.5t-87.5 -50q-27 -12 -47.5 -17t-33.5 -5q-24 0 -40.5 12t-16.5 34q0 23 17.5 37t41.5 14q26 0 48.5 -14.5t42.5 -34.5zM158 677q0 29 22 50.5t52 21.5
q24 0 39.5 -16t15.5 -40q0 -30 -22.5 -51t-51.5 -21q-26 0 -40.5 16t-14.5 40zM375 677q0 29 22.5 50.5t51.5 21.5q25 0 40 -16t15 -40q0 -30 -22.5 -51t-51.5 -21q-25 0 -40 16t-15 40z" />
    <glyph glyph-name="Amacron" unicode="&#x100;" horiz-adv-x="637" 
d="M73 156q-35 -49 -40 -78.5t15 -43t61 -14.5l-5 -20q-33 2 -63 2.5t-57 0.5q-24 0 -40.5 -0.5t-32.5 -2.5l5 20q22 6 46.5 26.5t57.5 66.5l427 600h13.5h13.5l40 -629q3 -36 18.5 -49.5t30.5 -14.5l-4 -20q-22 2 -56 2.5t-65 0.5q-39 0 -74 -0.5t-56 -2.5l4 20
q48 2 68 17.5t18 66.5l-26 483l16 13zM158 288h292l-8 -20h-302zM650 844l-6 -25h-368l6 25h368z" />
    <glyph glyph-name="amacron" unicode="&#x101;" horiz-adv-x="535" 
d="M146 25q22 0 49 26t55 71.5t52 105.5t40 128l-18 -109q-51 -144 -105.5 -202.5t-112.5 -58.5q-50 0 -75 33.5t-25 88.5q0 50 16.5 107t46 113t67.5 101t82 72.5t88 27.5q34 0 52.5 -31.5t8.5 -91.5l-11 -6q7 47 -5.5 75.5t-40.5 28.5q-30 0 -64 -38t-64.5 -98.5t-49 -132
t-18.5 -138.5q0 -40 8.5 -56t23.5 -16zM385 515q30 1 58 4t52 10l-127 -443q-3 -11 -5.5 -24.5t1 -23.5t18.5 -10q18 0 36 19.5t36 74.5l14 41h19l-25 -73q-22 -61 -55.5 -82.5t-64.5 -21.5q-44 0 -62 28q-13 22 -8.5 53.5t13.5 65.5zM542 712l-6 -25h-320l6 25h320z" />
    <glyph glyph-name="Abreve" unicode="&#x102;" horiz-adv-x="637" 
d="M73 156q-35 -49 -40 -78.5t15 -43t61 -14.5l-5 -20q-33 2 -63 2.5t-57 0.5q-24 0 -40.5 -0.5t-32.5 -2.5l5 20q22 6 46.5 26.5t57.5 66.5l427 600h13.5h13.5l40 -629q3 -36 18.5 -49.5t30.5 -14.5l-4 -20q-22 2 -56 2.5t-65 0.5q-39 0 -74 -0.5t-56 -2.5l4 20
q48 2 68 17.5t18 66.5l-26 483l16 13zM158 288h292l-8 -20h-302zM483 856q56 0 115.5 14.5t107.5 42.5l10 -10q-26 -30 -68 -58.5t-90.5 -47.5t-92.5 -19q-66 0 -104.5 37t-49.5 89l16 5q27 -30 63 -41.5t93 -11.5z" />
    <glyph glyph-name="abreve" unicode="&#x103;" horiz-adv-x="535" 
d="M146 25q22 0 49 26t55 71.5t52 105.5t40 128l-18 -109q-51 -144 -105.5 -202.5t-112.5 -58.5q-50 0 -75 33.5t-25 88.5q0 50 16.5 107t46 113t67.5 101t82 72.5t88 27.5q34 0 52.5 -31.5t8.5 -91.5l-11 -6q7 47 -5.5 75.5t-40.5 28.5q-30 0 -64 -38t-64.5 -98.5t-49 -132
t-18.5 -138.5q0 -40 8.5 -56t23.5 -16zM385 515q30 1 58 4t52 10l-127 -443q-3 -11 -5.5 -24.5t1 -23.5t18.5 -10q18 0 36 19.5t36 74.5l14 41h19l-25 -73q-22 -61 -55.5 -82.5t-64.5 -21.5q-44 0 -62 28q-13 22 -8.5 53.5t13.5 65.5zM375 706q49 0 106 21.5t100 60.5
l10 -11q-24 -35 -63 -69t-84.5 -56.5t-86.5 -22.5q-55 0 -85.5 44t-39.5 105l16 6q23 -43 51 -60.5t76 -17.5z" />
    <glyph glyph-name="Aogonek" unicode="&#x104;" horiz-adv-x="637" 
d="M73 156q-35 -49 -40 -78.5t15 -43t61 -14.5l-5 -20q-33 2 -63 2.5t-57 0.5q-24 0 -40.5 -0.5t-32.5 -2.5l5 20q22 6 46.5 26.5t57.5 66.5l427 600h13.5h13.5l40 -629q3 -36 18.5 -49.5t30.5 -14.5l-4 -20q-22 2 -56 2.5t-65 0.5q-39 0 -74 -0.5t-56 -2.5l4 20
q48 2 68 17.5t18 66.5l-26 483l16 13zM158 288h292l-8 -20h-302zM548 3q-27 -8 -53 -23.5t-43.5 -36.5t-17.5 -48q0 -34 37 -34q19 0 40 7t36 17l11 -17q-33 -29 -67 -42.5t-68 -13.5q-38 0 -57.5 16t-19.5 43q0 33 27 59t66 44.5t75 28.5h34z" />
    <glyph glyph-name="aogonek" unicode="&#x105;" horiz-adv-x="535" 
d="M146 25q22 0 49 26t55 71.5t52 105.5t40 128l-18 -109q-51 -144 -105.5 -202.5t-112.5 -58.5q-50 0 -75 33.5t-25 88.5q0 50 16.5 107t46 113t67.5 101t82 72.5t88 27.5q34 0 52.5 -31.5t8.5 -91.5l-11 -6q7 47 -5.5 75.5t-40.5 28.5q-30 0 -64 -38t-64.5 -98.5t-49 -132
t-18.5 -138.5q0 -40 8.5 -56t23.5 -16zM385 515q30 1 58 4t52 10l-127 -443q-3 -11 -5.5 -24.5t1 -23.5t18.5 -10q18 0 36 19.5t36 74.5l14 41h19l-25 -73q-22 -61 -55.5 -82.5t-64.5 -21.5q-44 0 -62 28q-13 22 -8.5 53.5t13.5 65.5zM400 3q-25 -7 -52 -22.5t-44.5 -37
t-17.5 -47.5q0 -35 35 -35q18 0 36.5 9t29.5 21l13 -11q-29 -35 -61 -51.5t-65 -16.5q-36 0 -56 16.5t-20 42.5q0 33 27 59t66 44.5t75 28.5h34z" />
    <glyph glyph-name="Cacute" unicode="&#x106;" horiz-adv-x="678" 
d="M723 708q-15 -39 -31 -94.5t-33 -135.5h-22q8 52 6.5 88t-15.5 62q-19 37 -53 55.5t-74 18.5q-51 0 -99 -29.5t-89 -80t-72.5 -114.5t-49 -134.5t-17.5 -138.5q0 -100 38 -148.5t103 -48.5q40 0 86.5 19t81.5 55q27 27 46.5 63.5t43.5 94.5h22q-25 -91 -38.5 -146.5
t-20.5 -93.5h-22q3 21 3 34q0 22 -8 25t-25 -8q-41 -27 -83.5 -46t-107.5 -19q-119 0 -182 61t-63 178q0 69 21.5 139.5t62 134.5t96 114t124 79.5t146.5 29.5q64 0 95 -20t54 -45q14 -14 26.5 -3t28.5 54h21zM482 783q52 37 85.5 65t59 48.5t49.5 35.5q17 10 41 11.5
t33 -20.5q9 -18 -4 -35t-31 -27q-35 -20 -87.5 -35t-138.5 -54z" />
    <glyph glyph-name="cacute" unicode="&#x107;" horiz-adv-x="442" 
d="M335 509q-38 0 -75 -31t-67 -85t-48 -122t-18 -142q0 -51 20 -74t52 -23q34 0 70.5 21t73.5 75l20 -8q-20 -33 -51 -64t-70.5 -50.5t-85.5 -19.5q-63 0 -102 37t-39 112q0 60 22 128t62.5 128.5t99 99t131.5 38.5q47 0 79.5 -24t32.5 -65q0 -21 -10 -42t-28 -34.5
t-42 -13.5q-22 0 -34 13t-12 32q0 33 24.5 56.5t55.5 30.5q-9 12 -23.5 19.5t-37.5 7.5zM275 608q39 50 64 86t43.5 63t37.5 47q18 20 38 23t35 -9q12 -13 9 -31t-24 -39q-19 -19 -46 -38t-63 -44.5t-84 -66.5z" />
    <glyph glyph-name="Ccircumflex" unicode="&#x108;" horiz-adv-x="678" 
d="M723 708q-15 -39 -31 -94.5t-33 -135.5h-22q8 52 6.5 88t-15.5 62q-19 37 -53 55.5t-74 18.5q-51 0 -99 -29.5t-89 -80t-72.5 -114.5t-49 -134.5t-17.5 -138.5q0 -100 38 -148.5t103 -48.5q40 0 86.5 19t81.5 55q27 27 46.5 63.5t43.5 94.5h22q-25 -91 -38.5 -146.5
t-20.5 -93.5h-22q3 21 3 34q0 22 -8 25t-25 -8q-41 -27 -83.5 -46t-107.5 -19q-119 0 -182 61t-63 178q0 69 21.5 139.5t62 134.5t96 114t124 79.5t146.5 29.5q64 0 95 -20t54 -45q14 -14 26.5 -3t28.5 54h21zM507 837q-41 -16 -97.5 -35t-112.5 -30l-5 14q76 24 141.5 61
t105.5 77h18q24 -46 55 -81t84 -57l-4 -14q-70 12 -109 29t-76 36z" />
    <glyph glyph-name="ccircumflex" unicode="&#x109;" horiz-adv-x="442" 
d="M335 509q-38 0 -75 -31t-67 -85t-48 -122t-18 -142q0 -51 20 -74t52 -23q34 0 70.5 21t73.5 75l20 -8q-20 -33 -51 -64t-70.5 -50.5t-85.5 -19.5q-63 0 -102 37t-39 112q0 60 22 128t62.5 128.5t99 99t131.5 38.5q47 0 79.5 -24t32.5 -65q0 -21 -10 -42t-28 -34.5
t-42 -13.5q-22 0 -34 13t-12 32q0 33 24.5 56.5t55.5 30.5q-9 12 -23.5 19.5t-37.5 7.5zM324 708q-34 -25 -81 -50.5t-96 -43.5l-5 14q70 30 128.5 79t94.5 101h18q12 -63 38.5 -106t80.5 -74l-4 -14q-63 16 -102 40t-72 54z" />
    <glyph glyph-name="Cdotaccent" unicode="&#x10a;" horiz-adv-x="678" 
d="M723 708q-15 -39 -31 -94.5t-33 -135.5h-22q8 52 6.5 88t-15.5 62q-19 37 -53 55.5t-74 18.5q-51 0 -99 -29.5t-89 -80t-72.5 -114.5t-49 -134.5t-17.5 -138.5q0 -100 38 -148.5t103 -48.5q40 0 86.5 19t81.5 55q27 27 46.5 63.5t43.5 94.5h22q-25 -91 -38.5 -146.5
t-20.5 -93.5h-22q3 21 3 34q0 22 -8 25t-25 -8q-41 -27 -83.5 -46t-107.5 -19q-119 0 -182 61t-63 178q0 69 21.5 139.5t62 134.5t96 114t124 79.5t146.5 29.5q64 0 95 -20t54 -45q14 -14 26.5 -3t28.5 54h21zM456 825q0 32 24.5 56.5t59.5 24.5q27 0 42.5 -15t15.5 -41
q0 -31 -24 -55.5t-60 -24.5q-26 0 -42 15.5t-16 39.5z" />
    <glyph glyph-name="cdotaccent" unicode="&#x10b;" horiz-adv-x="442" 
d="M335 509q-38 0 -75 -31t-67 -85t-48 -122t-18 -142q0 -51 20 -74t52 -23q34 0 70.5 21t73.5 75l20 -8q-20 -33 -51 -64t-70.5 -50.5t-85.5 -19.5q-63 0 -102 37t-39 112q0 60 22 128t62.5 128.5t99 99t131.5 38.5q47 0 79.5 -24t32.5 -65q0 -21 -10 -42t-28 -34.5
t-42 -13.5q-22 0 -34 13t-12 32q0 33 24.5 56.5t55.5 30.5q-9 12 -23.5 19.5t-37.5 7.5zM284 686q0 31 23.5 56.5t59.5 25.5q28 0 43.5 -15t15.5 -39q0 -31 -24.5 -56.5t-60.5 -25.5q-26 0 -41.5 15t-15.5 39z" />
    <glyph glyph-name="Ccaron" unicode="&#x10c;" horiz-adv-x="678" 
d="M723 708q-15 -39 -31 -94.5t-33 -135.5h-22q8 52 6.5 88t-15.5 62q-19 37 -53 55.5t-74 18.5q-51 0 -99 -29.5t-89 -80t-72.5 -114.5t-49 -134.5t-17.5 -138.5q0 -100 38 -148.5t103 -48.5q40 0 86.5 19t81.5 55q27 27 46.5 63.5t43.5 94.5h22q-25 -91 -38.5 -146.5
t-20.5 -93.5h-22q3 21 3 34q0 22 -8 25t-25 -8q-41 -27 -83.5 -46t-107.5 -19q-119 0 -182 61t-63 178q0 69 21.5 139.5t62 134.5t96 114t124 79.5t146.5 29.5q64 0 95 -20t54 -45q14 -14 26.5 -3t28.5 54h21zM539 863q41 17 97.5 35.5t112.5 29.5l5 -14q-77 -23 -142 -60.5
t-105 -77.5h-18q-24 47 -55 81.5t-84 56.5l4 14q69 -12 108.5 -28.5t76.5 -36.5z" />
    <glyph glyph-name="ccaron" unicode="&#x10d;" horiz-adv-x="442" 
d="M335 509q-38 0 -75 -31t-67 -85t-48 -122t-18 -142q0 -51 20 -74t52 -23q34 0 70.5 21t73.5 75l20 -8q-20 -33 -51 -64t-70.5 -50.5t-85.5 -19.5q-63 0 -102 37t-39 112q0 60 22 128t62.5 128.5t99 99t131.5 38.5q47 0 79.5 -24t32.5 -65q0 -21 -10 -42t-28 -34.5
t-42 -13.5q-22 0 -34 13t-12 32q0 33 24.5 56.5t55.5 30.5q-9 12 -23.5 19.5t-37.5 7.5zM377 714q36 25 82.5 51t94.5 43l5 -14q-69 -29 -127.5 -78.5t-95.5 -101.5h-18q-11 64 -38 106.5t-81 73.5l4 14q64 -16 103 -39.5t71 -54.5z" />
    <glyph glyph-name="Dcaron" unicode="&#x10e;" horiz-adv-x="740" 
d="M721 481q0 -72 -21 -142t-62.5 -131t-100 -107.5t-133 -73.5t-163.5 -27q-23 0 -64.5 1.5t-79.5 1.5q-23 0 -47.5 -0.5t-46 -1t-36.5 -1.5l3 20q32 2 50.5 8t29.5 24t20 54l131 496q13 48 5.5 66.5t-63.5 19.5l3 20q16 -1 38.5 -2t48.5 -1h49q22 1 50 1.5t55 1t46 0.5
q143 0 215.5 -57.5t72.5 -169.5zM233 18q91 0 160 41t116 111t70.5 157.5t23.5 180.5q0 90 -46 136t-150 46q-29 0 -45 -7t-26 -25t-20 -54l-131 -500q-12 -45 -7 -65.5t55 -20.5zM467 863q41 17 97.5 35.5t112.5 29.5l5 -14q-77 -23 -142 -60.5t-105 -77.5h-18
q-24 47 -55 81.5t-84 56.5l4 14q69 -12 108.5 -28.5t76.5 -36.5z" />
    <glyph glyph-name="dcaron" unicode="&#x10f;" horiz-adv-x="554" 
d="M387 85q-7 -23 -4.5 -40.5t21.5 -17.5q18 0 34.5 20t34.5 74l14 41h19l-24 -73q-19 -61 -54 -82t-67 -21q-61 0 -68 53q-4 17 -1.5 40.5t11.5 52.5l142 535q9 34 -3 50t-61 16l6 21q61 1 107.5 11.5t88.5 29.5zM158 24q22 0 51 27t59 75t56.5 112.5t43.5 137.5l-15 -108
q-37 -101 -73.5 -163t-75.5 -90.5t-86 -28.5q-48 0 -78.5 33t-30.5 102q0 47 15.5 102t44 109t69 98.5t90.5 71.5t108 27q26 0 44.5 -16.5t20.5 -48.5l-8 -20q-4 33 -18 47.5t-34 14.5q-43 0 -83 -38t-71.5 -99t-50 -130.5t-18.5 -133.5q0 -41 10 -61t30 -20zM591 540
q34 74 47.5 124t13.5 69t-13 19l3 21q6 0 12 -0.5t11 -0.5q28 0 46.5 4t34.5 8q1 -2 1 -9q0 -38 -38 -101t-104 -138z" />
    <glyph glyph-name="Dcroat" unicode="&#x110;" horiz-adv-x="740" 
d="M721 481q0 -72 -21 -142t-62.5 -131t-100 -107.5t-133 -73.5t-163.5 -27q-23 0 -64.5 1.5t-79.5 1.5q-23 0 -47.5 -0.5t-46 -1t-36.5 -1.5l3 20q32 2 50.5 8t29.5 24t20 54l131 496q13 48 5.5 66.5t-63.5 19.5l3 20q16 -1 38.5 -2t48.5 -1h49q22 1 50 1.5t55 1t46 0.5
q143 0 215.5 -57.5t72.5 -169.5zM233 18q91 0 160 41t116 111t70.5 157.5t23.5 180.5q0 90 -46 136t-150 46q-29 0 -45 -7t-26 -25t-20 -54l-131 -500q-12 -45 -7 -65.5t55 -20.5zM442 366l-6 -25h-416l6 25h416z" />
    <glyph glyph-name="dcroat" unicode="&#x111;" horiz-adv-x="554" 
d="M387 85q-7 -23 -4.5 -40.5t21.5 -17.5q18 0 34.5 20t34.5 74l14 41h19l-24 -73q-19 -61 -54 -82t-67 -21q-61 0 -68 53q-4 17 -1.5 40.5t11.5 52.5l142 535q9 34 -3 50t-61 16l6 21q61 1 107.5 11.5t88.5 29.5zM158 24q22 0 51 27t59 75t56.5 112.5t43.5 137.5l-15 -108
q-37 -101 -73.5 -163t-75.5 -90.5t-86 -28.5q-48 0 -78.5 33t-30.5 102q0 47 15.5 102t44 109t69 98.5t90.5 71.5t108 27q26 0 44.5 -16.5t20.5 -48.5l-8 -20q-4 33 -18 47.5t-34 14.5q-43 0 -83 -38t-71.5 -99t-50 -130.5t-18.5 -133.5q0 -41 10 -61t30 -20zM629 628
l-6 -20h-358l6 20h358z" />
    <glyph glyph-name="Emacron" unicode="&#x112;" horiz-adv-x="615" 
d="M208 346l6 20h181l-5 -20h-182zM311 366q42 0 66.5 21.5t39.5 51.5t25 55h23q-18 -53 -25 -82.5t-14 -55.5q-5 -17 -9 -35t-9.5 -42t-12.5 -61h-23q4 30 4 59.5t-14.5 49t-57.5 19.5zM577 528q8 59 4 93.5t-27.5 49t-74.5 14.5h-59q-33 0 -51.5 -5.5t-29.5 -23t-21 -54.5
l-133 -496q-15 -55 -3.5 -69t62.5 -14h61q60 0 97 17t63.5 55.5t51.5 104.5h23q-5 -13 -11 -32t-11 -40q-5 -19 -13 -54.5t-13 -73.5q-51 2 -115 2.5t-114 0.5h-82.5t-109.5 -0.5t-109 -2.5l5 20q34 2 53 8t29.5 24t20.5 54l133 496q15 55 3.5 69.5t-61.5 16.5l5 20
q51 -1 109 -2t109.5 -1h82.5q45 0 100.5 0.5t100.5 2.5q-13 -35 -23 -66.5t-15 -51.5q-5 -18 -8.5 -34.5t-5.5 -27.5h-23zM613 844l-6 -25h-368l6 25h368z" />
    <glyph glyph-name="emacron" unicode="&#x113;" horiz-adv-x="442" 
d="M100 224q51 18 93.5 37t69.5 41q37 31 58.5 73.5t21.5 93.5q0 26 -4 33.5t-12 7.5q-29 0 -65 -33.5t-67.5 -89.5t-52 -123t-20.5 -134q0 -52 19.5 -74t51.5 -22q33 0 73 20.5t79 73.5l16 -8q-20 -33 -52 -64t-72.5 -50.5t-87.5 -19.5q-63 0 -101.5 35.5t-38.5 105.5
q0 46 16.5 100.5t47 107.5t72.5 97.5t94 70.5t110 26q36 0 60 -17.5t24 -52.5q0 -40 -22.5 -74.5t-60.5 -62.5t-82.5 -50t-89 -38t-79.5 -26zM518 712l-6 -25h-320l6 25h320z" />
    <glyph glyph-name="Ebreve" unicode="&#x114;" horiz-adv-x="615" 
d="M208 346l6 20h181l-5 -20h-182zM311 366q42 0 66.5 21.5t39.5 51.5t25 55h23q-18 -53 -25 -82.5t-14 -55.5q-5 -17 -9 -35t-9.5 -42t-12.5 -61h-23q4 30 4 59.5t-14.5 49t-57.5 19.5zM577 528q8 59 4 93.5t-27.5 49t-74.5 14.5h-59q-33 0 -51.5 -5.5t-29.5 -23t-21 -54.5
l-133 -496q-15 -55 -3.5 -69t62.5 -14h61q60 0 97 17t63.5 55.5t51.5 104.5h23q-5 -13 -11 -32t-11 -40q-5 -19 -13 -54.5t-13 -73.5q-51 2 -115 2.5t-114 0.5h-82.5t-109.5 -0.5t-109 -2.5l5 20q34 2 53 8t29.5 24t20.5 54l133 496q15 55 3.5 69.5t-61.5 16.5l5 20
q51 -1 109 -2t109.5 -1h82.5q45 0 100.5 0.5t100.5 2.5q-13 -35 -23 -66.5t-15 -51.5q-5 -18 -8.5 -34.5t-5.5 -27.5h-23zM447 856q56 0 115.5 14.5t107.5 42.5l10 -10q-26 -30 -68 -58.5t-90.5 -47.5t-92.5 -19q-66 0 -104.5 37t-49.5 89l16 5q27 -30 63 -41.5t93 -11.5z
" />
    <glyph glyph-name="ebreve" unicode="&#x115;" horiz-adv-x="442" 
d="M100 224q51 18 93.5 37t69.5 41q37 31 58.5 73.5t21.5 93.5q0 26 -4 33.5t-12 7.5q-29 0 -65 -33.5t-67.5 -89.5t-52 -123t-20.5 -134q0 -52 19.5 -74t51.5 -22q33 0 73 20.5t79 73.5l16 -8q-20 -33 -52 -64t-72.5 -50.5t-87.5 -19.5q-63 0 -101.5 35.5t-38.5 105.5
q0 46 16.5 100.5t47 107.5t72.5 97.5t94 70.5t110 26q36 0 60 -17.5t24 -52.5q0 -40 -22.5 -74.5t-60.5 -62.5t-82.5 -50t-89 -38t-79.5 -26zM351 706q49 0 106 21.5t100 60.5l10 -11q-24 -35 -63 -69t-84.5 -56.5t-86.5 -22.5q-55 0 -85.5 44t-39.5 105l16 6
q23 -43 51 -60.5t76 -17.5z" />
    <glyph glyph-name="Edotaccent" unicode="&#x116;" horiz-adv-x="615" 
d="M208 346l6 20h181l-5 -20h-182zM311 366q42 0 66.5 21.5t39.5 51.5t25 55h23q-18 -53 -25 -82.5t-14 -55.5q-5 -17 -9 -35t-9.5 -42t-12.5 -61h-23q4 30 4 59.5t-14.5 49t-57.5 19.5zM577 528q8 59 4 93.5t-27.5 49t-74.5 14.5h-59q-33 0 -51.5 -5.5t-29.5 -23t-21 -54.5
l-133 -496q-15 -55 -3.5 -69t62.5 -14h61q60 0 97 17t63.5 55.5t51.5 104.5h23q-5 -13 -11 -32t-11 -40q-5 -19 -13 -54.5t-13 -73.5q-51 2 -115 2.5t-114 0.5h-82.5t-109.5 -0.5t-109 -2.5l5 20q34 2 53 8t29.5 24t20.5 54l133 496q15 55 3.5 69.5t-61.5 16.5l5 20
q51 -1 109 -2t109.5 -1h82.5q45 0 100.5 0.5t100.5 2.5q-13 -35 -23 -66.5t-15 -51.5q-5 -18 -8.5 -34.5t-5.5 -27.5h-23zM383 825q0 32 24.5 56.5t59.5 24.5q27 0 42.5 -15t15.5 -41q0 -31 -24 -55.5t-60 -24.5q-26 0 -42 15.5t-16 39.5z" />
    <glyph glyph-name="edotaccent" unicode="&#x117;" horiz-adv-x="442" 
d="M100 224q51 18 93.5 37t69.5 41q37 31 58.5 73.5t21.5 93.5q0 26 -4 33.5t-12 7.5q-29 0 -65 -33.5t-67.5 -89.5t-52 -123t-20.5 -134q0 -52 19.5 -74t51.5 -22q33 0 73 20.5t79 73.5l16 -8q-20 -33 -52 -64t-72.5 -50.5t-87.5 -19.5q-63 0 -101.5 35.5t-38.5 105.5
q0 46 16.5 100.5t47 107.5t72.5 97.5t94 70.5t110 26q36 0 60 -17.5t24 -52.5q0 -40 -22.5 -74.5t-60.5 -62.5t-82.5 -50t-89 -38t-79.5 -26zM286 686q0 31 23.5 56.5t59.5 25.5q28 0 43.5 -15t15.5 -39q0 -31 -24.5 -56.5t-60.5 -25.5q-26 0 -41.5 15t-15.5 39z" />
    <glyph glyph-name="Eogonek" unicode="&#x118;" horiz-adv-x="615" 
d="M208 346l6 20h181l-5 -20h-182zM311 366q42 0 66.5 21.5t39.5 51.5t25 55h23q-18 -53 -25 -82.5t-14 -55.5q-5 -17 -9 -35t-9.5 -42t-12.5 -61h-23q4 30 4 59.5t-14.5 49t-57.5 19.5zM577 528q8 59 4 93.5t-27.5 49t-74.5 14.5h-59q-33 0 -51.5 -5.5t-29.5 -23t-21 -54.5
l-133 -496q-15 -55 -3.5 -69t62.5 -14h61q60 0 97 17t63.5 55.5t51.5 104.5h23q-5 -13 -11 -32t-11 -40q-5 -19 -13 -54.5t-13 -73.5q-51 2 -115 2.5t-114 0.5h-82.5t-109.5 -0.5t-109 -2.5l5 20q34 2 53 8t29.5 24t20.5 54l133 496q15 55 3.5 69.5t-61.5 16.5l5 20
q51 -1 109 -2t109.5 -1h82.5q45 0 100.5 0.5t100.5 2.5q-13 -35 -23 -66.5t-15 -51.5q-5 -18 -8.5 -34.5t-5.5 -27.5h-23zM488 3q-27 -8 -53 -23.5t-43.5 -36.5t-17.5 -48q0 -34 37 -34q19 0 40 7t36 17l11 -17q-33 -29 -67 -42.5t-68 -13.5q-38 0 -57.5 16t-19.5 43
q0 33 27 59t66 44.5t75 28.5h34z" />
    <glyph glyph-name="eogonek" unicode="&#x119;" horiz-adv-x="442" 
d="M100 224q51 18 93.5 37t69.5 41q37 31 58.5 73.5t21.5 93.5q0 26 -4 33.5t-12 7.5q-29 0 -65 -33.5t-67.5 -89.5t-52 -123t-20.5 -134q0 -52 19.5 -74t51.5 -22q33 0 73 20.5t79 73.5l16 -8q-20 -33 -52 -64t-72.5 -50.5t-87.5 -19.5q-63 0 -101.5 35.5t-38.5 105.5
q0 46 16.5 100.5t47 107.5t72.5 97.5t94 70.5t110 26q36 0 60 -17.5t24 -52.5q0 -40 -22.5 -74.5t-60.5 -62.5t-82.5 -50t-89 -38t-79.5 -26zM229 3q-25 -7 -52 -22.5t-44.5 -37t-17.5 -47.5q0 -35 35 -35q18 0 36.5 9t29.5 21l13 -11q-29 -35 -61 -51.5t-65 -16.5
q-36 0 -56 16.5t-20 42.5q0 33 27 59t66 44.5t75 28.5h34z" />
    <glyph glyph-name="Ecaron" unicode="&#x11a;" horiz-adv-x="615" 
d="M208 346l6 20h181l-5 -20h-182zM311 366q42 0 66.5 21.5t39.5 51.5t25 55h23q-18 -53 -25 -82.5t-14 -55.5q-5 -17 -9 -35t-9.5 -42t-12.5 -61h-23q4 30 4 59.5t-14.5 49t-57.5 19.5zM577 528q8 59 4 93.5t-27.5 49t-74.5 14.5h-59q-33 0 -51.5 -5.5t-29.5 -23t-21 -54.5
l-133 -496q-15 -55 -3.5 -69t62.5 -14h61q60 0 97 17t63.5 55.5t51.5 104.5h23q-5 -13 -11 -32t-11 -40q-5 -19 -13 -54.5t-13 -73.5q-51 2 -115 2.5t-114 0.5h-82.5t-109.5 -0.5t-109 -2.5l5 20q34 2 53 8t29.5 24t20.5 54l133 496q15 55 3.5 69.5t-61.5 16.5l5 20
q51 -1 109 -2t109.5 -1h82.5q45 0 100.5 0.5t100.5 2.5q-13 -35 -23 -66.5t-15 -51.5q-5 -18 -8.5 -34.5t-5.5 -27.5h-23zM467 863q41 17 97.5 35.5t112.5 29.5l5 -14q-77 -23 -142 -60.5t-105 -77.5h-18q-24 47 -55 81.5t-84 56.5l4 14q69 -12 108.5 -28.5t76.5 -36.5z" />
    <glyph glyph-name="ecaron" unicode="&#x11b;" horiz-adv-x="442" 
d="M100 224q51 18 93.5 37t69.5 41q37 31 58.5 73.5t21.5 93.5q0 26 -4 33.5t-12 7.5q-29 0 -65 -33.5t-67.5 -89.5t-52 -123t-20.5 -134q0 -52 19.5 -74t51.5 -22q33 0 73 20.5t79 73.5l16 -8q-20 -33 -52 -64t-72.5 -50.5t-87.5 -19.5q-63 0 -101.5 35.5t-38.5 105.5
q0 46 16.5 100.5t47 107.5t72.5 97.5t94 70.5t110 26q36 0 60 -17.5t24 -52.5q0 -40 -22.5 -74.5t-60.5 -62.5t-82.5 -50t-89 -38t-79.5 -26zM380 714q36 25 82.5 51t94.5 43l5 -14q-69 -29 -127.5 -78.5t-95.5 -101.5h-18q-11 64 -38 106.5t-81 73.5l4 14q64 -16 103 -39.5
t71 -54.5z" />
    <glyph glyph-name="Gcircumflex" unicode="&#x11c;" horiz-adv-x="716" 
d="M324 6q31 0 58 9t44 19q20 12 29 28t15 38l23 88q11 41 8.5 61t-22 27t-61.5 8l5 20q28 -1 71 -2t79 -1q37 0 67 1t50 2l-5 -20q-22 -1 -34.5 -7t-21 -24t-18.5 -55l-53 -198h-20q3 20 0 38.5t-17 18.5q-11 0 -22.5 -5.5t-31.5 -16.5q-38 -23 -77 -36t-84 -13
q-126 0 -193 60t-67 169q0 68 21 139t60.5 137t95 118t125 82.5t150.5 30.5q65 0 100.5 -19t63.5 -46q15 -15 28 -5t29 56h22q-15 -39 -31 -94.5t-33 -135.5h-22q2 20 3.5 38.5t1.5 36.5q0 21 -3 39t-11 34q-21 37 -61.5 57.5t-92.5 20.5q-65 0 -117.5 -35.5t-92.5 -94
t-67 -128t-40.5 -139t-13.5 -125.5q0 -90 40 -133t123 -43zM509 837q-41 -16 -97.5 -35t-112.5 -30l-5 14q76 24 141.5 61t105.5 77h18q24 -46 55 -81t84 -57l-4 -14q-70 12 -109 29t-76 36z" />
    <glyph glyph-name="gcircumflex" unicode="&#x11d;" horiz-adv-x="457" 
d="M218 225l32 1q-55 -29 -94 -49.5t-39 -39.5q0 -10 13.5 -17.5t41.5 -15.5l77 -22q31 -8 56.5 -19.5t41 -29t15.5 -45.5q0 -29 -19 -60.5t-56 -59t-92 -45t-127 -17.5q-52 0 -89.5 9.5t-57 26.5t-19.5 40q0 17 11.5 34t32 31.5t49 27t62.5 19.5l6 -15q-36 -19 -50 -41.5
t-14 -45.5q0 -36 26 -52.5t65 -16.5q43 0 87 17t73.5 44.5t29.5 58.5q0 16 -11 22t-33 11l-150 40q-24 6 -40 21.5t-16 40.5q0 22 17.5 44t58.5 46.5t112 56.5zM267 511q-35 0 -57.5 -26t-35 -63.5t-17.5 -73.5t-5 -57q0 -32 12.5 -45.5t33.5 -13.5q33 0 54.5 22t34 55.5
t17.5 68.5t5 62q0 32 -8 51.5t-34 19.5zM275 529q61 0 100 -26.5t39 -86.5q0 -48 -28.5 -94.5t-79.5 -77t-121 -30.5q-58 0 -97 26.5t-39 83.5q0 29 12.5 64.5t39.5 67t70 52.5t104 21zM349 477l-19 7q15 35 48.5 61t71.5 26q28 0 44 -15.5t16 -45.5q0 -28 -14 -42t-31 -14
q-16 0 -30.5 11t-17.5 35t13 60l11 -3q-41 -16 -59 -33.5t-33 -46.5zM300 708q-34 -25 -81 -50.5t-96 -43.5l-5 14q70 30 128.5 79t94.5 101h18q12 -63 38.5 -106t80.5 -74l-4 -14q-63 16 -102 40t-72 54z" />
    <glyph glyph-name="Gbreve" unicode="&#x11e;" horiz-adv-x="716" 
d="M324 6q31 0 58 9t44 19q20 12 29 28t15 38l23 88q11 41 8.5 61t-22 27t-61.5 8l5 20q28 -1 71 -2t79 -1q37 0 67 1t50 2l-5 -20q-22 -1 -34.5 -7t-21 -24t-18.5 -55l-53 -198h-20q3 20 0 38.5t-17 18.5q-11 0 -22.5 -5.5t-31.5 -16.5q-38 -23 -77 -36t-84 -13
q-126 0 -193 60t-67 169q0 68 21 139t60.5 137t95 118t125 82.5t150.5 30.5q65 0 100.5 -19t63.5 -46q15 -15 28 -5t29 56h22q-15 -39 -31 -94.5t-33 -135.5h-22q2 20 3.5 38.5t1.5 36.5q0 21 -3 39t-11 34q-21 37 -61.5 57.5t-92.5 20.5q-65 0 -117.5 -35.5t-92.5 -94
t-67 -128t-40.5 -139t-13.5 -125.5q0 -90 40 -133t123 -43zM521 856q56 0 115.5 14.5t107.5 42.5l10 -10q-26 -30 -68 -58.5t-90.5 -47.5t-92.5 -19q-66 0 -104.5 37t-49.5 89l16 5q27 -30 63 -41.5t93 -11.5z" />
    <glyph glyph-name="gbreve" unicode="&#x11f;" horiz-adv-x="457" 
d="M218 225l32 1q-55 -29 -94 -49.5t-39 -39.5q0 -10 13.5 -17.5t41.5 -15.5l77 -22q31 -8 56.5 -19.5t41 -29t15.5 -45.5q0 -29 -19 -60.5t-56 -59t-92 -45t-127 -17.5q-52 0 -89.5 9.5t-57 26.5t-19.5 40q0 17 11.5 34t32 31.5t49 27t62.5 19.5l6 -15q-36 -19 -50 -41.5
t-14 -45.5q0 -36 26 -52.5t65 -16.5q43 0 87 17t73.5 44.5t29.5 58.5q0 16 -11 22t-33 11l-150 40q-24 6 -40 21.5t-16 40.5q0 22 17.5 44t58.5 46.5t112 56.5zM267 511q-35 0 -57.5 -26t-35 -63.5t-17.5 -73.5t-5 -57q0 -32 12.5 -45.5t33.5 -13.5q33 0 54.5 22t34 55.5
t17.5 68.5t5 62q0 32 -8 51.5t-34 19.5zM275 529q61 0 100 -26.5t39 -86.5q0 -48 -28.5 -94.5t-79.5 -77t-121 -30.5q-58 0 -97 26.5t-39 83.5q0 29 12.5 64.5t39.5 67t70 52.5t104 21zM349 477l-19 7q15 35 48.5 61t71.5 26q28 0 44 -15.5t16 -45.5q0 -28 -14 -42t-31 -14
q-16 0 -30.5 11t-17.5 35t13 60l11 -3q-41 -16 -59 -33.5t-33 -46.5zM325 706q49 0 106 21.5t100 60.5l10 -11q-24 -35 -63 -69t-84.5 -56.5t-86.5 -22.5q-55 0 -85.5 44t-39.5 105l16 6q23 -43 51 -60.5t76 -17.5z" />
    <glyph glyph-name="Gdotaccent" unicode="&#x120;" horiz-adv-x="716" 
d="M324 6q31 0 58 9t44 19q20 12 29 28t15 38l23 88q11 41 8.5 61t-22 27t-61.5 8l5 20q28 -1 71 -2t79 -1q37 0 67 1t50 2l-5 -20q-22 -1 -34.5 -7t-21 -24t-18.5 -55l-53 -198h-20q3 20 0 38.5t-17 18.5q-11 0 -22.5 -5.5t-31.5 -16.5q-38 -23 -77 -36t-84 -13
q-126 0 -193 60t-67 169q0 68 21 139t60.5 137t95 118t125 82.5t150.5 30.5q65 0 100.5 -19t63.5 -46q15 -15 28 -5t29 56h22q-15 -39 -31 -94.5t-33 -135.5h-22q2 20 3.5 38.5t1.5 36.5q0 21 -3 39t-11 34q-21 37 -61.5 57.5t-92.5 20.5q-65 0 -117.5 -35.5t-92.5 -94
t-67 -128t-40.5 -139t-13.5 -125.5q0 -90 40 -133t123 -43zM458 825q0 32 24.5 56.5t59.5 24.5q27 0 42.5 -15t15.5 -41q0 -31 -24 -55.5t-60 -24.5q-26 0 -42 15.5t-16 39.5z" />
    <glyph glyph-name="gdotaccent" unicode="&#x121;" horiz-adv-x="457" 
d="M218 225l32 1q-55 -29 -94 -49.5t-39 -39.5q0 -10 13.5 -17.5t41.5 -15.5l77 -22q31 -8 56.5 -19.5t41 -29t15.5 -45.5q0 -29 -19 -60.5t-56 -59t-92 -45t-127 -17.5q-52 0 -89.5 9.5t-57 26.5t-19.5 40q0 17 11.5 34t32 31.5t49 27t62.5 19.5l6 -15q-36 -19 -50 -41.5
t-14 -45.5q0 -36 26 -52.5t65 -16.5q43 0 87 17t73.5 44.5t29.5 58.5q0 16 -11 22t-33 11l-150 40q-24 6 -40 21.5t-16 40.5q0 22 17.5 44t58.5 46.5t112 56.5zM267 511q-35 0 -57.5 -26t-35 -63.5t-17.5 -73.5t-5 -57q0 -32 12.5 -45.5t33.5 -13.5q33 0 54.5 22t34 55.5
t17.5 68.5t5 62q0 32 -8 51.5t-34 19.5zM275 529q61 0 100 -26.5t39 -86.5q0 -48 -28.5 -94.5t-79.5 -77t-121 -30.5q-58 0 -97 26.5t-39 83.5q0 29 12.5 64.5t39.5 67t70 52.5t104 21zM349 477l-19 7q15 35 48.5 61t71.5 26q28 0 44 -15.5t16 -45.5q0 -28 -14 -42t-31 -14
q-16 0 -30.5 11t-17.5 35t13 60l11 -3q-41 -16 -59 -33.5t-33 -46.5zM260 686q0 31 23.5 56.5t59.5 25.5q28 0 43.5 -15t15.5 -39q0 -31 -24.5 -56.5t-60.5 -25.5q-26 0 -41.5 15t-15.5 39z" />
    <glyph glyph-name="uni0122" unicode="&#x122;" horiz-adv-x="716" 
d="M324 6q31 0 58 9t44 19q20 12 29 28t15 38l23 88q11 41 8.5 61t-22 27t-61.5 8l5 20q28 -1 71 -2t79 -1q37 0 67 1t50 2l-5 -20q-22 -1 -34.5 -7t-21 -24t-18.5 -55l-53 -198h-20q3 20 0 38.5t-17 18.5q-11 0 -22.5 -5.5t-31.5 -16.5q-38 -23 -77 -36t-84 -13
q-126 0 -193 60t-67 169q0 68 21 139t60.5 137t95 118t125 82.5t150.5 30.5q65 0 100.5 -19t63.5 -46q15 -15 28 -5t29 56h22q-15 -39 -31 -94.5t-33 -135.5h-22q2 20 3.5 38.5t1.5 36.5q0 21 -3 39t-11 34q-21 37 -61.5 57.5t-92.5 20.5q-65 0 -117.5 -35.5t-92.5 -94
t-67 -128t-40.5 -139t-13.5 -125.5q0 -90 40 -133t123 -43zM302 -64q26 0 42.5 -16t16.5 -43q0 -38 -23.5 -69.5t-87.5 -48.5l-6 18q28 6 54 22t29 40q-8 -7 -21 -12t-28 -5q-22 0 -36 11.5t-14 33.5q0 25 20 47t54 22z" />
    <glyph glyph-name="uni0123" unicode="&#x123;" horiz-adv-x="457" 
d="M218 225l32 1q-55 -29 -94 -49.5t-39 -39.5q0 -10 13.5 -17.5t41.5 -15.5l77 -22q31 -8 56.5 -19.5t41 -29t15.5 -45.5q0 -29 -19 -60.5t-56 -59t-92 -45t-127 -17.5q-52 0 -89.5 9.5t-57 26.5t-19.5 40q0 17 11.5 34t32 31.5t49 27t62.5 19.5l6 -15q-36 -19 -50 -41.5
t-14 -45.5q0 -36 26 -52.5t65 -16.5q43 0 87 17t73.5 44.5t29.5 58.5q0 16 -11 22t-33 11l-150 40q-24 6 -40 21.5t-16 40.5q0 22 17.5 44t58.5 46.5t112 56.5zM267 511q-35 0 -57.5 -26t-35 -63.5t-17.5 -73.5t-5 -57q0 -32 12.5 -45.5t33.5 -13.5q33 0 54.5 22t34 55.5
t17.5 68.5t5 62q0 32 -8 51.5t-34 19.5zM275 529q61 0 100 -26.5t39 -86.5q0 -48 -28.5 -94.5t-79.5 -77t-121 -30.5q-58 0 -97 26.5t-39 83.5q0 29 12.5 64.5t39.5 67t70 52.5t104 21zM349 477l-19 7q15 35 48.5 61t71.5 26q28 0 44 -15.5t16 -45.5q0 -28 -14 -42t-31 -14
q-16 0 -30.5 11t-17.5 35t13 60l11 -3q-41 -16 -59 -33.5t-33 -46.5zM305 628q-26 0 -42.5 16t-16.5 43q0 38 23.5 69.5t87.5 48.5l6 -18q-28 -6 -54 -22t-29 -40q8 7 21 12t28 5q22 0 36 -11.5t14 -33.5q0 -25 -20 -47t-54 -22z" />
    <glyph glyph-name="Hcircumflex" unicode="&#x124;" horiz-adv-x="773" 
d="M220 346l7 20h353l-8 -20h-352zM618 602q15 55 3 69.5t-62 16.5l5 20q25 -1 62 -2t74 -1q43 0 80 1t61 2l-5 -20q-34 -1 -53 -7.5t-29.5 -24t-20.5 -54.5l-132 -496q-14 -55 -3 -69.5t62 -16.5l-4 -20q-23 2 -60 2.5t-80 0.5q-37 0 -74.5 -0.5t-62.5 -2.5l4 20q34 2 53 8
t30 24t20 54zM185 106q-14 -55 -3 -69.5t62 -16.5l-4 -20q-24 2 -61.5 2.5t-75.5 0.5q-42 0 -78.5 -0.5t-60.5 -2.5l5 20q33 2 51.5 8t29.5 24t20 54l132 496q14 55 2.5 69.5t-61.5 16.5l5 20q22 -1 59.5 -2t79.5 -1q38 0 75 1t63 2l-5 -20q-34 -1 -53 -7.5t-29.5 -24
t-20.5 -54.5zM509 837q-41 -16 -97.5 -35t-112.5 -30l-5 14q76 24 141.5 61t105.5 77h18q24 -46 55 -81t84 -57l-4 -14q-70 12 -109 29t-76 36z" />
    <glyph glyph-name="hcircumflex" unicode="&#x125;" horiz-adv-x="547" 
d="M93 0h-105l198 667q10 34 -2.5 50t-61.5 16l6 21q61 1 109 11.5t89 29.5zM120 147q39 108 73.5 182t68 118t69 63t75.5 19q47 0 65.5 -22t17.5 -57t-14 -72l-97 -293q-8 -26 -6 -42t21 -16q17 0 34.5 19t37.5 75l15 41h19l-25 -73q-22 -63 -57.5 -83t-67.5 -20
q-43 0 -61 19t-16 52.5t15 74.5l93 281q6 16 9.5 34t-1.5 31t-26 13q-29 0 -63.5 -36.5t-70.5 -101t-69.5 -150.5t-61.5 -186zM485 948q-34 -25 -81 -50.5t-96 -43.5l-5 14q70 30 128.5 79t94.5 101h18q12 -63 38.5 -106t80.5 -74l-4 -14q-63 16 -102 40t-72 54z" />
    <glyph glyph-name="Hbar" unicode="&#x126;" horiz-adv-x="773" 
d="M220 346l7 20h353l-8 -20h-352zM618 602q15 55 3 69.5t-62 16.5l5 20q25 -1 62 -2t74 -1q43 0 80 1t61 2l-5 -20q-34 -1 -53 -7.5t-29.5 -24t-20.5 -54.5l-132 -496q-14 -55 -3 -69.5t62 -16.5l-4 -20q-23 2 -60 2.5t-80 0.5q-37 0 -74.5 -0.5t-62.5 -2.5l4 20q34 2 53 8
t30 24t20 54zM185 106q-14 -55 -3 -69.5t62 -16.5l-4 -20q-24 2 -61.5 2.5t-75.5 0.5q-42 0 -78.5 -0.5t-60.5 -2.5l5 20q33 2 51.5 8t29.5 24t20 54l132 496q14 55 2.5 69.5t-61.5 16.5l5 20q22 -1 59.5 -2t79.5 -1q38 0 75 1t63 2l-5 -20q-34 -1 -53 -7.5t-29.5 -24
t-20.5 -54.5zM836 533l-5 -20h-771l5 20h771z" />
    <glyph glyph-name="hbar" unicode="&#x127;" horiz-adv-x="547" 
d="M93 0h-105l198 667q10 34 -2.5 50t-61.5 16l6 21q61 1 109 11.5t89 29.5zM120 147q39 108 73.5 182t68 118t69 63t75.5 19q47 0 65.5 -22t17.5 -57t-14 -72l-97 -293q-8 -26 -6 -42t21 -16q17 0 34.5 19t37.5 75l15 41h19l-25 -73q-22 -63 -57.5 -83t-67.5 -20
q-43 0 -61 19t-16 52.5t15 74.5l93 281q6 16 9.5 34t-1.5 31t-26 13q-29 0 -63.5 -36.5t-70.5 -101t-69.5 -150.5t-61.5 -186zM440 628l-6 -20h-358l6 20h358z" />
    <glyph glyph-name="Itilde" unicode="&#x128;" horiz-adv-x="357" 
d="M185 106q-14 -55 -3 -69.5t62 -16.5l-4 -20q-25 2 -62.5 2.5t-76.5 0.5q-42 0 -77.5 -0.5t-59.5 -2.5l5 20q33 2 51.5 8t29.5 24t20 54l132 496q14 55 2.5 69.5t-61.5 16.5l5 20q22 -1 58.5 -2t78.5 -1q39 0 76.5 1t63.5 2l-5 -20q-34 -1 -53 -7.5t-29.5 -24t-20.5 -54.5
zM260 906q35 0 57.5 -11t40 -25.5t36 -25.5t44.5 -11q19 0 37 13.5t36 44.5l18 -5q-25 -62 -64.5 -88.5t-77.5 -26.5q-35 0 -58 11t-40 25.5t-35.5 25.5t-45.5 11q-19 0 -37 -13t-35 -45l-18 5q24 62 63.5 88.5t78.5 26.5z" />
    <glyph glyph-name="itilde" unicode="&#x129;" horiz-adv-x="309" 
d="M152 430q19 58 -13 58q-22 0 -39 -22.5t-36 -71.5l-15 -42h-19l26 74q22 62 58 82.5t71 20.5q45 0 60.5 -22t12.5 -54.5t-14 -63.5l-106 -304q-10 -28 -6 -43t21 -15q18 0 35 19.5t38 74.5l15 41h19l-25 -73q-22 -59 -56.5 -81t-70.5 -22q-44 0 -61.5 19.5t-15.5 53
t17 73.5zM185 774q30 0 49.5 -11t34.5 -25.5t30.5 -25.5t38.5 -11q18 0 35.5 13.5t34.5 44.5l18 -5q-24 -61 -62 -88t-76 -27q-30 0 -49.5 11t-34.5 25.5t-30.5 25.5t-37.5 11q-19 0 -36.5 -13t-34.5 -45l-18 5q25 62 63 88.5t75 26.5z" />
    <glyph glyph-name="Imacron" unicode="&#x12a;" horiz-adv-x="357" 
d="M185 106q-14 -55 -3 -69.5t62 -16.5l-4 -20q-25 2 -62.5 2.5t-76.5 0.5q-42 0 -77.5 -0.5t-59.5 -2.5l5 20q33 2 51.5 8t29.5 24t20 54l132 496q14 55 2.5 69.5t-61.5 16.5l5 20q22 -1 58.5 -2t78.5 -1q39 0 76.5 1t63.5 2l-5 -20q-34 -1 -53 -7.5t-29.5 -24t-20.5 -54.5
zM484 844l-6 -25h-368l6 25h368z" />
    <glyph glyph-name="imacron" unicode="&#x12b;" horiz-adv-x="309" 
d="M152 430q19 58 -13 58q-22 0 -39 -22.5t-36 -71.5l-15 -42h-19l26 74q22 62 58 82.5t71 20.5q45 0 60.5 -22t12.5 -54.5t-14 -63.5l-106 -304q-10 -28 -6 -43t21 -15q18 0 35 19.5t38 74.5l15 41h19l-25 -73q-22 -59 -56.5 -81t-70.5 -22q-44 0 -61.5 19.5t-15.5 53
t17 73.5zM375.039 712l-5.09961 -25h-271.992l5.09961 25h271.992z" />
    <glyph glyph-name="Ibreve" unicode="&#x12c;" horiz-adv-x="357" 
d="M185 106q-14 -55 -3 -69.5t62 -16.5l-4 -20q-25 2 -62.5 2.5t-76.5 0.5q-42 0 -77.5 -0.5t-59.5 -2.5l5 20q33 2 51.5 8t29.5 24t20 54l132 496q14 55 2.5 69.5t-61.5 16.5l5 20q22 -1 58.5 -2t78.5 -1q39 0 76.5 1t63.5 2l-5 -20q-34 -1 -53 -7.5t-29.5 -24t-20.5 -54.5
zM317 856q56 0 115.5 14.5t107.5 42.5l10 -10q-26 -30 -68 -58.5t-90.5 -47.5t-92.5 -19q-66 0 -104.5 37t-49.5 89l16 5q27 -30 63 -41.5t93 -11.5z" />
    <glyph glyph-name="ibreve" unicode="&#x12d;" horiz-adv-x="309" 
d="M152 430q19 58 -13 58q-22 0 -39 -22.5t-36 -71.5l-15 -42h-19l26 74q22 62 58 82.5t71 20.5q45 0 60.5 -22t12.5 -54.5t-14 -63.5l-106 -304q-10 -28 -6 -43t21 -15q18 0 35 19.5t38 74.5l15 41h19l-25 -73q-22 -59 -56.5 -81t-70.5 -22q-44 0 -61.5 19.5t-15.5 53
t17 73.5zM239 706q49 0 106 21.5t100 60.5l10 -11q-24 -35 -63 -69t-84.5 -56.5t-86.5 -22.5q-55 0 -85.5 44t-39.5 105l16 6q23 -43 51 -60.5t76 -17.5z" />
    <glyph glyph-name="Iogonek" unicode="&#x12e;" horiz-adv-x="357" 
d="M185 106q-14 -55 -3 -69.5t62 -16.5l-4 -20q-25 2 -62.5 2.5t-76.5 0.5q-42 0 -77.5 -0.5t-59.5 -2.5l5 20q33 2 51.5 8t29.5 24t20 54l132 496q14 55 2.5 69.5t-61.5 16.5l5 20q22 -1 58.5 -2t78.5 -1q39 0 76.5 1t63.5 2l-5 -20q-34 -1 -53 -7.5t-29.5 -24t-20.5 -54.5
zM246 3q-27 -8 -53 -23.5t-43.5 -36.5t-17.5 -48q0 -34 37 -34q19 0 40 7t36 17l11 -17q-33 -29 -67 -42.5t-68 -13.5q-38 0 -57.5 16t-19.5 43q0 33 27 59t66 44.5t75 28.5h34z" />
    <glyph glyph-name="iogonek" unicode="&#x12f;" horiz-adv-x="309" 
d="M185 692q4 32 28 52t55 20q29 0 45.5 -18.5t12.5 -45.5q-4 -31 -28.5 -51.5t-55.5 -20.5q-29 0 -45 18.5t-12 45.5zM152 430q19 58 -13 58q-22 0 -39 -22.5t-35 -71.5l-16 -42h-19l26 74q23 62 58.5 82.5t70.5 20.5q45 0 60.5 -22t12.5 -54.5t-14 -63.5l-106 -304
q-10 -28 -6 -43t21 -15q18 0 35 19.5t38 74.5l16 41h19l-26 -73q-21 -59 -56 -81t-71 -22q-43 0 -60.5 19.5t-15.5 53t16 73.5zM170 3q-25 -7 -52 -22.5t-44.5 -37t-17.5 -47.5q0 -35 35 -35q18 0 36.5 9t29.5 21l13 -11q-29 -35 -61 -51.5t-65 -16.5q-36 0 -56 16.5
t-20 42.5q0 33 27 59t66 44.5t75 28.5h34z" />
    <glyph glyph-name="Idotaccent" unicode="&#x130;" horiz-adv-x="357" 
d="M185 106q-14 -55 -3 -69.5t62 -16.5l-4 -20q-25 2 -62.5 2.5t-76.5 0.5q-42 0 -77.5 -0.5t-59.5 -2.5l5 20q33 2 51.5 8t29.5 24t20 54l132 496q14 55 2.5 69.5t-61.5 16.5l5 20q22 -1 58.5 -2t78.5 -1q39 0 76.5 1t63.5 2l-5 -20q-34 -1 -53 -7.5t-29.5 -24t-20.5 -54.5
zM254 825q0 32 24.5 56.5t59.5 24.5q27 0 42.5 -15t15.5 -41q0 -31 -24 -55.5t-60 -24.5q-26 0 -42 15.5t-16 39.5z" />
    <glyph glyph-name="dotlessi" unicode="&#x131;" horiz-adv-x="309" 
d="M152 430q19 58 -13 58q-22 0 -39 -22.5t-36 -71.5l-15 -42h-19l26 74q22 62 58 82.5t71 20.5q45 0 60.5 -22t12.5 -54.5t-14 -63.5l-106 -304q-10 -28 -6 -43t21 -15q18 0 35 19.5t38 74.5l15 41h19l-25 -73q-22 -59 -56.5 -81t-70.5 -22q-44 0 -61.5 19.5t-15.5 53
t17 73.5z" />
    <glyph glyph-name="Jcircumflex" unicode="&#x134;" horiz-adv-x="652" 
d="M588 366l-3 -20h-343l3 20h343zM447 591q-46 0 -83 13.5t-72.5 27t-80.5 13.5q-32 0 -48 -16.5t-15 -46.5q1 -31 22.5 -49.5t64.5 -24.5l-1.5 -10l-1.5 -10q-51 7 -90.5 35.5t-41.5 89.5q-1 54 31.5 90t93.5 36q43 0 76 -15.5t62.5 -37t62 -37t75.5 -15.5q48 0 88 11.5
t87 31.5q21 32 41 49t35 4q12 -10 -1 -27t-66 -37q-81 -57 -132 -150t-81 -209l-62 -242q-17 -68 -50 -125.5t-84 -92.5t-122 -35q-49 0 -81.5 14.5t-33.5 47.5q-1 25 17 44.5t48 19.5q23 0 38 -12.5t16 -33.5q0 -20 -12.5 -35t-32.5 -24q7 -2 15 -3.5t17 -1.5q38 0 62.5 24
t41.5 65t31.5 93.5t28.5 109.5l38 142q27 100 73 170t108.5 124t134.5 104q-28 -12 -55 -24.5t-53.5 -22.5t-53 -16t-54.5 -6zM507 837q-41 -16 -97.5 -35t-112.5 -30l-5 14q76 24 141.5 61t105.5 77h18q24 -46 55 -81t84 -57l-4 -14q-70 12 -109 29t-76 36z" />
    <glyph glyph-name="jcircumflex" unicode="&#x135;" horiz-adv-x="284" 
d="M-137 -188l4 16q58 2 99.5 48.5t62.5 130.5l119 423q9 32 6 45t-20 13q-18 0 -35.5 -21t-36.5 -73l-15 -42h-19l25 74q20 60 55 81.5t74 21.5q44 0 59 -20.5t12.5 -53t-11.5 -66.5l-79 -281q-20 -78 -51 -138t-81 -99q-31 -26 -74 -42.5t-94 -16.5zM222 708
q-34 -25 -81 -50.5t-96 -43.5l-5 14q70 30 128.5 79t94.5 101h18q12 -63 38.5 -106t80.5 -74l-4 -14q-63 16 -102 40t-72 54z" />
    <glyph glyph-name="uni0136" unicode="&#x136;" horiz-adv-x="697" 
d="M185 106q-14 -55 -3 -69.5t62 -16.5l-4 -20q-24 2 -61.5 2.5t-75.5 0.5q-42 0 -78.5 -0.5t-60.5 -2.5l5 20q33 2 51.5 8t29.5 24t20 54l132 496q14 55 2.5 69.5t-61.5 16.5l5 20q22 -1 59.5 -2t79.5 -1q38 0 75 1t63 2l-5 -20q-34 -1 -53 -7.5t-29.5 -24t-20.5 -54.5z
M528 47q24 0 40 18t28 54l17 51h20l-26 -77q-19 -55 -50.5 -81t-75.5 -26q-52 0 -75.5 31.5t-18.5 87.5l11 122q4 47 0 73t-13.5 40t-26.5 25l2 10q51 -7 85 -20t50 -47t11 -104l-6 -111q-1 -20 4 -33t24 -13zM372 360q-54 -15 -73.5 -10.5t-19.5 19.5q1 15 20 19.5
t73 -10.5v-18zM610 685q-22 -22 -36.5 -60.5t-29 -83t-36 -84.5t-57 -65t-92.5 -24l2 10q53 5 84.5 31.5t50.5 66t32.5 82.5t28 80t38.5 59q17 15 33.5 20t30.5 5q38 0 55 -20t16 -50q-1 -23 -17.5 -49t-51.5 -26q-24 0 -36.5 15t-11.5 36q0 19 13 39.5t33 33.5
q-2 0 -3.5 0.5t-4.5 0.5q-15 -1 -23.5 -5t-17.5 -12zM257 -64q26 0 42.5 -16t16.5 -43q0 -38 -23.5 -69.5t-87.5 -48.5l-6 18q28 6 54 22t29 40q-8 -7 -21 -12t-28 -5q-22 0 -36 11.5t-14 33.5q0 25 20 47t54 22z" />
    <glyph glyph-name="uni0137" unicode="&#x137;" horiz-adv-x="527" 
d="M93 0h-105l198 667q10 34 -2.5 50t-61.5 16l6 21q61 1 109 11.5t89 29.5zM355 68q-4 -22 0 -31.5t19 -9.5q17 0 34 20t35 74l14 41h19l-24 -73q-13 -40 -33.5 -62.5t-44.5 -31.5t-49 -9q-38 0 -58.5 25t-8.5 77l17 83q13 56 -9.5 82.5t-100.5 32.5v4q40 3 81 0t73 -17
t48 -41.5t7 -71.5zM429 508q-12 0 -21 -4t-17 -10q-19 -15 -31.5 -40.5t-25 -54.5t-30.5 -55t-48 -42t-79 -15l-10 -1l2 11q48 3 76.5 20t45 42t28 53t24 53t33.5 41q17 14 32 18.5t28 4.5q40 0 56 -21t15 -49q-1 -24 -18 -47.5t-49 -23.5q-25 0 -36.5 14.5t-10.5 33.5
q0 19 13 38t30 32l-3 1.5t-4 0.5zM164 -64q26 0 42.5 -16t16.5 -43q0 -38 -23.5 -69.5t-87.5 -48.5l-6 18q28 6 54 22t29 40q-8 -7 -21 -12t-28 -5q-22 0 -36 11.5t-14 33.5q0 25 20 47t54 22z" />
    <glyph glyph-name="kgreenlandic" unicode="&#x138;" horiz-adv-x="569" 
d="M385 68q-3 -23 0.5 -32t18.5 -9q18 0 34.5 20t35.5 74l13 41h19l-24 -73q-13 -40 -33 -62.5t-44.5 -31.5t-49.5 -9q-38 0 -57 23.5t-10 78.5l8 53q9 58 -12 84t-98 32v4q40 3 80 0t71 -16t47.5 -41t9.5 -74zM460 508q-13 0 -22 -4t-17 -10q-20 -16 -33 -45t-26 -62
t-32 -63t-50.5 -48.5t-81.5 -17.5l-10 -1l2 11q49 3 79 22t47.5 48t29.5 61t25 60.5t35 46.5q17 14 32.5 18.5t28.5 4.5q39 0 55 -21t15 -49q-1 -24 -17.5 -47.5t-49.5 -23.5q-25 0 -36.5 14.5t-10.5 33.5t13.5 38t29.5 32q-1 1 -2.5 1.5t-3.5 0.5zM133 0h-11h-26h-31h-26.5
h-10.5l120 430q9 30 6.5 44t-19.5 14q-20 0 -37 -21t-36 -73l-15 -42h-19l25 74q22 61 55.5 82t69.5 21q38 0 52.5 -18.5t13 -50.5t-11.5 -71z" />
    <glyph glyph-name="Lacute" unicode="&#x139;" horiz-adv-x="592" 
d="M544 210q-6 -16 -12 -37t-13 -45q-5 -19 -13 -54.5t-14 -73.5q-51 2 -114.5 2.5t-113.5 0.5h-83t-110 -0.5t-109 -2.5l5 20q34 2 53 8t29.5 24t20.5 54l133 496q15 55 3.5 69.5t-61.5 16.5l5 20q22 -1 59.5 -2t80.5 -1q38 0 74.5 1t62.5 2l-5 -20q-34 -1 -53 -7.5
t-30 -24t-21 -54.5l-133 -496q-15 -55 -3.5 -69t62.5 -14h62q57 0 95 18t66.5 59t53.5 110h23zM278 783q52 37 85.5 65t59 48.5t49.5 35.5q17 10 41 11.5t33 -20.5q9 -18 -4 -35t-31 -27q-35 -20 -87.5 -35t-138.5 -54z" />
    <glyph glyph-name="lacute" unicode="&#x13a;" horiz-adv-x="285" 
d="M115 85q-7 -28 -3.5 -43t20.5 -15t34 20t36 74l15 41h19l-25 -73q-13 -39 -33 -61.5t-43 -32t-48 -9.5q-43 0 -60 21t-15.5 54.5t12.5 70.5l161 535q10 34 -2 50t-61 16l7 21q60 1 106.5 11.5t89.5 29.5zM249 848q52 37 85.5 65t59 48.5t49.5 35.5q17 10 41 11.5
t33 -20.5q9 -18 -4 -35t-31 -27q-35 -20 -87.5 -35t-138.5 -54z" />
    <glyph glyph-name="uni013B" unicode="&#x13b;" horiz-adv-x="592" 
d="M544 210q-6 -16 -12 -37t-13 -45q-5 -19 -13 -54.5t-14 -73.5q-51 2 -114.5 2.5t-113.5 0.5h-83t-110 -0.5t-109 -2.5l5 20q34 2 53 8t29.5 24t20.5 54l133 496q15 55 3.5 69.5t-61.5 16.5l5 20q22 -1 59.5 -2t80.5 -1q38 0 74.5 1t62.5 2l-5 -20q-34 -1 -53 -7.5
t-30 -24t-21 -54.5l-133 -496q-15 -55 -3.5 -69t62.5 -14h62q57 0 95 18t66.5 59t53.5 110h23zM251 -64q26 0 42.5 -16t16.5 -43q0 -38 -23.5 -69.5t-87.5 -48.5l-6 18q28 6 54 22t29 40q-8 -7 -21 -12t-28 -5q-22 0 -36 11.5t-14 33.5q0 25 20 47t54 22z" />
    <glyph glyph-name="uni013C" unicode="&#x13c;" horiz-adv-x="285" 
d="M115 85q-7 -28 -3.5 -43t20.5 -15t34 20t36 74l15 41h19l-25 -73q-13 -39 -33 -61.5t-43 -32t-48 -9.5q-43 0 -60 21t-15.5 54.5t12.5 70.5l161 535q10 34 -2 50t-61 16l7 21q60 1 106.5 11.5t89.5 29.5zM76 -64q26 0 42.5 -16t16.5 -43q0 -38 -23.5 -69.5t-87.5 -48.5
l-6 18q28 6 54 22t29 40q-8 -7 -21 -12t-28 -5q-22 0 -36 11.5t-14 33.5q0 25 20 47t54 22z" />
    <glyph glyph-name="Lcaron" unicode="&#x13d;" horiz-adv-x="592" 
d="M544 210q-6 -16 -12 -37t-13 -45q-5 -19 -13 -54.5t-14 -73.5q-51 2 -114.5 2.5t-113.5 0.5h-83t-110 -0.5t-109 -2.5l5 20q34 2 53 8t29.5 24t20.5 54l133 496q15 55 3.5 69.5t-61.5 16.5l5 20q22 -1 59.5 -2t80.5 -1q38 0 74.5 1t62.5 2l-5 -20q-34 -1 -53 -7.5
t-30 -24t-21 -54.5l-133 -496q-15 -55 -3.5 -69t62.5 -14h62q57 0 95 18t66.5 59t53.5 110h23zM430 485q37 70 52 117.5t15 65.5q0 9 -6 14t-25 5l3 21q12 0 21.5 -0.5t19.5 -0.5q28 0 47 4t34 8q1 -2 1 -9q0 -37 -39 -97t-109 -132z" />
    <glyph glyph-name="lcaron" unicode="&#x13e;" horiz-adv-x="285" 
d="M115 85q-7 -28 -3.5 -43t20.5 -15t34 20t36 74l15 41h19l-25 -73q-13 -39 -33 -61.5t-43 -32t-48 -9.5q-43 0 -60 21t-15.5 54.5t12.5 70.5l161 535q10 34 -2 50t-61 16l7 21q60 1 106.5 11.5t89.5 29.5zM334 540q34 74 47.5 124t13.5 69t-13 19l3 21q6 0 12 -0.5
t11 -0.5q28 0 46.5 4t34.5 8q1 -2 1 -9q0 -38 -38 -101t-104 -138z" />
    <glyph glyph-name="Ldot" unicode="&#x13f;" horiz-adv-x="605" 
d="M544 210q-6 -16 -12 -37t-13 -45q-5 -19 -13 -54.5t-14 -73.5q-51 2 -114.5 2.5t-113.5 0.5h-83t-110 -0.5t-109 -2.5l5 20q34 2 53 8t29.5 24t20.5 54l133 496q15 55 3.5 69.5t-61.5 16.5l5 20q22 -1 59.5 -2t80.5 -1q38 0 74.5 1t62.5 2l-5 -20q-34 -1 -53 -7.5
t-30 -24t-21 -54.5l-133 -496q-15 -55 -3.5 -69t62.5 -14h62q57 0 95 18t66.5 59t53.5 110h23zM457 345q0 33 25 58t57 25q26 0 41 -15.5t15 -39.5q0 -32 -25 -57t-57 -25q-26 0 -41 15t-15 39z" />
    <glyph glyph-name="ldot" unicode="&#x140;" horiz-adv-x="429" 
d="M115 85q-7 -28 -3.5 -43t20.5 -15t34 20t36 74l15 41h19l-25 -73q-13 -39 -33 -61.5t-43 -32t-48 -9.5q-43 0 -60 21t-15.5 54.5t12.5 70.5l161 535q10 34 -2 50t-61 16l7 21q60 1 106.5 11.5t89.5 29.5zM274 280q0 33 25 58t57 25q26 0 41 -15.5t15 -39.5q0 -32 -25 -57
t-57 -25q-26 0 -41 15t-15 39z" />
    <glyph glyph-name="Lslash" unicode="&#x141;" horiz-adv-x="593" 
d="M188 308l328 165l-6 -23l-328 -165zM184 295l-169 -85l6 23l169 85zM546 210q-6 -16 -12 -37t-13 -45q-5 -19 -13 -54.5t-14 -73.5q-51 2 -114.5 2.5t-113.5 0.5h-83t-110 -0.5t-109 -2.5l5 20q34 2 53 8t29.5 24t20.5 54l133 496q15 55 3.5 69.5t-61.5 16.5l5 20
q22 -1 59.5 -2t80.5 -1q38 0 74.5 1t61.5 2l-5 -20q-34 -1 -53 -7.5t-29.5 -24t-20.5 -54.5l-133 -496q-15 -55 -3.5 -69t61.5 -14h62q58 0 96 18t66 59t54 110h23z" />
    <glyph glyph-name="lslash" unicode="&#x142;" horiz-adv-x="312" 
d="M183 383l173 115l-4 -30l-173 -115zM171 370l-174 -117l4 30l174 117zM128 85q-7 -28 -3.5 -43t20.5 -15t34 20t36 74l15 41h19l-25 -73q-13 -39 -33 -61.5t-43 -32t-48 -9.5q-43 0 -60 21t-15.5 54.5t12.5 70.5l161 535q10 34 -2 50t-61 16l7 21q60 1 106.5 11.5
t89.5 29.5z" />
    <glyph glyph-name="Nacute" unicode="&#x143;" horiz-adv-x="788" 
d="M508 -5l-240 624l-2.5 -2.5t-5.5 -6t-5.5 -6l-2.5 -2.5q8 37 5.5 54.5t-20 24t-56.5 7.5l5 20q16 -1 39.5 -2t49.5 -1q47 0 81 3l198 -537l-2.5 -18t-6 -43.5t-7 -52t-6 -44.5l-2.5 -18h-22zM813 734q-27 -1 -47 -15t-35 -37q-46 -68 -94 -239t-107 -448l-14 28
q18 84 40.5 182.5t47.5 193.5t52.5 172t56.5 119q19 27 45 45.5t63 18.5q38 0 54.5 -18.5t16.5 -43.5q0 -30 -18.5 -54.5t-50.5 -24.5q-26 0 -37.5 14.5t-11.5 31.5q0 23 14 42.5t33 30.5q-2 1 -3.5 1.5t-4.5 0.5zM4 -54q27 1 48 15t36 38q29 46 58.5 144t60 237t61.5 305
l17 -21q-20 -102 -42 -208t-45.5 -201t-47 -165.5t-46.5 -100.5q-18 -24 -42.5 -43.5t-64.5 -19.5q-39 0 -55.5 18.5t-16.5 44.5q0 30 19 54t51 24q27 0 37.5 -14.5t10.5 -31.5q0 -23 -13.5 -42.5t-32.5 -30.5q1 -1 3 -1.5t4 -0.5zM501 783q52 37 85.5 65t59 48.5t49.5 35.5
q17 10 41 11.5t33 -20.5q9 -18 -4 -35t-31 -27q-35 -20 -87.5 -35t-138.5 -54z" />
    <glyph glyph-name="nacute" unicode="&#x144;" horiz-adv-x="588" 
d="M134 0h-105l120 430q4 13 6.5 26.5t-1.5 22.5t-19 9q-20 0 -36.5 -20t-35.5 -74l-15 -42h-19l25 74q22 61 54.5 82t68.5 21q42 0 56 -22t11 -54t-11 -64zM175 195q36 96 69.5 160.5t65.5 102.5t65.5 54.5t70.5 16.5q48 0 66.5 -22t17 -56.5t-13.5 -72.5l-97 -293
q-10 -27 -7 -42.5t22 -15.5q17 0 34.5 19t37.5 75l15 41h19l-25 -73q-22 -63 -57.5 -83t-68.5 -20q-49 0 -68 30q-12 19 -9 48.5t16 67.5l93 281q5 15 8 33t-1 31.5t-25 13.5q-28 0 -61.5 -34.5t-68.5 -94.5t-67.5 -139t-58.5 -168zM308 608q39 50 64 86t43.5 63t37.5 47
q18 20 38 23t35 -9q12 -13 9 -31t-24 -39q-19 -19 -46 -38t-63 -44.5t-84 -66.5z" />
    <glyph glyph-name="uni0145" unicode="&#x145;" horiz-adv-x="788" 
d="M508 -5l-240 624l-2.5 -2.5t-5.5 -6t-5.5 -6l-2.5 -2.5q8 37 5.5 54.5t-20 24t-56.5 7.5l5 20q16 -1 39.5 -2t49.5 -1q47 0 81 3l198 -537l-2.5 -18t-6 -43.5t-7 -52t-6 -44.5l-2.5 -18h-22zM813 734q-27 -1 -47 -15t-35 -37q-46 -68 -94 -239t-107 -448l-14 28
q18 84 40.5 182.5t47.5 193.5t52.5 172t56.5 119q19 27 45 45.5t63 18.5q38 0 54.5 -18.5t16.5 -43.5q0 -30 -18.5 -54.5t-50.5 -24.5q-26 0 -37.5 14.5t-11.5 31.5q0 23 14 42.5t33 30.5q-2 1 -3.5 1.5t-4.5 0.5zM4 -54q27 1 48 15t36 38q29 46 58.5 144t60 237t61.5 305
l17 -21q-20 -102 -42 -208t-45.5 -201t-47 -165.5t-46.5 -100.5q-18 -24 -42.5 -43.5t-64.5 -19.5q-39 0 -55.5 18.5t-16.5 44.5q0 30 19 54t51 24q27 0 37.5 -14.5t10.5 -31.5q0 -23 -13.5 -42.5t-32.5 -30.5q1 -1 3 -1.5t4 -0.5zM285 -64q26 0 42.5 -16t16.5 -43
q0 -38 -23.5 -69.5t-87.5 -48.5l-6 18q28 6 54 22t29 40q-8 -7 -21 -12t-28 -5q-22 0 -36 11.5t-14 33.5q0 25 20 47t54 22z" />
    <glyph glyph-name="uni0146" unicode="&#x146;" horiz-adv-x="588" 
d="M134 0h-105l120 430q4 13 6.5 26.5t-1.5 22.5t-19 9q-20 0 -36.5 -20t-35.5 -74l-15 -42h-19l25 74q22 61 54.5 82t68.5 21q42 0 56 -22t11 -54t-11 -64zM175 195q36 96 69.5 160.5t65.5 102.5t65.5 54.5t70.5 16.5q48 0 66.5 -22t17 -56.5t-13.5 -72.5l-97 -293
q-10 -27 -7 -42.5t22 -15.5q17 0 34.5 19t37.5 75l15 41h19l-25 -73q-22 -63 -57.5 -83t-68.5 -20q-49 0 -68 30q-12 19 -9 48.5t16 67.5l93 281q5 15 8 33t-1 31.5t-25 13.5q-28 0 -61.5 -34.5t-68.5 -94.5t-67.5 -139t-58.5 -168zM199 -64q26 0 42.5 -16t16.5 -43
q0 -38 -23.5 -69.5t-87.5 -48.5l-6 18q28 6 54 22t29 40q-8 -7 -21 -12t-28 -5q-22 0 -36 11.5t-14 33.5q0 25 20 47t54 22z" />
    <glyph glyph-name="Ncaron" unicode="&#x147;" horiz-adv-x="788" 
d="M508 -5l-240 624l-2.5 -2.5t-5.5 -6t-5.5 -6l-2.5 -2.5q8 37 5.5 54.5t-20 24t-56.5 7.5l5 20q16 -1 39.5 -2t49.5 -1q47 0 81 3l198 -537l-2.5 -18t-6 -43.5t-7 -52t-6 -44.5l-2.5 -18h-22zM813 734q-27 -1 -47 -15t-35 -37q-46 -68 -94 -239t-107 -448l-14 28
q18 84 40.5 182.5t47.5 193.5t52.5 172t56.5 119q19 27 45 45.5t63 18.5q38 0 54.5 -18.5t16.5 -43.5q0 -30 -18.5 -54.5t-50.5 -24.5q-26 0 -37.5 14.5t-11.5 31.5q0 23 14 42.5t33 30.5q-2 1 -3.5 1.5t-4.5 0.5zM4 -54q27 1 48 15t36 38q29 46 58.5 144t60 237t61.5 305
l17 -21q-20 -102 -42 -208t-45.5 -201t-47 -165.5t-46.5 -100.5q-18 -24 -42.5 -43.5t-64.5 -19.5q-39 0 -55.5 18.5t-16.5 44.5q0 30 19 54t51 24q27 0 37.5 -14.5t10.5 -31.5q0 -23 -13.5 -42.5t-32.5 -30.5q1 -1 3 -1.5t4 -0.5zM558 863q41 17 97.5 35.5t112.5 29.5
l5 -14q-77 -23 -142 -60.5t-105 -77.5h-18q-24 47 -55 81.5t-84 56.5l4 14q69 -12 108.5 -28.5t76.5 -36.5z" />
    <glyph glyph-name="ncaron" unicode="&#x148;" horiz-adv-x="588" 
d="M134 0h-105l120 430q4 13 6.5 26.5t-1.5 22.5t-19 9q-20 0 -36.5 -20t-35.5 -74l-15 -42h-19l25 74q22 61 54.5 82t68.5 21q42 0 56 -22t11 -54t-11 -64zM175 195q36 96 69.5 160.5t65.5 102.5t65.5 54.5t70.5 16.5q48 0 66.5 -22t17 -56.5t-13.5 -72.5l-97 -293
q-10 -27 -7 -42.5t22 -15.5q17 0 34.5 19t37.5 75l15 41h19l-25 -73q-22 -63 -57.5 -83t-68.5 -20q-49 0 -68 30q-12 19 -9 48.5t16 67.5l93 281q5 15 8 33t-1 31.5t-25 13.5q-28 0 -61.5 -34.5t-68.5 -94.5t-67.5 -139t-58.5 -168zM411 714q36 25 82.5 51t94.5 43l5 -14
q-69 -29 -127.5 -78.5t-95.5 -101.5h-18q-11 64 -38 106.5t-81 73.5l4 14q64 -16 103 -39.5t71 -54.5z" />
    <glyph glyph-name="napostrophe" unicode="&#x149;" horiz-adv-x="588" 
d="M134 0h-105l120 430q4 13 6.5 26.5t-1.5 22.5t-19 9q-20 0 -36.5 -20t-35.5 -74l-15 -42h-19l25 74q22 61 54.5 82t68.5 21q42 0 56 -22t11 -54t-11 -64zM175 195q36 96 69.5 160.5t65.5 102.5t65.5 54.5t70.5 16.5q48 0 66.5 -22t17 -56.5t-13.5 -72.5l-97 -293
q-10 -27 -7 -42.5t22 -15.5q17 0 34.5 19t37.5 75l15 41h19l-25 -73q-22 -63 -57.5 -83t-68.5 -20q-49 0 -68 30q-12 19 -9 48.5t16 67.5l93 281q5 15 8 33t-1 31.5t-25 13.5q-28 0 -61.5 -34.5t-68.5 -94.5t-67.5 -139t-58.5 -168zM137 706q0 -55 -39.5 -108t-108.5 -86
l-5 15q46 27 75 61t32 71q-13 -11 -27 -18.5t-29 -7.5q-46 0 -46 41q0 24 14 45.5t35.5 36t46.5 14.5q26 0 39 -18.5t13 -45.5z" />
    <glyph glyph-name="Eng" unicode="&#x14a;" horiz-adv-x="708" 
d="M651 594q14 55 2.5 73.5t-67.5 20.5l5 20q17 -1 45.5 -2t53.5 -1q26 0 51.5 1t42.5 2l-5 -20q-34 -1 -53.5 -9.5t-30.5 -28t-21 -56.5l-143 -541l-36 -62l-266 626l-132 -503q-14 -55 -2.5 -73.5t67.5 -20.5l-5 -20q-17 2 -44.5 2.5t-53.5 0.5q-25 0 -51 -0.5t-43 -2.5
l4 20q35 2 54 10t30.5 28t20.5 56l130 488q14 55 2 69.5t-64 16.5l5 20q16 -1 39.5 -2t49.5 -1q47 0 81 3l224 -536zM531 54q-17 -79 -43 -133.5t-62.5 -81.5t-85.5 -27q-23 0 -46 6.5t-38 20t-16 35.5q-1 26 17.5 45t47.5 19q23 0 38 -12.5t16 -33.5q0 -20 -13.5 -35
t-32.5 -24q14 -5 31 -5q36 0 63 19.5t46.5 52t33.5 73.5t23 83z" />
    <glyph glyph-name="eng" unicode="&#x14b;" horiz-adv-x="560" 
d="M133 0h-11h-26h-31h-26.5h-10.5l120 430q8 29 6 43.5t-19 14.5q-20 0 -37 -21t-36 -73l-15 -42h-19l25 74q22 61 55.5 82t69.5 21q37 0 52 -18.5t13.5 -49.5t-11.5 -72zM441 115q-32 -110 -76 -183.5t-107 -100.5q-21 -10 -44.5 -14.5t-39.5 -4.5q-36 0 -51.5 15.5
t-10.5 42.5q4 19 21.5 36t41.5 17q23 0 33.5 -14.5t6.5 -33.5q-2 -12 -9 -24.5t-20 -23.5q38 5 60 28.5t39 79.5l135 478q11 37 9 57.5t-27 20.5q-28 0 -61.5 -34.5t-68.5 -94.5t-67.5 -139t-57.5 -168l31 140q36 96 68.5 160.5t64 102.5t65 54.5t69.5 16.5q46 0 64.5 -19
t18.5 -53t-13 -79z" />
    <glyph glyph-name="Omacron" unicode="&#x14c;" horiz-adv-x="745" 
d="M470 704q-56 0 -108.5 -42t-94 -113t-65.5 -158.5t-24 -177.5q0 -98 36 -153.5t92 -55.5t108.5 42t94 113t65.5 158.5t24 177.5q0 98 -36 153.5t-92 55.5zM50 226q0 66 19.5 136t56.5 134t90 115t119 81t144 30q116 0 182 -62.5t66 -178.5q0 -66 -20 -135.5t-57 -133.5
t-90 -115t-119.5 -81t-143.5 -30q-116 0 -181.5 62.5t-65.5 177.5zM663 844l-6 -25h-368l6 25h368z" />
    <glyph glyph-name="omacron" unicode="&#x14d;" horiz-adv-x="502" 
d="M313 509q-29 0 -57 -26t-52.5 -70.5t-43.5 -99.5t-29.5 -114t-10.5 -112q0 -42 12.5 -61.5t36.5 -19.5q29 0 57 26t53 70t43.5 98.5t29 113.5t10.5 114q0 44 -12 62.5t-37 18.5zM18 146q0 55 19.5 121.5t57 126t94 97.5t130.5 38q67 0 106 -39.5t39 -120.5
q0 -55 -19.5 -121.5t-57 -126t-94 -97.5t-130.5 -38q-67 0 -106 40t-39 120zM535 712l-6 -25h-320l6 25h320z" />
    <glyph glyph-name="Obreve" unicode="&#x14e;" horiz-adv-x="745" 
d="M470 704q-56 0 -108.5 -42t-94 -113t-65.5 -158.5t-24 -177.5q0 -98 36 -153.5t92 -55.5t108.5 42t94 113t65.5 158.5t24 177.5q0 98 -36 153.5t-92 55.5zM50 226q0 66 19.5 136t56.5 134t90 115t119 81t144 30q116 0 182 -62.5t66 -178.5q0 -66 -20 -135.5t-57 -133.5
t-90 -115t-119.5 -81t-143.5 -30q-116 0 -181.5 62.5t-65.5 177.5zM497 856q56 0 115.5 14.5t107.5 42.5l10 -10q-26 -30 -68 -58.5t-90.5 -47.5t-92.5 -19q-66 0 -104.5 37t-49.5 89l16 5q27 -30 63 -41.5t93 -11.5z" />
    <glyph glyph-name="obreve" unicode="&#x14f;" horiz-adv-x="502" 
d="M313 509q-29 0 -57 -26t-52.5 -70.5t-43.5 -99.5t-29.5 -114t-10.5 -112q0 -42 12.5 -61.5t36.5 -19.5q29 0 57 26t53 70t43.5 98.5t29 113.5t10.5 114q0 44 -12 62.5t-37 18.5zM18 146q0 55 19.5 121.5t57 126t94 97.5t130.5 38q67 0 106 -39.5t39 -120.5
q0 -55 -19.5 -121.5t-57 -126t-94 -97.5t-130.5 -38q-67 0 -106 40t-39 120zM368 706q49 0 106 21.5t100 60.5l10 -11q-24 -35 -63 -69t-84.5 -56.5t-86.5 -22.5q-55 0 -85.5 44t-39.5 105l16 6q23 -43 51 -60.5t76 -17.5z" />
    <glyph glyph-name="Ohungarumlaut" unicode="&#x150;" horiz-adv-x="745" 
d="M470 704q-56 0 -108.5 -42t-94 -113t-65.5 -158.5t-24 -177.5q0 -98 36 -153.5t92 -55.5t108.5 42t94 113t65.5 158.5t24 177.5q0 98 -36 153.5t-92 55.5zM50 226q0 66 19.5 136t56.5 134t90 115t119 81t144 30q116 0 182 -62.5t66 -178.5q0 -66 -20 -135.5t-57 -133.5
t-90 -115t-119.5 -81t-143.5 -30q-116 0 -181.5 62.5t-65.5 177.5zM527 784q31 27 55.5 53.5t47 50t43.5 38.5q14 10 35 13.5t33 -15.5q12 -17 1.5 -36t-27.5 -31q-34 -23 -80.5 -39.5t-101.5 -45.5zM332 784q31 27 55.5 53.5t47 50t43.5 38.5q14 11 36 13.5t33 -17.5
q10 -17 0.5 -34.5t-27.5 -30.5q-34 -23 -80.5 -39.5t-101.5 -45.5z" />
    <glyph glyph-name="ohungarumlaut" unicode="&#x151;" horiz-adv-x="502" 
d="M313 509q-29 0 -57 -26t-52.5 -70.5t-43.5 -99.5t-29.5 -114t-10.5 -112q0 -42 12.5 -61.5t36.5 -19.5q29 0 57 26t53 70t43.5 98.5t29 113.5t10.5 114q0 44 -12 62.5t-37 18.5zM18 146q0 55 19.5 121.5t57 126t94 97.5t130.5 38q67 0 106 -39.5t39 -120.5
q0 -55 -19.5 -121.5t-57 -126t-94 -97.5t-130.5 -38q-67 0 -106 40t-39 120zM225 607q28 50 45 85t28.5 60.5t26.5 44.5q15 20 34 22.5t33 -8.5q14 -12 15.5 -29.5t-14.5 -38.5q-22 -28 -60 -56t-97 -88zM403 607q29 50 45.5 85t28 60.5t26.5 44.5q15 20 34 22.5t33 -8.5
q14 -12 15.5 -29.5t-14.5 -38.5q-22 -28 -60 -56t-97 -88z" />
    <glyph glyph-name="OE" unicode="&#x152;" horiz-adv-x="969" 
d="M568 346l4 20h206l-4 -20h-206zM707 366q45 0 66 34.5t37 77.5h22q-13 -39 -19.5 -64.5t-14.5 -57.5q-6 -22 -12 -47t-14 -75h-22q0 23 4 48t-4.5 43.5t-46.5 20.5zM295 4q56 0 88.5 18.5t47.5 73.5l134 506q12 44 2 66t-36 29t-63 7q-58 0 -110 -42t-92 -113t-63 -158.5
t-23 -177.5q0 -98 31.5 -153.5t83.5 -55.5zM936 528q16 89 -2.5 123t-78.5 34h-75q-33 0 -51.5 -5.5t-28.5 -23t-20 -54.5l-132 -496q-14 -55 -3 -69t60 -14h85q48 0 79.5 17t54.5 55.5t45 104.5h22q-6 -13 -10.5 -32t-10.5 -40q-5 -19 -13 -54.5t-13 -73.5q-49 2 -109 2.5
t-109 0.5h-64t-86 -0.5t-90 -1.5q-24 -7 -50.5 -11t-52.5 -4q-110 0 -170.5 62.5t-60.5 177.5q0 66 18.5 136t54.5 134t86.5 115t114.5 81t139 30q27 0 52 -3.5t46 -11.5q46 -1 95 -1.5t91.5 -0.5h68.5q42 0 94.5 0.5t96.5 2.5q-13 -35 -22.5 -66.5t-15.5 -51.5
q-6 -18 -9 -34.5t-4 -27.5h-22z" />
    <glyph glyph-name="oe" unicode="&#x153;" horiz-adv-x="738" 
d="M395 224q51 18 94.5 36.5t70.5 41.5q36 31 57 74t21 93q0 41 -32 41q-27 0 -60 -33.5t-62 -89.5t-48 -123t-19 -134q0 -52 19.5 -74t51.5 -22q33 0 71.5 20.5t76.5 73.5l20 -8q-20 -33 -52 -64t-72.5 -50.5t-87.5 -19.5q-63 0 -101.5 35.5t-38.5 105.5q0 46 15.5 100.5
t45 107.5t69.5 97.5t89.5 70.5t104.5 26q43 0 71.5 -19.5t28.5 -58.5t-22.5 -72t-60.5 -60.5t-82.5 -49t-89 -36.5t-79.5 -25zM408 396q8 24 7 46.5t-13.5 36.5t-40.5 14q-50 0 -93.5 -35.5t-77.5 -93.5t-53 -126.5t-19 -133.5q0 -45 13 -64.5t38 -19.5q44 0 85.5 45.5
t66.5 118.5l15 -8q-18 -51 -44 -94t-62.5 -69.5t-85.5 -26.5q-59 0 -95.5 40t-36.5 120q0 55 24.5 119.5t69.5 123t106.5 95.5t136.5 37q61 0 80 -35.5t-2 -89.5h-19z" />
    <glyph glyph-name="Racute" unicode="&#x154;" horiz-adv-x="680" 
d="M241 354q46 -2 73 -4.5t44.5 -4t33.5 -4.5q45 -6 77 -19.5t47.5 -40t10.5 -74.5l-10 -102q-3 -31 3 -55t28 -23q19 1 33 21.5t27 58.5l5 14h23l-4 -13q-17 -61 -47.5 -91.5t-82.5 -30.5q-56 0 -80.5 30.5t-20.5 72.5l11 112q4 49 -6.5 79t-48.5 43.5t-118 13.5zM229 337
l5 20h41q86 0 140 28t79.5 77.5t25.5 113.5q0 57 -27.5 84.5t-88.5 27.5q-39 0 -55.5 -16t-29.5 -63l-134 -503q-8 -31 -9 -49.5t14.5 -27t53.5 -9.5l-4 -20q-25 2 -60.5 2.5t-74.5 0.5q-42 0 -80 -0.5t-61 -2.5l4 20q34 2 53 8t30 24t20 54l132 496q9 32 8.5 50t-15.5 27
t-52 9l5 20q15 -1 37 -1.5t47.5 -1t47.5 -0.5q40 0 76 1t72 1q108 0 160 -37t52 -103q0 -68 -47 -119t-131 -80.5t-194 -29.5zM397 783q52 37 85.5 65t59 48.5t49.5 35.5q17 10 41 11.5t33 -20.5q9 -18 -4 -35t-31 -27q-35 -20 -87.5 -35t-138.5 -54z" />
    <glyph glyph-name="racute" unicode="&#x155;" horiz-adv-x="441" 
d="M133 0h-105l120 430q9 32 6 45t-19 13q-20 0 -37 -21t-36 -73l-15 -42h-19l25 74q22 62 57 82.5t70 20.5q41 0 53.5 -22.5t9.5 -54.5t-11 -63zM389 505q-22 0 -46 -18.5t-49 -55.5t-50.5 -93t-51 -130.5t-50.5 -168.5l24 130q32 102 60 171t55.5 110.5t57 60t63.5 18.5
q32 0 49.5 -18.5t17.5 -46.5q0 -34 -23 -58.5t-56 -24.5q-21 0 -34 11.5t-13 32.5q0 28 17 48t41 28q-2 2 -5 3t-7 1zM256 608q39 50 64 86t43.5 63t37.5 47q18 20 38 23t35 -9q12 -13 9 -31t-24 -39q-19 -19 -46 -38t-63 -44.5t-84 -66.5z" />
    <glyph glyph-name="uni0156" unicode="&#x156;" horiz-adv-x="680" 
d="M241 354q46 -2 73 -4.5t44.5 -4t33.5 -4.5q45 -6 77 -19.5t47.5 -40t10.5 -74.5l-10 -102q-3 -31 3 -55t28 -23q19 1 33 21.5t27 58.5l5 14h23l-4 -13q-17 -61 -47.5 -91.5t-82.5 -30.5q-56 0 -80.5 30.5t-20.5 72.5l11 112q4 49 -6.5 79t-48.5 43.5t-118 13.5zM229 337
l5 20h41q86 0 140 28t79.5 77.5t25.5 113.5q0 57 -27.5 84.5t-88.5 27.5q-39 0 -55.5 -16t-29.5 -63l-134 -503q-8 -31 -9 -49.5t14.5 -27t53.5 -9.5l-4 -20q-25 2 -60.5 2.5t-74.5 0.5q-42 0 -80 -0.5t-61 -2.5l4 20q34 2 53 8t30 24t20 54l132 496q9 32 8.5 50t-15.5 27
t-52 9l5 20q15 -1 37 -1.5t47.5 -1t47.5 -0.5q40 0 76 1t72 1q108 0 160 -37t52 -103q0 -68 -47 -119t-131 -80.5t-194 -29.5zM286 -64q26 0 42.5 -16t16.5 -43q0 -38 -23.5 -69.5t-87.5 -48.5l-6 18q28 6 54 22t29 40q-8 -7 -21 -12t-28 -5q-22 0 -36 11.5t-14 33.5
q0 25 20 47t54 22z" />
    <glyph glyph-name="uni0157" unicode="&#x157;" horiz-adv-x="441" 
d="M133 0h-105l120 430q9 32 6 45t-19 13q-20 0 -37 -21t-36 -73l-15 -42h-19l25 74q22 62 57 82.5t70 20.5q41 0 53.5 -22.5t9.5 -54.5t-11 -63zM389 505q-22 0 -46 -18.5t-49 -55.5t-50.5 -93t-51 -130.5t-50.5 -168.5l24 130q32 102 60 171t55.5 110.5t57 60t63.5 18.5
q32 0 49.5 -18.5t17.5 -46.5q0 -34 -23 -58.5t-56 -24.5q-21 0 -34 11.5t-13 32.5q0 28 17 48t41 28q-2 2 -5 3t-7 1zM63 -64q26 0 42.5 -16t16.5 -43q0 -38 -23.5 -69.5t-87.5 -48.5l-6 18q28 6 54 22t29 40q-8 -7 -21 -12t-28 -5q-22 0 -36 11.5t-14 33.5q0 25 20 47
t54 22z" />
    <glyph glyph-name="Rcaron" unicode="&#x158;" horiz-adv-x="680" 
d="M241 354q46 -2 73 -4.5t44.5 -4t33.5 -4.5q45 -6 77 -19.5t47.5 -40t10.5 -74.5l-10 -102q-3 -31 3 -55t28 -23q19 1 33 21.5t27 58.5l5 14h23l-4 -13q-17 -61 -47.5 -91.5t-82.5 -30.5q-56 0 -80.5 30.5t-20.5 72.5l11 112q4 49 -6.5 79t-48.5 43.5t-118 13.5zM229 337
l5 20h41q86 0 140 28t79.5 77.5t25.5 113.5q0 57 -27.5 84.5t-88.5 27.5q-39 0 -55.5 -16t-29.5 -63l-134 -503q-8 -31 -9 -49.5t14.5 -27t53.5 -9.5l-4 -20q-25 2 -60.5 2.5t-74.5 0.5q-42 0 -80 -0.5t-61 -2.5l4 20q34 2 53 8t30 24t20 54l132 496q9 32 8.5 50t-15.5 27
t-52 9l5 20q15 -1 37 -1.5t47.5 -1t47.5 -0.5q40 0 76 1t72 1q108 0 160 -37t52 -103q0 -68 -47 -119t-131 -80.5t-194 -29.5zM454 863q41 17 97.5 35.5t112.5 29.5l5 -14q-77 -23 -142 -60.5t-105 -77.5h-18q-24 47 -55 81.5t-84 56.5l4 14q69 -12 108.5 -28.5t76.5 -36.5z
" />
    <glyph glyph-name="rcaron" unicode="&#x159;" horiz-adv-x="441" 
d="M133 0h-105l120 430q9 32 6 45t-19 13q-20 0 -37 -21t-36 -73l-15 -42h-19l25 74q22 62 57 82.5t70 20.5q41 0 53.5 -22.5t9.5 -54.5t-11 -63zM389 505q-22 0 -46 -18.5t-49 -55.5t-50.5 -93t-51 -130.5t-50.5 -168.5l24 130q32 102 60 171t55.5 110.5t57 60t63.5 18.5
q32 0 49.5 -18.5t17.5 -46.5q0 -34 -23 -58.5t-56 -24.5q-21 0 -34 11.5t-13 32.5q0 28 17 48t41 28q-2 2 -5 3t-7 1zM359 714q36 25 82.5 51t94.5 43l5 -14q-69 -29 -127.5 -78.5t-95.5 -101.5h-18q-11 64 -38 106.5t-81 73.5l4 14q64 -16 103 -39.5t71 -54.5z" />
    <glyph glyph-name="Sacute" unicode="&#x15a;" horiz-adv-x="565" 
d="M591 715q-10 -26 -27 -75.5t-32 -128.5h-20q6 29 6 57q0 56 -34 94.5t-109 38.5q-56 0 -94.5 -29t-38.5 -92q0 -44 24.5 -82t61.5 -73.5t74 -72.5t62 -78t25 -91q0 -52 -24.5 -89.5t-63 -61t-84 -35t-89.5 -11.5q-42 0 -70.5 7t-47.5 18t-34 21q-11 8 -20.5 11.5
t-15.5 3.5q-13 0 -21.5 -13t-19.5 -41h-20q14 32 30 84t38 156h20q-5 -20 -7.5 -40t-1.5 -40q3 -69 42.5 -107.5t120.5 -38.5q66 0 103.5 29t37.5 89q0 50 -23 89t-56 72.5t-67 68.5t-56.5 76t-22.5 94q0 49 20 86t53 61.5t73.5 37t81.5 12.5q48 0 80.5 -11.5t59.5 -31.5
q11 -8 19.5 -12.5t13.5 -4.5q14 0 33 53h20zM377 783q52 37 85.5 65t59 48.5t49.5 35.5q17 10 41 11.5t33 -20.5q9 -18 -4 -35t-31 -27q-35 -20 -87.5 -35t-138.5 -54z" />
    <glyph glyph-name="sacute" unicode="&#x15b;" horiz-adv-x="394" 
d="M64 15q8 -4 17.5 -6.5t26.5 -2.5q41 0 68 25.5t27 72.5q0 31 -12.5 63t-40.5 72q-23 34 -43.5 67.5t-20.5 78.5q0 64 46 104t118 40q31 0 61.5 -7.5t50.5 -27.5t20 -58q0 -17 -12 -38t-39 -21q-19 0 -32 14t-13 36q0 21 8 39.5t21 33.5q-17 10 -45 10q-37 0 -60.5 -24
t-23.5 -67q0 -34 16 -59.5t44 -68.5q26 -41 42.5 -76t16.5 -73q0 -45 -23.5 -80.5t-63.5 -55.5t-91 -20q-36 0 -69.5 10.5t-54.5 33t-21 61.5q0 18 10.5 36t34.5 18q25 0 36.5 -20.5t11.5 -47.5q0 -20 -4 -35t-7 -27zM231 608q39 50 64 86t43.5 63t37.5 47q18 20 38 23
t35 -9q12 -13 9 -31t-24 -39q-19 -19 -46 -38t-63 -44.5t-84 -66.5z" />
    <glyph glyph-name="Scircumflex" unicode="&#x15c;" horiz-adv-x="565" 
d="M591 715q-10 -26 -27 -75.5t-32 -128.5h-20q6 29 6 57q0 56 -34 94.5t-109 38.5q-56 0 -94.5 -29t-38.5 -92q0 -44 24.5 -82t61.5 -73.5t74 -72.5t62 -78t25 -91q0 -52 -24.5 -89.5t-63 -61t-84 -35t-89.5 -11.5q-42 0 -70.5 7t-47.5 18t-34 21q-11 8 -20.5 11.5
t-15.5 3.5q-13 0 -21.5 -13t-19.5 -41h-20q14 32 30 84t38 156h20q-5 -20 -7.5 -40t-1.5 -40q3 -69 42.5 -107.5t120.5 -38.5q66 0 103.5 29t37.5 89q0 50 -23 89t-56 72.5t-67 68.5t-56.5 76t-22.5 94q0 49 20 86t53 61.5t73.5 37t81.5 12.5q48 0 80.5 -11.5t59.5 -31.5
q11 -8 19.5 -12.5t13.5 -4.5q14 0 33 53h20zM401 837q-41 -16 -97.5 -35t-112.5 -30l-5 14q76 24 141.5 61t105.5 77h18q24 -46 55 -81t84 -57l-4 -14q-70 12 -109 29t-76 36z" />
    <glyph glyph-name="scircumflex" unicode="&#x15d;" horiz-adv-x="394" 
d="M64 15q8 -4 17.5 -6.5t26.5 -2.5q41 0 68 25.5t27 72.5q0 31 -12.5 63t-40.5 72q-23 34 -43.5 67.5t-20.5 78.5q0 64 46 104t118 40q31 0 61.5 -7.5t50.5 -27.5t20 -58q0 -17 -12 -38t-39 -21q-19 0 -32 14t-13 36q0 21 8 39.5t21 33.5q-17 10 -45 10q-37 0 -60.5 -24
t-23.5 -67q0 -34 16 -59.5t44 -68.5q26 -41 42.5 -76t16.5 -73q0 -45 -23.5 -80.5t-63.5 -55.5t-91 -20q-36 0 -69.5 10.5t-54.5 33t-21 61.5q0 18 10.5 36t34.5 18q25 0 36.5 -20.5t11.5 -47.5q0 -20 -4 -35t-7 -27zM280 708q-34 -25 -81 -50.5t-96 -43.5l-5 14
q70 30 128.5 79t94.5 101h18q12 -63 38.5 -106t80.5 -74l-4 -14q-63 16 -102 40t-72 54z" />
    <glyph glyph-name="Scedilla" unicode="&#x15e;" horiz-adv-x="565" 
d="M591 715q-10 -26 -27 -75.5t-32 -128.5h-20q6 29 6 57q0 56 -34 94.5t-109 38.5q-56 0 -94.5 -29t-38.5 -92q0 -44 24.5 -82t61.5 -73.5t74 -72.5t62 -78t25 -91q0 -52 -24.5 -89.5t-63 -61t-84 -35t-89.5 -11.5q-42 0 -70.5 7t-47.5 18t-34 21q-11 8 -20.5 11.5
t-15.5 3.5q-13 0 -21.5 -13t-19.5 -41h-20q14 32 30 84t38 156h20q-5 -20 -7.5 -40t-1.5 -40q3 -69 42.5 -107.5t120.5 -38.5q66 0 103.5 29t37.5 89q0 50 -23 89t-56 72.5t-67 68.5t-56.5 76t-22.5 94q0 49 20 86t53 61.5t73.5 37t81.5 12.5q48 0 80.5 -11.5t59.5 -31.5
q11 -8 19.5 -12.5t13.5 -4.5q14 0 33 53h20zM234 5l-35 -74q27 8 54 8q26 0 41.5 -11t15.5 -32q0 -29 -25 -48t-62 -27.5t-71 -8.5q-36 0 -63 7t-40 14l6 15q9 -2 29 -7t52 -5q15 0 38.5 4t41.5 15t18 30q0 24 -36 24q-7 0 -18 -1.5t-21 -5.5l48 103h27z" />
    <glyph glyph-name="scedilla" unicode="&#x15f;" horiz-adv-x="394" 
d="M64 15q8 -4 17.5 -6.5t26.5 -2.5q41 0 68 25.5t27 72.5q0 31 -12.5 63t-40.5 72q-23 34 -43.5 67.5t-20.5 78.5q0 64 46 104t118 40q31 0 61.5 -7.5t50.5 -27.5t20 -58q0 -17 -12 -38t-39 -21q-19 0 -32 14t-13 36q0 21 8 39.5t21 33.5q-17 10 -45 10q-37 0 -60.5 -24
t-23.5 -67q0 -34 16 -59.5t44 -68.5q26 -41 42.5 -76t16.5 -73q0 -45 -23.5 -80.5t-63.5 -55.5t-91 -20q-36 0 -69.5 10.5t-54.5 33t-21 61.5q0 18 10.5 36t34.5 18q25 0 36.5 -20.5t11.5 -47.5q0 -20 -4 -35t-7 -27zM134 0l-38 -71q10 3 22.5 5.5t23.5 2.5q21 0 34.5 -10.5
t13.5 -30.5q0 -29 -21.5 -48t-53 -27.5t-61.5 -8.5q-29 0 -51 7t-32 14l6 15q8 -2 22 -7t39 -5q11 0 28.5 4t31.5 15t14 30q0 24 -28 24q-5 0 -14 -1.5t-17 -5.5l53 98h28z" />
    <glyph glyph-name="Scaron" unicode="&#x160;" horiz-adv-x="565" 
d="M591 715q-10 -26 -27 -75.5t-32 -128.5h-20q6 29 6 57q0 56 -34 94.5t-109 38.5q-56 0 -94.5 -29t-38.5 -92q0 -44 24.5 -82t61.5 -73.5t74 -72.5t62 -78t25 -91q0 -52 -24.5 -89.5t-63 -61t-84 -35t-89.5 -11.5q-42 0 -70.5 7t-47.5 18t-34 21q-11 8 -20.5 11.5
t-15.5 3.5q-13 0 -21.5 -13t-19.5 -41h-20q14 32 30 84t38 156h20q-5 -20 -7.5 -40t-1.5 -40q3 -69 42.5 -107.5t120.5 -38.5q66 0 103.5 29t37.5 89q0 50 -23 89t-56 72.5t-67 68.5t-56.5 76t-22.5 94q0 49 20 86t53 61.5t73.5 37t81.5 12.5q48 0 80.5 -11.5t59.5 -31.5
q11 -8 19.5 -12.5t13.5 -4.5q14 0 33 53h20zM434 863q41 17 97.5 35.5t112.5 29.5l5 -14q-77 -23 -142 -60.5t-105 -77.5h-18q-24 47 -55 81.5t-84 56.5l4 14q69 -12 108.5 -28.5t76.5 -36.5z" />
    <glyph glyph-name="scaron" unicode="&#x161;" horiz-adv-x="394" 
d="M64 15q8 -4 17.5 -6.5t26.5 -2.5q41 0 68 25.5t27 72.5q0 31 -12.5 63t-40.5 72q-23 34 -43.5 67.5t-20.5 78.5q0 64 46 104t118 40q31 0 61.5 -7.5t50.5 -27.5t20 -58q0 -17 -12 -38t-39 -21q-19 0 -32 14t-13 36q0 21 8 39.5t21 33.5q-17 10 -45 10q-37 0 -60.5 -24
t-23.5 -67q0 -34 16 -59.5t44 -68.5q26 -41 42.5 -76t16.5 -73q0 -45 -23.5 -80.5t-63.5 -55.5t-91 -20q-36 0 -69.5 10.5t-54.5 33t-21 61.5q0 18 10.5 36t34.5 18q25 0 36.5 -20.5t11.5 -47.5q0 -20 -4 -35t-7 -27zM334 714q36 25 82.5 51t94.5 43l5 -14
q-69 -29 -127.5 -78.5t-95.5 -101.5h-18q-11 64 -38 106.5t-81 73.5l4 14q64 -16 103 -39.5t71 -54.5z" />
    <glyph glyph-name="uni0162" unicode="&#x162;" horiz-adv-x="666" 
d="M772 831q28 0 42 -16.5t14 -39.5q0 -26 -15 -46t-39 -33q-27 -16 -67.5 -24t-93.5 -8q-54 0 -110 7t-110.5 14t-104.5 7q-32 0 -64 -3t-49 -14q14 -9 23 -27.5t9 -38.5q0 -24 -15 -45t-44 -21q-26 0 -39.5 17t-13.5 42q0 22 11.5 45.5t45.5 39.5q23 11 49.5 16t49.5 6
t35 1q60 0 115 -6.5t109 -13t110 -6.5q44 0 74 5t54 17l-2 -7q-11 10 -22 28t-11 40q0 25 15.5 44.5t43.5 19.5zM416 690l11 -1t27.5 -3t33.5 -4t28 -3l11 -1l-149 -562q-16 -57 -1.5 -75.5t76.5 -20.5l-4 -20q-28 2 -71.5 2.5t-89.5 0.5t-88.5 -0.5t-67.5 -2.5l4 20
q42 2 65.5 10.5t37 29t24.5 56.5zM303 5l-35 -74q27 8 54 8q26 0 41.5 -11t15.5 -32q0 -29 -25 -48t-62 -27.5t-71 -8.5q-36 0 -63 7t-40 14l6 15q9 -2 29 -7t52 -5q15 0 38.5 4t41.5 15t18 30q0 24 -36 24q-7 0 -18 -1.5t-21 -5.5l48 103h27z" />
    <glyph glyph-name="uni0163" unicode="&#x163;" horiz-adv-x="342" 
d="M384 515l-3 -20h-323l5 20h321zM135 85q-8 -31 4 -44.5t32 -13.5q22 0 44 19.5t42 75.5l14 40h19l-21 -61q-21 -64 -57 -89.5t-84 -25.5q-64 0 -83.5 41.5t-0.5 104.5l153 534q30 1 57.5 4t50.5 10zM113 0l-38 -71q10 3 22.5 5.5t23.5 2.5q21 0 34.5 -10.5t13.5 -30.5
q0 -29 -21.5 -48t-53 -27.5t-61.5 -8.5q-29 0 -51 7t-32 14l6 15q8 -2 22 -7t39 -5q11 0 28.5 4t31.5 15t14 30q0 24 -28 24q-5 0 -14 -1.5t-17 -5.5l53 98h28z" />
    <glyph glyph-name="Tcaron" unicode="&#x164;" horiz-adv-x="666" 
d="M772 831q28 0 42 -16.5t14 -39.5q0 -26 -15 -46t-39 -33q-27 -16 -67.5 -24t-93.5 -8q-54 0 -110 7t-110.5 14t-104.5 7q-32 0 -64 -3t-49 -14q14 -9 23 -27.5t9 -38.5q0 -24 -15 -45t-44 -21q-26 0 -39.5 17t-13.5 42q0 22 11.5 45.5t45.5 39.5q23 11 49.5 16t49.5 6
t35 1q60 0 115 -6.5t109 -13t110 -6.5q44 0 74 5t54 17l-2 -7q-11 10 -22 28t-11 40q0 25 15.5 44.5t43.5 19.5zM416 690l11 -1t27.5 -3t33.5 -4t28 -3l11 -1l-149 -562q-16 -57 -1.5 -75.5t76.5 -20.5l-4 -20q-28 2 -71.5 2.5t-89.5 0.5t-88.5 -0.5t-67.5 -2.5l4 20
q42 2 65.5 10.5t37 29t24.5 56.5zM516 863q41 17 97.5 35.5t112.5 29.5l5 -14q-77 -23 -142 -60.5t-105 -77.5h-18q-24 47 -55 81.5t-84 56.5l4 14q69 -12 108.5 -28.5t76.5 -36.5z" />
    <glyph glyph-name="tcaron" unicode="&#x165;" horiz-adv-x="342" 
d="M384 515l-3 -20h-323l5 20h321zM135 85q-8 -31 4 -44.5t32 -13.5q22 0 44 19.5t42 75.5l14 40h19l-21 -61q-21 -64 -57 -89.5t-84 -25.5q-64 0 -83.5 41.5t-0.5 104.5l153 534q30 1 57.5 4t50.5 10zM335 560q34 74 47.5 124t13.5 69t-13 19l3 21q6 0 12 -0.5t11 -0.5
q28 0 46.5 4t34.5 8q1 -2 1 -9q0 -38 -38 -101t-104 -138z" />
    <glyph glyph-name="Tbar" unicode="&#x166;" horiz-adv-x="666" 
d="M772 831q28 0 42 -16.5t14 -39.5q0 -26 -15 -46t-39 -33q-27 -16 -67.5 -24t-93.5 -8q-54 0 -110 7t-110.5 14t-104.5 7q-32 0 -64 -3t-49 -14q14 -9 23 -27.5t9 -38.5q0 -24 -15 -45t-44 -21q-26 0 -39.5 17t-13.5 42q0 22 11.5 45.5t45.5 39.5q23 11 49.5 16t49.5 6
t35 1q60 0 115 -6.5t109 -13t110 -6.5q44 0 74 5t54 17l-2 -7q-11 10 -22 28t-11 40q0 25 15.5 44.5t43.5 19.5zM416 690l11 -1t27.5 -3t33.5 -4t28 -3l11 -1l-149 -562q-16 -57 -1.5 -75.5t76.5 -20.5l-4 -20q-28 2 -71.5 2.5t-89.5 0.5t-88.5 -0.5t-67.5 -2.5l4 20
q42 2 65.5 10.5t37 29t24.5 56.5zM588 366l-6 -25h-416l6 25h416z" />
    <glyph glyph-name="tbar" unicode="&#x167;" horiz-adv-x="342" 
d="M362 421l-3 -20h-323l5 20h321zM384 515l-3 -20h-323l5 20h321zM135 85q-8 -31 4 -44.5t32 -13.5q22 0 44 19.5t42 75.5l14 40h19l-21 -61q-21 -64 -57 -89.5t-84 -25.5q-64 0 -83.5 41.5t-0.5 104.5l153 534q30 1 57.5 4t50.5 10z" />
    <glyph glyph-name="Utilde" unicode="&#x168;" horiz-adv-x="686" 
d="M635 576q12 43 9.5 66t-20 33.5t-54.5 12.5l5 20q18 -1 48 -2t55 -1q26 0 51 1t41 2l-5 -20q-33 -2 -53 -12t-32 -32.5t-22 -63.5l-75 -289q-36 -138 -98 -212q-36 -42 -89.5 -67.5t-115.5 -25.5q-57 0 -99.5 15.5t-67.5 46.5q-33 41 -32.5 97t23.5 143l83 314
q14 55 2.5 69.5t-61.5 16.5l6 20q22 -1 60.5 -2t80.5 -1q38 0 73.5 1t61.5 2l-6 -20q-34 -1 -53 -7.5t-29.5 -24t-20.5 -54.5l-88 -331q-19 -73 -22 -129.5t21.5 -88.5t86.5 -32q75 0 125 33.5t82 92.5t51 133zM445 906q35 0 57.5 -11t40 -25.5t36 -25.5t44.5 -11
q19 0 37 13.5t36 44.5l18 -5q-25 -62 -64.5 -88.5t-77.5 -26.5q-35 0 -58 11t-40 25.5t-35.5 25.5t-45.5 11q-19 0 -37 -13t-35 -45l-18 5q24 62 63.5 88.5t78.5 26.5z" />
    <glyph glyph-name="utilde" unicode="&#x169;" horiz-adv-x="577" 
d="M396 348q-37 -104 -70 -173.5t-65.5 -111t-66.5 -59.5t-70 -18q-65 0 -80 42.5t7 108.5l97 293q10 30 6.5 44t-21.5 14q-17 0 -34.5 -19t-37.5 -75l-15 -41h-19l25 73q22 63 57.5 83t68.5 20q44 0 61 -20t15.5 -53.5t-15.5 -72.5l-93 -281q-26 -78 18 -78q28 0 61.5 35
t68 97.5t66.5 146t57 179.5zM410 85q-7 -26 -6.5 -42t19.5 -16q21 0 38.5 21.5t34.5 72.5l15 42h19l-25 -74q-22 -62 -57 -82.5t-69 -20.5q-19 0 -34.5 7.5t-23.5 21.5q-9 18 -7 44t12 67l99 389q31 1 58.5 4t50.5 10zM305 774q30 0 49.5 -11t34.5 -25.5t30.5 -25.5
t38.5 -11q18 0 35.5 13.5t34.5 44.5l18 -5q-24 -61 -62 -88t-76 -27q-30 0 -49.5 11t-34.5 25.5t-30.5 25.5t-37.5 11q-19 0 -36.5 -13t-34.5 -45l-18 5q25 62 63 88.5t75 26.5z" />
    <glyph glyph-name="Umacron" unicode="&#x16a;" horiz-adv-x="686" 
d="M635 576q12 43 9.5 66t-20 33.5t-54.5 12.5l5 20q18 -1 48 -2t55 -1q26 0 51 1t41 2l-5 -20q-33 -2 -53 -12t-32 -32.5t-22 -63.5l-75 -289q-36 -138 -98 -212q-36 -42 -89.5 -67.5t-115.5 -25.5q-57 0 -99.5 15.5t-67.5 46.5q-33 41 -32.5 97t23.5 143l83 314
q14 55 2.5 69.5t-61.5 16.5l6 20q22 -1 60.5 -2t80.5 -1q38 0 73.5 1t61.5 2l-6 -20q-34 -1 -53 -7.5t-29.5 -24t-20.5 -54.5l-88 -331q-19 -73 -22 -129.5t21.5 -88.5t86.5 -32q75 0 125 33.5t82 92.5t51 133zM669 844l-6 -25h-368l6 25h368z" />
    <glyph glyph-name="umacron" unicode="&#x16b;" horiz-adv-x="577" 
d="M396 348q-37 -104 -70 -173.5t-65.5 -111t-66.5 -59.5t-70 -18q-65 0 -80 42.5t7 108.5l97 293q10 30 6.5 44t-21.5 14q-17 0 -34.5 -19t-37.5 -75l-15 -41h-19l25 73q22 63 57.5 83t68.5 20q44 0 61 -20t15.5 -53.5t-15.5 -72.5l-93 -281q-26 -78 18 -78q28 0 61.5 35
t68 97.5t66.5 146t57 179.5zM410 85q-7 -26 -6.5 -42t19.5 -16q21 0 38.5 21.5t34.5 72.5l15 42h19l-25 -74q-22 -62 -57 -82.5t-69 -20.5q-19 0 -34.5 7.5t-23.5 21.5q-9 18 -7 44t12 67l99 389q31 1 58.5 4t50.5 10zM526 712l-6 -25h-320l6 25h320z" />
    <glyph glyph-name="Ubreve" unicode="&#x16c;" horiz-adv-x="686" 
d="M635 576q12 43 9.5 66t-20 33.5t-54.5 12.5l5 20q18 -1 48 -2t55 -1q26 0 51 1t41 2l-5 -20q-33 -2 -53 -12t-32 -32.5t-22 -63.5l-75 -289q-36 -138 -98 -212q-36 -42 -89.5 -67.5t-115.5 -25.5q-57 0 -99.5 15.5t-67.5 46.5q-33 41 -32.5 97t23.5 143l83 314
q14 55 2.5 69.5t-61.5 16.5l6 20q22 -1 60.5 -2t80.5 -1q38 0 73.5 1t61.5 2l-6 -20q-34 -1 -53 -7.5t-29.5 -24t-20.5 -54.5l-88 -331q-19 -73 -22 -129.5t21.5 -88.5t86.5 -32q75 0 125 33.5t82 92.5t51 133zM502 856q56 0 115.5 14.5t107.5 42.5l10 -10
q-26 -30 -68 -58.5t-90.5 -47.5t-92.5 -19q-66 0 -104.5 37t-49.5 89l16 5q27 -30 63 -41.5t93 -11.5z" />
    <glyph glyph-name="ubreve" unicode="&#x16d;" horiz-adv-x="577" 
d="M396 348q-37 -104 -70 -173.5t-65.5 -111t-66.5 -59.5t-70 -18q-65 0 -80 42.5t7 108.5l97 293q10 30 6.5 44t-21.5 14q-17 0 -34.5 -19t-37.5 -75l-15 -41h-19l25 73q22 63 57.5 83t68.5 20q44 0 61 -20t15.5 -53.5t-15.5 -72.5l-93 -281q-26 -78 18 -78q28 0 61.5 35
t68 97.5t66.5 146t57 179.5zM410 85q-7 -26 -6.5 -42t19.5 -16q21 0 38.5 21.5t34.5 72.5l15 42h19l-25 -74q-22 -62 -57 -82.5t-69 -20.5q-19 0 -34.5 7.5t-23.5 21.5q-9 18 -7 44t12 67l99 389q31 1 58.5 4t50.5 10zM359 706q49 0 106 21.5t100 60.5l10 -11
q-24 -35 -63 -69t-84.5 -56.5t-86.5 -22.5q-55 0 -85.5 44t-39.5 105l16 6q23 -43 51 -60.5t76 -17.5z" />
    <glyph glyph-name="Uring" unicode="&#x16e;" horiz-adv-x="686" 
d="M635 576q12 43 9.5 66t-20 33.5t-54.5 12.5l5 20q18 -1 48 -2t55 -1q26 0 51 1t41 2l-5 -20q-33 -2 -53 -12t-32 -32.5t-22 -63.5l-75 -289q-36 -138 -98 -212q-36 -42 -89.5 -67.5t-115.5 -25.5q-57 0 -99.5 15.5t-67.5 46.5q-33 41 -32.5 97t23.5 143l83 314
q14 55 2.5 69.5t-61.5 16.5l6 20q22 -1 60.5 -2t80.5 -1q38 0 73.5 1t61.5 2l-6 -20q-34 -1 -53 -7.5t-29.5 -24t-20.5 -54.5l-88 -331q-19 -73 -22 -129.5t21.5 -88.5t86.5 -32q75 0 125 33.5t82 92.5t51 133zM509 929q38 0 64 -22t26 -60q0 -28 -16 -52t-42.5 -38.5
t-57.5 -14.5q-36 0 -61.5 22t-25.5 60q0 45 33.5 75t79.5 30zM487 763q34 0 60 24t26 61q0 30 -21.5 45t-45.5 15q-33 0 -58 -25t-25 -58q0 -31 20.5 -46.5t43.5 -15.5z" />
    <glyph glyph-name="uring" unicode="&#x16f;" horiz-adv-x="577" 
d="M396 348q-37 -104 -70 -173.5t-65.5 -111t-66.5 -59.5t-70 -18q-65 0 -80 42.5t7 108.5l97 293q10 30 6.5 44t-21.5 14q-17 0 -34.5 -19t-37.5 -75l-15 -41h-19l25 73q22 63 57.5 83t68.5 20q44 0 61 -20t15.5 -53.5t-15.5 -72.5l-93 -281q-26 -78 18 -78q28 0 61.5 35
t68 97.5t66.5 146t57 179.5zM410 85q-7 -26 -6.5 -42t19.5 -16q21 0 38.5 21.5t34.5 72.5l15 42h19l-25 -74q-22 -62 -57 -82.5t-69 -20.5q-19 0 -34.5 7.5t-23.5 21.5q-9 18 -7 44t12 67l99 389q31 1 58.5 4t50.5 10zM382 793q38 0 64 -22t26 -60q0 -28 -16 -52
t-42.5 -38.5t-57.5 -14.5q-37 0 -62 22t-25 60q0 45 33 75t80 30zM360 627q33 0 59.5 24t26.5 61q0 30 -22 45t-46 15q-33 0 -58 -25t-25 -58q0 -31 20.5 -46.5t44.5 -15.5z" />
    <glyph glyph-name="Uhungarumlaut" unicode="&#x170;" horiz-adv-x="686" 
d="M635 576q12 43 9.5 66t-20 33.5t-54.5 12.5l5 20q18 -1 48 -2t55 -1q26 0 51 1t41 2l-5 -20q-33 -2 -53 -12t-32 -32.5t-22 -63.5l-75 -289q-36 -138 -98 -212q-36 -42 -89.5 -67.5t-115.5 -25.5q-57 0 -99.5 15.5t-67.5 46.5q-33 41 -32.5 97t23.5 143l83 314
q14 55 2.5 69.5t-61.5 16.5l6 20q22 -1 60.5 -2t80.5 -1q38 0 73.5 1t61.5 2l-6 -20q-34 -1 -53 -7.5t-29.5 -24t-20.5 -54.5l-88 -331q-19 -73 -22 -129.5t21.5 -88.5t86.5 -32q75 0 125 33.5t82 92.5t51 133zM532 784q31 27 55.5 53.5t47 50t43.5 38.5q14 10 35 13.5
t33 -15.5q12 -17 1.5 -36t-27.5 -31q-34 -23 -80.5 -39.5t-101.5 -45.5zM337 784q31 27 55.5 53.5t47 50t43.5 38.5q14 11 36 13.5t33 -17.5q10 -17 0.5 -34.5t-27.5 -30.5q-34 -23 -80.5 -39.5t-101.5 -45.5z" />
    <glyph glyph-name="uhungarumlaut" unicode="&#x171;" horiz-adv-x="577" 
d="M396 348q-37 -104 -70 -173.5t-65.5 -111t-66.5 -59.5t-70 -18q-65 0 -80 42.5t7 108.5l97 293q10 30 6.5 44t-21.5 14q-17 0 -34.5 -19t-37.5 -75l-15 -41h-19l25 73q22 63 57.5 83t68.5 20q44 0 61 -20t15.5 -53.5t-15.5 -72.5l-93 -281q-26 -78 18 -78q28 0 61.5 35
t68 97.5t66.5 146t57 179.5zM410 85q-7 -26 -6.5 -42t19.5 -16q21 0 38.5 21.5t34.5 72.5l15 42h19l-25 -74q-22 -62 -57 -82.5t-69 -20.5q-19 0 -34.5 7.5t-23.5 21.5q-9 18 -7 44t12 67l99 389q31 1 58.5 4t50.5 10zM216 607q28 50 45 85t28.5 60.5t26.5 44.5
q15 20 34 22.5t33 -8.5q14 -12 15.5 -29.5t-14.5 -38.5q-22 -28 -60 -56t-97 -88zM394 607q29 50 45.5 85t28 60.5t26.5 44.5q15 20 34 22.5t33 -8.5q14 -12 15.5 -29.5t-14.5 -38.5q-22 -28 -60 -56t-97 -88z" />
    <glyph glyph-name="Uogonek" unicode="&#x172;" horiz-adv-x="686" 
d="M635 576q12 43 9.5 66t-20 33.5t-54.5 12.5l5 20q18 -1 48 -2t55 -1q26 0 51 1t41 2l-5 -20q-33 -2 -53 -12t-32 -32.5t-22 -63.5l-75 -289q-36 -138 -98 -212q-36 -42 -89.5 -67.5t-115.5 -25.5q-57 0 -99.5 15.5t-67.5 46.5q-33 41 -32.5 97t23.5 143l83 314
q14 55 2.5 69.5t-61.5 16.5l6 20q22 -1 60.5 -2t80.5 -1q38 0 73.5 1t61.5 2l-6 -20q-34 -1 -53 -7.5t-29.5 -24t-20.5 -54.5l-88 -331q-19 -73 -22 -129.5t21.5 -88.5t86.5 -32q75 0 125 33.5t82 92.5t51 133zM374 3q-27 -8 -53 -23.5t-43.5 -36.5t-17.5 -48q0 -34 37 -34
q19 0 40 7t36 17l11 -17q-33 -29 -67 -42.5t-68 -13.5q-38 0 -57.5 16t-19.5 43q0 33 27 59t66 44.5t75 28.5h34z" />
    <glyph glyph-name="uogonek" unicode="&#x173;" horiz-adv-x="577" 
d="M396 348q-37 -104 -70 -173.5t-65.5 -111t-66.5 -59.5t-70 -18q-65 0 -80 42.5t7 108.5l97 293q10 30 6.5 44t-21.5 14q-17 0 -34.5 -19t-37.5 -75l-15 -41h-19l25 73q22 63 57.5 83t68.5 20q44 0 61 -20t15.5 -53.5t-15.5 -72.5l-93 -281q-26 -78 18 -78q28 0 61.5 35
t68 97.5t66.5 146t57 179.5zM410 85q-7 -26 -6.5 -42t19.5 -16q21 0 38.5 21.5t34.5 72.5l15 42h19l-25 -74q-22 -62 -57 -82.5t-69 -20.5q-19 0 -34.5 7.5t-23.5 21.5q-9 18 -7 44t12 67l99 389q31 1 58.5 4t50.5 10zM441 3q-25 -7 -52 -22.5t-44.5 -37t-17.5 -47.5
q0 -35 35 -35q18 0 36.5 9t29.5 21l13 -11q-29 -35 -61 -51.5t-65 -16.5q-36 0 -56 16.5t-20 42.5q0 33 27 59t66 44.5t75 28.5h34z" />
    <glyph glyph-name="Wcircumflex" unicode="&#x174;" horiz-adv-x="929" 
d="M538 480l-291 -485h-28l-79 629q-4 38 -21 50.5t-33 13.5l4 20q22 -1 51.5 -2t61.5 -1q35 0 65.5 1t49.5 2l-4 -20q-33 -2 -46.5 -18t-8.5 -66l55 -474l-16 -13l232 388zM875 552q28 55 30 83.5t-18 40t-61 12.5l5 20q17 -1 38 -1.5t42.5 -1t38.5 -0.5q25 0 42.5 1
t33.5 2l-5 -20q-16 -4 -33 -12.5t-34 -27.5t-35 -53l-305 -600h-28l-95 629q-5 38 -18 50.5t-26 13.5l4 20q20 -1 47 -2t56 -1q42 0 78.5 1t58.5 2l-4 -20q-51 -2 -67.5 -17t-9.5 -67l68 -456l-15 -11zM602 836q-41 -16 -97.5 -35t-112.5 -30l-5 14q76 24 141.5 61t105.5 77
h18q24 -46 55 -81t84 -57l-4 -14q-70 12 -109 29t-76 36z" />
    <glyph glyph-name="wcircumflex" unicode="&#x175;" horiz-adv-x="683" 
d="M297 64q-32 -34 -72 -56t-88 -22q-69 0 -98.5 35.5t-29.5 81.5q0 48 28 98.5t73.5 100.5t102 97.5t113.5 89.5l12 1q-20 -5 -40 -16t-37.5 -23t-34 -21t-32.5 -9q-19 0 -32 11.5t-30 11.5q-15 0 -25 -12.5t-20 -44.5l-11 -34h-19l22 73q20 60 44 81t50 21q19 0 33 -9
t29 -18t37 -9t41 6.5t38 21.5l13 19l21 -10q-67 -61 -126 -130.5t-96 -143.5t-37 -150q0 -46 14 -65t39 -19q58 0 113 61zM423 26q44 0 77.5 25t55.5 65t34 87t15 92t-4 79q-22 6 -47 19t-42.5 33.5t-17.5 51.5q0 25 14.5 38t32.5 13q19 0 32.5 -11.5t23 -31.5t16 -44
t9.5 -50q8 -45 4.5 -100t-19.5 -108.5t-45 -98.5t-72.5 -72t-103.5 -27q-32 0 -60 12t-45.5 42t-17.5 83q0 45 15 87t38.5 75.5t49.5 53.5t48 20q15 0 23 -11t10.5 -27t2.5 -31q0 -56 -29 -112.5t-90 -104.5l-5 18q46 38 73.5 91.5t27.5 107.5q0 20 -4 33.5t-15 13.5
q-15 0 -33 -25t-31 -64t-13 -82q0 -35 9 -67t29.5 -52.5t53.5 -20.5zM401 708q-34 -25 -81 -50.5t-96 -43.5l-5 14q70 30 128.5 79t94.5 101h18q12 -63 38.5 -106t80.5 -74l-4 -14q-63 16 -102 40t-72 54z" />
    <glyph glyph-name="Ycircumflex" unicode="&#x176;" horiz-adv-x="691" 
d="M361 106q-13 -55 -0.5 -69.5t63.5 -16.5l-5 -20q-16 1 -39 1.5t-49 1t-52 0.5q-42 0 -79.5 -0.5t-61.5 -2.5l5 20q34 2 53 8t30 24t20 54l69 274l45 -63l45 19l34 80zM697 702q-16 -1 -30 -7t-27 -16q-31 -22 -73 -73.5t-86.5 -134t-85.5 -201.5l-85 -5q-4 46 -10.5 99.5
t-16 105.5t-23 95.5t-31.5 69.5t-42 26q-17 0 -28.5 -11.5t-18.5 -35.5l-26 -76h-11h-11l31 90q16 49 41.5 71.5t70.5 22.5q59 0 93 -43.5t52 -124.5t30 -192q37 96 83 170.5t96 125.5q23 24 54 44t64 20q38 0 54 -21t15 -48q-1 -25 -19 -48.5t-51 -23.5q-26 0 -37.5 15
t-10.5 34q1 22 14 40.5t32 29.5q-1 1 -3 1.5t-4 0.5zM485 837q-41 -16 -97.5 -35t-112.5 -30l-5 14q76 24 141.5 61t105.5 77h18q24 -46 55 -81t84 -57l-4 -14q-70 12 -109 29t-76 36z" />
    <glyph glyph-name="ycircumflex" unicode="&#x177;" horiz-adv-x="481" 
d="M291 47l-80 -89l-78 470q-5 30 -11 41.5t-19 11.5q-10 0 -23 -16.5t-32 -69.5l-14 -41h-19l25 73q21 61 52 81.5t65 20.5q35 0 54.5 -20.5t27.5 -76.5zM65 -140q45 23 94 62.5t101 106.5q58 73 104 162t66 177q-29 16 -56 43.5t-26 63.5q2 26 17 40t40 14
q29 0 42.5 -21.5t13.5 -62.5q0 -50 -16.5 -107.5t-45 -117.5t-63.5 -115.5t-72 -101.5q-21 -26 -52.5 -57.5t-71 -61.5t-87.5 -50q-27 -12 -47.5 -17t-33.5 -5q-24 0 -40.5 12t-16.5 34q0 23 17.5 37t41.5 14q26 0 48.5 -14.5t42.5 -34.5zM301 708q-34 -25 -81 -50.5
t-96 -43.5l-5 14q70 30 128.5 79t94.5 101h18q12 -63 38.5 -106t80.5 -74l-4 -14q-63 16 -102 40t-72 54z" />
    <glyph glyph-name="Ydieresis" unicode="&#x178;" horiz-adv-x="691" 
d="M361 106q-13 -55 -0.5 -69.5t63.5 -16.5l-5 -20q-16 1 -39 1.5t-49 1t-52 0.5q-42 0 -79.5 -0.5t-61.5 -2.5l5 20q34 2 53 8t30 24t20 54l69 274l45 -63l45 19l34 80zM697 702q-16 -1 -30 -7t-27 -16q-31 -22 -73 -73.5t-86.5 -134t-85.5 -201.5l-85 -5q-4 46 -10.5 99.5
t-16 105.5t-23 95.5t-31.5 69.5t-42 26q-17 0 -28.5 -11.5t-18.5 -35.5l-26 -76h-11h-11l31 90q16 49 41.5 71.5t70.5 22.5q59 0 93 -43.5t52 -124.5t30 -192q37 96 83 170.5t96 125.5q23 24 54 44t64 20q38 0 54 -21t15 -48q-1 -25 -19 -48.5t-51 -23.5q-26 0 -37.5 15
t-10.5 34q1 22 14 40.5t32 29.5q-1 1 -3 1.5t-4 0.5zM323 826q0 29 22 50.5t51 21.5q25 0 40 -16t15 -40q0 -30 -22 -51t-51 -21q-26 0 -40.5 16t-14.5 40zM544 826q0 29 22 50.5t52 21.5q24 0 39.5 -16t15.5 -40q0 -30 -22.5 -51t-51.5 -21q-26 0 -40.5 16t-14.5 40z" />
    <glyph glyph-name="Zacute" unicode="&#x179;" horiz-adv-x="654" 
d="M160 346l7 20h353l-8 -20h-352zM448 207l2 10l2 10q28 -4 54 -17t43 -36.5t17 -62.5q0 -54 -34.5 -89.5t-94.5 -35.5q-39 0 -68 15t-55 35.5t-54 35.5t-66 15t-67.5 -11t-66.5 -28q-22 -32 -48 -49t-40 -4q-12 11 2 33t67 42l580 570q-44 -30 -91 -48t-92 -18
q-44 0 -77 13t-64 26t-71 13q-30 0 -45 -15t-15 -42t18.5 -44t53.5 -24l-2 -10l-2 -10q-27 5 -53.5 17.5t-43.5 36.5t-17 62q0 54 34.5 89.5t94.5 35.5q39 0 68 -15t55 -35.5t54 -35.5t66 -15t68 11t66 28q23 32 48 49t40 4q12 -10 -2 -32.5t-67 -42.5l-580 -570
q44 30 91 48t92 18t78 -13t64 -26t70 -13q30 0 45 15t15 42t-18 44t-54 24zM429 783q52 37 85.5 65t59 48.5t49.5 35.5q17 10 41 11.5t33 -20.5q9 -18 -4 -35t-31 -27q-35 -20 -87.5 -35t-138.5 -54z" />
    <glyph glyph-name="zacute" unicode="&#x17a;" horiz-adv-x="451" 
d="M28 45q30 17 53.5 31t44.5 22.5t41 8.5q24 0 43.5 -8l39 -16t42.5 -8q24 0 36.5 12t12.5 33q0 26 -20 43.5t-52 23.5l6 15q49 -11 74.5 -36t25.5 -64q0 -43 -27.5 -76.5t-91.5 -33.5q-28 0 -49 7t-40 16.5t-40.5 16.5t-51.5 7q-27 0 -48.5 -8t-42.5 -31h-27l462 472
q-23 -12 -42.5 -24.5t-37.5 -21.5t-34 -14.5t-32 -5.5q-23 0 -42.5 8l-39 16t-43.5 8q-22 0 -35.5 -11t-13.5 -34q0 -25 20 -42t52 -25l-6 -15q-47 11 -73.5 35.5t-26.5 63.5q0 28 13 53.5t40.5 42t71.5 16.5q28 0 48.5 -7t39.5 -16t40.5 -16t51.5 -7q27 0 48 8t42 31h28z
M249 608q39 50 64 86t43.5 63t37.5 47q18 20 38 23t35 -9q12 -13 9 -31t-24 -39q-19 -19 -46 -38t-63 -44.5t-84 -66.5z" />
    <glyph glyph-name="Zdotaccent" unicode="&#x17b;" horiz-adv-x="654" 
d="M160 346l7 20h353l-8 -20h-352zM448 207l2 10l2 10q28 -4 54 -17t43 -36.5t17 -62.5q0 -54 -34.5 -89.5t-94.5 -35.5q-39 0 -68 15t-55 35.5t-54 35.5t-66 15t-67.5 -11t-66.5 -28q-22 -32 -48 -49t-40 -4q-12 11 2 33t67 42l580 570q-44 -30 -91 -48t-92 -18
q-44 0 -77 13t-64 26t-71 13q-30 0 -45 -15t-15 -42t18.5 -44t53.5 -24l-2 -10l-2 -10q-27 5 -53.5 17.5t-43.5 36.5t-17 62q0 54 34.5 89.5t94.5 35.5q39 0 68 -15t55 -35.5t54 -35.5t66 -15t68 11t66 28q23 32 48 49t40 4q12 -10 -2 -32.5t-67 -42.5l-580 -570
q44 30 91 48t92 18t78 -13t64 -26t70 -13q30 0 45 15t15 42t-18 44t-54 24zM402 825q0 32 24.5 56.5t59.5 24.5q27 0 42.5 -15t15.5 -41q0 -31 -24 -55.5t-60 -24.5q-26 0 -42 15.5t-16 39.5z" />
    <glyph glyph-name="zdotaccent" unicode="&#x17c;" horiz-adv-x="451" 
d="M28 45q30 17 53.5 31t44.5 22.5t41 8.5q24 0 43.5 -8l39 -16t42.5 -8q24 0 36.5 12t12.5 33q0 26 -20 43.5t-52 23.5l6 15q49 -11 74.5 -36t25.5 -64q0 -43 -27.5 -76.5t-91.5 -33.5q-28 0 -49 7t-40 16.5t-40.5 16.5t-51.5 7q-27 0 -48.5 -8t-42.5 -31h-27l462 472
q-23 -12 -42.5 -24.5t-37.5 -21.5t-34 -14.5t-32 -5.5q-23 0 -42.5 8l-39 16t-43.5 8q-22 0 -35.5 -11t-13.5 -34q0 -25 20 -42t52 -25l-6 -15q-47 11 -73.5 35.5t-26.5 63.5q0 28 13 53.5t40.5 42t71.5 16.5q28 0 48.5 -7t39.5 -16t40.5 -16t51.5 -7q27 0 48 8t42 31h28z
M259 686q0 31 23.5 56.5t59.5 25.5q28 0 43.5 -15t15.5 -39q0 -31 -24.5 -56.5t-60.5 -25.5q-26 0 -41.5 15t-15.5 39z" />
    <glyph glyph-name="Zcaron" unicode="&#x17d;" horiz-adv-x="654" 
d="M160 346l7 20h353l-8 -20h-352zM448 207l2 10l2 10q28 -4 54 -17t43 -36.5t17 -62.5q0 -54 -34.5 -89.5t-94.5 -35.5q-39 0 -68 15t-55 35.5t-54 35.5t-66 15t-67.5 -11t-66.5 -28q-22 -32 -48 -49t-40 -4q-12 11 2 33t67 42l580 570q-44 -30 -91 -48t-92 -18
q-44 0 -77 13t-64 26t-71 13q-30 0 -45 -15t-15 -42t18.5 -44t53.5 -24l-2 -10l-2 -10q-27 5 -53.5 17.5t-43.5 36.5t-17 62q0 54 34.5 89.5t94.5 35.5q39 0 68 -15t55 -35.5t54 -35.5t66 -15t68 11t66 28q23 32 48 49t40 4q12 -10 -2 -32.5t-67 -42.5l-580 -570
q44 30 91 48t92 18t78 -13t64 -26t70 -13q30 0 45 15t15 42t-18 44t-54 24zM486 863q41 17 97.5 35.5t112.5 29.5l5 -14q-77 -23 -142 -60.5t-105 -77.5h-18q-24 47 -55 81.5t-84 56.5l4 14q69 -12 108.5 -28.5t76.5 -36.5z" />
    <glyph glyph-name="zcaron" unicode="&#x17e;" horiz-adv-x="451" 
d="M28 45q30 17 53.5 31t44.5 22.5t41 8.5q24 0 43.5 -8l39 -16t42.5 -8q24 0 36.5 12t12.5 33q0 26 -20 43.5t-52 23.5l6 15q49 -11 74.5 -36t25.5 -64q0 -43 -27.5 -76.5t-91.5 -33.5q-28 0 -49 7t-40 16.5t-40.5 16.5t-51.5 7q-27 0 -48.5 -8t-42.5 -31h-27l462 472
q-23 -12 -42.5 -24.5t-37.5 -21.5t-34 -14.5t-32 -5.5q-23 0 -42.5 8l-39 16t-43.5 8q-22 0 -35.5 -11t-13.5 -34q0 -25 20 -42t52 -25l-6 -15q-47 11 -73.5 35.5t-26.5 63.5q0 28 13 53.5t40.5 42t71.5 16.5q28 0 48.5 -7t39.5 -16t40.5 -16t51.5 -7q27 0 48 8t42 31h28z
M352 714q36 25 82.5 51t94.5 43l5 -14q-69 -29 -127.5 -78.5t-95.5 -101.5h-18q-11 64 -38 106.5t-81 73.5l4 14q64 -16 103 -39.5t71 -54.5z" />
    <glyph glyph-name="longs" unicode="&#x17f;" horiz-adv-x="328" 
d="M63 495l6 20h141l-6 -20h-141zM399 766q-18 0 -31.5 -7t-24.5 -17q-24 -22 -40 -77.5t-34 -123.5l-192 -715q-30 -1 -57 -4t-52 -10l188 701q21 81 46.5 134.5t60.5 85.5q25 23 59.5 36t71.5 13q51 0 79 -22.5t28 -56.5q0 -27 -21 -51t-54 -24q-23 0 -36 10.5t-12 29.5
q0 28 17.5 48.5t45.5 29.5q-1 7 -12.5 13.5t-29.5 6.5z" />
    <glyph glyph-name="uni018F" unicode="&#x18f;" horiz-adv-x="725" 
d="M268 -14q-66 0 -118 22t-81.5 67.5t-29.5 115.5q0 48 15 107h538l-4 -19h-419q-18 -63 -18 -114q0 -70 34.5 -114.5t102.5 -44.5q76 0 142.5 67.5t113.5 214.5l-2 5q17 41 25.5 94.5t8.5 98.5q0 69 -21.5 115t-59.5 69.5t-88 23.5q-39 0 -84.5 -15t-80.5 -46
q-31 -25 -52.5 -61.5t-46.5 -103.5h-23q18 60 28 102.5t16 75.5t11 62h23q-3 -21 -3 -34q0 -25 13 -25q9 0 23 8q25 14 55 29.5t70 25.5t93 10q80 0 136.5 -27.5t86.5 -84t30 -143.5q0 -91 -31.5 -176.5t-89.5 -154.5t-138 -109.5t-175 -40.5z" />
    <glyph glyph-name="florin" unicode="&#x192;" horiz-adv-x="486" 
d="M496 514l-5 -20h-399l5 20h399zM-49 -188q-38 0 -54.5 16.5t-11.5 40.5q4 23 22 38.5t43 15.5q23 0 34.5 -14.5t7.5 -35.5q-1 -9 -8.5 -22t-21.5 -24q40 5 64 28.5t39 79.5l155 580q22 84 47 133t61 81q29 25 65.5 39t77.5 14q57 0 83 -28t19 -66q-3 -16 -12.5 -31
t-25 -24t-33.5 -9q-26 0 -39 13.5t-8 39.5q4 23 20.5 41t42.5 28q-1 8 -12.5 14.5t-30.5 6.5q-22 0 -40 -10t-30 -27q-13 -15 -23.5 -40t-22.5 -66.5t-30 -108.5l-107 -400q-20 -73 -49.5 -136.5t-77.5 -106.5q-34 -31 -71.5 -45.5t-72.5 -14.5z" />
    <glyph glyph-name="Ohorn" unicode="&#x1a0;" horiz-adv-x="745" 
d="M566 684l-7 23q87 -9 138.5 -1t90.5 31l-1 -8q-18 12 -32.5 31t-14.5 44t16.5 43.5t45.5 18.5t45 -17.5t16 -42.5q0 -26 -17.5 -49t-47.5 -40q-37 -20 -95 -30.5t-137 -2.5zM470 704q-56 0 -108.5 -42t-94 -113t-65.5 -158.5t-24 -177.5q0 -98 36 -153.5t92 -55.5
t108.5 42t94 113t65.5 158.5t24 177.5q0 98 -36 153.5t-92 55.5zM50 226q0 66 19.5 136t56.5 134t90 115t119 81t144 30q116 0 182 -62.5t66 -178.5q0 -66 -20 -135.5t-57 -133.5t-90 -115t-119.5 -81t-143.5 -30q-116 0 -181.5 62.5t-65.5 177.5z" />
    <glyph glyph-name="ohorn" unicode="&#x1a1;" horiz-adv-x="502" 
d="M394 480l-4 19q32 1 56 7t44 15l-1 -7q-13 10 -24 26.5t-11 37.5q0 23 14 41t41 18q24 0 38 -14.5t14 -38.5t-14 -43t-37 -31q-21 -13 -50.5 -20t-65.5 -10zM313 509q-29 0 -57 -26t-52.5 -70.5t-43.5 -99.5t-29.5 -114t-10.5 -112q0 -42 12.5 -61.5t36.5 -19.5
q29 0 57 26t53 70t43.5 98.5t29 113.5t10.5 114q0 44 -12 62.5t-37 18.5zM18 146q0 55 19.5 121.5t57 126t94 97.5t130.5 38q67 0 106 -39.5t39 -120.5q0 -55 -19.5 -121.5t-57 -126t-94 -97.5t-130.5 -38q-67 0 -106 40t-39 120z" />
    <glyph glyph-name="Uhorn" unicode="&#x1af;" horiz-adv-x="686" 
d="M273 -14q-48 0 -90.5 14.5t-69.5 47.5q-36 43 -32.5 103.5t23.5 136.5l83 314q14 53 3 68.5t-62 17.5l6 20q22 -1 60.5 -2t78.5 -1t75.5 1t61.5 2l-6 -20q-34 -1 -53 -7.5t-29.5 -24t-20.5 -54.5l-88 -331q-21 -80 -22.5 -136.5t25.5 -85t89 -28.5q70 0 119 34t81.5 92.5
t51.5 132.5l108 416l3 -10q-24 -1 -49 -0.5t-49 2.5l5 20q16 -1 35 -2t39 -1q29 0 60 4.5t61 26.5l-1 -5q-17 11 -31.5 30t-14.5 43q0 26 16 45t45 19t45 -17.5t16 -43.5q0 -27 -18 -49.5t-46 -38.5q-29 -17 -54 -24.5t-49 -8.5l10 9l-105 -404q-18 -68 -41.5 -121
t-56.5 -91q-36 -42 -89 -67.5t-123 -25.5z" />
    <glyph glyph-name="uhorn" unicode="&#x1b0;" horiz-adv-x="577" 
d="M483 499l-4 18q32 6 49.5 11.5t34.5 13.5l-1 -7q-13 10 -24 26.5t-11 37.5q0 23 14 41t41 18q24 0 38 -15t14 -38q0 -24 -14 -43t-37 -31q-18 -11 -43 -18.5t-57 -13.5zM396 348q-37 -104 -70 -173.5t-65.5 -111t-66.5 -59.5t-70 -18q-65 0 -80 42.5t7 108.5l97 293
q10 30 6.5 44t-21.5 14q-17 0 -34.5 -19t-37.5 -75l-15 -41h-19l25 73q22 63 57.5 83t68.5 20q44 0 61 -20t15.5 -53.5t-15.5 -72.5l-93 -281q-26 -78 18 -78q28 0 61.5 35t68 97.5t66.5 146t57 179.5zM410 85q-7 -26 -6.5 -42t19.5 -16q21 0 38.5 21.5t34.5 72.5l15 42h19
l-25 -74q-22 -62 -57 -82.5t-69 -20.5q-19 0 -34.5 7.5t-23.5 21.5q-9 18 -7 44t12 67l99 389q31 1 58.5 4t50.5 10z" />
    <glyph glyph-name="uni01B7" unicode="&#x1b7;" horiz-adv-x="599" 
d="M648 708l-5 -20l-268 -321l5 28q68 -27 108 -68.5t40 -110.5q0 -66 -39.5 -118t-107.5 -82t-154 -30q-65 0 -108.5 13.5t-62.5 23.5q-9 5 -16.5 9.5t-15.5 4.5q-11 0 -18.5 -11.5t-15.5 -32.5h-23q8 22 17 51.5t21.5 77.5t27.5 121h23q-14 -70 -1 -123t54 -82.5
t109 -29.5q59 0 103.5 30t70 78.5t25.5 102.5q0 70 -33 110.5t-97 58.5l5 20l233 277h-178q-58 0 -98.5 -18t-70 -60t-54.5 -115h-23q16 47 28.5 105.5t20.5 110.5q53 -2 120 -2.5t120 -0.5q61 0 130.5 0.5t127.5 2.5z" />
    <glyph glyph-name="uni01CD" unicode="&#x1cd;" horiz-adv-x="637" 
d="M73 156q-35 -49 -40 -78.5t15 -43t61 -14.5l-5 -20q-33 2 -63 2.5t-57 0.5q-24 0 -40.5 -0.5t-32.5 -2.5l5 20q22 6 46.5 26.5t57.5 66.5l427 600h13.5h13.5l40 -629q3 -36 18.5 -49.5t30.5 -14.5l-4 -20q-22 2 -56 2.5t-65 0.5q-39 0 -74 -0.5t-56 -2.5l4 20
q48 2 68 17.5t18 66.5l-26 483l16 13zM158 288h292l-8 -20h-302zM504 863q41 17 97.5 35.5t112.5 29.5l5 -14q-77 -23 -142 -60.5t-105 -77.5h-18q-24 47 -55 81.5t-84 56.5l4 14q69 -12 108.5 -28.5t76.5 -36.5z" />
    <glyph glyph-name="uni01CE" unicode="&#x1ce;" horiz-adv-x="535" 
d="M146 25q22 0 49 26t55 71.5t52 105.5t40 128l-18 -109q-51 -144 -105.5 -202.5t-112.5 -58.5q-50 0 -75 33.5t-25 88.5q0 50 16.5 107t46 113t67.5 101t82 72.5t88 27.5q34 0 52.5 -31.5t8.5 -91.5l-11 -6q7 47 -5.5 75.5t-40.5 28.5q-30 0 -64 -38t-64.5 -98.5t-49 -132
t-18.5 -138.5q0 -40 8.5 -56t23.5 -16zM385 515q30 1 58 4t52 10l-127 -443q-3 -11 -5.5 -24.5t1 -23.5t18.5 -10q18 0 36 19.5t36 74.5l14 41h19l-25 -73q-22 -61 -55.5 -82.5t-64.5 -21.5q-44 0 -62 28q-13 22 -8.5 53.5t13.5 65.5zM404 714q36 25 82.5 51t94.5 43l5 -14
q-69 -29 -127.5 -78.5t-95.5 -101.5h-18q-11 64 -38 106.5t-81 73.5l4 14q64 -16 103 -39.5t71 -54.5z" />
    <glyph glyph-name="uni01D3" unicode="&#x1d3;" horiz-adv-x="686" 
d="M635 576q12 43 9.5 66t-20 33.5t-54.5 12.5l5 20q18 -1 48 -2t55 -1q26 0 51 1t41 2l-5 -20q-33 -2 -53 -12t-32 -32.5t-22 -63.5l-75 -289q-36 -138 -98 -212q-36 -42 -89.5 -67.5t-115.5 -25.5q-57 0 -99.5 15.5t-67.5 46.5q-33 41 -32.5 97t23.5 143l83 314
q14 55 2.5 69.5t-61.5 16.5l6 20q22 -1 60.5 -2t80.5 -1q38 0 73.5 1t61.5 2l-6 -20q-34 -1 -53 -7.5t-29.5 -24t-20.5 -54.5l-88 -331q-19 -73 -22 -129.5t21.5 -88.5t86.5 -32q75 0 125 33.5t82 92.5t51 133zM523 863q41 17 97.5 35.5t112.5 29.5l5 -14
q-77 -23 -142 -60.5t-105 -77.5h-18q-24 47 -55 81.5t-84 56.5l4 14q69 -12 108.5 -28.5t76.5 -36.5z" />
    <glyph glyph-name="uni01D4" unicode="&#x1d4;" horiz-adv-x="577" 
d="M396 348q-37 -104 -70 -173.5t-65.5 -111t-66.5 -59.5t-70 -18q-65 0 -80 42.5t7 108.5l97 293q10 30 6.5 44t-21.5 14q-17 0 -34.5 -19t-37.5 -75l-15 -41h-19l25 73q22 63 57.5 83t68.5 20q44 0 61 -20t15.5 -53.5t-15.5 -72.5l-93 -281q-26 -78 18 -78q28 0 61.5 35
t68 97.5t66.5 146t57 179.5zM410 85q-7 -26 -6.5 -42t19.5 -16q21 0 38.5 21.5t34.5 72.5l15 42h19l-25 -74q-22 -62 -57 -82.5t-69 -20.5q-19 0 -34.5 7.5t-23.5 21.5q-9 18 -7 44t12 67l99 389q31 1 58.5 4t50.5 10zM388 714q36 25 82.5 51t94.5 43l5 -14
q-69 -29 -127.5 -78.5t-95.5 -101.5h-18q-11 64 -38 106.5t-81 73.5l4 14q64 -16 103 -39.5t71 -54.5z" />
    <glyph glyph-name="uni01E4" unicode="&#x1e4;" horiz-adv-x="716" 
d="M306 -14q-126 0 -193 60t-67 169q0 68 21 139t60.5 137t95 118t125 82.5t150.5 30.5q65 0 100.5 -19t63.5 -46q15 -15 28 -5t29 56h22q-15 -39 -31 -94.5t-33 -135.5h-22q2 20 3.5 38.5t1.5 36.5q0 21 -3 39t-11 34q-21 37 -61.5 57.5t-92.5 20.5q-65 0 -117.5 -35.5
t-92.5 -94t-67 -128t-40.5 -139t-13.5 -125.5q0 -90 40 -133t123 -43q31 0 58 9t44 19q20 12 29 28t15 38l27 102q11 41 8.5 61t-22 27t-61.5 8l5 20q28 -1 71 -2t79 -1q37 0 67 1t50 2l-5 -20q-22 -1 -34.5 -7t-21 -24t-18.5 -55l-57 -212h-20q3 20 0 38.5t-17 18.5
q-11 0 -22.5 -5.5t-31.5 -16.5q-38 -23 -77 -36t-84 -13zM377 170l4 20h317l-4 -20h-317z" />
    <glyph glyph-name="uni01E5" unicode="&#x1e5;" horiz-adv-x="457" 
d="M434 -61l-4 -20h-592l4 20h592zM218 225l32 1q-55 -29 -94 -49.5t-39 -39.5q0 -10 13.5 -17.5t41.5 -15.5l77 -22q31 -8 56.5 -19.5t41 -29t15.5 -45.5q0 -29 -19 -60.5t-56 -59t-92 -45t-127 -17.5q-52 0 -89.5 9.5t-57 26.5t-19.5 40q0 17 11.5 34t32 31.5t49 27
t62.5 19.5l6 -15q-36 -19 -50 -41.5t-14 -45.5q0 -36 26 -52.5t65 -16.5q43 0 87 17t73.5 44.5t29.5 58.5q0 16 -11 22t-33 11l-150 40q-24 6 -40 21.5t-16 40.5q0 22 17.5 44t58.5 46.5t112 56.5zM267 511q-35 0 -57.5 -26t-35 -63.5t-17.5 -73.5t-5 -57q0 -32 12.5 -45.5
t33.5 -13.5q33 0 54.5 22t34 55.5t17.5 68.5t5 62q0 32 -8 51.5t-34 19.5zM275 529q61 0 100 -26.5t39 -86.5q0 -48 -28.5 -94.5t-79.5 -77t-121 -30.5q-58 0 -97 26.5t-39 83.5q0 29 12.5 64.5t39.5 67t70 52.5t104 21zM349 477l-19 7q15 35 48.5 61t71.5 26q28 0 44 -15.5
t16 -45.5q0 -28 -14 -42t-31 -14q-16 0 -30.5 11t-17.5 35t13 60l11 -3q-41 -16 -59 -33.5t-33 -46.5z" />
    <glyph glyph-name="Gcaron" unicode="&#x1e6;" horiz-adv-x="716" 
d="M324 6q31 0 58 9t44 19q20 12 29 28t15 38l23 88q11 41 8.5 61t-22 27t-61.5 8l5 20q28 -1 71 -2t79 -1q37 0 67 1t50 2l-5 -20q-22 -1 -34.5 -7t-21 -24t-18.5 -55l-53 -198h-20q3 20 0 38.5t-17 18.5q-11 0 -22.5 -5.5t-31.5 -16.5q-38 -23 -77 -36t-84 -13
q-126 0 -193 60t-67 169q0 68 21 139t60.5 137t95 118t125 82.5t150.5 30.5q65 0 100.5 -19t63.5 -46q15 -15 28 -5t29 56h22q-15 -39 -31 -94.5t-33 -135.5h-22q2 20 3.5 38.5t1.5 36.5q0 21 -3 39t-11 34q-21 37 -61.5 57.5t-92.5 20.5q-65 0 -117.5 -35.5t-92.5 -94
t-67 -128t-40.5 -139t-13.5 -125.5q0 -90 40 -133t123 -43zM541 863q41 17 97.5 35.5t112.5 29.5l5 -14q-77 -23 -142 -60.5t-105 -77.5h-18q-24 47 -55 81.5t-84 56.5l4 14q69 -12 108.5 -28.5t76.5 -36.5z" />
    <glyph glyph-name="gcaron" unicode="&#x1e7;" horiz-adv-x="457" 
d="M218 225l32 1q-55 -29 -94 -49.5t-39 -39.5q0 -10 13.5 -17.5t41.5 -15.5l77 -22q31 -8 56.5 -19.5t41 -29t15.5 -45.5q0 -29 -19 -60.5t-56 -59t-92 -45t-127 -17.5q-52 0 -89.5 9.5t-57 26.5t-19.5 40q0 17 11.5 34t32 31.5t49 27t62.5 19.5l6 -15q-36 -19 -50 -41.5
t-14 -45.5q0 -36 26 -52.5t65 -16.5q43 0 87 17t73.5 44.5t29.5 58.5q0 16 -11 22t-33 11l-150 40q-24 6 -40 21.5t-16 40.5q0 22 17.5 44t58.5 46.5t112 56.5zM267 511q-35 0 -57.5 -26t-35 -63.5t-17.5 -73.5t-5 -57q0 -32 12.5 -45.5t33.5 -13.5q33 0 54.5 22t34 55.5
t17.5 68.5t5 62q0 32 -8 51.5t-34 19.5zM275 529q61 0 100 -26.5t39 -86.5q0 -48 -28.5 -94.5t-79.5 -77t-121 -30.5q-58 0 -97 26.5t-39 83.5q0 29 12.5 64.5t39.5 67t70 52.5t104 21zM349 477l-19 7q15 35 48.5 61t71.5 26q28 0 44 -15.5t16 -45.5q0 -28 -14 -42t-31 -14
q-16 0 -30.5 11t-17.5 35t13 60l11 -3q-41 -16 -59 -33.5t-33 -46.5zM353 714q36 25 82.5 51t94.5 43l5 -14q-69 -29 -127.5 -78.5t-95.5 -101.5h-18q-11 64 -38 106.5t-81 73.5l4 14q64 -16 103 -39.5t71 -54.5z" />
    </font>
</defs>
</svg>
