<?xml version="1.0" encoding="UTF-8" standalone="no"?>
<svg
   xmlns:dc="http://purl.org/dc/elements/1.1/"
   xmlns:cc="http://creativecommons.org/ns#"
   xmlns:rdf="http://www.w3.org/1999/02/22-rdf-syntax-ns#"
   xmlns:svg="http://www.w3.org/2000/svg"
   xmlns="http://www.w3.org/2000/svg"
   xmlns:sodipodi="http://sodipodi.sourceforge.net/DTD/sodipodi-0.dtd"
   xmlns:inkscape="http://www.inkscape.org/namespaces/inkscape"
   width="4.7624998mm"
   height="4.7624998mm"
   viewBox="0 0 4.7624998 4.7624998"
   version="1.1"
   id="svg8"
   inkscape:version="1.0.2 (e86c870879, 2021-01-15)"
   sodipodi:docname="darkmode.svg">
  <defs
     id="defs2" />
  <sodipodi:namedview
     id="base"
     pagecolor="#ffffff"
     bordercolor="#666666"
     borderopacity="1.0"
     inkscape:pageopacity="0.0"
     inkscape:pageshadow="2"
     inkscape:zoom="1.75"
     inkscape:cx="71.30505"
     inkscape:cy="-3.4187966"
     inkscape:document-units="mm"
     inkscape:current-layer="g40"
     inkscape:document-rotation="0"
     showgrid="false"
     inkscape:window-width="1533"
     inkscape:window-height="1016"
     inkscape:window-x="50"
     inkscape:window-y="27"
     inkscape:window-maximized="0" />
  <metadata
     id="metadata5">
    <rdf:RDF>
      <cc:Work
         rdf:about="">
        <dc:format>image/svg+xml</dc:format>
        <dc:type
           rdf:resource="http://purl.org/dc/dcmitype/StillImage" />
        <dc:title></dc:title>
      </cc:Work>
    </rdf:RDF>
  </metadata>
  <g
     inkscape:label="Layer 1"
     inkscape:groupmode="layer"
     id="layer1"
     transform="translate(14.345989,-34.773613)">
    <g
       style="fill:#000000"
       id="g40"
       transform="matrix(0.26458333,0,0,0.26458333,-3.175,43.694048)">
      <rect
         fill="none"
         height="24"
         width="24"
         id="rect26"
         x="0"
         y="0" />
      <path
         d="m -35.851062,-31.205031 c -0.18,0.64 -0.27,1.31 -0.27,1.99 0,4.08 3.32,7.4 7.4,7.4 0.68,0 1.35,-0.09 1.99,-0.27 -1.04,2.56 -3.56,4.37 -6.49,4.37 -3.86,0 -7,-3.14 -7,-7 0,-2.93 1.81,-5.45 4.37,-6.49 z m 2.63,-2.51 c -4.97,0 -9,4.03 -9,9 0,4.97 4.03,9 9,9 4.97,0 9,-4.03 9,-9 0,-0.46 -0.04,-0.92 -0.1,-1.36 -0.98,1.37 -2.58,2.26 -4.4,2.26 -2.98,0 -5.4,-2.42 -5.4,-5.4 0,-1.81 0.89,-3.42 2.26,-4.4 -0.44,-0.06 -0.9,-0.1 -1.36,-0.1 z"
         id="path28" />
    </g>
  </g>
</svg>
