<svg xmlns="http://www.w3.org/2000/svg"
    xmlns:xlink="http://www.w3.org/1999/xlink"
    xmlns:fi="http://pattern.flaticon.com/" x="0" y="0" width="700" height="350" viewBox="0 0 700 350">
    <rect x="0px" y="0px" width="100%" height="100%" opacity="1" fill="#0bbdad"/>
    <defs>
        <path d="M165,0C74.019,0,0,74.019,0,165s74.019,165,165,165c90.982,0,165-74.019,165-165S255.982,0,165,0z" transform="matrix(0.03030303120613098 0 0 0.03030303120613098 345 82.5)" id="L1_1" fill="#6494e7"/>
        <path d="M165,0C74.019,0,0,74.019,0,165s74.019,165,165,165c90.982,0,165-74.019,165-165S255.982,0,165,0z" transform="matrix(0.03030303120613098 0 0 0.03030303120613098 82.5 257.5)" id="L1_2" fill="#682f98"/>
        <g transform="matrix(-0.14117813110351562 0 0 0.14117813110351562 117.35952758789062 57.5)" id="L1_3">
            <path d="m315.769531 256.496094c0 84.832031-68.769531 153.601562-153.601562 153.601562s-153.601563-68.769531-153.601563-153.601562c0-84.828125 68.769532-153.597656 153.601563-153.597656s153.601562 68.769531 153.601562 153.597656zm0 0" fill="#c1dbdc"/>
            <path d="m227.820312 407.460938c80.78125 0 146.269532-66.058594 146.269532-147.546876h-292.539063c0 81.488282 65.484375 147.546876 146.269531 147.546876zm0 0" fill="#ffffff"/>
            <path d="m227.820312 414.285156c-84.417968 0-153.097656-69.25-153.097656-154.371094 0-3.773437 3.054688-6.828124 6.828125-6.828124h292.539063c3.773437 0 6.824218 3.054687 6.824218 6.828124 0 85.121094-68.679687 154.371094-153.09375 154.371094zm-139.285156-147.546875c3.539063 74.433594 64.660156 133.890625 139.285156 133.890625 74.621094 0 135.742188-59.457031 139.28125-133.890625zm0 0" fill="#4c241d"/>
            <path d="m278.257812 123.773438c-15.722656-5.726563-32.710937-8.851563-50.4375-8.851563-80.78125 0-146.269531 64.914063-146.269531 144.992187h292.542969c0-41.742187-17.796875-79.363281-46.277344-105.820312" fill="#ffce56"/>
            <path d="m374.089844 266.738281h-292.539063c-3.773437 0-6.828125-3.058593-6.828125-6.828125 0-83.714844 68.679688-151.816406 153.097656-151.816406 18.148438 0 35.902344 3.117188 52.769532 9.265625 3.546875 1.289063 5.371094 5.207031 4.078125 8.75-1.277344 3.539063-5.191407 5.386719-8.753907 4.074219-15.363281-5.59375-31.542968-8.433594-48.09375-8.433594-74.578124 0-135.671874 58.308594-139.277343 131.335938h278.554687c-1.734375-35.980469-17.171875-69.144532-43.925781-93.992188-2.761719-2.5625-2.921875-6.882812-.355469-9.648438 2.566406-2.761718 6.902344-2.910156 9.648438-.351562 30.792968 28.605469 48.453125 68.996094 48.453125 110.820312-.003907 3.765626-3.054688 6.824219-6.828125 6.824219zm0 0" fill="#4c241d"/>
            <path d="m308.234375 145.820312c-1.285156 0-2.59375-.367187-3.753906-1.128906-2.3125-1.527344-4.671875-2.984375-7.078125-4.371094-3.265625-1.886718-4.390625-6.058593-2.507813-9.324218 1.882813-3.269532 6.046875-4.390625 9.320313-2.503906 2.648437 1.523437 5.246094 3.125 7.785156 4.800781 3.148438 2.074219 4.015625 6.308593 1.941406 9.457031-1.3125 1.988281-3.484375 3.070312-5.707031 3.070312zm0 0" fill="#4c241d"/>
            <path d="m370.382812 246.257812h-73.910156c-6.851562-31.632812-34.96875-55.34375-68.652344-55.34375-33.683593 0-61.796874 23.710938-68.652343 55.34375h-75.507813v27.304688h75.039063c5.855469 32.902344 34.539062 57.902344 69.121093 57.902344 34.582032 0 63.265626-25 69.121094-57.902344h73.441406zm0 0" fill="#9dc1e4"/>
            <path d="m227.820312 338.292969c-35.457031 0-65.972656-24.027344-74.625-57.902344h-69.535156c-3.773437 0-6.824218-3.054687-6.824218-6.828125v-27.304688c0-3.769531 3.050781-6.828124 6.824218-6.828124h70.207032c9.542968-32.375 39.792968-55.34375 73.953124-55.34375 34.164063 0 64.414063 22.964843 73.949219 55.34375h68.613281c3.773438 0 6.824219 3.058593 6.824219 6.828124v27.304688c0 3.773438-3.050781 6.828125-6.824219 6.828125h-67.933593c-8.652344 33.875-39.164063 57.902344-74.628907 57.902344zm-137.332031-71.554688h68.214844c3.304687 0 6.140625 2.375 6.71875 5.628907 5.386719 30.289062 31.632813 52.269531 62.402344 52.269531 30.765625 0 57.011719-21.980469 62.398437-52.269531.582032-3.253907 3.414063-5.628907 6.722656-5.628907h66.613282v-13.652343h-67.089844c-3.214844 0-5.992188-2.242188-6.671875-5.382813-6.265625-28.953125-32.328125-49.960937-61.972656-49.960937-29.640625 0-55.707031 21.011718-61.980469 49.960937-.679688 3.140625-3.457031 5.382813-6.671875 5.382813h-68.683594zm0 0" fill="#4c241d"/>
            <path d="m274.542969 261.191406c0 25.804688-20.917969 46.722656-46.722657 46.722656-25.804687 0-46.722656-20.917968-46.722656-46.722656 0-25.804687 20.917969-46.722656 46.722656-46.722656 25.804688 0 46.722657 20.917969 46.722657 46.722656zm0 0" fill="#edebdc"/>
            <path d="m227.820312 314.742188c-29.523437 0-53.550781-24.023438-53.550781-53.550782 0-29.53125 24.027344-53.554687 53.550781-53.554687 29.527344 0 53.546876 24.023437 53.546876 53.554687 0 29.527344-24.019532 53.550782-53.546876 53.550782zm0-93.449219c-22 0-39.898437 17.898437-39.898437 39.898437s17.898437 39.898438 39.898437 39.898438c22.003907 0 39.894532-17.898438 39.894532-39.898438s-17.890625-39.898437-39.894532-39.898437zm0 0" fill="#4c241d"/>
            <path d="m248.160156 261.191406c0 11.234375-9.105468 20.339844-20.339844 20.339844-11.234374 0-20.339843-9.105469-20.339843-20.339844s9.105469-20.339844 20.339843-20.339844c11.234376 0 20.339844 9.105469 20.339844 20.339844zm0 0" fill="#edebdc"/>
            <g fill="#4c241d">
                <path d="m227.820312 288.359375c-14.976562 0-27.164062-12.1875-27.164062-27.167969 0-14.980468 12.1875-27.167968 27.164062-27.167968 14.980469 0 27.167969 12.1875 27.167969 27.167968 0 14.980469-12.183593 27.167969-27.167969 27.167969zm0-40.683594c-7.453124 0-13.511718 6.066407-13.511718 13.515625 0 7.449219 6.058594 13.511719 13.511718 13.511719 7.453126 0 13.515626-6.0625 13.515626-13.511719 0-7.449218-6.0625-13.515625-13.515626-13.515625zm0 0"/>
                <path d="m384.035156 61.9375c-3.773437 0-6.828125-3.054688-6.828125-6.828125v-20.480469c0-3.769531 3.054688-6.824218 6.828125-6.824218 3.773438 0 6.828125 3.054687 6.828125 6.824218v20.480469c0 3.773437-3.054687 6.828125-6.828125 6.828125zm0 0"/>
                <path d="m384.035156 109.722656c-3.773437 0-6.828125-3.054687-6.828125-6.824218v-20.480469c0-3.769531 3.054688-6.828125 6.828125-6.828125 3.773438 0 6.828125 3.058594 6.828125 6.828125v20.480469c0 3.769531-3.054687 6.824218-6.828125 6.824218zm0 0"/>
                <path d="m370.382812 75.589844h-20.480468c-3.773438 0-6.828125-3.054688-6.828125-6.824219s3.054687-6.828125 6.828125-6.828125h20.480468c3.773438 0 6.824219 3.058594 6.824219 6.828125s-3.050781 6.824219-6.824219 6.824219zm0 0"/>
                <path d="m418.167969 75.589844h-20.480469c-3.773438 0-6.824219-3.054688-6.824219-6.824219s3.050781-6.828125 6.824219-6.828125h20.480469c3.773437 0 6.828125 3.058594 6.828125 6.828125s-3.054688 6.824219-6.828125 6.824219zm0 0"/>
                <path d="m21.042969 209.886719c-3.421875 0-6.808594-.839844-9.90625-2.5-4.960938-2.652344-8.585938-7.074219-10.222657-12.457031-1.632812-5.386719-1.066406-11.082032 1.582032-16.042969 2.652344-4.960938 7.085937-8.585938 12.472656-10.21875 5.363281-1.640625 11.074219-1.070313 16.035156 1.585937 4.960938 2.652344 8.585938 7.074219 10.21875 12.460938v.003906c3.363282 11.113281-2.941406 22.886719-14.042968 26.253906-2.023438.613282-4.085938.914063-6.136719.914063zm.039062-28.476563c-.726562 0-1.449219.105469-2.160156.324219-1.894531.574219-3.453125 1.847656-4.386719 3.589844-.933594 1.746093-1.125 3.746093-.554687 5.640625.574219 1.890625 1.847656 3.449218 3.59375 4.382812 1.753906.933594 3.746093 1.132813 5.640625.554688 3.898437-1.183594 6.121094-5.324219 4.941406-9.234375-.574219-1.886719-1.847656-3.445313-3.59375-4.378907-1.09375-.582031-2.28125-.878906-3.480469-.878906zm0 0"/>
                <path d="m34.554688 42.609375c-11.613282 0-21.058594-9.445313-21.058594-21.054687 0-11.609376 9.445312-21.058594 21.058594-21.058594 11.613281 0 21.0625 9.449218 21.0625 21.058594 0 11.609374-9.449219 21.054687-21.0625 21.054687zm0-28.457031c-4.085938 0-7.40625 3.316406-7.40625 7.402344 0 4.082031 3.320312 7.402343 7.40625 7.402343 4.089843 0 7.40625-3.320312 7.40625-7.402343 0-4.085938-3.316407-7.402344-7.40625-7.402344zm0 0"/>
                <path d="m99.070312 114.714844c-1.746093 0-3.496093-.667969-4.828124-2-2.664063-2.667969-2.664063-6.988282 0-9.652344l20.128906-20.128906c2.664062-2.664063 6.984375-2.664063 9.652344 0 2.664062 2.667968 2.664062 6.988281 0 9.652344l-20.128907 20.128906c-1.332031 1.335937-3.078125 2-4.824219 2zm0 0"/>
                <path d="m119.195312 114.714844c-1.746093 0-3.492187-.667969-4.824218-2l-20.128906-20.128906c-2.664063-2.664063-2.664063-6.984376 0-9.652344 2.667968-2.664063 6.988281-2.664063 9.652343 0l20.128907 20.128906c2.664062 2.664062 2.664062 6.984375 0 9.652344-1.332032 1.335937-3.082032 2-4.828126 2zm0 0"/>
                <path d="m224.03125 33.578125c0 6.289063-5.097656 11.386719-11.386719 11.386719-6.285156 0-11.382812-5.097656-11.382812-11.386719 0-6.285156 5.097656-11.382813 11.382812-11.382813 6.289063 0 11.386719 5.097657 11.386719 11.382813zm0 0"/>
                <path d="m415.179688 176.941406c0 6.285156-5.097657 11.382813-11.386719 11.382813-6.289063 0-11.386719-5.097657-11.386719-11.382813 0-6.289062 5.097656-11.386718 11.386719-11.386718 6.289062 0 11.386719 5.097656 11.386719 11.386718zm0 0"/>
            </g>
        </g>
        <g transform="matrix(0.21176718175411224 0 0 0.21176718175411224 305 305)" id="L1_4">
            <path d="m315.769531 256.496094c0 84.832031-68.769531 153.601562-153.601562 153.601562s-153.601563-68.769531-153.601563-153.601562c0-84.828125 68.769532-153.597656 153.601563-153.597656s153.601562 68.769531 153.601562 153.597656zm0 0" fill="#c1dbdc"/>
            <path d="m227.820312 407.460938c80.78125 0 146.269532-66.058594 146.269532-147.546876h-292.539063c0 81.488282 65.484375 147.546876 146.269531 147.546876zm0 0" fill="#ffffff"/>
            <path d="m227.820312 414.285156c-84.417968 0-153.097656-69.25-153.097656-154.371094 0-3.773437 3.054688-6.828124 6.828125-6.828124h292.539063c3.773437 0 6.824218 3.054687 6.824218 6.828124 0 85.121094-68.679687 154.371094-153.09375 154.371094zm-139.285156-147.546875c3.539063 74.433594 64.660156 133.890625 139.285156 133.890625 74.621094 0 135.742188-59.457031 139.28125-133.890625zm0 0" fill="#4c241d"/>
            <path d="m278.257812 123.773438c-15.722656-5.726563-32.710937-8.851563-50.4375-8.851563-80.78125 0-146.269531 64.914063-146.269531 144.992187h292.542969c0-41.742187-17.796875-79.363281-46.277344-105.820312" fill="#ffce56"/>
            <path d="m374.089844 266.738281h-292.539063c-3.773437 0-6.828125-3.058593-6.828125-6.828125 0-83.714844 68.679688-151.816406 153.097656-151.816406 18.148438 0 35.902344 3.117188 52.769532 9.265625 3.546875 1.289063 5.371094 5.207031 4.078125 8.75-1.277344 3.539063-5.191407 5.386719-8.753907 4.074219-15.363281-5.59375-31.542968-8.433594-48.09375-8.433594-74.578124 0-135.671874 58.308594-139.277343 131.335938h278.554687c-1.734375-35.980469-17.171875-69.144532-43.925781-93.992188-2.761719-2.5625-2.921875-6.882812-.355469-9.648438 2.566406-2.761718 6.902344-2.910156 9.648438-.351562 30.792968 28.605469 48.453125 68.996094 48.453125 110.820312-.003907 3.765626-3.054688 6.824219-6.828125 6.824219zm0 0" fill="#4c241d"/>
            <path d="m308.234375 145.820312c-1.285156 0-2.59375-.367187-3.753906-1.128906-2.3125-1.527344-4.671875-2.984375-7.078125-4.371094-3.265625-1.886718-4.390625-6.058593-2.507813-9.324218 1.882813-3.269532 6.046875-4.390625 9.320313-2.503906 2.648437 1.523437 5.246094 3.125 7.785156 4.800781 3.148438 2.074219 4.015625 6.308593 1.941406 9.457031-1.3125 1.988281-3.484375 3.070312-5.707031 3.070312zm0 0" fill="#4c241d"/>
            <path d="m370.382812 246.257812h-73.910156c-6.851562-31.632812-34.96875-55.34375-68.652344-55.34375-33.683593 0-61.796874 23.710938-68.652343 55.34375h-75.507813v27.304688h75.039063c5.855469 32.902344 34.539062 57.902344 69.121093 57.902344 34.582032 0 63.265626-25 69.121094-57.902344h73.441406zm0 0" fill="#9dc1e4"/>
            <path d="m227.820312 338.292969c-35.457031 0-65.972656-24.027344-74.625-57.902344h-69.535156c-3.773437 0-6.824218-3.054687-6.824218-6.828125v-27.304688c0-3.769531 3.050781-6.828124 6.824218-6.828124h70.207032c9.542968-32.375 39.792968-55.34375 73.953124-55.34375 34.164063 0 64.414063 22.964843 73.949219 55.34375h68.613281c3.773438 0 6.824219 3.058593 6.824219 6.828124v27.304688c0 3.773438-3.050781 6.828125-6.824219 6.828125h-67.933593c-8.652344 33.875-39.164063 57.902344-74.628907 57.902344zm-137.332031-71.554688h68.214844c3.304687 0 6.140625 2.375 6.71875 5.628907 5.386719 30.289062 31.632813 52.269531 62.402344 52.269531 30.765625 0 57.011719-21.980469 62.398437-52.269531.582032-3.253907 3.414063-5.628907 6.722656-5.628907h66.613282v-13.652343h-67.089844c-3.214844 0-5.992188-2.242188-6.671875-5.382813-6.265625-28.953125-32.328125-49.960937-61.972656-49.960937-29.640625 0-55.707031 21.011718-61.980469 49.960937-.679688 3.140625-3.457031 5.382813-6.671875 5.382813h-68.683594zm0 0" fill="#4c241d"/>
            <path d="m274.542969 261.191406c0 25.804688-20.917969 46.722656-46.722657 46.722656-25.804687 0-46.722656-20.917968-46.722656-46.722656 0-25.804687 20.917969-46.722656 46.722656-46.722656 25.804688 0 46.722657 20.917969 46.722657 46.722656zm0 0" fill="#edebdc"/>
            <path d="m227.820312 314.742188c-29.523437 0-53.550781-24.023438-53.550781-53.550782 0-29.53125 24.027344-53.554687 53.550781-53.554687 29.527344 0 53.546876 24.023437 53.546876 53.554687 0 29.527344-24.019532 53.550782-53.546876 53.550782zm0-93.449219c-22 0-39.898437 17.898437-39.898437 39.898437s17.898437 39.898438 39.898437 39.898438c22.003907 0 39.894532-17.898438 39.894532-39.898438s-17.890625-39.898437-39.894532-39.898437zm0 0" fill="#4c241d"/>
            <path d="m248.160156 261.191406c0 11.234375-9.105468 20.339844-20.339844 20.339844-11.234374 0-20.339843-9.105469-20.339843-20.339844s9.105469-20.339844 20.339843-20.339844c11.234376 0 20.339844 9.105469 20.339844 20.339844zm0 0" fill="#edebdc"/>
            <g fill="#4c241d">
                <path d="m227.820312 288.359375c-14.976562 0-27.164062-12.1875-27.164062-27.167969 0-14.980468 12.1875-27.167968 27.164062-27.167968 14.980469 0 27.167969 12.1875 27.167969 27.167968 0 14.980469-12.183593 27.167969-27.167969 27.167969zm0-40.683594c-7.453124 0-13.511718 6.066407-13.511718 13.515625 0 7.449219 6.058594 13.511719 13.511718 13.511719 7.453126 0 13.515626-6.0625 13.515626-13.511719 0-7.449218-6.0625-13.515625-13.515626-13.515625zm0 0"/>
                <path d="m384.035156 61.9375c-3.773437 0-6.828125-3.054688-6.828125-6.828125v-20.480469c0-3.769531 3.054688-6.824218 6.828125-6.824218 3.773438 0 6.828125 3.054687 6.828125 6.824218v20.480469c0 3.773437-3.054687 6.828125-6.828125 6.828125zm0 0"/>
                <path d="m384.035156 109.722656c-3.773437 0-6.828125-3.054687-6.828125-6.824218v-20.480469c0-3.769531 3.054688-6.828125 6.828125-6.828125 3.773438 0 6.828125 3.058594 6.828125 6.828125v20.480469c0 3.769531-3.054687 6.824218-6.828125 6.824218zm0 0"/>
                <path d="m370.382812 75.589844h-20.480468c-3.773438 0-6.828125-3.054688-6.828125-6.824219s3.054687-6.828125 6.828125-6.828125h20.480468c3.773438 0 6.824219 3.058594 6.824219 6.828125s-3.050781 6.824219-6.824219 6.824219zm0 0"/>
                <path d="m418.167969 75.589844h-20.480469c-3.773438 0-6.824219-3.054688-6.824219-6.824219s3.050781-6.828125 6.824219-6.828125h20.480469c3.773437 0 6.828125 3.058594 6.828125 6.828125s-3.054688 6.824219-6.828125 6.824219zm0 0"/>
                <path d="m21.042969 209.886719c-3.421875 0-6.808594-.839844-9.90625-2.5-4.960938-2.652344-8.585938-7.074219-10.222657-12.457031-1.632812-5.386719-1.066406-11.082032 1.582032-16.042969 2.652344-4.960938 7.085937-8.585938 12.472656-10.21875 5.363281-1.640625 11.074219-1.070313 16.035156 1.585937 4.960938 2.652344 8.585938 7.074219 10.21875 12.460938v.003906c3.363282 11.113281-2.941406 22.886719-14.042968 26.253906-2.023438.613282-4.085938.914063-6.136719.914063zm.039062-28.476563c-.726562 0-1.449219.105469-2.160156.324219-1.894531.574219-3.453125 1.847656-4.386719 3.589844-.933594 1.746093-1.125 3.746093-.554687 5.640625.574219 1.890625 1.847656 3.449218 3.59375 4.382812 1.753906.933594 3.746093 1.132813 5.640625.554688 3.898437-1.183594 6.121094-5.324219 4.941406-9.234375-.574219-1.886719-1.847656-3.445313-3.59375-4.378907-1.09375-.582031-2.28125-.878906-3.480469-.878906zm0 0"/>
                <path d="m34.554688 42.609375c-11.613282 0-21.058594-9.445313-21.058594-21.054687 0-11.609376 9.445312-21.058594 21.058594-21.058594 11.613281 0 21.0625 9.449218 21.0625 21.058594 0 11.609374-9.449219 21.054687-21.0625 21.054687zm0-28.457031c-4.085938 0-7.40625 3.316406-7.40625 7.402344 0 4.082031 3.320312 7.402343 7.40625 7.402343 4.089843 0 7.40625-3.320312 7.40625-7.402343 0-4.085938-3.316407-7.402344-7.40625-7.402344zm0 0"/>
                <path d="m99.070312 114.714844c-1.746093 0-3.496093-.667969-4.828124-2-2.664063-2.667969-2.664063-6.988282 0-9.652344l20.128906-20.128906c2.664062-2.664063 6.984375-2.664063 9.652344 0 2.664062 2.667968 2.664062 6.988281 0 9.652344l-20.128907 20.128906c-1.332031 1.335937-3.078125 2-4.824219 2zm0 0"/>
                <path d="m119.195312 114.714844c-1.746093 0-3.492187-.667969-4.824218-2l-20.128906-20.128906c-2.664063-2.664063-2.664063-6.984376 0-9.652344 2.667968-2.664063 6.988281-2.664063 9.652343 0l20.128907 20.128906c2.664062 2.664062 2.664062 6.984375 0 9.652344-1.332032 1.335937-3.082032 2-4.828126 2zm0 0"/>
                <path d="m224.03125 33.578125c0 6.289063-5.097656 11.386719-11.386719 11.386719-6.285156 0-11.382812-5.097656-11.382812-11.386719 0-6.285156 5.097656-11.382813 11.382812-11.382813 6.289063 0 11.386719 5.097657 11.386719 11.382813zm0 0"/>
                <path d="m415.179688 176.941406c0 6.285156-5.097657 11.382813-11.386719 11.382813-6.289063 0-11.386719-5.097657-11.386719-11.382813 0-6.289062 5.097656-11.386718 11.386719-11.386718 6.289062 0 11.386719 5.097656 11.386719 11.386718zm0 0"/>
            </g>
        </g>
        <g transform="matrix(0.04691068455576897 0 0 0.04691068455576897 340 165)" id="L1_5">
            <path d="m322.398438 201.558594c0 84.828125-68.769532 153.597656-153.597657 153.597656-84.832031 0-153.601562-68.769531-153.601562-153.597656 0-84.832032 68.769531-153.601563 153.601562-153.601563 84.828125 0 153.597657 68.769531 153.597657 153.601563zm0 0" fill="#c1dbdc"/>
            <g fill="#4c241d">
                <path d="m73.007812 37.9375c-1.746093 0-3.496093-.667969-4.828124-2-2.667969-2.664062-2.667969-6.988281 0-9.652344l15.03125-15.035156c2.664062-2.664062 6.984374-2.664062 9.652343 0 2.664063 2.667969 2.664063 6.988281 0 9.652344l-15.03125 15.035156c-1.332031 1.335938-3.078125 2-4.824219 2zm0 0"/>
                <path d="m37.9375 73.011719c-1.746094 0-3.496094-.667969-4.828125-2-2.664063-2.667969-2.664063-6.988281 0-9.652344l15.03125-15.035156c2.664063-2.664063 6.984375-2.664063 9.652344 0 2.664062 2.667969 2.664062 6.988281 0 9.652343l-15.03125 15.035157c-1.332031 1.332031-3.078125 2-4.824219 2zm0 0"/>
                <path d="m52.964844 37.9375c-1.746094 0-3.492188-.667969-4.824219-2l-15.03125-15.035156c-2.664063-2.664063-2.664063-6.984375 0-9.652344 2.664063-2.664062 6.988281-2.664062 9.652344 0l15.03125 15.035156c2.664062 2.664063 2.664062 6.988282 0 9.652344-1.332031 1.335938-3.082031 2-4.828125 2zm0 0"/>
                <path d="m88.035156 73.011719c-1.746094 0-3.492187-.667969-4.824218-2l-15.03125-15.035157c-2.667969-2.664062-2.667969-6.984374 0-9.652343 2.664062-2.664063 6.988281-2.664063 9.652343 0l15.03125 15.035156c2.664063 2.664063 2.664063 6.984375 0 9.652344-1.332031 1.332031-3.082031 2-4.828125 2zm0 0"/>
                <path d="m54.976562 393.878906c-3.421874 0-6.800781-.839844-9.902343-2.492187-4.964844-2.65625-8.589844-7.085938-10.222657-12.476563-1.628906-5.371094-1.066406-11.070312 1.585938-16.03125 2.652344-4.964844 7.074219-8.589844 12.460938-10.222656 11.113281-3.34375 22.890624 2.933594 26.257812 14.046875 1.632812 5.378906 1.070312 11.078125-1.582031 16.039063-2.652344 4.960937-7.074219 8.585937-12.460938 10.21875-2.019531.617187-4.082031.917968-6.136719.917968zm.023438-28.472656c-.710938 0-1.429688.105469-2.144531.320312-3.90625 1.183594-6.121094 5.324219-4.9375 9.230469.574219 1.894531 1.851562 3.453125 3.59375 4.386719 1.742187.925781 3.75 1.121094 5.640625.554688 1.886718-.574219 3.445312-1.847657 4.378906-3.59375.929688-1.746094 1.128906-3.746094.554688-5.640626-.96875-3.191406-3.910157-5.257812-7.085938-5.257812zm0 0"/>
                <path d="m389.347656 42.285156c-11.609375 0-21.058594-9.445312-21.058594-21.054687 0-11.613281 9.449219-21.058594 21.058594-21.058594s21.054688 9.445313 21.054688 21.058594c0 11.609375-9.445313 21.054687-21.054688 21.054687zm0-28.460937c-4.085937 0-7.40625 3.320312-7.40625 7.40625 0 4.082031 3.320313 7.402343 7.40625 7.402343 4.082032 0 7.402344-3.320312 7.402344-7.402343 0-4.085938-3.320312-7.40625-7.402344-7.40625zm0 0"/>
                <path d="m309.800781 28.054688c0 5.082031-4.121093 9.203124-9.203125 9.203124-5.082031 0-9.203125-4.121093-9.203125-9.203124 0-5.082032 4.121094-9.199219 9.203125-9.199219 5.082032 0 9.203125 4.117187 9.203125 9.199219zm0 0"/>
                <path d="m405.375 150.9375c0 5.082031-4.121094 9.199219-9.203125 9.199219s-9.203125-4.117188-9.203125-9.199219 4.121094-9.203125 9.203125-9.203125 9.203125 4.121094 9.203125 9.203125zm0 0"/>
                <path d="m358.789062 393.777344c-1.746093 0-3.492187-.667969-4.828124-2-2.664063-2.664063-2.664063-6.988282 0-9.652344l32.777343-32.773438c2.667969-2.664062 6.988281-2.664062 9.652344 0 2.667969 2.664063 2.667969 6.988282 0 9.652344l-32.773437 32.773438c-1.335938 1.335937-3.082032 2-4.828126 2zm0 0"/>
            </g>
            <path d="m99.90625 216.140625-84.730469 32.949219c-9.699219 3.773437-11.335937 16.808594-2.867187 22.859375 14.226562 10.160156 31.574218 14.992187 49.003906 13.652343l50.515625-3.886718zm0 0" fill="#9dc1e4"/>
            <path d="m55.632812 292.644531c-16.890624 0-33.476562-5.28125-47.289062-15.148437-5.960938-4.25-9.097656-11.40625-8.1875-18.671875.910156-7.273438 5.714844-13.4375 12.546875-16.09375l84.730469-32.953125c1.886718-.746094 4.023437-.59375 5.804687.398437 1.777344 1 3.019531 2.734375 3.382813 4.738281l11.921875 65.574219c.347656 1.902344-.128907 3.863281-1.308594 5.386719-1.183594 1.53125-2.957031 2.492188-4.882813 2.640625l-50.519531 3.886719c-2.066406.160156-4.136719.242187-6.199219.242187zm39.035157-67.144531-77.019531 29.953125c-3.144532 1.226563-3.804688 3.953125-3.945313 5.066406s-.167969 3.914063 2.574219 5.871094c12.898437 9.210937 28.699218 13.609375 44.511718 12.402344l42.972657-3.308594zm0 0" fill="#4c241d"/>
            <path d="m326.4375 216.140625 84.734375 32.949219c9.699219 3.773437 11.332031 16.808594 2.863281 22.859375-14.226562 10.160156-31.574218 14.992187-49.003906 13.652343l-50.515625-3.886718zm0 0" fill="#9dc1e4"/>
            <path d="m370.714844 292.644531c-2.066406 0-4.136719-.082031-6.207032-.242187l-50.515624-3.886719c-1.925782-.144531-3.699219-1.105469-4.882813-2.636719-1.179687-1.527344-1.65625-3.488281-1.308594-5.386718l11.921875-65.574219c.363282-2.007813 1.605469-3.738281 3.382813-4.738281 1.773437-.996094 3.910156-1.148438 5.804687-.402344l84.730469 32.957031c6.828125 2.652344 11.636719 8.820313 12.546875 16.09375.910156 7.265625-2.226562 14.417969-8.1875 18.671875-13.808594 9.867188-30.402344 15.144531-47.285156 15.144531zm-48.128906-17.160156 42.96875 3.308594c15.796874 1.21875 31.609374-3.1875 44.515624-12.402344 2.738282-1.957031 2.710938-4.757813 2.574219-5.871094-.140625-1.113281-.804687-3.839843-3.949219-5.066406l-77.019531-29.953125zm0 0" fill="#4c241d"/>
            <path d="m391.566406 393.777344c-1.746094 0-3.496094-.667969-4.828125-2l-32.777343-32.773438c-2.664063-2.664062-2.664063-6.988281 0-9.652344 2.667968-2.664062 6.988281-2.664062 9.65625 0l32.773437 32.773438c2.667969 2.664062 2.667969 6.988281 0 9.652344-1.332031 1.335937-3.078125 2-4.824219 2zm0 0" fill="#4c241d"/>
            <path d="m336.113281 201.613281c8.292969 13.480469 12.929688 28.542969 12.929688 44.433594 0 57.625-60.957031 104.335937-136.152344 104.335937s-136.15625-46.714843-136.15625-104.335937 60.960937-104.335937 136.15625-104.335937c34.457031 0 65.925781 9.8125 89.910156 25.984374" fill="#9dc1e4"/>
            <path d="m212.890625 357.210938c-78.839844 0-142.980469-49.867188-142.980469-111.167969 0-61.292969 64.140625-111.160157 142.980469-111.160157 34.484375 0 67.773437 9.648438 93.726563 27.152344 3.125 2.105469 3.949218 6.355469 1.84375 9.480469-2.113282 3.128906-6.351563 3.941406-9.480469 1.839844-23.722657-16.003907-54.296875-24.820313-86.089844-24.820313-71.3125 0-129.328125 43.742188-129.328125 97.507813s58.015625 97.515625 129.328125 97.515625c71.308594 0 129.324219-43.75 129.324219-97.515625 0-14.253907-4.011719-28-11.914063-40.851563-1.976562-3.214844-.976562-7.421875 2.234375-9.394531 3.207032-1.980469 7.410156-.980469 9.390625 2.234375 9.253907 15.039062 13.945313 31.191406 13.945313 48.011719-.003906 61.300781-64.140625 111.167969-142.980469 111.167969zm0 0" fill="#4c241d"/>
            <path d="m80.632812 221.640625c-2.457031 7.839844-3.898437 15.984375-3.898437 24.40625 0 57.621094 60.960937 104.335937 136.15625 104.335937s136.152344-46.714843 136.152344-104.335937c0-8.355469-1.3125-16.476563-3.734375-24.265625-35.878906 12.007812-81.917969 19.226562-132.132813 19.226562-50.410156 0-96.605469-7.277343-132.542969-19.367187zm0 0" fill="#efefd2"/>
            <path d="m212.890625 357.210938c-78.839844 0-142.980469-49.867188-142.980469-111.167969 0-8.621094 1.417969-17.519531 4.214844-26.445313.546875-1.753906 1.777344-3.207031 3.414062-4.039062 1.632813-.832032 3.542969-.96875 5.273438-.394532 36.429688 12.261719 82.726562 19.015626 130.359375 19.015626 47.457031 0 93.613281-6.699219 129.96875-18.867188 1.742187-.574219 3.640625-.441406 5.273437.390625 1.636719.839844 2.867188 2.300781 3.410157 4.054687 2.683593 8.621094 4.042969 17.464844 4.042969 26.285157 0 61.300781-64.136719 111.167969-142.976563 111.167969zm-127.527344-126.878907c-1.199219 5.332031-1.800781 10.59375-1.800781 15.714844 0 53.765625 58.015625 97.511719 129.324219 97.511719 71.3125 0 129.328125-43.746094 129.328125-97.511719 0-5.195313-.5625-10.410156-1.671875-15.566406-36.542969 11.210937-81.429688 17.351562-127.371094 17.351562-46.136719 0-91.179687-6.1875-127.808594-17.5zm0 0" fill="#4c241d"/>
            <path d="m323.335938 191.84375c-1.808594 0-3.621094-.71875-4.960938-2.140625-1.613281-1.703125-3.296875-3.371094-5.042969-5-2.761719-2.566406-2.917969-6.886719-.351562-9.644531 2.574219-2.761719 6.890625-2.914063 9.648437-.355469 1.964844 1.828125 3.859375 3.707031 5.671875 5.628906 2.585938 2.738281 2.464844 7.058594-.273437 9.644531-1.320313 1.25-3.007813 1.867188-4.691406 1.867188zm0 0" fill="#4c241d"/>
            <path d="m290.671875 189.3125c0 4.9375-4.003906 8.941406-8.941406 8.941406-4.941407 0-8.945313-4.003906-8.945313-8.941406s4.003906-8.941406 8.945313-8.941406c4.9375 0 8.941406 4.003906 8.941406 8.941406zm0 0" fill="#4c241d"/>
            <path d="m153.558594 189.3125c0 4.9375-4.003906 8.941406-8.941406 8.941406-4.941407 0-8.945313-4.003906-8.945313-8.941406s4.003906-8.941406 8.945313-8.941406c4.9375 0 8.941406 4.003906 8.941406 8.941406zm0 0" fill="#4c241d"/>
            <path d="m213.171875 355.15625c-3.769531 0-6.824219-3.050781-6.824219-6.824219v-61.441406c0-3.773437 3.054688-6.828125 6.824219-6.828125s6.828125 3.054688 6.828125 6.828125v61.441406c0 3.773438-3.058594 6.824219-6.828125 6.824219zm0 0" fill="#4c241d"/>
            <path d="m297.375 332.40625c-2.160156 0-4.28125-1.023438-5.609375-2.929688l-36.410156-52.339843c-2.152344-3.089844-1.386719-7.351563 1.703125-9.503907 3.109375-2.15625 7.359375-1.382812 9.503906 1.707032l36.410156 52.339844c2.152344 3.089843 1.390625 7.351562-1.703125 9.503906-1.191406.828125-2.550781 1.222656-3.894531 1.222656zm0 0" fill="#4c241d"/>
            <path d="m128.96875 332.40625c-1.34375 0-2.703125-.394531-3.890625-1.222656-3.09375-2.152344-3.859375-6.414063-1.703125-9.503906l36.40625-52.339844c2.160156-3.089844 6.40625-3.863282 9.503906-1.707032 3.09375 2.152344 3.859375 6.414063 1.703125 9.503907l-36.410156 52.339843c-1.324219 1.910157-3.449219 2.929688-5.609375 2.929688zm0 0" fill="#4c241d"/>
        </g>
        <g transform="matrix(-0.1407320648431778 0 0 0.1407320648431778 204.95185962319374 232.5)" id="L1_6">
            <path d="m322.398438 201.558594c0 84.828125-68.769532 153.597656-153.597657 153.597656-84.832031 0-153.601562-68.769531-153.601562-153.597656 0-84.832032 68.769531-153.601563 153.601562-153.601563 84.828125 0 153.597657 68.769531 153.597657 153.601563zm0 0" fill="#c1dbdc"/>
            <g fill="#4c241d">
                <path d="m73.007812 37.9375c-1.746093 0-3.496093-.667969-4.828124-2-2.667969-2.664062-2.667969-6.988281 0-9.652344l15.03125-15.035156c2.664062-2.664062 6.984374-2.664062 9.652343 0 2.664063 2.667969 2.664063 6.988281 0 9.652344l-15.03125 15.035156c-1.332031 1.335938-3.078125 2-4.824219 2zm0 0"/>
                <path d="m37.9375 73.011719c-1.746094 0-3.496094-.667969-4.828125-2-2.664063-2.667969-2.664063-6.988281 0-9.652344l15.03125-15.035156c2.664063-2.664063 6.984375-2.664063 9.652344 0 2.664062 2.667969 2.664062 6.988281 0 9.652343l-15.03125 15.035157c-1.332031 1.332031-3.078125 2-4.824219 2zm0 0"/>
                <path d="m52.964844 37.9375c-1.746094 0-3.492188-.667969-4.824219-2l-15.03125-15.035156c-2.664063-2.664063-2.664063-6.984375 0-9.652344 2.664063-2.664062 6.988281-2.664062 9.652344 0l15.03125 15.035156c2.664062 2.664063 2.664062 6.988282 0 9.652344-1.332031 1.335938-3.082031 2-4.828125 2zm0 0"/>
                <path d="m88.035156 73.011719c-1.746094 0-3.492187-.667969-4.824218-2l-15.03125-15.035157c-2.667969-2.664062-2.667969-6.984374 0-9.652343 2.664062-2.664063 6.988281-2.664063 9.652343 0l15.03125 15.035156c2.664063 2.664063 2.664063 6.984375 0 9.652344-1.332031 1.332031-3.082031 2-4.828125 2zm0 0"/>
                <path d="m54.976562 393.878906c-3.421874 0-6.800781-.839844-9.902343-2.492187-4.964844-2.65625-8.589844-7.085938-10.222657-12.476563-1.628906-5.371094-1.066406-11.070312 1.585938-16.03125 2.652344-4.964844 7.074219-8.589844 12.460938-10.222656 11.113281-3.34375 22.890624 2.933594 26.257812 14.046875 1.632812 5.378906 1.070312 11.078125-1.582031 16.039063-2.652344 4.960937-7.074219 8.585937-12.460938 10.21875-2.019531.617187-4.082031.917968-6.136719.917968zm.023438-28.472656c-.710938 0-1.429688.105469-2.144531.320312-3.90625 1.183594-6.121094 5.324219-4.9375 9.230469.574219 1.894531 1.851562 3.453125 3.59375 4.386719 1.742187.925781 3.75 1.121094 5.640625.554688 1.886718-.574219 3.445312-1.847657 4.378906-3.59375.929688-1.746094 1.128906-3.746094.554688-5.640626-.96875-3.191406-3.910157-5.257812-7.085938-5.257812zm0 0"/>
                <path d="m389.347656 42.285156c-11.609375 0-21.058594-9.445312-21.058594-21.054687 0-11.613281 9.449219-21.058594 21.058594-21.058594s21.054688 9.445313 21.054688 21.058594c0 11.609375-9.445313 21.054687-21.054688 21.054687zm0-28.460937c-4.085937 0-7.40625 3.320312-7.40625 7.40625 0 4.082031 3.320313 7.402343 7.40625 7.402343 4.082032 0 7.402344-3.320312 7.402344-7.402343 0-4.085938-3.320312-7.40625-7.402344-7.40625zm0 0"/>
                <path d="m309.800781 28.054688c0 5.082031-4.121093 9.203124-9.203125 9.203124-5.082031 0-9.203125-4.121093-9.203125-9.203124 0-5.082032 4.121094-9.199219 9.203125-9.199219 5.082032 0 9.203125 4.117187 9.203125 9.199219zm0 0"/>
                <path d="m405.375 150.9375c0 5.082031-4.121094 9.199219-9.203125 9.199219s-9.203125-4.117188-9.203125-9.199219 4.121094-9.203125 9.203125-9.203125 9.203125 4.121094 9.203125 9.203125zm0 0"/>
                <path d="m358.789062 393.777344c-1.746093 0-3.492187-.667969-4.828124-2-2.664063-2.664063-2.664063-6.988282 0-9.652344l32.777343-32.773438c2.667969-2.664062 6.988281-2.664062 9.652344 0 2.667969 2.664063 2.667969 6.988282 0 9.652344l-32.773437 32.773438c-1.335938 1.335937-3.082032 2-4.828126 2zm0 0"/>
            </g>
            <path d="m99.90625 216.140625-84.730469 32.949219c-9.699219 3.773437-11.335937 16.808594-2.867187 22.859375 14.226562 10.160156 31.574218 14.992187 49.003906 13.652343l50.515625-3.886718zm0 0" fill="#9dc1e4"/>
            <path d="m55.632812 292.644531c-16.890624 0-33.476562-5.28125-47.289062-15.148437-5.960938-4.25-9.097656-11.40625-8.1875-18.671875.910156-7.273438 5.714844-13.4375 12.546875-16.09375l84.730469-32.953125c1.886718-.746094 4.023437-.59375 5.804687.398437 1.777344 1 3.019531 2.734375 3.382813 4.738281l11.921875 65.574219c.347656 1.902344-.128907 3.863281-1.308594 5.386719-1.183594 1.53125-2.957031 2.492188-4.882813 2.640625l-50.519531 3.886719c-2.066406.160156-4.136719.242187-6.199219.242187zm39.035157-67.144531-77.019531 29.953125c-3.144532 1.226563-3.804688 3.953125-3.945313 5.066406s-.167969 3.914063 2.574219 5.871094c12.898437 9.210937 28.699218 13.609375 44.511718 12.402344l42.972657-3.308594zm0 0" fill="#4c241d"/>
            <path d="m326.4375 216.140625 84.734375 32.949219c9.699219 3.773437 11.332031 16.808594 2.863281 22.859375-14.226562 10.160156-31.574218 14.992187-49.003906 13.652343l-50.515625-3.886718zm0 0" fill="#9dc1e4"/>
            <path d="m370.714844 292.644531c-2.066406 0-4.136719-.082031-6.207032-.242187l-50.515624-3.886719c-1.925782-.144531-3.699219-1.105469-4.882813-2.636719-1.179687-1.527344-1.65625-3.488281-1.308594-5.386718l11.921875-65.574219c.363282-2.007813 1.605469-3.738281 3.382813-4.738281 1.773437-.996094 3.910156-1.148438 5.804687-.402344l84.730469 32.957031c6.828125 2.652344 11.636719 8.820313 12.546875 16.09375.910156 7.265625-2.226562 14.417969-8.1875 18.671875-13.808594 9.867188-30.402344 15.144531-47.285156 15.144531zm-48.128906-17.160156 42.96875 3.308594c15.796874 1.21875 31.609374-3.1875 44.515624-12.402344 2.738282-1.957031 2.710938-4.757813 2.574219-5.871094-.140625-1.113281-.804687-3.839843-3.949219-5.066406l-77.019531-29.953125zm0 0" fill="#4c241d"/>
            <path d="m391.566406 393.777344c-1.746094 0-3.496094-.667969-4.828125-2l-32.777343-32.773438c-2.664063-2.664062-2.664063-6.988281 0-9.652344 2.667968-2.664062 6.988281-2.664062 9.65625 0l32.773437 32.773438c2.667969 2.664062 2.667969 6.988281 0 9.652344-1.332031 1.335937-3.078125 2-4.824219 2zm0 0" fill="#4c241d"/>
            <path d="m336.113281 201.613281c8.292969 13.480469 12.929688 28.542969 12.929688 44.433594 0 57.625-60.957031 104.335937-136.152344 104.335937s-136.15625-46.714843-136.15625-104.335937 60.960937-104.335937 136.15625-104.335937c34.457031 0 65.925781 9.8125 89.910156 25.984374" fill="#9dc1e4"/>
            <path d="m212.890625 357.210938c-78.839844 0-142.980469-49.867188-142.980469-111.167969 0-61.292969 64.140625-111.160157 142.980469-111.160157 34.484375 0 67.773437 9.648438 93.726563 27.152344 3.125 2.105469 3.949218 6.355469 1.84375 9.480469-2.113282 3.128906-6.351563 3.941406-9.480469 1.839844-23.722657-16.003907-54.296875-24.820313-86.089844-24.820313-71.3125 0-129.328125 43.742188-129.328125 97.507813s58.015625 97.515625 129.328125 97.515625c71.308594 0 129.324219-43.75 129.324219-97.515625 0-14.253907-4.011719-28-11.914063-40.851563-1.976562-3.214844-.976562-7.421875 2.234375-9.394531 3.207032-1.980469 7.410156-.980469 9.390625 2.234375 9.253907 15.039062 13.945313 31.191406 13.945313 48.011719-.003906 61.300781-64.140625 111.167969-142.980469 111.167969zm0 0" fill="#4c241d"/>
            <path d="m80.632812 221.640625c-2.457031 7.839844-3.898437 15.984375-3.898437 24.40625 0 57.621094 60.960937 104.335937 136.15625 104.335937s136.152344-46.714843 136.152344-104.335937c0-8.355469-1.3125-16.476563-3.734375-24.265625-35.878906 12.007812-81.917969 19.226562-132.132813 19.226562-50.410156 0-96.605469-7.277343-132.542969-19.367187zm0 0" fill="#efefd2"/>
            <path d="m212.890625 357.210938c-78.839844 0-142.980469-49.867188-142.980469-111.167969 0-8.621094 1.417969-17.519531 4.214844-26.445313.546875-1.753906 1.777344-3.207031 3.414062-4.039062 1.632813-.832032 3.542969-.96875 5.273438-.394532 36.429688 12.261719 82.726562 19.015626 130.359375 19.015626 47.457031 0 93.613281-6.699219 129.96875-18.867188 1.742187-.574219 3.640625-.441406 5.273437.390625 1.636719.839844 2.867188 2.300781 3.410157 4.054687 2.683593 8.621094 4.042969 17.464844 4.042969 26.285157 0 61.300781-64.136719 111.167969-142.976563 111.167969zm-127.527344-126.878907c-1.199219 5.332031-1.800781 10.59375-1.800781 15.714844 0 53.765625 58.015625 97.511719 129.324219 97.511719 71.3125 0 129.328125-43.746094 129.328125-97.511719 0-5.195313-.5625-10.410156-1.671875-15.566406-36.542969 11.210937-81.429688 17.351562-127.371094 17.351562-46.136719 0-91.179687-6.1875-127.808594-17.5zm0 0" fill="#4c241d"/>
            <path d="m323.335938 191.84375c-1.808594 0-3.621094-.71875-4.960938-2.140625-1.613281-1.703125-3.296875-3.371094-5.042969-5-2.761719-2.566406-2.917969-6.886719-.351562-9.644531 2.574219-2.761719 6.890625-2.914063 9.648437-.355469 1.964844 1.828125 3.859375 3.707031 5.671875 5.628906 2.585938 2.738281 2.464844 7.058594-.273437 9.644531-1.320313 1.25-3.007813 1.867188-4.691406 1.867188zm0 0" fill="#4c241d"/>
            <path d="m290.671875 189.3125c0 4.9375-4.003906 8.941406-8.941406 8.941406-4.941407 0-8.945313-4.003906-8.945313-8.941406s4.003906-8.941406 8.945313-8.941406c4.9375 0 8.941406 4.003906 8.941406 8.941406zm0 0" fill="#4c241d"/>
            <path d="m153.558594 189.3125c0 4.9375-4.003906 8.941406-8.941406 8.941406-4.941407 0-8.945313-4.003906-8.945313-8.941406s4.003906-8.941406 8.945313-8.941406c4.9375 0 8.941406 4.003906 8.941406 8.941406zm0 0" fill="#4c241d"/>
            <path d="m213.171875 355.15625c-3.769531 0-6.824219-3.050781-6.824219-6.824219v-61.441406c0-3.773437 3.054688-6.828125 6.824219-6.828125s6.828125 3.054688 6.828125 6.828125v61.441406c0 3.773438-3.058594 6.824219-6.828125 6.824219zm0 0" fill="#4c241d"/>
            <path d="m297.375 332.40625c-2.160156 0-4.28125-1.023438-5.609375-2.929688l-36.410156-52.339843c-2.152344-3.089844-1.386719-7.351563 1.703125-9.503907 3.109375-2.15625 7.359375-1.382812 9.503906 1.707032l36.410156 52.339844c2.152344 3.089843 1.390625 7.351562-1.703125 9.503906-1.191406.828125-2.550781 1.222656-3.894531 1.222656zm0 0" fill="#4c241d"/>
            <path d="m128.96875 332.40625c-1.34375 0-2.703125-.394531-3.890625-1.222656-3.09375-2.152344-3.859375-6.414063-1.703125-9.503906l36.40625-52.339844c2.160156-3.089844 6.40625-3.863282 9.503906-1.707032 3.09375 2.152344 3.859375 6.414063 1.703125 9.503907l-36.410156 52.339843c-1.324219 1.910157-3.449219 2.929688-5.609375 2.929688zm0 0" fill="#4c241d"/>
        </g>
        <g transform="matrix(0.0475737638771534 0 0 0.0475737638771534 165 165)" id="L1_7">
            <path d="m317.722656 194.761719c0 84.832031-68.769531 153.601562-153.597656 153.601562-84.832031 0-153.601562-68.769531-153.601562-153.601562s68.769531-153.601563 153.601562-153.601563c84.828125 0 153.597656 68.769532 153.597656 153.601563zm0 0" fill="#c1dbdc"/>
            <g fill="#4c241d">
                <path d="m379.164062 102.875c-3.769531 0-6.828124-3.054688-6.828124-6.828125v-20.640625c0-3.773438 3.058593-6.824219 6.828124-6.824219 3.769532 0 6.824219 3.050781 6.824219 6.824219v20.640625c0 3.773437-3.054687 6.828125-6.824219 6.828125zm0 0"/>
                <path d="m379.164062 54.699219c-3.769531 0-6.828124-3.050781-6.828124-6.824219v-20.640625c0-3.773437 3.058593-6.828125 6.828124-6.828125 3.769532 0 6.824219 3.054688 6.824219 6.828125v20.640625c0 3.773438-3.054687 6.824219-6.824219 6.824219zm0 0"/>
                <path d="m413.574219 68.46875h-20.648438c-3.769531 0-6.828125-3.054688-6.828125-6.828125s3.058594-6.824219 6.828125-6.824219h20.648438c3.769531 0 6.824219 3.050782 6.824219 6.824219s-3.054688 6.828125-6.824219 6.828125zm0 0"/>
                <path d="m365.398438 68.46875h-20.648438c-3.769531 0-6.824219-3.054688-6.824219-6.828125s3.054688-6.824219 6.824219-6.824219h20.648438c3.769531 0 6.828124 3.050782 6.828124 6.824219s-3.058593 6.828125-6.828124 6.828125zm0 0"/>
                <path d="m43.472656 407.5625c-3.421875 0-6.804687-.839844-9.902344-2.496094-4.964843-2.652344-8.589843-7.085937-10.222656-12.472656-1.628906-5.375-1.070312-11.074219 1.585938-16.035156 2.652344-4.960938 7.074218-8.585938 12.460937-10.21875 11.109375-3.359375 22.890625 2.933594 26.257813 14.046875 1.632812 5.378906 1.070312 11.078125-1.582032 16.039062-2.65625 4.957031-7.078124 8.585938-12.460937 10.21875-2.019531.617188-4.085937.917969-6.136719.917969zm.023438-28.476562c-.710938 0-1.429688.105468-2.144532.320312-3.90625 1.1875-6.117187 5.328125-4.9375 9.234375.574219 1.894531 1.851563 3.453125 3.59375 4.386719 1.742188.925781 3.757813 1.117187 5.640626.550781 1.890624-.570313 3.445312-1.84375 4.378906-3.589844.933594-1.746093 1.128906-3.746093.554687-5.640625-.964843-3.195312-3.910156-5.261718-7.085937-5.261718zm0 0"/>
                <path d="m220.828125 42.3125c-11.609375 0-21.054687-9.445312-21.054687-21.050781 0-11.617188 9.445312-21.0625 21.054687-21.0625 11.613281 0 21.058594 9.445312 21.058594 21.0625 0 11.605469-9.445313 21.050781-21.058594 21.050781zm0-28.457031c-4.082031 0-7.402344 3.320312-7.402344 7.40625 0 4.082031 3.320313 7.398437 7.402344 7.398437 4.085937 0 7.40625-3.316406 7.40625-7.398437 0-4.085938-3.320313-7.40625-7.40625-7.40625zm0 0"/>
                <path d="m393.871094 164.617188c0 5.082031-4.121094 9.203124-9.203125 9.203124s-9.203125-4.121093-9.203125-9.203124c0-5.082032 4.121094-9.199219 9.203125-9.199219s9.203125 4.117187 9.203125 9.199219zm0 0"/>
                <path d="m387.742188 387.480469c-1.746094 0-3.492188-.667969-4.824219-2-2.667969-2.667969-2.667969-6.988281 0-9.652344l20.125-20.121094c2.664062-2.664062 6.988281-2.664062 9.652343 0 2.667969 2.664063 2.667969 6.988281 0 9.652344l-20.125 20.121094c-1.335937 1.335937-3.082031 2-4.828124 2zm0 0"/>
                <path d="m407.871094 387.480469c-1.746094 0-3.496094-.667969-4.828125-2l-20.125-20.121094c-2.667969-2.664063-2.667969-6.988281 0-9.652344 2.660156-2.664062 6.984375-2.664062 9.652343 0l20.125 20.121094c2.667969 2.664063 2.667969 6.984375 0 9.652344-1.328124 1.335937-3.078124 2-4.824218 2zm0 0"/>
                <path d="m22.621094 56.28125c-1.746094 0-3.492188-.667969-4.824219-2-2.667969-2.667969-2.667969-6.988281 0-9.652344l26.738281-26.734375c2.667969-2.664062 6.988282-2.664062 9.652344 0 2.667969 2.664063 2.667969 6.988281 0 9.652344l-26.738281 26.734375c-1.332031 1.332031-3.078125 2-4.828125 2zm0 0"/>
                <path d="m49.363281 56.28125c-1.746093 0-3.496093-.667969-4.828125-2l-26.738281-26.734375c-2.667969-2.664063-2.667969-6.988281 0-9.652344 2.664063-2.664062 6.984375-2.664062 9.652344 0l26.738281 26.734375c2.667969 2.664063 2.667969 6.984375 0 9.652344-1.332031 1.332031-3.078125 2-4.824219 2zm0 0"/>
            </g>
            <path d="m128.480469 390.277344c-39.171875-20.382813-65-55.304688-65-94.964844 0-62.875 64.925781-113.847656 145.015625-113.847656s145.015625 50.96875 145.015625 113.847656-64.925781 113.851562-145.015625 113.851562c-6.890625 0-13.667969-.378906-20.304688-1.109374" fill="#ffec95"/>
            <path d="m208.496094 415.988281c-7.078125 0-14.164063-.390625-21.054688-1.148437-3.746094-.414063-6.449218-3.789063-6.035156-7.539063.417969-3.746093 3.890625-6.386719 7.539062-6.035156 6.390626.707031 12.972657 1.066406 19.550782 1.066406 76.195312 0 138.191406-48.003906 138.191406-107.019531 0-59.011719-61.992188-107.027344-138.191406-107.027344-76.195313 0-138.191406 48.015625-138.191406 107.027344 0 35.6875 22.925781 68.929688 61.324218 88.90625 3.347656 1.742188 4.648438 5.863281 2.90625 9.210938-1.738281 3.332031-5.863281 4.636718-9.207031 2.898437-43-22.375-68.675781-60.132813-68.675781-101.015625 0-66.539062 68.117187-120.679688 151.84375-120.679688 83.726562 0 151.84375 54.140626 151.84375 120.679688s-68.117188 120.675781-151.84375 120.675781zm0 0" fill="#4c241d"/>
            <path d="m18.40625 137.3125c0 5.082031-4.121094 9.203125-9.203125 9.203125s-9.203125-4.121094-9.203125-9.203125 4.121094-9.203125 9.203125-9.203125 9.203125 4.121094 9.203125 9.203125zm0 0" fill="#4c241d"/>
            <path d="m257.945312 142.839844 4.535157-31.75c2.367187-16.566406 11.414062-31.445313 25.03125-41.171875l36.367187-25.976563-22.542968 39.445313c-6.753907 11.824219-9.378907 25.5625-7.453126 39.046875l5.273438 36.890625zm0 0" fill="#6b4f5b"/>
            <path d="m299.15625 166.15625c-.855469 0-1.714844-.164062-2.535156-.488281l-41.210938-16.484375c-2.921875-1.175782-4.664062-4.1875-4.21875-7.308594l4.535156-31.746094c2.617188-18.328125 12.757813-35.007812 27.820313-45.761718l36.367187-25.980469c2.601563-1.871094 6.160157-1.660157 8.542969.488281 2.382813 2.152344 2.945313 5.664062 1.351563 8.453125l-22.539063 39.445313c-5.972656 10.453124-8.328125 22.78125-6.625 34.695312l5.269531 36.890625c.347657 2.414063-.621093 4.828125-2.539062 6.335937-1.222656.960938-2.714844 1.460938-4.21875 1.460938zm-33.695312-27.660156 25.269531 10.105468-3.601563-25.199218c-2.132812-14.90625.8125-30.320313 8.285156-43.402344l7.078126-12.394531-11.011719 7.867187c-12.042969 8.601563-20.148438 21.933594-22.238281 36.585938zm0 0" fill="#4c241d"/>
            <path d="m159.046875 142.839844-4.539063-31.75c-2.367187-16.566406-11.410156-31.445313-25.027343-41.171875l-36.367188-25.976563 22.539063 39.449219c6.757812 11.824219 9.382812 25.5625 7.453125 39.042969l-5.269531 36.890625zm0 0" fill="#6b4f5b"/>
            <path d="m117.835938 166.15625c-1.507813 0-2.996094-.5-4.21875-1.460938-1.914063-1.507812-2.886719-3.921874-2.539063-6.332031l5.269531-36.894531c1.703125-11.914062-.648437-24.238281-6.621094-34.691406l-22.539062-39.449219c-1.59375-2.789063-1.03125-6.300781 1.347656-8.453125 2.390625-2.152344 5.949219-2.355469 8.546875-.488281l36.367188 25.980469c15.0625 10.753906 25.203125 27.433593 27.820312 45.761718l4.535157 31.746094c.445312 3.121094-1.296876 6.132812-4.222657 7.308594l-41.207031 16.484375c-.824219.324219-1.683594.488281-2.539062.488281zm-3.335938-98.546875 7.078125 12.390625c7.472656 13.082031 10.417969 28.496094 8.285156 43.402344l-3.601562 25.199218 25.269531-10.105468-3.777344-26.4375c-2.09375-14.652344-10.203125-27.984375-22.242187-36.585938zm0 0" fill="#4c241d"/>
            <path d="m208.496094 126.359375c-91.035156 0-164.832032 80.074219-164.832032 148.347656 0 47.796875 32.304688 93.292969 85.613282 76.714844 51.875-16.136719 106.566406-16.136719 158.4375 0 53.308594 16.578125 85.617187-28.917969 85.617187-76.714844-.003906-68.273437-73.800781-148.347656-164.835937-148.347656zm0 0" fill="#f53e28"/>
            <path d="m309.386719 361.734375c-7.609375 0-15.542969-1.261719-23.699219-3.796875-50.5-15.703125-103.886719-15.703125-154.386719 0-22.847656 7.109375-43.96875 4.195312-61.078125-8.398438-20.59375-15.160156-33.386718-43.832031-33.386718-74.832031 0-35.367187 18.835937-74.507812 50.382812-104.710937 34-32.542969 77.070312-50.464844 121.277344-50.464844 44.207031 0 87.277344 17.921875 121.277344 50.464844 31.546874 30.203125 50.382812 69.34375 50.382812 104.710937 0 31-12.792969 59.671875-33.386719 74.832031-11.003906 8.101563-23.671875 12.195313-37.382812 12.195313zm-100.890625-29.234375c27.339844 0 54.671875 4.136719 81.246094 12.402344 18.527343 5.765625 35.453124 3.558594 48.933593-6.355469 17.164063-12.636719 27.828125-37.097656 27.828125-63.839844 0-64.097656-70.480468-141.519531-158.007812-141.519531s-158.007813 77.421875-158.007813 141.519531c0 26.738281 10.664063 51.199219 27.828125 63.839844 13.480469 9.914063 30.398438 12.125 48.933594 6.355469 26.574219-8.269532 53.910156-12.402344 81.246094-12.402344zm0 0" fill="#4c241d"/>
            <path d="m356.847656 249.984375c0 27.3125-22.140625 49.449219-49.453125 49.449219-27.308593 0-49.449219-22.136719-49.449219-49.449219s22.140626-49.449219 49.449219-49.449219c27.3125 0 49.453125 22.136719 49.453125 49.449219zm0 0" fill="#ffffff"/>
            <path d="m307.394531 306.261719c-31.027343 0-56.277343-25.246094-56.277343-56.28125 0-31.027344 25.25-56.273438 56.277343-56.273438 31.03125 0 56.277344 25.246094 56.277344 56.273438 0 31.035156-25.246094 56.28125-56.277344 56.28125zm0-98.902344c-23.5 0-42.621093 19.121094-42.621093 42.621094 0 23.507812 19.117187 42.628906 42.621093 42.628906 23.507813 0 42.625-19.121094 42.625-42.628906 0-23.5-19.121093-42.621094-42.625-42.621094zm0 0" fill="#4c241d"/>
            <path d="m332.410156 249.984375c0 13.816406-11.199218 25.015625-25.015625 25.015625-13.8125 0-25.011719-11.199219-25.011719-25.015625s11.199219-25.015625 25.011719-25.015625c13.816407 0 25.015625 11.199219 25.015625 25.015625zm0 0" fill="#6b4f5b"/>
            <path d="m307.394531 281.828125c-17.554687 0-31.835937-14.289063-31.835937-31.847656 0-17.550781 14.28125-31.839844 31.835937-31.839844 17.5625 0 31.84375 14.289063 31.84375 31.839844 0 17.558593-14.28125 31.847656-31.84375 31.847656zm0-50.035156c-10.023437 0-18.183593 8.160156-18.183593 18.1875 0 10.035156 8.160156 18.195312 18.183593 18.195312 10.03125 0 18.191407-8.160156 18.191407-18.195312 0-10.027344-8.160157-18.1875-18.191407-18.1875zm0 0" fill="#4c241d"/>
            <path d="m150.804688 249.984375c0 27.3125-22.140626 49.449219-49.449219 49.449219-27.3125 0-49.453125-22.136719-49.453125-49.449219s22.140625-49.449219 49.453125-49.449219c27.308593 0 49.449219 22.136719 49.449219 49.449219zm0 0" fill="#ffffff"/>
            <path d="m101.351562 306.261719c-31.03125 0-56.277343-25.246094-56.277343-56.28125 0-31.027344 25.246093-56.273438 56.277343-56.273438s56.277344 25.246094 56.277344 56.273438c0 31.035156-25.246094 56.28125-56.277344 56.28125zm0-98.902344c-23.503906 0-42.625 19.121094-42.625 42.621094 0 23.507812 19.121094 42.628906 42.625 42.628906 23.503907 0 42.625-19.121094 42.625-42.628906 0-23.5-19.121093-42.621094-42.625-42.621094zm0 0" fill="#4c241d"/>
            <path d="m126.367188 249.984375c0 13.816406-11.199219 25.015625-25.011719 25.015625-13.816407 0-25.015625-11.199219-25.015625-25.015625s11.199218-25.015625 25.015625-25.015625c13.8125 0 25.011719 11.199219 25.011719 25.015625zm0 0" fill="#6b4f5b"/>
            <path d="m101.351562 281.828125c-17.554687 0-31.839843-14.289063-31.839843-31.847656 0-17.550781 14.285156-31.839844 31.839843-31.839844 17.558594 0 31.84375 14.289063 31.84375 31.839844 0 17.558593-14.285156 31.847656-31.84375 31.847656zm0-50.035156c-10.027343 0-18.1875 8.160156-18.1875 18.1875 0 10.035156 8.160157 18.195312 18.1875 18.195312 10.03125 0 18.191407-8.160156 18.191407-18.195312 0-10.027344-8.160157-18.1875-18.191407-18.1875zm0 0" fill="#4c241d"/>
            <path d="m307.394531 229.378906c0 6.828125-5.535156 12.363282-12.363281 12.363282-6.824219 0-12.359375-5.535157-12.359375-12.363282s5.535156-12.363281 12.359375-12.363281c6.828125 0 12.363281 5.535156 12.363281 12.363281zm0 0" fill="#ffffff"/>
            <path d="m119.75 228.894531c0 5.65625-4.585938 10.242188-10.238281 10.242188-5.65625 0-10.242188-4.585938-10.242188-10.242188s4.585938-10.238281 10.242188-10.238281c5.652343 0 10.238281 4.582031 10.238281 10.238281zm0 0" fill="#ffffff"/>
            <path d="m161.597656 403.078125c-4.902344-1.316406-9.6875-2.832031-14.339844-4.535156" fill="#ffec95"/>
            <path d="m161.597656 409.902344c-.582031 0-1.175781-.074219-1.769531-.234375-5.066406-1.355469-10.085937-2.949219-14.921875-4.722657-3.539062-1.292968-5.355469-5.21875-4.058594-8.757812 1.300782-3.535156 5.234375-5.347656 8.757813-4.054688 4.453125 1.632813 9.082031 3.09375 13.757812 4.347657 3.640625.972656 5.804688 4.71875 4.828125 8.359375-.820312 3.046875-3.574218 5.0625-6.59375 5.0625zm0 0" fill="#4c241d"/>
        </g>
        <g transform="matrix(0.09657461196184158 0 0 0.09657461196184158 242.5 67.5)" id="L1_8">
            <path d="m384.128906 242.347656c0 84.828125-68.769531 153.597656-153.601562 153.597656-84.828125 0-153.597656-68.769531-153.597656-153.597656 0-84.832031 68.769531-153.601562 153.597656-153.601562 84.832031 0 153.601562 68.769531 153.601562 153.601562zm0 0" fill="#c1dbdc"/>
            <g fill="#4c241d">
                <path d="m44.269531 39.488281c-1.746093 0-3.492187-.667969-4.824219-2-2.667968-2.667969-2.667968-6.988281 0-9.652343l12.453126-12.457032c2.664062-2.664062 6.984374-2.664062 9.652343 0 2.664063 2.667969 2.664063 6.988282 0 9.65625l-12.453125 12.453125c-1.335937 1.332031-3.082031 2-4.828125 2zm0 0"/>
                <path d="m15.214844 68.539062c-1.746094 0-3.492188-.667968-4.824219-2-2.667969-2.664062-2.667969-6.988281 0-9.652343l12.453125-12.453125c2.664062-2.667969 6.984375-2.667969 9.652344 0 2.664062 2.664062 2.664062 6.988281 0 9.652344l-12.453125 12.453124c-1.332031 1.335938-3.078125 2-4.828125 2zm0 0"/>
                <path d="m27.667969 39.488281c-1.746094 0-3.492188-.667969-4.824219-2l-12.453125-12.453125c-2.667969-2.667968-2.667969-6.988281 0-9.65625 2.664063-2.664062 6.984375-2.664062 9.652344 0l12.453125 12.457032c2.664062 2.664062 2.664062 6.984374 0 9.652343-1.332032 1.332031-3.082032 2-4.828125 2zm0 0"/>
                <path d="m56.722656 68.539062c-1.746094 0-3.496094-.667968-4.828125-2l-12.453125-12.453124c-2.664062-2.664063-2.664062-6.988282 0-9.652344 2.667969-2.667969 6.988282-2.667969 9.652344 0l12.453125 12.453125c2.667969 2.664062 2.667969 6.988281 0 9.652343-1.332031 1.335938-3.078125 2-4.824219 2zm0 0"/>
                <path d="m21.136719 414.1875c-3.421875 0-6.808594-.839844-9.90625-2.492188-4.960938-2.65625-8.585938-7.082031-10.222657-12.46875-1.632812-5.378906-1.0664058-11.078124 1.582032-16.039062 2.652344-4.960938 7.078125-8.585938 12.46875-10.21875 5.378906-1.640625 11.070312-1.074219 16.039062 1.585938 4.957032 2.65625 8.585938 7.078124 10.21875 12.460937v.007813c3.359375 11.105468-2.941406 22.886718-14.046875 26.253906-2.019531.609375-4.082031.910156-6.132812.910156zm.03125-28.472656c-.71875 0-1.445313.105468-2.152344.320312-1.894531.574219-3.453125 1.851563-4.386719 3.589844-.925781 1.746094-1.125 3.746094-.554687 5.640625.574219 1.894531 1.855469 3.453125 3.59375 4.386719 1.753906.933594 3.753906 1.121094 5.640625.554687 3.898437-1.179687 6.121094-5.328125 4.941406-9.234375-.574219-1.890625-1.855469-3.445312-3.59375-4.378906-1.09375-.585938-2.285156-.878906-3.488281-.878906zm0 0"/>
                <path d="m362.328125 42.113281c-11.613281 0-21.058594-9.445312-21.058594-21.054687 0-11.613282 9.445313-21.058594 21.058594-21.058594 11.617187 0 21.0625 9.445312 21.0625 21.058594 0 11.609375-9.445313 21.054687-21.0625 21.054687zm0-28.460937c-4.085937 0-7.40625 3.320312-7.40625 7.40625 0 4.082031 3.320313 7.402344 7.40625 7.402344 4.089844 0 7.410156-3.320313 7.410156-7.402344 0-4.085938-3.324219-7.40625-7.410156-7.40625zm0 0"/>
                <path d="m282.785156 27.886719c0 5.082031-4.121094 9.199219-9.203125 9.199219s-9.203125-4.117188-9.203125-9.199219 4.121094-9.203125 9.203125-9.203125 9.203125 4.121094 9.203125 9.203125zm0 0"/>
                <path d="m23.371094 123.457031c0 5.082031-4.121094 9.203125-9.203125 9.203125s-9.199219-4.121094-9.199219-9.203125 4.117188-9.199219 9.199219-9.199219 9.203125 4.117188 9.203125 9.199219zm0 0"/>
            </g>
            <path d="m260.113281 109.871094v-.476563c0-12.816406-8.90625-24.535156-23.003906-30.269531-14.210937-5.777344-21.582031-18.804688-17.730469-31.339844l5.238282-17.03125v-19.246094l-11.734376 14.316407c-7.757812 9.457031-18.972656 16.699219-32.066406 20.6875-15.882812 4.84375-25.484375 18.015625-23.085937 31.671875 1.164062 6.613281-.808594 13.339844-5.519531 18.820312l-2.292969 2.667969c-64.460938 14.042969-111.929688 61.851563-111.929688 118.691406 0 67.875 67.664063 122.894531 151.132813 122.894531 83.464844 0 151.132812-55.019531 151.132812-122.894531 0-47-32.460937-87.820312-80.140625-108.492187zm0 0" fill="#b5a19c"/>
            <path d="m189.125 348.085938c-87.101562 0-157.960938-58.191407-157.960938-129.71875 0-58.128907 47.191407-109.199219 115.058594-124.859376l.828125-.960937c3.351563-3.90625 4.765625-8.59375 3.957031-13.179687-2.980468-17 8.71875-33.558594 27.8125-39.386719 11.886719-3.621094 21.84375-10.011719 28.78125-18.480469l11.734376-14.320312c1.816406-2.234376 4.847656-3.09375 7.578124-2.097657 2.714844.964844 4.527344 3.539063 4.527344 6.425781v19.246094c0 .679688-.101562 1.355469-.300781 2.007813l-5.234375 17.03125c-2.800781 9.113281 2.859375 18.574219 13.773438 23.007812 15.359374 6.246094 25.402343 18.484375 27.027343 32.546875 49.6875 23.003906 80.375 65.976563 80.375 113.019532 0 71.527343-70.859375 129.71875-157.957031 129.71875zm28.238281-316.980469c-8.601562 10.089843-20.519531 17.65625-34.554687 21.9375-12.605469 3.84375-20.152344 13.699219-18.351563 23.957031 1.527344 8.6875-.980469 17.375-7.0625 24.453125l-2.3125 2.679687c-.964843 1.121094-2.265625 1.894532-3.714843 2.214844-62.738282 13.660156-106.554688 59.726563-106.554688 112.019532 0 64 64.734375 116.066406 144.308594 116.066406 79.574218 0 144.308594-52.066406 144.308594-116.066406 0-42.726563-29.132813-81.898438-76.027344-102.226563-2.5-1.085937-4.113282-3.546875-4.113282-6.265625v-.480469c0-10.066406-7.1875-19.238281-18.753906-23.9375-17.445312-7.101562-26.566406-23.78125-21.679687-39.675781zm0 0" fill="#4c241d"/>
            <path d="m365.402344 394.105469c-1.746094 0-3.492188-.664063-4.824219-2-2.667969-2.664063-2.667969-6.984375 0-9.652344l20.125-20.121094c2.667969-2.664062 6.988281-2.664062 9.652344 0 2.667969 2.667969 2.667969 6.988281 0 9.65625l-20.125 20.117188c-1.332031 1.335937-3.082031 2-4.828125 2zm0 0" fill="#4c241d"/>
            <path d="m293.585938 327.757812c16.089843-15.226562 25.730468-34.019531 25.730468-54.441406 0-50.535156-54.777344-133.730468-126.691406-133.730468s-133.730469 83.195312-133.730469 133.730468c0 19.175782 8.425781 36.957032 22.773438 51.660156l-12.726563 12.050782c-6.628906 6.277344-6.191406 16.957031.921875 22.671875l25.152344 20.199219c7.117187 5.714843 17.640625 3.835937 22.335937-3.992188l12.675782-21.121094c8.367187 3 17.25 5.351563 26.542968 7.035156l-1.851562 13.507813c-1.238281 9.039063 5.789062 17.097656 14.917969 17.097656h32.257812c9.128907 0 16.15625-8.058593 14.917969-17.097656l-1.691406-12.347656c10.058594-1.433594 19.632812-3.761719 28.703125-6.722657l7.503906 16.957032c3.691406 8.34375 13.902344 11.511718 21.671875 6.722656l27.453125-16.9375c7.769531-4.792969 9.523437-15.335938 3.71875-22.382812zm0 0" fill="#efefd2"/>
            <path d="m201.894531 399.253906h-32.257812c-6.320313 0-12.335938-2.734375-16.488281-7.492187-4.160157-4.769531-6.046876-11.09375-5.191407-17.363281l.980469-7.140626c-5.445312-1.183593-10.753906-2.605468-15.886719-4.238281l-9.84375 16.398438c-3.257812 5.421875-8.691406 9.175781-14.917969 10.28125-6.238281 1.125-12.625-.527344-17.546874-4.480469l-25.152344-20.199219c-4.933594-3.960937-7.90625-9.855469-8.160156-16.167969-.257813-6.320312 2.226562-12.433593 6.820312-16.789062l7.859375-7.4375c-13.132813-15.414062-20.039063-33.027344-20.039063-51.3125 0-54.222656 64.324219-140.550781 140.550782-140.550781 73.703125 0 133.519531 85.042969 133.519531 140.550781 0 19.757812-8.054687 38.613281-23.351563 54.878906l6.65625 8.085938c4.015626 4.886718 5.726563 11.261718 4.6875 17.5-1.039062 6.242187-4.71875 11.714844-10.097656 15.035156l-27.449218 16.933594c-5.386719 3.320312-11.953126 4.140625-17.980469 2.273437-6.039063-1.875-10.964844-6.265625-13.519531-12.046875l-5.050782-11.40625c-5.734375 1.660156-11.5 3.019532-17.246094 4.078125l.785157 5.753907c.851562 6.265624-1.03125 12.59375-5.195313 17.359374-4.148437 4.761719-10.164062 7.496094-16.484375 7.496094zm-71.863281-51.292968c.765625 0 1.546875.125 2.304688.398437 7.980468 2.859375 16.546874 5.132813 25.449218 6.738281 3.597656.65625 6.046875 4.019532 5.550782 7.648438l-1.84375 13.503906c-.335938 2.394531.359374 4.714844 1.945312 6.527344 1.585938 1.820312 3.789062 2.820312 6.199219 2.820312h32.261719c2.414062 0 4.613281-1 6.199218-2.820312 1.585938-1.8125 2.28125-4.132813 1.949219-6.527344l-1.6875-12.34375c-.507813-3.722656 2.085937-7.152344 5.804687-7.6875 9.148438-1.300781 18.421876-3.472656 27.542969-6.453125 3.351563-1.078125 6.9375.527344 8.359375 3.726563l7.503906 16.957031c.980469 2.210937 2.789063 3.816406 5.085938 4.53125 2.292969.699219 4.707031.417969 6.765625-.855469l27.449219-16.929688c2.050781-1.269531 3.40625-3.273437 3.800781-5.65625.394531-2.378906-.234375-4.71875-1.765625-6.578124l-10.59375-12.867188c-2.28125-2.773438-2.027344-6.832031.578125-9.296875 15.441406-14.601563 23.601563-31.707031 23.601563-49.480469 0-74.566406-77.761719-126.898437-119.867188-126.898437-67.585938 0-126.898438 79.09375-126.898438 126.898437 0 16.710938 7.207032 32.925782 20.832032 46.898438 1.28125 1.308594 1.972656 3.074218 1.941406 4.898437-.039062 1.835938-.808594 3.570313-2.132812 4.828125l-12.726563 12.046875c-1.753906 1.660157-2.667969 3.898438-2.566406 6.3125.101562 2.40625 1.183593 4.566407 3.066406 6.078125l25.152344 20.203125c1.878906 1.507813 4.214843 2.078125 6.601562 1.679688 2.378907-.429688 4.371094-1.800781 5.609375-3.867188l12.675782-21.121093c1.257812-2.101563 3.507812-3.3125 5.851562-3.3125zm0 0" fill="#4c241d"/>
            <path d="m385.53125 394.105469c-1.746094 0-3.496094-.664063-4.828125-2l-20.125-20.117188c-2.667969-2.667969-2.667969-6.988281 0-9.65625 2.664063-2.664062 6.984375-2.664062 9.652344 0l20.125 20.121094c2.667969 2.667969 2.667969 6.988281 0 9.652344-1.332031 1.335937-3.078125 2-4.824219 2zm0 0" fill="#4c241d"/>
            <path d="m149.996094 218.835938c-5.3125-5.480469-12.726563-8.914063-20.984375-8.914063h-.511719c-7.921875 0-15.609375 3.289063-20.816406 9.261719-11.117188 12.738281-17.824219 26.683594-19.949219 41.882812-2.894531 20.675782 12.933594 39.113282 33.578125 40.007813.519531.023437 1.027344.085937 1.554688.085937 19.535156 0 35.371093-15.835937 35.371093-35.371094v-26.710937c0-7.878906-3.15625-14.996094-8.242187-20.242187zm0 0" fill="#ffffff"/>
            <path d="m122.863281 307.988281c-.488281 0-.960937-.027343-1.433593-.066406-12.316407-.539063-23.519532-6.101563-31.15625-15.273437-7.539063-9.054688-10.929688-20.914063-9.304688-32.527344 2.285156-16.359375 9.546875-31.648438 21.566406-45.425782 6.429688-7.375 15.886719-11.601562 25.960938-11.601562 10.339844 0 19.53125 3.898438 26.398437 10.988281 6.554688 6.757813 10.167969 15.640625 10.167969 24.992188v26.714843c0 23.265626-18.933594 42.199219-42.199219 42.199219zm6.144531-91.242187c-6.640624 0-12.34375 2.519531-16.175781 6.921875-10.253906 11.753906-16.429687 24.652343-18.339843 38.347656-1.109376 7.925781 1.117187 15.707031 6.277343 21.898437 5.179688 6.222657 12.773438 9.992188 20.835938 10.339844.09375 0 .84375.054688.910156.054688 16.113281 0 28.894531-12.792969 28.894531-28.519532v-26.714843c0-5.785157-2.238281-11.285157-6.3125-15.484375-4.28125-4.417969-9.988281-6.84375-16.089844-6.84375zm0 0" fill="#4c241d"/>
            <path d="m143.28125 243.796875c-14.929688 0-27.035156 13.832031-27.035156 30.894531 0 10.867188 4.933594 20.382813 12.355468 25.890625 16.789063-2.753906 29.636719-17.222656 29.636719-34.792969v-16.816406c-4.285156-3.261718-9.421875-5.175781-14.957031-5.175781zm0 0" fill="#bd53b5"/>
            <path d="m128.601562 307.40625c-1.453124 0-2.878906-.464844-4.066406-1.339844-9.457031-7.019531-15.113281-18.746094-15.113281-31.375 0-20.800781 15.1875-37.722656 33.863281-37.722656 6.839844 0 13.4375 2.273438 19.085938 6.574219 1.699218 1.292969 2.695312 3.300781 2.695312 5.433593v16.8125c0 20.707032-14.867187 38.167969-35.355468 41.527344-.367188.066406-.742188.089844-1.109376.089844zm14.679688-56.785156c-11.136719 0-20.207031 10.800781-20.207031 24.070312 0 7.242188 2.714843 13.957032 7.375 18.507813 12.304687-3.351563 20.957031-14.4375 20.957031-27.410157v-13.109374c-2.550781-1.351563-5.316406-2.058594-8.125-2.058594zm0 0" fill="#4c241d"/>
            <path d="m221.535156 218.835938c5.3125-5.480469 12.730469-8.914063 20.984375-8.914063h.515625c7.921875 0 15.605469 3.289063 20.816406 9.261719 11.113282 12.738281 17.820313 26.683594 19.949219 41.882812 2.894531 20.675782-12.9375 39.113282-33.578125 40.007813-.519531.023437-1.03125.085937-1.554687.085937-19.535157 0-35.375-15.835937-35.375-35.371094v-26.710937c0-7.878906 3.160156-14.996094 8.242187-20.242187zm0 0" fill="#ffffff"/>
            <path d="m248.667969 307.988281c-23.265625 0-42.199219-18.933593-42.199219-42.203125v-26.710937c0-9.351563 3.613281-18.234375 10.167969-24.996094 6.863281-7.085937 16.058593-10.988281 25.886719-10.988281 10.585937 0 20.042968 4.230468 26.472656 11.601562 12.019531 13.78125 19.28125 29.066406 21.566406 45.425782 1.625 11.613281-1.765625 23.472656-9.304688 32.527343-7.636718 9.175781-18.839843 14.734375-30.742187 15.25-.886719.066407-1.359375.09375-1.847656.09375zm-22.230469-84.402343c-4.074219 4.199218-6.3125 9.703124-6.3125 15.488281v26.710937c0 15.742188 12.804688 28.546875 28.546875 28.546875.085937-.003906 1.207031-.078125 1.292969-.078125 8.027344-.347656 15.617187-4.121094 20.800781-10.339844 5.160156-6.195312 7.386719-13.976562 6.28125-21.902343-1.914063-13.691407-8.085937-26.59375-18.339844-38.347657-3.835937-4.398437-9.542969-6.917968-15.667969-6.917968-6.617187 0-12.324218 2.425781-16.601562 6.839844zm0 0" fill="#4c241d"/>
            <path d="m228.25 243.796875c14.933594 0 27.035156 13.832031 27.035156 30.894531 0 10.867188-4.933594 20.382813-12.351562 25.890625-16.792969-2.753906-29.640625-17.222656-29.640625-34.792969v-16.816406c4.285156-3.261718 9.421875-5.175781 14.957031-5.175781zm0 0" fill="#bd53b5"/>
            <path d="m242.929688 307.40625c-.367188 0-.742188-.027344-1.105469-.09375-20.488281-3.359375-35.355469-20.820312-35.355469-41.527344v-16.8125c0-2.132812.996094-4.140625 2.695312-5.433594 5.644532-4.300781 12.246094-6.574218 19.085938-6.574218 18.671875 0 33.859375 16.925781 33.859375 37.726562 0 12.625-5.652344 24.351563-15.109375 31.371094-1.191406.878906-2.617188 1.34375-4.070312 1.34375zm-22.804688-54.726562v13.109374c0 12.972657 8.652344 24.058594 20.957031 27.410157 4.660157-4.550781 7.375-11.265625 7.375-18.507813 0-13.269531-9.066406-24.070312-20.207031-24.070312-2.808594 0-5.574219.707031-8.125 2.058594zm0 0" fill="#4c241d"/>
        </g>
    </defs>
    <g fi:class="KUsePattern">
        <pattern id="pattern_L1_1" width="350" height="350" patternUnits="userSpaceOnUse">
            <use xlink:href="#L1_1" x="-350" y="-350"/>
            <use xlink:href="#L1_1" x="0" y="-350"/>
            <use xlink:href="#L1_1" x="350" y="-350"/>
            <use xlink:href="#L1_1" x="-350" y="0"/>
            <use xlink:href="#L1_1" x="0" y="0"/>
            <use xlink:href="#L1_1" x="350" y="0"/>
            <use xlink:href="#L1_1" x="-350" y="350"/>
            <use xlink:href="#L1_1" x="0" y="350"/>
            <use xlink:href="#L1_1" x="350" y="350"/>
        </pattern>
        <rect x="0" y="0" width="100%" height="100%" fill="url(#pattern_L1_1)"/>
    </g>
    <g fi:class="KUsePattern">
        <pattern id="pattern_L1_2" width="350" height="350" patternUnits="userSpaceOnUse">
            <use xlink:href="#L1_2" x="-350" y="-350"/>
            <use xlink:href="#L1_2" x="0" y="-350"/>
            <use xlink:href="#L1_2" x="350" y="-350"/>
            <use xlink:href="#L1_2" x="-350" y="0"/>
            <use xlink:href="#L1_2" x="0" y="0"/>
            <use xlink:href="#L1_2" x="350" y="0"/>
            <use xlink:href="#L1_2" x="-350" y="350"/>
            <use xlink:href="#L1_2" x="0" y="350"/>
            <use xlink:href="#L1_2" x="350" y="350"/>
        </pattern>
        <rect x="0" y="0" width="100%" height="100%" fill="url(#pattern_L1_2)"/>
    </g>
    <g fi:class="KUsePattern">
        <pattern id="pattern_L1_3" width="350" height="350" patternUnits="userSpaceOnUse">
            <use xlink:href="#L1_3" x="-350" y="-350"/>
            <use xlink:href="#L1_3" x="0" y="-350"/>
            <use xlink:href="#L1_3" x="350" y="-350"/>
            <use xlink:href="#L1_3" x="-350" y="0"/>
            <use xlink:href="#L1_3" x="0" y="0"/>
            <use xlink:href="#L1_3" x="350" y="0"/>
            <use xlink:href="#L1_3" x="-350" y="350"/>
            <use xlink:href="#L1_3" x="0" y="350"/>
            <use xlink:href="#L1_3" x="350" y="350"/>
        </pattern>
        <rect x="0" y="0" width="100%" height="100%" fill="url(#pattern_L1_3)"/>
    </g>
    <g fi:class="KUsePattern">
        <pattern id="pattern_L1_4" width="350" height="350" patternUnits="userSpaceOnUse">
            <use xlink:href="#L1_4" x="-350" y="-350"/>
            <use xlink:href="#L1_4" x="0" y="-350"/>
            <use xlink:href="#L1_4" x="350" y="-350"/>
            <use xlink:href="#L1_4" x="-350" y="0"/>
            <use xlink:href="#L1_4" x="0" y="0"/>
            <use xlink:href="#L1_4" x="350" y="0"/>
            <use xlink:href="#L1_4" x="-350" y="350"/>
            <use xlink:href="#L1_4" x="0" y="350"/>
            <use xlink:href="#L1_4" x="350" y="350"/>
        </pattern>
        <rect x="0" y="0" width="100%" height="100%" fill="url(#pattern_L1_4)"/>
    </g>
    <g fi:class="KUsePattern">
        <pattern id="pattern_L1_5" width="350" height="350" patternUnits="userSpaceOnUse">
            <use xlink:href="#L1_5" x="-350" y="-350"/>
            <use xlink:href="#L1_5" x="0" y="-350"/>
            <use xlink:href="#L1_5" x="350" y="-350"/>
            <use xlink:href="#L1_5" x="-350" y="0"/>
            <use xlink:href="#L1_5" x="0" y="0"/>
            <use xlink:href="#L1_5" x="350" y="0"/>
            <use xlink:href="#L1_5" x="-350" y="350"/>
            <use xlink:href="#L1_5" x="0" y="350"/>
            <use xlink:href="#L1_5" x="350" y="350"/>
        </pattern>
        <rect x="0" y="0" width="100%" height="100%" fill="url(#pattern_L1_5)"/>
    </g>
    <g fi:class="KUsePattern">
        <pattern id="pattern_L1_6" width="350" height="350" patternUnits="userSpaceOnUse">
            <use xlink:href="#L1_6" x="-350" y="-350"/>
            <use xlink:href="#L1_6" x="0" y="-350"/>
            <use xlink:href="#L1_6" x="350" y="-350"/>
            <use xlink:href="#L1_6" x="-350" y="0"/>
            <use xlink:href="#L1_6" x="0" y="0"/>
            <use xlink:href="#L1_6" x="350" y="0"/>
            <use xlink:href="#L1_6" x="-350" y="350"/>
            <use xlink:href="#L1_6" x="0" y="350"/>
            <use xlink:href="#L1_6" x="350" y="350"/>
        </pattern>
        <rect x="0" y="0" width="100%" height="100%" fill="url(#pattern_L1_6)"/>
    </g>
    <g fi:class="KUsePattern">
        <pattern id="pattern_L1_7" width="350" height="350" patternUnits="userSpaceOnUse">
            <use xlink:href="#L1_7" x="-350" y="-350"/>
            <use xlink:href="#L1_7" x="0" y="-350"/>
            <use xlink:href="#L1_7" x="350" y="-350"/>
            <use xlink:href="#L1_7" x="-350" y="0"/>
            <use xlink:href="#L1_7" x="0" y="0"/>
            <use xlink:href="#L1_7" x="350" y="0"/>
            <use xlink:href="#L1_7" x="-350" y="350"/>
            <use xlink:href="#L1_7" x="0" y="350"/>
            <use xlink:href="#L1_7" x="350" y="350"/>
        </pattern>
        <rect x="0" y="0" width="100%" height="100%" fill="url(#pattern_L1_7)"/>
    </g>
    <g fi:class="KUsePattern">
        <pattern id="pattern_L1_8" width="350" height="350" patternUnits="userSpaceOnUse">
            <use xlink:href="#L1_8" x="-350" y="-350"/>
            <use xlink:href="#L1_8" x="0" y="-350"/>
            <use xlink:href="#L1_8" x="350" y="-350"/>
            <use xlink:href="#L1_8" x="-350" y="0"/>
            <use xlink:href="#L1_8" x="0" y="0"/>
            <use xlink:href="#L1_8" x="350" y="0"/>
            <use xlink:href="#L1_8" x="-350" y="350"/>
            <use xlink:href="#L1_8" x="0" y="350"/>
            <use xlink:href="#L1_8" x="350" y="350"/>
        </pattern>
        <rect x="0" y="0" width="100%" height="100%" fill="url(#pattern_L1_8)"/>
    </g>
</svg>